<?xml version="1.0" encoding="UTF-8" standalone="no"?><!DOCTYPE svg PUBLIC "-//W3C//DTD SVG 1.1//EN" "http://www.w3.org/Graphics/SVG/1.1/DTD/svg11.dtd"><svg width="100%" height="100%" viewBox="0 0 100 100" version="1.1" xmlns="http://www.w3.org/2000/svg" xmlns:xlink="http://www.w3.org/1999/xlink" xml:space="preserve" xmlns:serif="http://www.serif.com/" style="fill-rule:evenodd;clip-rule:evenodd;stroke-linejoin:round;stroke-miterlimit:2;"><rect id="_6" serif:id="6" x="0" y="0" width="100" height="100" style="fill:none;"/><rect x="8.973" y="38.517" width="25" height="25" style="fill:#d9d9d9;"/><rect x="38.221" y="38.517" width="25" height="25" style="fill:#d9d9d9;"/><rect x="68.029" y="38.517" width="25" height="25" style="fill:#d9d9d9;"/><path d="M32.084,35.843l0.109,0.029l0.103,0.047l0.093,0.064l0.08,0.08l0.065,0.092l0.049,0.102l0.029,0.109l0.011,0.113l0.158,20.321l0.033,4.798l-0.008,0.109l-0.025,0.106l-0.041,0.101l-0.057,0.093l-0.071,0.084l-0.083,0.07l0,0.001l-0.093,0.057l-0.101,0.041l-0.106,0.026l-0.109,0.008l-11.221,-0.044l-8.69,-0.044l-5.239,-0.034l-0.119,-0.011l-0.115,-0.032l-0.109,-0.051l-0.097,-0.069l-0.084,-0.085l0,0l-0.068,-0.098l-0.05,-0.109l-0.03,-0.115l-0.01,-0.119l0,-0.22l0.025,-6.996l0.035,-7.303l0.064,-10.386l0.01,-0.097l0.027,-0.093l0.042,-0.087l0.056,-0.078l0.068,-0.067l0.001,0l0.079,-0.054l0.087,-0.039l0.092,-0.024l0.095,-0.007l2.141,0.006l12.868,0.052l9.608,0.046l0.386,0.002l0.001,0.119l-0.002,-0.424l0.113,0.01Zm-9.555,1.106l-12.073,0.147l0.017,0.019l-2.95,0.012l0.006,0.007l0.067,10.099l0.037,6.402l0.026,6.104l0.002,-0.002l0,1.062l0.002,-0.002l5.488,0.017l7.588,0.033l0.001,0.01l10.688,0.051l0.001,0.001l-0.028,-5.426l-0.076,-18.646l-8.796,0.112Z"/><path d="M61.584,35.922l0.088,0.02l0.083,0.033l0.076,0.047l0.069,0.057l0.059,0.068l0.047,0.076l0.034,0.082l0.022,0.087l0.007,0.09l-0.071,10.16l-0.042,8.702l-0.009,4.09l0.002,1.919l-0.006,0.067l-0.017,0.065l-0.028,0.061l-0.039,0.055l-0.047,0.048l0,0l-0.055,0.039l-0.061,0.028l-0.012,0.003l-0.052,0.016l-0.067,0.007l-6.09,0.08l-7.852,0.119l-10.958,0.178l-0.081,-0.004l-0.08,-0.017l-0.077,-0.029l-0.071,-0.042l-0.064,-0.052l-0.054,-0.062l-0.001,0.001l-0.044,-0.07l-0.034,-0.076l-0.021,-0.08l-0.008,-0.083l-0.056,-4.846l-0.196,-17.534l-0.024,-2.442l0.009,-0.118l0.029,-0.114l0.048,-0.108l0.066,-0.098l0.083,-0.085l0,0l0.096,-0.07l0.106,-0.052l0.115,-0.033l0.118,-0.013l2.824,-0.047l5.701,-0.078l2.422,-0.014l2.587,0.008l5.126,0.056l6.177,0.117l0.137,0.004l-0.003,-0.222l0.089,0.006Zm-6.015,1.172l-4.77,0.174l-2.401,0.067l-2.256,0.041l-5.337,0.053l-0.015,-0.017l-3.572,0.041l-0.004,-0.004l0.004,3.029l-0.027,15.395l-0.035,0.02l0.025,5.18l-0.007,0.007l10.629,-0.037l7.017,-0.03l0.009,0.021l5.822,-0.058l-0.001,0l0.523,-0.005l-0.001,-0.002l-0.009,-2.758l-0.028,-3.885l-0.082,-8.256l-0.114,-9.216l-5.37,0.24Z"/><path d="M91.107,35.904l0.099,0.027l0.093,0.043l0.084,0.059l0.072,0.072l0.059,0.084l0.043,0.093l0.027,0.099l0.009,0.102l-0.1,12.697l-0.066,11.185l-0.004,1.118l-0.007,0.072l-0.019,0.07l-0.032,0.066l-0.042,0.058l-0.051,0.051l-0.001,0l-0.059,0.041l-0.066,0.029l-0.069,0.018l-0.072,0.006l-2.449,-0.009l-5.001,-0.005l-4.68,0.015l-4.791,0.032l-8.079,0.076l-0.09,-0.006l-0.089,-0.021l-0.084,-0.037l-0.076,-0.051l-0.067,-0.065l0,0.001l-0.055,-0.075l-0.041,-0.083l-0.01,-0.034l-0.017,-0.056l-0.01,-0.093l-0.083,-9.351l-0.026,-4.747l-0.006,-4.619l0.016,-4.593l0.012,-1.69l0.011,-0.109l0.03,-0.104l0.047,-0.098l0.063,-0.088l0.077,-0.075l0.001,0l0.089,-0.06l0.098,-0.044l0.104,-0.026l0.106,-0.008l1.153,0.008l9.753,0.104l8.54,0.113l5.278,0.079l0.276,0.004l0,-0.284l0.102,0.009Zm-5.36,0.966l-8.023,0.113l-9.095,0.104l0.014,0.014l-2.018,0.001l0.007,0.007l0.012,2.407l0.016,4.038l-0.006,4.046l-0.026,4.167l-0.086,0.02l-0.001,8.599l-0.005,0.005l-0.001,0.562l-0.01,0.01l8.056,0.076l4.273,0.032l4.19,0.015l4.473,-0.005l-0.009,-0.012l3.083,0l-0.004,-0.004l-0.004,-2.007l-0.066,-10.605l-0.097,-11.657l-4.673,0.074Z"/><path d="M12.78,45.323l-0.003,-0.026l-0.008,-0.025l-0.01,-0.024l0.003,0.005l-0.015,-0.025l0.003,0.005l-0.016,-0.021l0.005,0.004l-0.017,-0.017l0.005,0.004l-0.016,-0.014l0.006,0.004l-0.015,-0.011l0.006,0.004l-0.013,-0.009l0.007,0.004l-0.013,-0.007l0.008,0.003l-0.011,-0.005l0.008,0.003l-0.01,-0.004l0.008,0.003l-0.013,-0.005l0.012,0.003l0.013,0.002l-0.012,-0.003l0.018,0.002l0.015,0.001l0.018,0.001l0.021,0.001l0.023,0l0.024,0l0.026,0l0.028,-0.001l0.027,-0.001l0.06,-0.003l0.06,-0.005l0.061,-0.004l0.061,-0.005l0.057,-0.005l0.055,-0.003l0.049,-0.003l0.156,-0.009l0.155,-0.01l0.155,-0.011l0.156,-0.012l0.155,-0.012l0.06,-0.004l0.096,-0.007l0.314,-0.021l0.313,-0.022l0.157,-0.01l0.157,-0.01l0.093,-0.006l0.065,-0.002l0.157,-0.007l0.158,-0.005l0.156,-0.004l0.008,0l0.15,-0.002l0.157,-0.002l0.156,-0.002l0.014,-0.001l0.144,0.001l0.157,0l0.157,0l0.072,0l0.085,0.001l0.158,0.002l0.157,0.001l0.148,0.001l0.01,0l0.158,0.003l0.158,0.002l0.158,0.002l0.159,0.002l0.158,0.001l0.159,0l0.158,0l0.025,0l0.134,0l0.318,-0.003l0.318,-0.003l0.318,-0.005l0.098,-0.002l0.22,-0.008l0.318,-0.012l0.063,-0.003l0.573,-0.035l0.031,-0.002l0.603,-0.052l0.075,-0.007l0.242,-0.024l0.317,-0.032l0.228,-0.021l0.089,-0.01l0.317,-0.032l0.317,-0.031l0.112,-0.011l0.047,-0.004l0.159,-0.016l0.159,-0.015l0.159,-0.015l0.158,-0.014l0.141,-0.012l0.018,-0.002l0.159,-0.014l0.159,-0.014l0.16,-0.013l0.159,-0.012l0.159,-0.012l0.159,-0.011l0.16,-0.01l0.16,-0.01l0.071,-0.004l0.088,-0.006l0.16,-0.009l0.16,-0.008l0.159,-0.007l0.311,0.316l-0.309,0.318l-0.158,-0.007l-0.157,-0.005l-0.157,-0.005l-0.086,-0.003l-0.071,-0.001l-0.157,-0.003l-0.158,-0.002l-0.157,-0.002l-0.158,0l-0.158,-0.001l-0.157,0.001l-0.158,0.001l-0.158,0.001l-0.018,0.001l-0.14,0.002l-0.158,0.004l-0.158,0.004l-0.159,0.004l-0.158,0.005l-0.047,0.001l-0.111,0.004l-0.317,0.014l-0.317,0.014l-0.09,0.005l-0.227,0.013l-0.317,0.019l-0.243,0.015l-0.075,0.006l-0.603,0.048l-0.031,0.003l-0.571,0.06l-0.062,0.008l-0.317,0.04l-0.219,0.027l-0.098,0.014l-0.316,0.044l-0.317,0.043l-0.317,0.042l-0.134,0.017l-0.025,0.003l-0.158,0.021l-0.159,0.02l-0.159,0.019l-0.159,0.019l-0.16,0.019l-0.159,0.018l-0.16,0.018l-0.01,0.001l-0.149,0.013l-0.16,0.013l-0.16,0.013l-0.087,0.007l-0.073,0.004l-0.161,0.008l-0.16,0.007l-0.147,0.006l-0.014,0l-0.16,0.001l-0.161,0.001l-0.152,-0.001l-0.008,0l-0.153,-0.003l-0.153,-0.002l-0.154,-0.002l-0.064,0l-0.091,-0.002l-0.155,-0.003l-0.156,-0.002l-0.313,-0.005l-0.315,-0.004l-0.097,-0.001l-0.061,-0.002l-0.158,-0.005l-0.158,-0.005l-0.159,-0.006l-0.158,-0.007l-0.157,-0.008l-0.045,-0.002l-0.051,-0.002l-0.057,-0.002l-0.062,-0.003l-0.066,-0.002l-0.067,-0.004l-0.068,-0.005l-0.034,-0.003l-0.034,-0.003l-0.034,-0.003l-0.033,-0.004l-0.033,-0.005l-0.033,-0.005l-0.033,-0.006l-0.033,-0.008l-0.032,-0.008l-0.034,-0.01l-0.031,-0.012l-0.02,-0.008l-0.018,-0.009l-0.019,-0.01l-0.02,-0.012l-0.02,-0.015l-0.021,-0.017l-0.02,-0.02l-0.021,-0.024l-0.005,-0.008l-0.014,-0.021l-0.016,-0.032l-0.013,-0.036l-0.008,-0.037l-0.002,-0.038l0.001,-0.022l0.251,-0.227l0.228,0.251l-0.001,-0.025Z"/><path d="M26.613,48.622l0.036,0.001l0.037,0.002l0.036,0.002l0.037,0.003l0.036,0.004l0.037,0.006l0.037,0.008l0.039,0.009l0.038,0.013l0.025,0.009l0.022,0.01l0.024,0.013l0.025,0.015l0.027,0.019l0.027,0.023l0.028,0.029l0.028,0.036l0.024,0.042l0.019,0.049l0.013,0.052l0.002,0.03l-0.292,0.341l0,-0.001l-0.339,-0.292l0.005,0.037l0.013,0.039l0.016,0.035l0.019,0.028l0.019,0.022l0.017,0.016l0.014,0.012l0.019,0.013l-0.007,-0.005l0.013,0.007l0,0l-0.003,-0.001l0.005,0.002l0.01,0.003l0.014,0.005l-0.019,-0.006l0.019,0.007l-0.017,-0.006l0.009,0.004l-0.014,-0.006l0.008,0.004l-0.011,-0.005l-0.001,-0.001l0.004,0.003l-0.004,-0.003l-0.013,-0.003l-0.018,-0.004l-0.021,-0.003l-0.023,-0.004l-0.025,-0.003l-0.027,-0.003l-0.027,-0.002l-0.06,-0.005l-0.06,-0.003l-0.06,-0.002l-0.057,-0.002l-0.013,0l-0.088,-0.001l-0.041,0l-0.034,-0.001l-0.081,-0.003l-0.079,-0.003l-0.079,-0.004l-0.079,-0.005l-0.078,-0.005l-0.079,-0.005l-0.157,-0.012l-0.157,-0.012l-0.156,-0.014l-0.312,-0.028l-0.12,-0.011l-0.036,-0.003l-0.156,-0.014l-0.156,-0.012l-0.156,-0.012l-0.156,-0.011l-0.077,-0.005l-0.078,-0.004l-0.078,-0.004l-0.019,-0.001l-0.059,-0.002l-0.078,-0.003l-0.078,-0.002l-0.249,-0.006l-0.25,-0.005l-0.218,-0.002l-0.03,-0.001l-0.248,0l-0.248,0.001l-0.247,0.002l-0.109,0.001l-0.138,0.004l-0.246,0.007l-0.246,0.008l-0.13,0.005l-0.116,0.006l-0.245,0.016l-0.245,0.016l-0.068,0.005l-0.176,0.015l-0.244,0.023l-0.244,0.023l-0.007,0l-0.237,0.028l-0.243,0.028l-0.243,0.029l-0.244,0.03l-0.243,0.031l-0.109,0.013l-0.134,0.018l-0.243,0.031l-0.244,0.033l-0.243,0.032l-0.411,0.056l-0.077,0.009l-0.49,0.06l-0.047,0.006l-0.445,0.046l-0.152,0.015l-0.343,0.027l-0.194,0.016l-0.129,0.008l-0.325,0.021l-0.147,0.009l-0.178,0.009l-0.326,0.018l-0.325,0.017l-0.325,0.019l-0.107,0.006l-0.218,0.011l-0.322,0.016l-0.009,0l-0.012,0.001l-0.039,0.004l-0.113,0.013l-0.069,0.009l-0.075,0.008l-0.079,0.008l-0.081,0.007l-0.042,0.003l-0.041,0.003l-0.019,0.001l-0.023,0.001l-0.041,0.001l-0.041,0.001l-0.041,-0.001l-0.041,-0.001l-0.04,-0.002l-0.04,-0.003l-0.039,-0.005l-0.022,-0.004l-0.02,-0.004l-0.021,-0.004l-0.021,-0.006l-0.022,-0.006l-0.022,-0.007l-0.023,-0.009l-0.024,-0.011l-0.024,-0.013l-0.025,-0.016l-0.026,-0.02l-0.033,-0.031l-0.016,-0.021l-0.021,-0.033l-0.017,-0.037l0,0l0,-0.001l-0.01,-0.039l-0.004,-0.04l0,0l0,-0.001l0.001,-0.033l0.006,-0.033l0,0l0,-0.002l0.011,-0.033l0,0l0.015,-0.032l0.015,-0.028l0.033,-0.036l0.025,-0.022l0.021,-0.015l0.018,-0.012l0.019,-0.01l0.032,-0.015l0.034,-0.015l0.036,-0.012l0.037,-0.012l0.037,-0.01l0.022,-0.005l0.02,-0.004l0.022,-0.003l0.022,-0.003l0.023,-0.003l0.024,-0.001l0.026,0l0.028,0.001l0.03,0.004l0.034,0.007l0.038,0.013l0.041,0.02l0.037,0.027l0.006,0.006l0.047,-0.009l0.07,-0.014l0.069,-0.014l0.065,-0.015l0.114,-0.025l0.048,-0.009l0.024,-0.005l0.02,-0.003l0.325,-0.047l0.217,-0.032l0.107,-0.014l0.325,-0.043l0.324,-0.041l0.325,-0.041l0.178,-0.022l0.147,-0.016l0.325,-0.035l0.129,-0.014l0.195,-0.017l0.343,-0.031l0.153,-0.009l0.447,-0.027l0.047,-0.002l0.495,-0.019l0.078,-0.003l0.416,-0.009l0.246,-0.005l0.247,-0.004l0.246,-0.004l0.136,-0.002l0.111,-0.001l0.246,-0.004l0.246,-0.002l0.246,-0.002l0.247,-0.002l0.239,-0.001l0.007,0l0.246,-0.004l0.246,-0.004l0.178,-0.002l0.069,-0.002l0.246,-0.007l0.247,-0.006l0.117,-0.002l0.13,-0.006l0.247,-0.01l0.248,-0.009l0.138,-0.004l0.11,-0.005l0.248,-0.01l0.249,-0.01l0.25,-0.008l0.03,-0.001l0.22,-0.008l0.251,-0.008l0.251,-0.006l0.081,-0.002l0.081,-0.001l0.061,-0.001l0.019,0l0.08,-0.001l0.081,0l0.08,0l0.159,0.002l0.159,0.002l0.158,0.003l0.158,0.004l0.037,0.001l0.12,0.003l0.312,0.006l0.154,0.002l0.154,0.002l0.154,0.001l0.076,-0.001l0.076,0l0.076,-0.001l0.076,-0.002l0.075,-0.002l0.074,-0.002l0.026,-0.002l0.038,-0.002l0.09,-0.005l0.014,-0.001l0.063,-0.003l0.067,-0.003l0.07,-0.002l0.071,-0.001l0.037,0.001Zm-14.231,1.1l-0.016,0.009l0.012,-0.006l-0.019,0.011l0.012,-0.007l-0.008,0.006l0.01,-0.006l-0.007,0.005l0.012,-0.009l-0.005,0.005l0.01,-0.009l-0.001,0.001Zm-0.04,-0.085l0.023,0.019l0.028,0.017l0.024,0.01l0.001,0l0.018,-0.025l0.01,-0.026l-0.118,-0.01l-0.003,-0.002l0.017,0.017Z"/><path d="M22.147,53.127l-0.304,0.318l-0.176,-0.011l-0.177,-0.01l-0.016,0l-0.161,-0.007l-0.179,-0.007l-0.179,-0.005l-0.181,-0.005l-0.181,-0.003l-0.014,0l-0.168,-0.002l-0.183,-0.001l-0.183,0l-0.01,0l-0.174,0.002l-0.185,0.003l-0.195,0.003l-0.175,0.005l-0.348,0.011l-0.024,0.001l-0.373,0.02l-0.054,0.002l-0.319,0.029l-0.081,0.007l-0.106,0.013l-0.186,0.022l-0.107,0.012l-0.08,0.011l-0.187,0.026l-0.187,0.026l-0.187,0.025l-0.146,0.018l-0.042,0.006l-0.187,0.023l-0.188,0.022l-0.187,0.022l-0.163,0.017l-0.025,0.002l-0.187,0.013l-0.068,0.006l-0.067,0.005l-0.016,0.002l-0.051,0.003l-0.068,0.004l-0.067,0.004l-0.067,0.005l-0.09,0.007l-0.045,0.002l-0.136,0.006l-0.133,0.006l-0.003,0l-0.277,0.008l-0.076,0.002l-0.202,0l-0.141,-0.001l-0.141,-0.001l-0.142,-0.002l-0.072,-0.002l-0.063,-0.002l-0.008,0l-0.072,-0.004l-0.071,-0.004l-0.072,-0.005l-0.073,-0.006l-0.097,-0.008l-0.092,-0.009l-0.086,-0.009l-0.08,-0.01l-0.037,-0.005l-0.038,-0.005l-0.068,-0.01l-0.061,-0.01l-0.056,-0.009l-0.089,-0.016l-0.061,-0.011l-0.014,-0.003l-0.004,0l-0.006,-0.001l0.013,-0.001l-0.26,-0.213l0,-0.001l-0.001,-0.034l0.004,-0.034l0.008,-0.032l0.013,-0.032l0.001,0l0.018,-0.031l0.023,-0.027l0.027,-0.024l0.029,-0.02l0.002,-0.001l0.034,-0.015l0.036,-0.011l0.018,-0.003l0.03,-0.003l0.019,-0.001l0.013,0l0.031,-0.001l0.068,0l0.09,-0.001l0.052,-0.001l0.059,-0.001l0.063,-0.003l0.036,-0.001l0.034,-0.001l0.074,-0.003l0.08,-0.005l0.085,-0.005l0.091,-0.007l0.067,-0.006l0.067,-0.007l0.067,-0.007l0.068,-0.007l0.007,-0.001l0.06,-0.005l0.067,-0.007l0.136,-0.015l0.135,-0.015l0.136,-0.017l0.199,-0.025l0.076,-0.007l0.276,-0.028l0.004,0l0.137,-0.009l0.141,-0.008l0.047,-0.003l0.095,-0.001l0.072,0l0.072,0.001l0.072,0l0.055,0.001l0.017,0.001l0.073,0.004l0.071,0.005l0.184,0.012l0.025,0.001l0.159,0.014l0.184,0.015l0.185,0.014l0.186,0.012l0.041,0.003l0.144,0.009l0.187,0.01l0.186,0.01l0.187,0.009l0.081,0.003l0.106,0.002l0.187,0.002l0.106,0.002l0.081,-0.002l0.319,-0.008l0.054,-0.004l0.373,-0.024l0.023,-0.001l0.348,-0.031l0.174,-0.015l0.195,-0.019l0.185,-0.018l0.174,-0.017l0.01,-0.001l0.184,-0.019l0.183,-0.018l0.17,-0.016l0.013,-0.001l0.183,-0.018l0.182,-0.017l0.182,-0.016l0.181,-0.015l0.164,-0.013l0.017,-0.001l0.18,-0.014l0.179,-0.013l0.306,0.316Zm-9.199,0.534l0.004,0l-0.004,0l0,0Zm0.001,0l0.027,-0.004l-0.004,0l0.068,-0.024l0.097,-0.101l0.025,-0.13l-0.213,0.259Z"/><path d="M41.491,42.87l0.101,0.003l0.101,0.004l0.198,0.008l0.004,0l0.201,0.009l0.201,0.01l0.2,0.01l0.201,0.009l0.2,0.01l0.2,0.009l0.049,0.002l0.151,0.005l0.199,0.006l0.1,0.002l0.1,0.002l0.1,0.001l0.1,0.001l0.099,0.001l0.1,-0.001l0.1,0l0.1,-0.002l0.1,-0.002l0.1,-0.003l0.007,-0.001l0.261,-0.011l0.268,-0.012l0.093,-0.004l0.175,-0.011l0.268,-0.015l0.086,-0.006l0.182,-0.014l0.267,-0.022l0.17,-0.014l0.365,-0.035l0.274,-0.028l0.261,-0.028l0.534,-0.06l0.538,-0.061l0.532,-0.059l0.162,-0.018l0.373,-0.039l0.337,-0.034l0.198,-0.018l0.529,-0.047l0.008,-0.001l0.537,-0.037l0.198,-0.014l0.07,-0.003l0.269,-0.013l0.269,-0.013l0.27,-0.012l0.012,0l0.257,-0.008l0.27,-0.008l0.269,-0.008l0.266,-0.006l0.003,0l0.287,-0.006l0.288,-0.007l0.29,-0.008l0.271,-0.007l0.02,-0.001l0.584,-0.015l0.294,-0.007l0.237,-0.006l0.056,-0.001l0.294,-0.005l0.293,-0.003l0.147,-0.002l0.146,-0.001l0.146,-0.001l0.147,0l0.145,0l0.146,0.001l0.145,0.001l0.145,0.002l0.088,0.002l0.057,0.001l0.144,0.004l0.143,0.004l0.146,0.005l0.026,0.001l0.033,0.005l0.021,0.007l0.025,0.011l0.023,0.015l0.021,0.017l0.018,0.02l0.015,0.023l0,0l0.013,0.029l0.009,0.031l0.003,0.031l-0.002,0.032l-0.007,0.031l-0.013,0.029l0,0.001l-0.015,0.023l-0.018,0.022l-0.02,0.018l-0.024,0.015l-0.001,0.001l-0.02,0.01l-0.021,0.007l-0.015,0.004l-0.024,0.004l-0.022,0.003l-0.05,0.005l-0.056,0.004l-0.059,0.004l-0.056,0.002l-0.027,0.001l-0.021,-0.001l-0.01,-0.009l-0.011,0l-0.142,0.007l-0.056,0.003l-0.087,0.005l-0.143,0.008l-0.143,0.009l-0.143,0.009l-0.144,0.01l-0.145,0.01l-0.144,0.011l-0.145,0.011l-0.145,0.011l-0.29,0.024l-0.291,0.025l-0.056,0.005l-0.235,0.02l-0.292,0.026l-0.583,0.051l-0.019,0.002l-0.272,0.022l-0.29,0.023l-0.29,0.023l-0.287,0.021l-0.003,0l-0.266,0.018l-0.267,0.018l-0.268,0.019l-0.255,0.018l-0.012,0.001l-0.268,0.017l-0.268,0.017l-0.267,0.017l-0.071,0.005l-0.197,0.009l-0.536,0.027l-0.008,0l-0.529,0.019l-0.199,0.007l-0.338,0.007l-0.375,0.009l-0.163,0.003l-0.535,0.009l-0.541,0.008l-0.539,0.007l-0.263,0.003l-0.275,0.007l-0.367,0.007l-0.171,0.006l-0.269,0.01l-0.182,0.005l-0.087,0.005l-0.268,0.013l-0.175,0.008l-0.094,0.006l-0.269,0.015l-0.262,0.014l-0.007,0l-0.102,0.006l-0.102,0.005l-0.103,0.005l-0.102,0.003l-0.102,0.003l-0.102,0.003l-0.101,0.002l-0.102,0.001l-0.102,0.001l-0.101,0l-0.202,0l-0.152,-0.001l-0.05,0l-0.202,-0.002l-0.201,-0.002l-0.201,-0.002l-0.201,-0.002l-0.2,-0.002l-0.199,-0.001l-0.004,0l-0.196,0.001l-0.099,0.001l-0.045,0l-0.085,0.076l-0.022,-0.002l-0.031,-0.005l-0.028,-0.005l-0.026,-0.007l-0.001,0l-0.025,-0.007l-0.025,-0.008l-0.024,-0.008l-0.024,-0.009l-0.023,-0.009l-0.023,-0.01l-0.026,-0.013l-0.029,-0.017l-0.028,-0.022l-0.015,-0.015l-0.022,-0.027l-0.018,-0.031l-0.001,-0.002l-0.014,-0.033l-0.008,-0.035l-0.003,-0.036l0.003,-0.036l0,-0.002l0.007,-0.033l0.012,-0.031l0.016,-0.029l0.021,-0.026l0.023,-0.024l0.002,-0.001l0.024,-0.018l0.026,-0.015l0.028,-0.011l0.023,-0.008l0.038,-0.005l0.022,-0.001l0.105,0.003l0.101,0.003Zm-0.203,0.463l0.007,0l0,0l-0.007,0Zm0.198,-0.406l0.004,0l-0.004,0l0,0Zm16.206,-0.671l0,0l0.001,0l0.01,-0.002l-0.011,0.002Z"/><path d="M54.441,46.547l0.003,0l0.034,0.002l0.034,0.008l0.032,0.013l0.029,0.019l0.025,0.024l0.021,0.027l0.016,0.031l0.01,0.033l0.004,0.035l-0.001,0.035l-0.008,0.034l-0.014,0.032l-0.018,0.029l-0.024,0.026l-0.028,0.021l-0.031,0.016l-0.034,0.011l-0.034,0.005l-0.194,0.015l-0.129,0.01l-0.537,0.046l-0.156,0.014l-0.156,0.014l-0.156,0.016l-0.156,0.016l-0.133,0.014l-0.18,0.018l-0.314,0.033l-0.315,0.032l-0.032,0.003l-0.126,0.012l-0.158,0.014l-0.159,0.014l-0.159,0.013l-0.159,0.012l-0.095,0.006l-0.064,0.004l-0.191,0.012l-0.19,0.012l-0.19,0.013l-0.149,0.011l-0.041,0.002l-0.191,0.012l-0.19,0.012l-0.19,0.013l-0.045,0.003l-0.146,0.006l-0.191,0.009l-0.191,0.009l-0.023,0.001l-0.36,0.01l-0.182,0.005l-0.202,0.003l-0.33,0.004l-0.054,0.001l-0.385,0.001l-0.081,0l-0.305,0l-0.385,-0.001l-0.193,-0.001l-0.12,-0.001l-0.073,0l-0.193,0.001l-0.193,0l-0.021,0l-0.171,0.003l-0.193,0.003l-0.1,0.001l-0.093,0.003l-0.192,0.006l-0.112,0.003l-0.081,0.003l-0.191,0.007l-0.048,0.002l-0.051,0.003l-0.054,0.003l-0.032,0.003l-0.026,0.002l-0.126,0.013l-0.136,0.014l-0.145,0.016l-0.15,0.015l-0.077,0.007l-0.079,0.007l-0.078,0.006l-0.08,0.006l-0.079,0.005l-0.047,0.002l-0.033,0.002l-0.079,0.004l-0.079,0.003l-0.078,0.001l-0.077,0l-0.039,-0.001l-0.038,-0.001l-0.038,-0.002l-0.038,-0.002l-0.037,-0.002l-0.037,-0.003l-0.037,-0.004l-0.037,-0.004l-0.036,-0.005l-0.035,-0.005l-0.035,-0.006l-0.035,-0.007l-0.035,-0.007l-0.034,-0.008l-0.034,-0.009l-0.033,-0.01l-0.033,-0.011l-0.032,-0.012l-0.032,-0.013l0,0l-0.032,-0.014l-0.025,-0.014l-0.029,-0.018l-0.028,-0.024l-0.014,-0.016l-0.019,-0.028l-0.015,-0.03l0,0l-0.001,-0.002l-0.009,-0.028l-0.006,-0.029l-0.002,-0.03l0,0l0.003,-0.03l0,-0.001l0.007,-0.032l0.012,-0.031l0.016,-0.028l0,0l0.02,-0.026l0.001,-0.001l0.02,-0.019l0.022,-0.017l0,0l0.023,-0.014l0.002,-0.001l0.027,-0.011l0,0l0.028,-0.008l0.022,-0.005l0.033,-0.002l0.025,0l0.039,0.001l0.042,0.002l0.044,0.003l0.047,0.002l0.023,0l0.023,0l0.022,0l0.022,0l0.02,-0.001l0.018,-0.002l0.016,-0.002l0.013,-0.002l0.006,-0.002l0,0l0,0l0,0l0.004,-0.002l-0.004,0.002l0.001,0l0.008,-0.004l-0.008,0.004l0,0l0,0l-0.001,0l0,0l0.001,0l0,0l0,0l0,0l0.001,0l0.011,-0.005l-0.009,0.004l0.01,-0.004l-0.009,0.004l0.009,-0.003l-0.005,0.001l-0.006,0.002l0.008,-0.002l-0.009,0.003l-0.001,0l0,0l0,0l0,0l0.01,-0.002l-0.01,0.002l-0.004,0.002l-0.006,0.003l-0.007,0.005l-0.008,0.007l-0.01,0.009l-0.01,0.012l-0.01,0.013l-0.005,0.01l0.319,-0.11l0.074,0.213l0.009,0.001l0.072,0.002l0.073,0.002l0.074,0l0.03,0l0.045,-0.001l0.075,-0.002l0.076,-0.002l0.076,-0.004l0.076,-0.004l0.075,-0.004l0.149,-0.01l0.144,-0.01l0.137,-0.009l0.129,-0.008l0.028,-0.002l0.033,-0.002l0.059,-0.003l0.056,-0.003l0.051,-0.001l0.192,-0.004l0.081,-0.003l0.111,-0.004l0.191,-0.008l0.091,-0.005l0.099,-0.007l0.191,-0.015l0.17,-0.013l0.021,-0.002l0.191,-0.02l0.19,-0.02l0.072,-0.008l0.119,-0.015l0.19,-0.024l0.381,-0.049l0.301,-0.039l0.08,-0.011l0.381,-0.05l0.054,-0.007l0.328,-0.04l0.201,-0.024l0.181,-0.018l0.36,-0.037l0.023,-0.001l0.193,-0.015l0.192,-0.014l0.147,-0.01l0.045,-0.002l0.193,-0.009l0.193,-0.007l0.193,-0.007l0.042,-0.002l0.151,-0.002l0.193,-0.003l0.194,-0.002l0.192,-0.001l0.063,0l0.094,0l0.156,-0.001l0.156,-0.001l0.156,-0.002l0.157,-0.003l0.125,-0.003l0.032,0l0.315,-0.006l0.315,-0.006l0.183,-0.004l0.134,-0.001l0.158,-0.002l0.159,-0.001l0.159,0l0.159,0l0.54,0.005l0.13,0l0.194,0l0,0.004Zm-11.561,0.464l0.001,0.001l-0.008,-0.005l0.007,0.004Z"/><path d="M41.334,51.638l0.054,0.002l0.056,0.002l0.056,0.003l0.056,0.003l0.057,0.004l0.046,0.003l0.065,0.005l0.109,0.009l0.103,0.009l0.093,0.008l0.15,0.015l0.05,0.004l0.014,0.001l0.009,0l0.425,0.008l0.342,0.007l0.085,0.001l0.426,0.005l0.213,0.002l0.213,0.002l0.213,0.002l0.213,0l0.128,0l0.085,0l0.213,-0.003l0.212,-0.003l0.17,-0.003l0.043,-0.002l0.212,-0.007l0.213,-0.009l0.108,-0.004l0.189,-0.012l0.298,-0.018l0.19,-0.012l0.406,-0.032l0.292,-0.024l0.303,-0.027l0.595,-0.054l0.561,-0.051l0.63,-0.057l0.129,-0.011l0.466,-0.038l0.312,-0.025l0.285,-0.02l0.298,-0.02l0.212,-0.013l0.087,-0.005l0.298,-0.014l0.299,-0.014l0.128,-0.006l0.171,-0.004l0.299,-0.008l0.3,-0.007l0.204,-0.004l0.095,-0.001l0.299,-0.002l0.3,-0.001l0.3,0l0.168,0l0.132,0.001l0.299,0.003l0.3,0.005l0.3,0.005l0.221,0.005l0.08,0.002l0.179,0.006l0.179,0.007l0.178,0.008l0.178,0.009l0.177,0.01l0.177,0.011l0.1,0.007l0.077,0.005l0.176,0.013l0.176,0.013l0.175,0.014l0.352,0.027l0.351,0.028l0.35,0.028l0.013,0l0.021,0.001l0.065,0.001l0.086,0l0.101,0l0.098,-0.001l0.014,0l0.117,-0.002l0.119,-0.002l0.114,-0.002l0.106,-0.003l0.093,-0.003l0.028,-0.001l0.012,-0.012l0.048,-0.002l0.04,0l0.031,0l0.029,0.002l0.029,0.005l0.018,0.006l0.022,0.01l0.021,0.013l0.019,0.015l0.017,0.018l0,0l0,0.001l0.018,0.025l0.013,0.027l0.008,0.029l0.003,0.031l-0.001,0.03l-0.007,0.03l0,0l0,0l-0.01,0.027l-0.014,0.024l-0.018,0.022l-0.022,0.02l-0.024,0.015l-0.001,0.001l-0.023,0.011l0,0l-0.025,0.007l-0.017,0.005l-0.027,0.004l-0.028,0.004l-0.033,0.004l-0.078,0.009l-0.096,0.01l-0.107,0.01l-0.117,0.011l-0.119,0.01l-0.119,0.01l-0.015,0.001l-0.099,0.007l-0.104,0.008l-0.089,0.005l-0.072,0.004l-0.03,0l-0.024,0l-0.356,-0.004l-0.353,-0.006l-0.351,-0.006l-0.176,-0.002l-0.175,-0.002l-0.175,-0.001l-0.076,-0.001l-0.099,-0.001l-0.174,-0.001l-0.175,0l-0.175,0.001l-0.175,0.002l-0.174,0.003l-0.176,0.005l-0.079,0.002l-0.218,0.006l-0.298,0.009l-0.297,0.01l-0.297,0.012l-0.131,0.005l-0.167,0.006l-0.297,0.011l-0.297,0.013l-0.298,0.013l-0.094,0.004l-0.203,0.008l-0.297,0.011l-0.298,0.013l-0.169,0.007l-0.128,0.003l-0.298,0.009l-0.298,0.008l-0.086,0.003l-0.212,0.003l-0.297,0.005l-0.286,0.006l-0.311,0.002l-0.467,0.004l-0.13,0l-0.632,0.002l-0.563,0.001l-0.598,0.001l-0.305,0l-0.293,0.003l-0.408,0.003l-0.19,0.004l-0.299,0.006l-0.19,0.003l-0.109,0.004l-0.214,0.006l-0.215,0.006l-0.043,0.001l-0.171,0.005l-0.214,0.005l-0.214,0.005l-0.085,0.001l-0.129,0.003l-0.214,0.005l-0.214,0.004l-0.214,0.003l-0.213,0.003l-0.427,0.006l-0.086,0l-0.341,0.006l-0.43,0.007l-0.019,0l-0.023,-0.001l-0.055,-0.002l-0.153,-0.009l-0.093,-0.006l-0.1,-0.005l-0.106,-0.005l-0.062,-0.002l-0.046,-0.001l-0.053,-0.002l-0.053,-0.001l-0.052,0l-0.051,0l-0.049,0l-0.046,0.002l-0.04,0.001l-0.038,0.128l-0.021,0.012l-0.041,0.013l-0.035,0.007l-0.031,0.002l-0.027,-0.001l-0.024,-0.003l-0.021,-0.004l-0.023,-0.006l-0.031,-0.01l-0.03,-0.013l-0.001,-0.001l-0.029,-0.015l-0.028,-0.017l-0.028,-0.02l-0.024,-0.022l-0.016,-0.015l-0.014,-0.016l-0.014,-0.018l-0.015,-0.021l-0.014,-0.025l-0.013,-0.031l-0.01,-0.038l-0.005,-0.045l0.004,-0.051l0.015,-0.051l0.025,-0.047l0.031,-0.037l0.033,-0.028l0.03,-0.019l0.027,-0.014l0.026,-0.011l0.024,-0.008l0.023,-0.007l0.022,-0.005l0.023,-0.005l0.022,-0.003l0.023,-0.004l0.044,-0.004l0.047,-0.003l0.048,-0.002l0.05,-0.001l0.051,0l0.053,0.001Zm-0.26,0.478l-0.007,0.003l0.009,-0.003l-0.002,0Zm0.001,0l0.003,-0.001l0.001,0l-0.004,0.001Zm-0.014,-0.337l-0.022,0.003l-0.029,0.008l-0.03,0.013l0.193,0.057l-0.003,-0.008l-0.009,-0.019l-0.009,-0.013l-0.007,-0.01l-0.006,-0.007l-0.004,-0.005l-0.006,-0.005l-0.005,-0.004l-0.002,-0.001l-0.001,0l-0.001,-0.001l-0.006,-0.003l-0.006,-0.001l-0.007,-0.002l-0.009,-0.001l-0.013,-0.001l-0.018,0Zm18.072,-0.007l-0.012,-0.001l-0.001,0l0.013,0.001Z"/><path d="M44.629,55.948l-0.022,-0.015l-0.024,-0.011l-0.024,-0.008l-0.023,-0.005l-0.019,-0.001l-0.016,0.001l-0.012,0.001l-0.007,0.002l-0.002,0.001l0.002,-0.001l-0.002,0l0,0l-0.007,0.002l0.007,-0.002l0.003,-0.001l-0.001,0l0.001,0l0.003,-0.001l-0.002,0.001l0,0l0.033,-0.016l0.023,-0.011l0.027,-0.013l0.03,-0.012l0.02,-0.007l0.019,-0.006l0.022,-0.005l0.024,-0.004l0.026,-0.003l0.023,-0.001l0.149,0.006l0.674,0.025l0.243,0.006l0.288,0.007l0.2,0.006l0.089,0.001l0.245,0.004l0.043,0l0.24,-0.001l0.048,-0.001l0.283,-0.01l0.294,-0.018l0.049,-0.003l0.528,-0.043l0.188,-0.015l0.372,-0.029l0.016,-0.001l0.364,-0.024l0.212,-0.009l0.177,-0.008l0.11,-0.001l0.285,-0.004l0.002,0l0.287,0.006l0.185,0.003l0.104,0.004l0.121,0.006l0.123,0.005l0.123,0.007l0.1,0.005l0.023,0.002l0.246,0.017l0.246,0.017l0.091,0.006l0.031,0.002l0.121,0.008l0.121,0.007l0.12,0.007l0.12,0.005l0.08,0.002l0.039,0.002l0.058,0.002l0.059,0.001l0.058,0.001l0.057,0.001l0.017,0l0.022,-0.001l0.026,-0.001l0.031,-0.002l0.073,-0.005l0.084,-0.008l0.091,-0.009l0.097,-0.01l0.099,-0.011l0.098,-0.011l0.058,-0.008l0.128,-0.014l0.153,-0.019l0.058,-0.008l0.04,-0.005l0.023,-0.004l-0.009,0.003l-0.077,0.05l0.018,0.048l0.138,-0.106l0.001,0l0.029,0.006l0.028,0.011l0.026,0.016l0.023,0.02l0.019,0.023l0.015,0.026l0.011,0.029l0.005,0.029l0.001,0.031l-0.005,0.029l-0.009,0.029l-0.014,0.027l-0.019,0.024l0,0l0,0l-0.023,0.022l0,0l-0.026,0.017l-0.029,0.012l-0.011,0.004l-0.034,0.01l-0.044,0.013l-0.059,0.016l-0.153,0.041l-0.126,0.034l-0.058,0.015l-0.098,0.024l-0.099,0.024l-0.097,0.024l-0.093,0.021l-0.086,0.02l-0.079,0.016l-0.036,0.007l-0.033,0.006l-0.032,0.005l-0.028,0.004l-0.063,0.007l-0.062,0.007l-0.062,0.007l-0.063,0.006l-0.04,0.004l-0.084,0.007l-0.125,0.009l-0.125,0.008l-0.126,0.007l-0.125,0.006l-0.031,0.002l-0.094,0.003l-0.248,0.008l-0.246,0.007l-0.024,0.001l-0.098,0.002l-0.12,0.003l-0.119,0.004l-0.119,0.004l-0.104,0.004l-0.184,0.002l-0.289,0.004l-0.002,0l-0.287,-0.007l-0.11,-0.003l-0.178,-0.01l-0.212,-0.013l-0.364,-0.03l-0.016,-0.002l-0.372,-0.037l-0.188,-0.019l-0.526,-0.054l-0.049,-0.004l-0.293,-0.024l-0.282,-0.014l-0.049,-0.003l-0.239,-0.004l-0.044,-0.001l-0.244,0.001l-0.088,0.001l-0.2,0.004l-0.287,0.007l-0.243,0.006l-0.67,0.025l-0.117,0.005l-0.006,0.003l-0.009,0.005l-0.015,0.009l-0.038,0.023l-0.026,0.014l-0.028,0.013l-0.02,0.008l-0.02,0.007l-0.023,0.006l-0.026,0.005l-0.03,0.003l-0.033,0l-0.035,-0.004l-0.011,-0.003l-0.027,-0.006l-0.038,-0.015l-0.035,-0.021l-0.032,-0.025l-0.017,-0.017l0.005,-0.338l0.338,0.005l-0.012,-0.011Zm0.107,0.34l0.01,0l-0.008,0l0.013,-0.001l-0.015,0.001Zm0.018,-0.001l-0.007,0.001l0.008,-0.001l-0.001,0Zm0.004,0l-0.003,0.001l0.003,-0.001l0,0Zm0.007,0l-0.002,0.001l0.002,-0.001l0,0Zm-0.004,0l-0.002,0l0.002,0l0,0Zm0.003,0l-0.002,0l0.002,0l0,0Zm-0.284,-0.374l-0.007,0.002l-0.012,0.005l0.012,-0.005l-0.008,0.003l0.011,-0.004l-0.008,0.002l0.012,-0.003l0,-0.001l0.001,0l-0.001,0.001Zm0.004,-0.002l-0.002,0.001l0,0l0.002,-0.001l0,0Z"/><path d="M72.527,41.881l0.004,0l0.063,0.005l0.078,0.007l0.192,0.019l0.211,0.022l0.01,0.001l0.222,0.023l0.197,0.021l0.209,0.021l0.225,0.022l0.034,0.003l0.193,0.015l0.227,0.018l0.227,0.016l0.227,0.017l0.103,0.007l0.125,0.007l0.322,0.017l0.133,0.005l0.247,0.01l0.098,0.002l0.345,0.006l0.004,0l0.341,-0.001l0.121,0.001l0.225,-0.003l0.345,-0.004l0.346,-0.004l0.05,-0.001l0.501,-0.003l0.139,0l0.374,0.001l0.316,0.006l0.207,0.004l0.137,0.006l0.344,0.015l0.051,0.002l0.292,0.019l0.343,0.023l0.001,0l0.341,0.027l0.343,0.025l0.074,0.006l0.078,0.007l0.152,0.013l0.152,0.014l0.152,0.015l0.287,0.028l0.015,0.001l0.302,0.032l0.301,0.032l0.151,0.015l0.04,0.004l0.11,0.011l0.149,0.016l0.15,0.014l0.15,0.014l0.148,0.013l0.089,0.006l0.17,0.013l0.105,0.008l0.112,0.009l0.116,0.011l0.052,0.005l0.062,0.007l0.057,0.006l0.054,0.007l0.053,0.007l0.05,0.008l0.047,0.008l0.045,0.008l0.041,0.009l0.02,0.005l0.02,0.005l0.019,0.005l0.02,0.007l0.02,0.007l0.022,0.01l0.026,0.014l0.031,0.023l0.03,0.034l0.02,0.036l0.012,0.037l0.005,0.042l-0.005,0.042l-0.012,0.036l-0.019,0.034l-0.028,0.033l-0.03,0.023l-0.025,0.014l-0.023,0.011l-0.023,0.008l-0.019,0.006l-0.122,-0.058l-0.007,-0.001l-0.03,-0.003l-0.036,-0.003l-0.041,-0.002l-0.045,-0.002l-0.048,-0.001l-0.051,-0.001l-0.053,-0.001l-0.06,0l-0.05,0l-0.113,0l-0.109,0.002l-0.102,0.002l-0.169,0.004l-0.092,0.002l-0.155,0.002l-0.152,0l-0.153,0l-0.153,0l-0.111,-0.001l-0.041,-0.001l-0.152,-0.002l-0.304,-0.005l-0.304,-0.006l-0.015,0l-0.287,-0.007l-0.151,-0.003l-0.15,-0.003l-0.151,-0.002l-0.077,-0.001l-0.073,-0.001l-0.345,-0.007l-0.344,-0.007l-0.001,0l-0.345,-0.014l-0.293,-0.012l-0.052,-0.004l-0.344,-0.024l-0.137,-0.01l-0.207,-0.019l-0.315,-0.031l-0.371,-0.042l-0.138,-0.016l-0.498,-0.062l-0.049,-0.006l-0.342,-0.043l-0.343,-0.043l-0.222,-0.027l-0.12,-0.013l-0.339,-0.036l-0.004,-0.001l-0.343,-0.028l-0.097,-0.007l-0.246,-0.014l-0.134,-0.007l-0.322,-0.013l-0.126,-0.005l-0.103,-0.003l-0.229,-0.008l-0.228,-0.008l-0.229,-0.009l-0.195,-0.008l-0.034,-0.002l-0.23,-0.009l-0.211,-0.01l-0.197,-0.01l-0.223,-0.011l-0.009,0l-0.211,-0.009l-0.19,-0.007l-0.075,-0.002l-0.054,-0.001l-0.004,0l-0.02,0l-0.001,0l-0.01,0l0.011,0l0.017,-0.001l0.085,-0.03l-0.327,-0.086l0,0l0.086,-0.328l0.001,0l0.028,-0.014l0.029,-0.01l0.03,-0.007l0.016,-0.002l0.03,0l0.043,0.002Zm11.913,0.82l-0.02,0.02l-0.02,0.028l-0.012,0.027l-0.008,0.035l0,0.019l0.064,-0.131l-0.004,0.002Zm0.01,-0.007l-0.001,0.001l0.006,-0.003l0.009,-0.004l-0.011,0.004l0.011,-0.005l-0.014,0.007Zm-11.969,-0.336l0.007,-0.001l0.003,0l-0.01,0.001Z"/><path d="M71.867,47.303l0.071,0.002l0.038,0.001l0.058,0.002l0.059,0.002l0.116,0.005l0.056,0.002l0.055,0.001l0.055,0l0.054,0l0.057,-0.001l0.015,-0.001l0.044,-0.001l0.118,-0.005l0.119,-0.007l0.12,-0.006l0.121,-0.007l0.121,-0.007l0.122,-0.006l0.062,-0.002l0.061,-0.002l0.23,-0.007l0.002,0l0.227,-0.009l0.23,-0.011l0.23,-0.011l0.23,-0.011l0.229,-0.013l0.071,-0.004l0.159,-0.01l0.23,-0.016l0.166,-0.012l0.064,-0.005l0.23,-0.019l0.177,-0.015l0.282,-0.03l0.269,-0.029l0.189,-0.024l0.38,-0.047l0.077,-0.011l0.195,-0.026l0.196,-0.026l0.195,-0.026l0.195,-0.025l0.196,-0.025l0.137,-0.017l0.058,-0.007l0.391,-0.047l0.171,-0.02l0.221,-0.024l0.391,-0.041l0.023,-0.002l0.369,-0.033l0.28,-0.025l0.111,-0.008l0.55,-0.038l0.234,-0.011l0.391,-0.018l0.168,-0.008l0.224,-0.008l0.392,-0.015l0.328,-0.012l0.063,-0.002l0.391,-0.014l0.391,-0.015l0.129,-0.005l0.039,-0.002l0.09,-0.004l0.129,-0.007l0.13,-0.008l0.13,-0.008l0.13,-0.008l0.261,-0.018l0.133,-0.01l0.129,-0.008l0.263,-0.017l0.132,-0.008l0.132,-0.007l0.132,-0.007l0.132,-0.006l0.174,-0.007l0.174,-0.009l0.174,-0.011l0.173,-0.012l0.024,-0.001l0.028,-0.001l0.028,0l0.03,0.001l0.058,0.002l0.055,0.003l0.048,0.003l0.035,0.003l0,0l0.028,0.002l0.02,0.005l0.031,0.011l0.03,0.016l0.026,0.021l0.023,0.025l0.018,0.028l0.013,0.031l0.008,0.032l0.002,0.034l-0.003,0.033l-0.009,0.032l-0.014,0.031l-0.019,0.027l-0.023,0.025l-0.027,0.02l-0.029,0.015l-0.032,0.01l-0.033,0.005l-0.01,0l-0.017,0l-0.011,0l-0.008,0l-0.153,0.146l-0.028,0l-0.03,-0.001l-0.029,-0.003l-0.03,-0.005l-0.031,-0.008l-0.029,-0.011l-0.019,-0.011l-0.018,-0.011l-0.018,-0.013l-0.018,-0.017l-0.017,-0.021l-0.003,-0.005l-0.151,0.021l-0.176,0.023l-0.175,0.021l-0.13,0.016l-0.128,0.017l-0.129,0.017l-0.129,0.018l-0.259,0.037l-0.128,0.018l-0.132,0.019l-0.26,0.036l-0.131,0.018l-0.131,0.017l-0.132,0.017l-0.132,0.016l-0.093,0.011l-0.04,0.004l-0.132,0.014l-0.392,0.038l-0.392,0.038l-0.063,0.005l-0.329,0.028l-0.392,0.033l-0.224,0.018l-0.168,0.011l-0.391,0.027l-0.233,0.015l-0.551,0.026l-0.112,0.005l-0.28,0.007l-0.369,0.011l-0.023,0l-0.392,0.007l-0.221,0.004l-0.171,0.002l-0.392,0.005l-0.058,0.001l-0.138,0.002l-0.196,0.003l-0.195,0.003l-0.196,0.004l-0.196,0.005l-0.196,0.005l-0.078,0.002l-0.383,0.015l-0.19,0.007l-0.271,0.015l-0.283,0.015l-0.178,0.013l-0.23,0.017l-0.064,0.005l-0.166,0.013l-0.231,0.019l-0.16,0.012l-0.07,0.006l-0.231,0.02l-0.23,0.018l-0.231,0.019l-0.23,0.017l-0.228,0.016l-0.003,0l-0.23,0.017l-0.059,0.005l-0.058,0.005l-0.119,0.01l-0.119,0.012l-0.12,0.012l-0.12,0.012l-0.122,0.012l-0.121,0.01l-0.047,0.004l-0.015,0.001l-0.062,0.005l-0.062,0.003l-0.062,0.003l-0.06,0.002l-0.06,0l-0.117,0.002l-0.057,0.001l-0.057,0.001l-0.036,0l-0.064,0.002l-0.026,0.002l-0.003,0l-0.014,0.001l-0.006,0.001l0.005,-0.001l-0.003,0l-0.009,0.001l0.006,-0.001l0.003,0l0.004,0l0.018,-0.004l0.014,-0.005l-0.304,-0.14l-0.001,-0.001l-0.01,-0.035l-0.004,-0.036l0.001,-0.037l0.006,-0.036l0.012,-0.034l0.017,-0.032l0.021,-0.03l0.001,0l0.025,-0.025l0.028,-0.021l0.031,-0.017l0.019,-0.009l0.034,-0.008l0.028,-0.005l0.024,-0.001l0.037,-0.002l0.04,0Zm0,0.467l0.014,-0.005l0.083,-0.061l0.042,-0.237l-0.139,0.303Zm14.533,-1.425l0,0.001l0.005,-0.001l-0.005,0Z"/><path d="M72.028,52.947l-0.004,-0.007l-0.005,-0.008l-0.005,-0.007l-0.007,-0.008l-0.006,-0.007l-0.007,-0.006l-0.008,-0.005l-0.006,-0.005l-0.007,-0.004l-0.006,-0.003l-0.005,-0.002l-0.004,-0.002l-0.005,-0.001l0,0l0.001,0l-0.002,0l-0.001,0l-0.01,-0.001l0.01,0.001l-0.005,-0.001l-0.001,0l-0.009,-0.002l0.01,0.002l0.004,0l-0.012,-0.003l0.012,0.003l0.001,0l-0.005,-0.001l0.005,0.001l0.001,0.001l-0.002,-0.001l0.002,0.001l0.002,0l-0.001,0l0.001,0l0.013,0l-0.009,0l0.015,-0.001l0.013,-0.001l0.015,-0.001l0.017,-0.002l0.017,-0.003l0.039,-0.007l0.087,-0.018l0.046,-0.009l0.048,-0.009l0.026,-0.003l0.026,-0.004l0.026,-0.002l0.026,-0.001l0.094,-0.003l0.008,0l0.101,-0.002l0.1,-0.002l0.1,-0.001l0.101,-0.001l0.1,0l0.2,0l0.2,0.001l0.176,0.002l0.024,0.001l0.2,0.002l0.2,0.002l0.123,0.002l0.122,0.001l0.123,0.001l0.123,0l0.123,0l0.122,0l0.01,0l0.113,-0.002l0.123,-0.003l0.246,-0.006l0.051,-0.001l0.194,-0.008l0.246,-0.012l0.012,-0.001l0.234,-0.017l0.245,-0.019l0.05,-0.004l0.195,-0.02l0.245,-0.025l0.107,-0.011l0.139,-0.017l0.245,-0.03l0.245,-0.03l0.49,-0.061l0.021,-0.003l0.594,-0.075l0.368,-0.042l0.24,-0.028l0.006,-0.001l0.246,-0.024l0.247,-0.024l0.125,-0.012l0.122,-0.009l0.247,-0.018l0.248,-0.017l0.021,-0.001l0.227,-0.01l0.248,-0.009l0.249,-0.009l0.043,-0.001l0.205,-0.004l0.249,-0.002l0.124,-0.001l0.125,-0.001l0.207,0.001l0.006,0l0.202,0.003l0.207,0.004l0.207,0.006l0.208,0.008l0.165,0.006l0.042,0.002l0.207,0.011l0.206,0.011l0.207,0.013l0.207,0.014l0.108,0.007l0.098,0.008l0.206,0.016l0.205,0.017l0.206,0.018l0.205,0.019l0.206,0.019l0.064,0.007l0.11,0.014l0.068,0.01l0.074,0.01l0.077,0.011l0.079,0.013l0.034,0.006l0.044,0.007l0.076,0.014l0.071,0.014l0.034,0.008l0.032,0.007l0.031,0.008l0.029,0.008l0.029,0.009l0.028,0.01l0.028,0.012l0.02,0.01l0.02,0.013l0.024,0.018l0.014,0.015l0.014,0.017l0.013,0.019l0.001,0.003l0.014,0.029l0.009,0.031l0,0.003l0.004,0.027l-0.001,0.027l-0.003,0.026l-0.012,0.042l-0.019,0.037l-0.023,0.031l-0.025,0.024l-0.025,0.018l-0.023,0.014l-0.022,0.011l-0.021,0.008l-0.02,0.006l-0.019,0.005l-0.018,0.003l-0.018,0.003l-0.018,0.003l-0.031,0.002l-0.031,0.002l-0.028,0l-0.027,-0.001l-0.025,-0.001l-0.036,-0.002l-0.019,-0.002l-0.114,-0.12l-0.01,-0.001l-0.032,-0.003l-0.076,-0.006l-0.075,-0.005l-0.071,-0.004l-0.066,-0.003l-0.106,-0.005l-0.056,-0.002l-0.202,-0.002l-0.204,-0.002l-0.205,-0.002l-0.204,0l-0.204,0l-0.097,0.001l-0.108,0l-0.204,0.001l-0.204,0.002l-0.204,0.004l-0.204,0.004l-0.041,0.001l-0.163,0.004l-0.203,0.005l-0.203,0.007l-0.203,0.008l-0.197,0.01l-0.006,0l-0.203,0.009l-0.122,0.007l-0.121,0.006l-0.245,0.014l-0.202,0.013l-0.043,0.002l-0.244,0.014l-0.245,0.015l-0.224,0.014l-0.021,0.001l-0.246,0.011l-0.245,0.012l-0.122,0.006l-0.124,0.004l-0.246,0.008l-0.247,0.009l-0.006,0l-0.241,0.005l-0.37,0.009l-0.598,0.008l-0.021,0l-0.495,0.006l-0.248,0.002l-0.248,0.002l-0.141,0.001l-0.107,0.001l-0.248,0.004l-0.197,0.002l-0.051,0.001l-0.248,0.006l-0.235,0.005l-0.012,0l-0.248,0.009l-0.196,0.006l-0.051,0.002l-0.248,0.009l-0.124,0.004l-0.114,0.004l-0.01,0l-0.124,0.004l-0.124,0.004l-0.124,0.004l-0.124,0.003l-0.124,0.003l-0.124,0.002l-0.199,0.003l-0.198,0.005l-0.024,0l-0.174,0.006l-0.198,0.008l-0.197,0.008l-0.098,0.005l-0.098,0.006l-0.099,0.005l-0.098,0.006l-0.099,0.007l-0.007,0l-0.089,0.007l-0.011,0.001l-0.011,0.002l-0.013,0.002l-0.014,0.003l-0.035,0.008l-0.039,0.01l-0.088,0.023l-0.047,0.011l-0.026,0.006l-0.026,0.005l-0.026,0.004l-0.028,0.004l-0.028,0.003l-0.029,0.002l-0.031,0l-0.032,-0.001l-0.034,-0.004l-0.033,-0.006l-0.021,-0.006l-0.019,-0.006l-0.019,-0.008l-0.02,-0.008l-0.019,-0.011l-0.02,-0.011l-0.019,-0.014l-0.018,-0.015l-0.015,-0.013l-0.003,-0.004l-0.016,-0.017l-0.016,-0.02l-0.014,-0.02l-0.012,-0.02l-0.011,-0.022l-0.009,-0.021l-0.005,-0.016l0.148,-0.304l0.304,0.148l-0.002,-0.005Zm-0.076,-0.065l0.001,0l0,0l-0.001,0l-0.001,-0.001l0,0l0.001,0.001Zm0,0l0,0l0,0l0,0l0,0Zm-0.001,0l0.001,0l-0.001,0l0,0l0,0Zm0.001,0l0,0l0,0l0,0Zm13.922,-0.195l0,0l0.005,-0.001l-0.005,0.001Zm0.005,-0.002l0.008,-0.004l-0.012,0.005l0.005,-0.001l0.007,-0.002l-0.008,0.002l0.01,-0.003l-0.009,0.002l0.009,-0.003l-0.01,0.004Z"/><circle cx="58.311" cy="58.233" r="1.25"/><circle cx="87.755" cy="58.233" r="1.25"/><circle cx="84.255" cy="58.233" r="1.25"/></svg>