<svg xmlns="http://www.w3.org/2000/svg" width="245.703" height="130.105" viewBox="0 0 245.703 130.105"><defs><style>.a{fill:#5a6073;}</style></defs><g transform="translate(-0.007 -0.004)"><path class="a" d="M470.664,122.583a81.352,81.352,0,0,0-20.57-10.455A68.136,68.136,0,0,0,443.3,110.2c1.949-12.013,2.64-26.585,2.058-43.555a3.637,3.637,0,0,0-7.154-.811c-2.238,8.493-8.177,23.02-14.584,25.892a4.914,4.914,0,0,1-4.6-.2c-4.86-2.458-4.72-9.662-4.638-13.519.044-2.2.1-5.21-2.943-5.979s-4.518,1.985-5.561,4.045C399.3,88,390.553,95.726,383.61,95.757a3.734,3.734,0,0,1-3.837-2.427,12.711,12.711,0,0,1-1.012-4.023A176.929,176.929,0,0,0,395.068,69.8,144.367,144.367,0,0,0,408.15,48.231c3.595-7.554,5.236-13.667,4.878-18.163-.347-4.374-2.6-7.456-6.34-8.681l-.16-.049c-3.94-1.088-8.288,1.138-12.917,6.627-10.386,12.292-22.069,40.533-22.2,58.413-5.23,5.093-10.208,8.982-14.423,11.157-2.736,1.412-6.4,2.749-8.346,1.1a8.717,8.717,0,0,1-2.482-4.906,144.5,144.5,0,0,0,12.513-15.287c8.776-12.227,18.532-29.394,19.589-40.9.792-8.634-3.6-11.548-6.293-12.516-.087-.031-.171-.058-.26-.083-7.741-2.143-15.349,8.8-20.369,18.365A124.859,124.859,0,0,0,339.6,76.686a57.247,57.247,0,0,0-1.077,14.369c-4.393,4.307-8.526,7.391-11.463,7.865-1.386.223-1.757-.165-1.917-.331-1.675-1.763-1.468-8.015-.667-11.845a3.64,3.64,0,0,0-7.018-1.9c-5.063,15.685-12.248,22.8-17.128,22.89a4.1,4.1,0,0,1-3.975-3.017c-2.318-6.338,1.973-17.533,3.826-21.313a3.643,3.643,0,1,0-6.493-3.3.533.533,0,0,0-.031.063c-.823,1.672-7.937,16.65-4.142,27.068a11.31,11.31,0,0,0,10.722,7.822h.223c6.451-.121,12.679-5.091,17.769-13.81a9.746,9.746,0,0,0,1.646,2.38,8.921,8.921,0,0,0,8.344,2.505c3.426-.554,7.508-2.863,12.163-6.872a13.584,13.584,0,0,0,3.559,4.946c2.763,2.347,7.846,4.22,16.37-.179a62.421,62.421,0,0,0,12.328-8.871c.149.418.314.822.492,1.209a11.011,11.011,0,0,0,10.473,6.7c8.11-.036,16.8-5.994,24.129-16.279.928,4.267,3.068,8.736,7.993,11.242a12.194,12.194,0,0,0,10.873.358c4.747-2.134,8.611-7.205,11.567-12.641a181.016,181.016,0,0,1-2.053,23.273c-10.624-1.048-20.363,1.162-28.667,6.58-7.772,5.071-10.613,13.6-7.238,21.726a18.147,18.147,0,0,0,16.683,11.622,15.657,15.657,0,0,0,3.337-.355c5.543-1.216,13.307-5.882,18.806-21.2a86.506,86.506,0,0,0,2.861-9.968,74.547,74.547,0,0,1,24.422,11.032,3.628,3.628,0,0,0,5.091-.763,3.668,3.668,0,0,0-.76-5.115h0ZM398.91,32.973c3.2-3.878,5.141-4.6,5.6-4.6h.033c.463.165,1.072.512,1.21,2.266.509,6.379-6.162,20.387-16.6,34.865-3.114,4.327-6.358,8.419-9.594,12.165C382.353,62.716,390.84,42.744,398.91,32.973Zm-41.13,13.72c6.576-12.516,11.033-14.737,11.91-14.737h.013c.574.255,1.664,1.079,1.313,4.888-.759,8.269-7.921,22.919-18.241,37.3-2.082,2.905-4.393,5.889-6.782,8.745C347.147,72.538,351.344,58.945,357.779,46.693Zm60.908,94.762c-3.948.867-9.412-1.274-11.768-6.942-.968-2.331-2.469-8.24,4.485-12.777a35.106,35.106,0,0,1,19.538-5.625q1.9,0,3.759.163C430.969,132.516,424.812,140.112,418.688,141.455Z" transform="translate(-226.406 -18.842)"/><path class="a" d="M135.316,11.358a3.639,3.639,0,0,0-4.763,1.949c-3.248,7.746-21.677,14.96-50.918,5.864h0l-.071-.022C33.671,4.867,17.5,15.894,13.656,19.613c-3.31,3.183-4.614,7.176-3.586,10.955,1.2,4.4,5.276,7.737,11.194,9.16A54.077,54.077,0,0,0,33.943,41.19c14.65,0,28.237-5.414,36.926-9.863C52.146,77.618,50.322,111.388,50.248,112.9a3.639,3.639,0,0,0,3.461,3.819h.178a3.641,3.641,0,0,0,3.633-3.463,187.678,187.678,0,0,1,3.748-25.581A315.568,315.568,0,0,1,80.554,27.036c30.319,8.515,51.737.961,56.724-10.9a3.639,3.639,0,0,0-1.951-4.763ZM22.961,32.648c-3.782-.908-5.51-2.656-5.873-3.991-.425-1.557.821-3.054,1.6-3.806,3.263-3.145,10.146-5.532,20.879-5.532,7.866,0,17.8,1.284,29.892,4.489C59.658,29.076,40.943,36.975,22.961,32.648Z" transform="translate(-9.72 -11.07)"/></g></svg>