<svg xmlns="http://www.w3.org/2000/svg" xmlns:xlink="http://www.w3.org/1999/xlink" width="450" height="775" viewBox="0 0 450 775"><defs><style>.a{fill:none;}.b{opacity:0.104;clip-path:url(#a);}.c{fill:#ffdce5;}</style><clipPath id="a"><rect class="a" width="450" height="775" transform="translate(1470)"/></clipPath></defs><g class="b" transform="translate(-1470)"><path class="c" d="M707.356,733.215l24.159-26.845L616.082,597.65c53.688-88.587,67.11-174.49,67.11-288.58h-32.21c0,111.406-13.426,197.309-60.4,268.447L280.526,287.6C441.591,208.4,531.52,122.5,531.52.358c0-135.565-92.614-222.808-241.6-222.808C126.169-222.45,49.662-107.018,49.662.358c0,103.351,60.4,170.465,124.827,234.89C72.48,280.885,0,365.445,0,483.561,0,640.6,126.169,752.006,308.712,752.006c134.224,0,222.808-55.031,285.892-124.827ZM308.712,719.793c-146.3,0-273.815-92.614-273.815-236.232,0-119.458,81.876-191.939,167.779-224.153L571.791,604.361C512.732,670.13,428.171,719.793,308.712,719.793ZM84.56.358c0-111.406,81.876-190.594,205.361-190.594s206.7,79.187,206.7,190.594c0,124.829-112.747,204.02-240.259,263.079C170.463,189.612,84.56,107.739,84.56.358Z" transform="translate(1469.961 92.88)"/></g></svg>