<?xml version="1.0" encoding="UTF-8" standalone="no"?><!DOCTYPE svg PUBLIC "-//W3C//DTD SVG 1.1//EN" "http://www.w3.org/Graphics/SVG/1.1/DTD/svg11.dtd"><svg width="100%" height="100%" viewBox="0 0 1017 677" version="1.1" xmlns="http://www.w3.org/2000/svg" xmlns:xlink="http://www.w3.org/1999/xlink" xml:space="preserve" xmlns:serif="http://www.serif.com/" style="fill-rule:evenodd;clip-rule:evenodd;stroke-linejoin:round;stroke-miterlimit:1.41421;"><rect id="Hack24" x="0" y="0" width="1016" height="676" style="fill:none;"/><g><path d="M489.564,313.782c2.845,-7.492 6.831,-13.989 11.952,-19.492c5.124,-5.501 11.242,-9.817 18.353,-12.946c3.523,-1.551 7.22,-2.716 11.093,-3.498l37.386,-42.284c-8.808,-2.012 -17.71,-3.025 -26.709,-3.025c-15.365,0 -29.691,2.469 -42.969,7.4c-13.28,4.937 -24.855,12 -34.719,21.199c-9.863,9.204 -17.596,20.346 -23.189,33.437c-5.599,13.091 -8.396,27.701 -8.396,43.825c0,15.303 2.618,29.332 7.813,42.126l45.778,-51.78c0.665,-5.254 1.825,-10.265 3.607,-14.962Zm-114.392,47.095l-25.045,-69.147l-25.608,69.147l50.653,0Zm-0.57,-122.93l61.244,147.477l-36.624,41.419l-10.675,-26.98l-77.974,0l-14.795,39.553l-52.93,0l84.517,-201.469l47.237,0Zm-184.397,0l48.658,0l0,201.469l-48.658,0l0,-84.229l-78.544,0l0,84.229l-48.661,0l0,-201.469l48.661,0l0,76.261l78.544,0l0,-76.261Z" style="fill:#d82737;fill-rule:nonzero;"/><path d="M731.213,356.123l86.793,-92.768l-60.896,0l-71.997,81.955l-0.852,0l0,-81.955l-47.524,0l0,201.471l47.524,0l0,-92.769l0.568,0l74.846,92.769l63.456,0l-91.918,-108.703Zm-150.686,63.743c-7.213,3.796 -15.653,5.691 -25.328,5.691c-8.351,0 -16.036,-1.518 -23.052,-4.555c-7.02,-3.031 -13.043,-7.255 -18.068,-12.662c-5.03,-5.408 -8.966,-11.902 -11.81,-19.492c-2.846,-7.586 -4.271,-15.937 -4.271,-25.045c0,-3.326 0.268,-6.518 0.665,-9.651l-45.779,51.779c0.151,0.372 0.281,0.757 0.437,1.129c5.5,13.089 13.092,24.329 22.767,33.722c9.675,9.388 21.103,16.646 34.291,21.769c13.184,5.124 27.554,7.685 43.111,7.685c17.078,0 32.157,-2.99 45.249,-8.965c13.089,-5.978 24.088,-14.087 33.009,-24.333l-33.863,-31.871c-4.368,6.074 -10.154,11.005 -17.358,14.799Zm-24.475,-117.813c7.775,0 15.367,1.521 22.766,4.554c7.4,3.035 13.374,7.683 17.927,13.944l33.009,-33.01c-8.535,-9.677 -19.683,-17.027 -33.438,-22.053c-5.057,-1.849 -10.145,-3.349 -15.262,-4.52l-37.39,42.286c3.948,-0.798 8.077,-1.201 12.388,-1.201Zm-144.126,150.199l36.623,-41.42l22.419,53.994l-54.065,0l-4.977,-12.574Z" style="fill:#d82737;fill-rule:nonzero;"/><path d="M355.03,500.287l-1.91,-1.677l283.655,-322.897l1.91,1.678l-283.655,322.896Z" style="fill:#d82737;fill-rule:nonzero;"/><path d="M814.162,330.979l0,-3.952l37.572,-44.119c5.683,-6.594 10.194,-12.575 13.541,-17.954c3.349,-5.374 5.02,-10.799 5.02,-16.278c0,-3.748 -0.608,-7.126 -1.831,-10.119c-1.221,-2.988 -2.919,-5.553 -5.108,-7.682c-2.188,-2.13 -4.782,-3.748 -7.781,-4.866c-3.003,-1.116 -6.232,-1.672 -9.693,-1.672c-5.901,0 -11.083,1.55 -15.564,4.64c-4.473,3.097 -7.627,7.685 -9.457,13.768l-3.206,-1.064c1.93,-6.492 5.443,-11.49 10.532,-14.988c5.079,-3.499 10.976,-5.251 17.691,-5.251c4.065,0 7.804,0.663 11.214,1.981c3.406,1.311 6.331,3.162 8.771,5.544c2.441,2.381 4.345,5.163 5.722,8.354c1.37,3.191 2.058,6.609 2.058,10.255c0,3.342 -0.432,6.483 -1.296,9.419c-0.866,2.938 -2.189,5.901 -3.966,8.886c-1.78,2.988 -3.967,6.129 -6.558,9.418c-2.598,3.293 -5.569,6.913 -8.929,10.867l-35.391,41.473l57.051,0l0,3.34l-60.392,0Z" style="fill:#d82737;fill-rule:nonzero;"/><path d="M930.237,226.92l-0.456,0l-47.012,73.025l47.468,0l0,-73.025Zm3.348,76.066l0,27.993l-3.348,0l0,-27.993l-50.355,0l0,-4.107l48.53,-75.607l5.173,0l0,76.673l17.955,0l0,3.041l-17.955,0Z" style="fill:#d82737;fill-rule:nonzero;"/><path d="M812.694,332.448l0,-5.963l37.923,-44.525c5.617,-6.523 10.129,-12.501 13.417,-17.78c3.183,-5.115 4.8,-10.33 4.8,-15.504c0,-3.543 -0.58,-6.757 -1.726,-9.56c-1.141,-2.795 -2.748,-5.213 -4.775,-7.185c-2.026,-1.979 -4.47,-3.506 -7.271,-4.547c-2.825,-1.053 -5.913,-1.587 -9.18,-1.587c-5.564,0 -10.522,1.478 -14.731,4.385c-4.175,2.886 -7.164,7.257 -8.885,12.982l-0.435,1.445l-5.982,-1.989l0.4,-1.36c2.027,-6.79 5.757,-12.095 11.104,-15.774c5.31,-3.658 11.544,-5.506 18.525,-5.506c4.229,0 8.176,0.694 11.745,2.073c3.575,1.379 6.69,3.353 9.264,5.866c2.565,2.503 4.601,5.467 6.044,8.822c1.445,3.359 2.179,7.003 2.179,10.835c0,3.465 -0.46,6.777 -1.357,9.83c-0.901,3.043 -2.281,6.148 -4.111,9.229c-1.813,3.035 -4.054,6.255 -6.668,9.573c-2.601,3.302 -5.618,6.967 -8.963,10.904l-33.327,39.06l55.338,0l0,6.276l-63.328,0Z" style="fill:#d82737;fill-rule:nonzero;"/><path d="M928.774,298.484l0,-67.288l-43.313,67.288l43.313,0Zm0,33.964l0,-27.993l-50.36,0l0,-6.004l49.2,-76.646l7.44,0l0,76.679l17.946,0l0,5.971l-17.946,0l0,27.993l-6.28,0Z" style="fill:#d82737;fill-rule:nonzero;"/><path d="M814.162,330.979l0,-3.952l37.572,-44.119c5.683,-6.594 10.194,-12.575 13.541,-17.954c3.349,-5.374 5.02,-10.799 5.02,-16.278c0,-3.748 -0.608,-7.126 -1.831,-10.119c-1.221,-2.988 -2.919,-5.553 -5.108,-7.682c-2.188,-2.13 -4.782,-3.748 -7.781,-4.866c-3.003,-1.116 -6.232,-1.672 -9.693,-1.672c-5.901,0 -11.083,1.55 -15.564,4.64c-4.473,3.097 -7.627,7.685 -9.457,13.768l-3.206,-1.064c1.93,-6.492 5.443,-11.49 10.532,-14.988c5.079,-3.499 10.976,-5.251 17.691,-5.251c4.065,0 7.804,0.663 11.214,1.981c3.406,1.311 6.331,3.162 8.771,5.544c2.441,2.381 4.345,5.163 5.722,8.354c1.37,3.191 2.058,6.609 2.058,10.255c0,3.342 -0.432,6.483 -1.296,9.419c-0.866,2.938 -2.189,5.901 -3.966,8.886c-1.78,2.988 -3.967,6.129 -6.558,9.418c-2.598,3.293 -5.569,6.913 -8.929,10.867l-35.391,41.473l57.051,0l0,3.34l-60.392,0Z" style="fill:#d82737;fill-rule:nonzero;"/><path d="M930.237,226.92l-0.456,0l-47.012,73.025l47.468,0l0,-73.025Zm3.348,76.066l0,27.993l-3.348,0l0,-27.993l-50.355,0l0,-4.107l48.53,-75.607l5.173,0l0,76.673l17.955,0l0,3.041l-17.955,0Z" style="fill:#d82737;fill-rule:nonzero;"/><path d="M77.926,204.531l0.482,-2.741l-13.758,0l-0.482,2.741l5.33,0l-2.665,15.231l3.122,0l2.691,-15.231l5.28,0Z" style="fill:#d82737;fill-rule:nonzero;"/><path d="M89.374,214.609c0.101,-0.432 0.177,-0.889 0.228,-1.371c0.051,-0.482 0.076,-0.838 0.076,-1.117c0,-0.812 -0.127,-1.523 -0.38,-2.132c-0.254,-0.609 -0.61,-1.117 -1.067,-1.523c-0.456,-0.406 -0.989,-0.711 -1.599,-0.914c-0.634,-0.203 -1.294,-0.305 -2.03,-0.305c-1.041,0 -1.98,0.178 -2.843,0.559c-0.889,0.381 -1.625,0.914 -2.26,1.599c-0.634,0.685 -1.142,1.472 -1.497,2.361c-0.356,0.914 -0.533,1.904 -0.533,2.944c0,0.863 0.152,1.625 0.431,2.285c0.28,0.685 0.686,1.244 1.193,1.701c0.508,0.456 1.117,0.812 1.803,1.04c0.685,0.254 1.446,0.381 2.284,0.381c2.158,0 4.011,-0.812 5.508,-2.437l-1.7,-1.599c-0.432,0.482 -0.94,0.888 -1.473,1.168c-0.558,0.279 -1.218,0.431 -2.005,0.431c-0.457,0 -0.888,-0.076 -1.269,-0.228c-0.381,-0.127 -0.736,-0.33 -1.015,-0.584c-0.28,-0.229 -0.508,-0.533 -0.66,-0.863c-0.178,-0.33 -0.254,-0.711 -0.254,-1.117c0,-0.102 0,-0.203 0.025,-0.279l9.037,0Zm-8.758,-2.132c0.076,-0.33 0.203,-0.66 0.406,-1.016c0.204,-0.355 0.457,-0.685 0.787,-0.99c0.305,-0.279 0.66,-0.533 1.092,-0.711c0.431,-0.177 0.888,-0.279 1.421,-0.279c0.838,0 1.498,0.229 1.98,0.686c0.457,0.457 0.686,1.015 0.686,1.675c0,0.101 0,0.203 0,0.305c-0.026,0.101 -0.026,0.203 -0.051,0.33l-6.321,0Z" style="fill:#d82737;fill-rule:nonzero;"/><path d="M103.969,209.304c-0.431,-0.711 -1.066,-1.244 -1.878,-1.574c-0.838,-0.33 -1.701,-0.483 -2.614,-0.483c-1.117,0 -2.133,0.204 -3.047,0.61c-0.939,0.431 -1.726,0.99 -2.36,1.675c-0.635,0.711 -1.143,1.523 -1.498,2.437c-0.355,0.914 -0.533,1.853 -0.533,2.843c0,0.787 0.152,1.523 0.432,2.157c0.279,0.635 0.66,1.194 1.193,1.65c0.507,0.483 1.117,0.838 1.853,1.092c0.71,0.254 1.497,0.381 2.386,0.381c1.066,0 2.005,-0.178 2.817,-0.559c0.813,-0.381 1.549,-0.888 2.183,-1.523l-1.7,-1.726c-0.381,0.381 -0.813,0.711 -1.27,0.965c-0.482,0.279 -1.091,0.406 -1.853,0.406c-0.533,0 -1.015,-0.102 -1.396,-0.279c-0.38,-0.178 -0.71,-0.407 -0.964,-0.711c-0.254,-0.279 -0.432,-0.635 -0.559,-1.015c-0.127,-0.381 -0.177,-0.787 -0.177,-1.194c0,-0.634 0.101,-1.243 0.33,-1.827c0.228,-0.559 0.533,-1.066 0.913,-1.523c0.381,-0.432 0.838,-0.787 1.371,-1.041c0.533,-0.254 1.092,-0.381 1.726,-0.381c0.533,0 1.041,0.127 1.498,0.381c0.457,0.279 0.787,0.584 1.015,0.965l2.132,-1.726Z" style="fill:#d82737;fill-rule:nonzero;"/><path d="M115.798,219.762l1.346,-7.59c0.076,-0.33 0.101,-0.711 0.101,-1.142c0,-0.508 -0.076,-0.99 -0.228,-1.473c-0.178,-0.457 -0.406,-0.863 -0.736,-1.193c-0.33,-0.33 -0.762,-0.609 -1.244,-0.812c-0.508,-0.203 -1.092,-0.305 -1.777,-0.305c-0.914,0 -1.675,0.204 -2.31,0.61c-0.635,0.431 -1.117,0.914 -1.447,1.447l-0.051,0l1.549,-8.732l-2.996,0l-3.376,19.19l2.97,0l1.168,-6.625c0.076,-0.432 0.203,-0.838 0.381,-1.244c0.177,-0.406 0.406,-0.762 0.685,-1.092c0.279,-0.304 0.609,-0.558 0.99,-0.736c0.381,-0.178 0.812,-0.279 1.295,-0.279c0.761,0 1.294,0.203 1.573,0.609c0.28,0.432 0.432,0.914 0.432,1.447c0,0.203 0,0.406 -0.025,0.609c-0.026,0.203 -0.077,0.406 -0.102,0.609l-1.168,6.702l2.97,0Z" style="fill:#d82737;fill-rule:nonzero;"/><path d="M141.817,219.762l3.173,-17.972l-3.123,0l-2.386,13.53l-0.05,0l-5.788,-13.53l-4.061,0l-3.173,17.972l3.122,0l2.462,-13.961l0.051,0l5.889,13.961l3.884,0Z" style="fill:#d82737;fill-rule:nonzero;"/><path d="M155.651,219.482c0.914,-0.406 1.701,-0.964 2.335,-1.649c0.635,-0.686 1.142,-1.498 1.498,-2.412c0.33,-0.914 0.507,-1.878 0.507,-2.894c0,-0.787 -0.152,-1.497 -0.431,-2.157c-0.305,-0.635 -0.711,-1.193 -1.244,-1.676c-0.533,-0.457 -1.142,-0.812 -1.853,-1.066c-0.736,-0.254 -1.523,-0.381 -2.386,-0.381c-1.117,0 -2.132,0.204 -3.021,0.61c-0.913,0.431 -1.7,0.99 -2.335,1.675c-0.635,0.685 -1.142,1.498 -1.472,2.386c-0.356,0.914 -0.533,1.878 -0.533,2.868c0,0.787 0.152,1.523 0.457,2.158c0.279,0.635 0.685,1.193 1.218,1.675c0.533,0.483 1.142,0.838 1.878,1.092c0.711,0.254 1.498,0.381 2.336,0.381c1.117,0 2.132,-0.203 3.046,-0.61Zm1.041,-4.797c-0.204,0.584 -0.483,1.091 -0.838,1.548c-0.381,0.432 -0.812,0.787 -1.345,1.041c-0.534,0.254 -1.117,0.381 -1.752,0.381c-0.99,0 -1.751,-0.305 -2.284,-0.889c-0.534,-0.609 -0.813,-1.345 -0.813,-2.259c0,-0.66 0.102,-1.269 0.305,-1.853c0.203,-0.558 0.482,-1.066 0.863,-1.523c0.355,-0.431 0.787,-0.787 1.32,-1.041c0.508,-0.279 1.091,-0.406 1.726,-0.406c0.965,0 1.726,0.305 2.285,0.889c0.558,0.609 0.837,1.345 0.837,2.259c0,0.66 -0.101,1.269 -0.304,1.853Z" style="fill:#d82737;fill-rule:nonzero;"/><path d="M164.256,210.014l-1.041,5.636c-0.051,0.253 -0.076,0.507 -0.101,0.786c-0.026,0.28 -0.051,0.533 -0.051,0.762c0,0.863 0.279,1.523 0.812,2.056c0.533,0.508 1.447,0.762 2.742,0.762c0.279,0 0.609,-0.026 0.964,-0.102c0.33,-0.051 0.635,-0.127 0.889,-0.228l0.177,-2.26c-0.177,0.051 -0.355,0.077 -0.533,0.102c-0.203,0.025 -0.406,0.051 -0.609,0.051c-0.431,0 -0.787,-0.076 -1.041,-0.254c-0.279,-0.178 -0.406,-0.457 -0.406,-0.914c0,-0.203 0.026,-0.457 0.076,-0.711l1.066,-5.686l2.691,0l0.432,-2.437l-2.742,0l0.609,-3.553l-2.944,0l-0.609,3.553l-2.107,0l-0.432,2.437l2.158,0Z" style="fill:#d82737;fill-rule:nonzero;"/><path d="M173.139,210.014l-1.041,5.636c-0.051,0.253 -0.076,0.507 -0.101,0.786c-0.026,0.28 -0.051,0.533 -0.051,0.762c0,0.863 0.279,1.523 0.812,2.056c0.533,0.508 1.447,0.762 2.742,0.762c0.279,0 0.609,-0.026 0.964,-0.102c0.33,-0.051 0.635,-0.127 0.889,-0.228l0.177,-2.26c-0.177,0.051 -0.355,0.077 -0.533,0.102c-0.203,0.025 -0.406,0.051 -0.609,0.051c-0.431,0 -0.787,-0.076 -1.041,-0.254c-0.279,-0.178 -0.406,-0.457 -0.406,-0.914c0,-0.203 0.026,-0.457 0.076,-0.711l1.067,-5.686l2.69,0l0.432,-2.437l-2.742,0l0.609,-3.553l-2.944,0l-0.609,3.553l-2.107,0l-0.432,2.437l2.158,0Z" style="fill:#d82737;fill-rule:nonzero;"/><path d="M182.886,219.762l2.158,-12.185l-2.995,0l-2.133,12.185l2.97,0Zm2.666,-17.667c-0.33,-0.305 -0.762,-0.457 -1.244,-0.457c-0.482,0 -0.914,0.177 -1.295,0.507c-0.38,0.356 -0.558,0.813 -0.558,1.346c0,0.558 0.178,0.99 0.533,1.294c0.33,0.305 0.761,0.457 1.244,0.457c0.507,0 0.939,-0.178 1.294,-0.558c0.33,-0.381 0.508,-0.813 0.508,-1.295c0,-0.533 -0.152,-0.964 -0.482,-1.294Z" style="fill:#d82737;fill-rule:nonzero;"/><path d="M191.568,209.481c0.025,-0.279 0.076,-0.634 0.127,-1.04c0.05,-0.381 0.076,-0.686 0.101,-0.864l-2.792,0c-0.026,0.407 -0.076,0.864 -0.152,1.371c-0.077,0.508 -0.153,0.914 -0.229,1.244l-1.675,9.57l2.97,0l1.193,-6.702c0.076,-0.406 0.203,-0.812 0.38,-1.193c0.178,-0.38 0.407,-0.736 0.686,-1.066c0.279,-0.304 0.584,-0.558 0.964,-0.736c0.381,-0.178 0.813,-0.279 1.295,-0.279c0.761,0 1.295,0.203 1.574,0.609c0.279,0.432 0.431,0.914 0.431,1.447c0,0.203 0,0.406 -0.025,0.609c-0.025,0.203 -0.076,0.406 -0.102,0.609l-1.167,6.702l2.97,0l1.345,-7.59c0.076,-0.33 0.102,-0.711 0.102,-1.142c0,-0.508 -0.077,-0.99 -0.229,-1.473c-0.178,-0.457 -0.406,-0.863 -0.736,-1.193c-0.33,-0.33 -0.762,-0.609 -1.244,-0.812c-0.508,-0.203 -1.091,-0.305 -1.777,-0.305c-0.914,0 -1.7,0.204 -2.335,0.61c-0.66,0.431 -1.193,0.964 -1.625,1.624l-0.05,0Z" style="fill:#d82737;fill-rule:nonzero;"/><path d="M213.245,209.43c-0.33,-0.634 -0.812,-1.167 -1.497,-1.573c-0.686,-0.406 -1.574,-0.61 -2.691,-0.61c-0.99,0 -1.878,0.204 -2.691,0.584c-0.837,0.381 -1.548,0.914 -2.132,1.599c-0.584,0.686 -1.041,1.498 -1.371,2.412c-0.33,0.914 -0.507,1.878 -0.507,2.919c0,0.787 0.127,1.498 0.38,2.132c0.229,0.635 0.584,1.193 1.041,1.65c0.432,0.457 0.99,0.813 1.625,1.066c0.634,0.254 1.32,0.381 2.107,0.381c0.913,0 1.726,-0.178 2.462,-0.533c0.711,-0.355 1.294,-0.812 1.726,-1.396l0.051,0l-0.203,0.965c-0.127,0.609 -0.305,1.193 -0.508,1.7c-0.203,0.533 -0.482,0.965 -0.838,1.346c-0.355,0.38 -0.787,0.66 -1.294,0.863c-0.533,0.228 -1.168,0.33 -1.904,0.33c-0.787,0 -1.523,-0.153 -2.208,-0.457c-0.686,-0.305 -1.27,-0.736 -1.752,-1.295l-1.98,2.158c0.33,0.355 0.736,0.66 1.219,0.939c0.456,0.279 0.939,0.508 1.472,0.685c0.533,0.178 1.066,0.33 1.599,0.406c0.533,0.102 1.066,0.153 1.574,0.153c1.244,0 2.284,-0.178 3.173,-0.508c0.888,-0.33 1.624,-0.812 2.208,-1.447c0.584,-0.634 1.066,-1.37 1.422,-2.259c0.355,-0.888 0.634,-1.853 0.812,-2.919l1.929,-11.144l-2.843,0l-0.304,1.853l-0.077,0Zm-7.539,3.123c0.178,-0.584 0.457,-1.092 0.838,-1.523c0.355,-0.432 0.787,-0.762 1.32,-1.016c0.508,-0.254 1.066,-0.38 1.701,-0.38c0.939,0 1.7,0.304 2.259,0.888c0.558,0.584 0.838,1.345 0.838,2.285c0,0.634 -0.102,1.243 -0.33,1.802c-0.229,0.584 -0.508,1.091 -0.889,1.523c-0.381,0.431 -0.838,0.787 -1.371,1.041c-0.533,0.253 -1.091,0.38 -1.675,0.38c-0.965,0 -1.701,-0.304 -2.208,-0.914c-0.533,-0.609 -0.787,-1.345 -0.787,-2.259c0,-0.66 0.101,-1.269 0.304,-1.827Z" style="fill:#d82737;fill-rule:nonzero;"/><path d="M229.491,219.762l1.345,-7.59c0.076,-0.33 0.102,-0.711 0.102,-1.142c0,-0.508 -0.076,-0.99 -0.229,-1.473c-0.177,-0.457 -0.406,-0.863 -0.736,-1.193c-0.33,-0.33 -0.761,-0.609 -1.244,-0.812c-0.507,-0.203 -1.091,-0.305 -1.776,-0.305c-0.914,0 -1.676,0.204 -2.31,0.61c-0.635,0.431 -1.117,0.914 -1.447,1.447l-0.051,0l1.548,-8.732l-2.995,0l-3.376,19.19l2.97,0l1.168,-6.625c0.076,-0.432 0.203,-0.838 0.38,-1.244c0.178,-0.406 0.407,-0.762 0.686,-1.092c0.279,-0.304 0.609,-0.558 0.99,-0.736c0.381,-0.178 0.812,-0.279 1.294,-0.279c0.762,0 1.295,0.203 1.574,0.609c0.279,0.432 0.432,0.914 0.432,1.447c0,0.203 0,0.406 -0.026,0.609c-0.025,0.203 -0.076,0.406 -0.101,0.609l-1.168,6.702l2.97,0Z" style="fill:#d82737;fill-rule:nonzero;"/><path d="M238.882,212.223c-1.041,0.127 -2.006,0.355 -2.843,0.685c-0.838,0.355 -1.523,0.838 -2.056,1.447c-0.533,0.635 -0.813,1.447 -0.813,2.437c0,0.634 0.127,1.142 0.356,1.548c0.228,0.432 0.533,0.762 0.914,0.99c0.38,0.254 0.786,0.432 1.243,0.533c0.457,0.102 0.889,0.153 1.32,0.153c1.701,0 3.021,-0.559 3.96,-1.701l0.051,0c-0.102,0.507 -0.152,0.99 -0.152,1.447l2.741,0c0,-0.33 0.025,-0.762 0.102,-1.269c0.05,-0.508 0.127,-0.99 0.203,-1.473l0.888,-4.95c0.026,-0.177 0.051,-0.355 0.076,-0.583c0.026,-0.229 0.026,-0.407 0.026,-0.559c0,-0.685 -0.127,-1.269 -0.406,-1.751c-0.28,-0.457 -0.635,-0.838 -1.067,-1.117c-0.456,-0.279 -0.964,-0.508 -1.523,-0.635c-0.583,-0.127 -1.142,-0.178 -1.726,-0.178c-0.939,0 -1.827,0.127 -2.716,0.407c-0.888,0.279 -1.7,0.685 -2.386,1.167l1.142,2.006c0.483,-0.356 1.067,-0.66 1.701,-0.889c0.635,-0.228 1.244,-0.33 1.828,-0.33c0.736,0 1.32,0.127 1.7,0.381c0.381,0.254 0.559,0.685 0.559,1.269c0,0.102 0,0.203 0,0.305c-0.025,0.127 -0.051,0.279 -0.076,0.482c-0.99,0 -2.006,0.051 -3.046,0.178Zm2.767,1.954l-0.153,0.762c-0.076,0.406 -0.228,0.787 -0.406,1.117c-0.203,0.355 -0.457,0.66 -0.736,0.913c-0.305,0.28 -0.66,0.483 -1.041,0.635c-0.406,0.152 -0.837,0.229 -1.294,0.229c-0.254,0 -0.508,-0.026 -0.736,-0.077c-0.229,-0.05 -0.457,-0.127 -0.635,-0.253c-0.178,-0.127 -0.33,-0.28 -0.432,-0.483c-0.126,-0.177 -0.177,-0.431 -0.177,-0.711c0,-0.482 0.177,-0.863 0.507,-1.142c0.33,-0.279 0.737,-0.482 1.27,-0.634c0.507,-0.153 1.066,-0.254 1.7,-0.305c0.61,-0.025 1.193,-0.051 1.777,-0.051l0.356,0Z" style="fill:#d82737;fill-rule:nonzero;"/><path d="M249.009,210.192l-1.676,9.57l2.97,0l1.193,-6.702c0.076,-0.406 0.203,-0.812 0.381,-1.218c0.178,-0.381 0.381,-0.736 0.66,-1.041c0.279,-0.304 0.584,-0.558 0.965,-0.761c0.355,-0.178 0.761,-0.28 1.218,-0.28c0.635,0 1.117,0.178 1.421,0.534c0.305,0.38 0.457,0.837 0.457,1.421c0,0.203 -0.025,0.432 -0.076,0.685l-1.294,7.362l2.995,0l1.168,-6.651c0.076,-0.381 0.177,-0.787 0.355,-1.193c0.178,-0.381 0.406,-0.736 0.685,-1.066c0.28,-0.33 0.584,-0.584 0.965,-0.787c0.381,-0.203 0.787,-0.305 1.269,-0.305c0.381,0 0.711,0.051 0.99,0.178c0.254,0.127 0.457,0.279 0.609,0.457c0.153,0.178 0.254,0.406 0.33,0.66c0.076,0.254 0.102,0.508 0.102,0.787c0,0.203 0,0.406 -0.026,0.609c-0.025,0.203 -0.076,0.406 -0.101,0.609l-1.168,6.702l2.97,0l1.345,-7.59c0.077,-0.33 0.102,-0.711 0.102,-1.142c0,-0.508 -0.076,-0.99 -0.228,-1.473c-0.178,-0.457 -0.432,-0.863 -0.762,-1.193c-0.33,-0.33 -0.762,-0.609 -1.269,-0.812c-0.508,-0.203 -1.117,-0.305 -1.828,-0.305c-0.939,0 -1.751,0.204 -2.462,0.635c-0.711,0.432 -1.32,1.015 -1.853,1.752c-0.178,-0.686 -0.584,-1.27 -1.193,-1.727c-0.635,-0.431 -1.447,-0.66 -2.462,-0.66c-0.94,0 -1.701,0.229 -2.285,0.686c-0.609,0.457 -1.091,0.964 -1.472,1.548l-0.051,0c0.025,-0.279 0.076,-0.609 0.127,-1.015c0.051,-0.406 0.076,-0.711 0.102,-0.889l-2.793,0c-0.025,0.407 -0.076,0.864 -0.152,1.371c-0.076,0.508 -0.152,0.914 -0.228,1.244Z" style="fill:#d82737;fill-rule:nonzero;"/><path d="M279.04,216.513l0.076,0c0.254,1.066 0.813,1.929 1.676,2.589c0.837,0.685 1.903,1.015 3.147,1.015c1.016,0 1.929,-0.203 2.767,-0.609c0.812,-0.381 1.498,-0.914 2.082,-1.574c0.583,-0.66 1.015,-1.421 1.345,-2.284c0.304,-0.864 0.457,-1.777 0.457,-2.717c0,-0.736 -0.102,-1.446 -0.33,-2.081c-0.229,-0.635 -0.559,-1.168 -0.99,-1.65c-0.432,-0.457 -0.99,-0.812 -1.625,-1.091c-0.66,-0.254 -1.421,-0.381 -2.31,-0.381c-0.609,0 -1.193,0.076 -1.726,0.254c-0.533,0.177 -1.041,0.406 -1.472,0.71c-0.457,0.305 -0.863,0.66 -1.218,1.066c-0.356,0.407 -0.635,0.838 -0.864,1.32l-0.076,0l0.559,-2.995l-0.559,0l-3.122,17.769l0.559,0l1.624,-9.341Zm8.326,-7.92c0.584,0.228 1.092,0.584 1.498,1.015c0.38,0.432 0.685,0.939 0.888,1.498c0.178,0.584 0.279,1.193 0.279,1.853c0,0.863 -0.152,1.701 -0.431,2.513c-0.279,0.812 -0.686,1.523 -1.219,2.132c-0.533,0.635 -1.193,1.117 -1.929,1.498c-0.761,0.38 -1.599,0.558 -2.513,0.558c-0.685,0 -1.32,-0.127 -1.878,-0.381c-0.584,-0.228 -1.066,-0.558 -1.447,-0.99c-0.406,-0.406 -0.711,-0.888 -0.914,-1.472c-0.228,-0.558 -0.33,-1.167 -0.33,-1.802c0,-0.863 0.152,-1.726 0.457,-2.538c0.305,-0.813 0.711,-1.523 1.244,-2.158c0.533,-0.635 1.142,-1.142 1.878,-1.523c0.711,-0.381 1.498,-0.584 2.336,-0.584c0.786,0 1.497,0.127 2.081,0.381Z" style="fill:#d82737;fill-rule:nonzero;"/><path d="M296.098,211.131l-0.051,0c0.026,-0.228 0.076,-0.482 0.127,-0.761c0.051,-0.28 0.102,-0.559 0.127,-0.863c0.026,-0.28 0.076,-0.559 0.102,-0.813c0.025,-0.253 0.05,-0.457 0.076,-0.634l-0.559,0c0,0.177 -0.025,0.381 -0.05,0.634c-0.026,0.254 -0.077,0.533 -0.102,0.813c-0.025,0.279 -0.076,0.558 -0.101,0.812c-0.051,0.279 -0.102,0.508 -0.127,0.685l-1.549,8.758l0.559,0l1.066,-6.067c0.127,-0.635 0.304,-1.269 0.558,-1.929c0.254,-0.66 0.584,-1.244 1.016,-1.777c0.406,-0.533 0.888,-0.965 1.472,-1.295c0.558,-0.33 1.218,-0.507 1.954,-0.507c0.026,0 0.077,0 0.153,0c0.05,0 0.101,0 0.177,0.025l0.077,-0.457c-0.077,-0.025 -0.127,-0.025 -0.204,-0.025c-0.076,0 -0.152,0 -0.228,0c-0.863,0 -1.701,0.254 -2.488,0.787c-0.787,0.533 -1.472,1.396 -2.005,2.614Z" style="fill:#d82737;fill-rule:nonzero;"/><path d="M313.105,213.796c0.076,-0.279 0.127,-0.533 0.152,-0.812c0.026,-0.279 0.026,-0.482 0.026,-0.66c0,-0.634 -0.102,-1.218 -0.279,-1.777c-0.178,-0.558 -0.457,-1.04 -0.838,-1.472c-0.381,-0.406 -0.863,-0.736 -1.421,-0.99c-0.584,-0.228 -1.27,-0.355 -2.057,-0.355c-1.015,0 -1.929,0.203 -2.741,0.584c-0.812,0.38 -1.498,0.913 -2.107,1.573c-0.584,0.66 -1.041,1.422 -1.371,2.26c-0.33,0.863 -0.482,1.751 -0.482,2.665c0,0.787 0.127,1.497 0.355,2.132c0.229,0.66 0.584,1.219 1.041,1.675c0.457,0.483 1.016,0.838 1.701,1.092c0.66,0.279 1.421,0.406 2.284,0.406c1.067,0 2.006,-0.228 2.818,-0.685c0.812,-0.432 1.472,-0.965 1.955,-1.599l-0.305,-0.356c-0.533,0.635 -1.168,1.168 -1.904,1.574c-0.736,0.406 -1.599,0.609 -2.564,0.609c-1.523,0 -2.716,-0.431 -3.553,-1.294c-0.838,-0.863 -1.269,-2.107 -1.269,-3.681c0,-0.254 0.025,-0.559 0.076,-0.889l10.483,0Zm-10.407,-0.456c0.101,-0.559 0.304,-1.117 0.609,-1.727c0.279,-0.609 0.685,-1.167 1.193,-1.675c0.482,-0.508 1.092,-0.914 1.777,-1.244c0.685,-0.33 1.498,-0.507 2.386,-0.507c1.269,0 2.259,0.38 2.995,1.117c0.711,0.761 1.066,1.751 1.066,2.995c0,0.304 -0.025,0.66 -0.076,1.041l-9.95,0Z" style="fill:#d82737;fill-rule:nonzero;"/><path d="M315.311,218.493c0.305,0.456 0.787,0.837 1.447,1.116c0.66,0.305 1.371,0.457 2.132,0.457c0.635,0 1.193,-0.101 1.701,-0.279c0.508,-0.178 0.939,-0.406 1.32,-0.736c0.355,-0.33 0.634,-0.685 0.837,-1.117c0.178,-0.431 0.28,-0.888 0.28,-1.396c0,-0.711 -0.229,-1.32 -0.66,-1.802c-0.457,-0.508 -1.295,-0.94 -2.513,-1.346c-0.838,-0.253 -1.447,-0.558 -1.879,-0.863c-0.431,-0.304 -0.634,-0.787 -0.634,-1.447c0,-0.533 0.127,-0.99 0.355,-1.345c0.229,-0.381 0.533,-0.66 0.889,-0.888c0.33,-0.229 0.71,-0.406 1.116,-0.508c0.407,-0.102 0.787,-0.152 1.143,-0.152c0.584,0 1.142,0.101 1.675,0.33c0.533,0.228 0.914,0.533 1.117,0.913l0.457,-0.33c-0.254,-0.38 -0.66,-0.71 -1.193,-0.989c-0.559,-0.254 -1.244,-0.381 -2.031,-0.381c-0.482,0 -0.964,0.076 -1.447,0.203c-0.482,0.152 -0.939,0.381 -1.32,0.66c-0.38,0.279 -0.71,0.634 -0.939,1.066c-0.254,0.431 -0.381,0.939 -0.381,1.523c0,0.66 0.203,1.193 0.635,1.599c0.406,0.406 1.117,0.762 2.107,1.092c0.558,0.177 1.04,0.355 1.421,0.533c0.381,0.177 0.686,0.38 0.914,0.584c0.229,0.228 0.381,0.456 0.482,0.71c0.077,0.254 0.127,0.533 0.127,0.863c0,0.406 -0.076,0.787 -0.228,1.143c-0.178,0.38 -0.406,0.685 -0.711,0.964c-0.305,0.279 -0.66,0.482 -1.091,0.635c-0.432,0.177 -0.914,0.254 -1.447,0.254c-0.686,0 -1.346,-0.127 -1.929,-0.407c-0.61,-0.253 -1.067,-0.583 -1.346,-1.015l-0.406,0.356Z" style="fill:#d82737;fill-rule:nonzero;"/><path d="M337.802,213.796c0.077,-0.279 0.127,-0.533 0.153,-0.812c0.025,-0.279 0.025,-0.482 0.025,-0.66c0,-0.634 -0.101,-1.218 -0.279,-1.777c-0.178,-0.558 -0.457,-1.04 -0.838,-1.472c-0.381,-0.406 -0.863,-0.736 -1.421,-0.99c-0.584,-0.228 -1.27,-0.355 -2.056,-0.355c-1.016,0 -1.93,0.203 -2.742,0.584c-0.812,0.38 -1.498,0.913 -2.107,1.573c-0.584,0.66 -1.04,1.422 -1.37,2.26c-0.33,0.863 -0.483,1.751 -0.483,2.665c0,0.787 0.127,1.497 0.356,2.132c0.228,0.66 0.583,1.219 1.04,1.675c0.457,0.483 1.016,0.838 1.701,1.092c0.66,0.279 1.422,0.406 2.285,0.406c1.066,0 2.005,-0.228 2.817,-0.685c0.812,-0.432 1.472,-0.965 1.955,-1.599l-0.305,-0.356c-0.533,0.635 -1.167,1.168 -1.904,1.574c-0.736,0.406 -1.599,0.609 -2.563,0.609c-1.523,0 -2.716,-0.431 -3.554,-1.294c-0.838,-0.863 -1.269,-2.107 -1.269,-3.681c0,-0.254 0.025,-0.559 0.076,-0.889l10.483,0Zm-10.407,-0.456c0.102,-0.559 0.305,-1.117 0.609,-1.727c0.279,-0.609 0.686,-1.167 1.193,-1.675c0.483,-0.508 1.092,-0.914 1.777,-1.244c0.685,-0.33 1.498,-0.507 2.386,-0.507c1.269,0 2.259,0.38 2.995,1.117c0.711,0.761 1.067,1.751 1.067,2.995c0,0.304 -0.026,0.66 -0.077,1.041l-9.95,0Z" style="fill:#d82737;fill-rule:nonzero;"/><path d="M345.239,208.593c-0.838,0.584 -1.523,1.421 -2.057,2.564l-0.05,0c0.025,-0.229 0.076,-0.483 0.127,-0.762c0.05,-0.279 0.101,-0.558 0.127,-0.863c0.025,-0.305 0.076,-0.584 0.101,-0.838c0.025,-0.253 0.051,-0.457 0.076,-0.634l-0.558,0c0,0.177 -0.026,0.381 -0.051,0.634c-0.025,0.254 -0.076,0.533 -0.102,0.813c-0.025,0.279 -0.076,0.558 -0.101,0.812c-0.051,0.279 -0.102,0.508 -0.127,0.685l-1.548,8.758l0.558,0l1.041,-5.864c0.152,-0.888 0.406,-1.675 0.736,-2.386c0.33,-0.711 0.711,-1.295 1.168,-1.802c0.456,-0.483 0.964,-0.863 1.548,-1.117c0.558,-0.279 1.168,-0.406 1.802,-0.406c0.584,0 1.092,0.101 1.498,0.304c0.406,0.178 0.736,0.432 0.99,0.762c0.254,0.304 0.431,0.66 0.558,1.066c0.127,0.381 0.178,0.787 0.178,1.193c0,0.203 0,0.406 -0.025,0.635c-0.026,0.253 -0.077,0.456 -0.102,0.634l-1.244,6.981l0.559,0l1.218,-6.93c0.102,-0.508 0.152,-0.939 0.152,-1.32c0,-0.482 -0.076,-0.965 -0.228,-1.422c-0.152,-0.456 -0.381,-0.863 -0.685,-1.218c-0.305,-0.33 -0.686,-0.609 -1.143,-0.838c-0.482,-0.203 -1.015,-0.304 -1.65,-0.304c-1.015,0 -1.929,0.279 -2.766,0.863Z" style="fill:#d82737;fill-rule:nonzero;"/><path d="M360.013,219.787l0,-0.431c-0.203,0.101 -0.431,0.152 -0.66,0.203c-0.254,0.025 -0.457,0.05 -0.609,0.05c-0.533,0 -0.965,-0.127 -1.295,-0.355c-0.33,-0.228 -0.482,-0.609 -0.482,-1.168c0,-0.101 0,-0.253 0.025,-0.482c0.026,-0.203 0.051,-0.381 0.077,-0.508l1.497,-8.554l3.199,0l0.076,-0.457l-3.199,0l0.61,-3.427l-0.559,0l-0.609,3.427l-2.665,0l-0.076,0.457l2.69,0l-1.497,8.453c-0.026,0.127 -0.051,0.304 -0.077,0.558c-0.025,0.229 -0.05,0.406 -0.05,0.559c0,0.609 0.177,1.091 0.558,1.421c0.381,0.356 0.914,0.533 1.65,0.533c0.254,0 0.508,-0.025 0.736,-0.076c0.229,-0.051 0.432,-0.127 0.66,-0.203Z" style="fill:#d82737;fill-rule:nonzero;"/><path d="M362.298,218.493c0.304,0.456 0.787,0.837 1.447,1.116c0.66,0.305 1.37,0.457 2.132,0.457c0.634,0 1.193,-0.101 1.701,-0.279c0.507,-0.178 0.939,-0.406 1.319,-0.736c0.356,-0.33 0.635,-0.685 0.838,-1.117c0.178,-0.431 0.279,-0.888 0.279,-1.396c0,-0.711 -0.228,-1.32 -0.66,-1.802c-0.457,-0.508 -1.294,-0.94 -2.513,-1.346c-0.837,-0.253 -1.446,-0.558 -1.878,-0.863c-0.432,-0.304 -0.635,-0.787 -0.635,-1.447c0,-0.533 0.127,-0.99 0.356,-1.345c0.228,-0.381 0.533,-0.66 0.888,-0.888c0.33,-0.229 0.711,-0.406 1.117,-0.508c0.406,-0.102 0.787,-0.152 1.142,-0.152c0.584,0 1.143,0.101 1.676,0.33c0.533,0.228 0.914,0.533 1.117,0.913l0.457,-0.33c-0.254,-0.38 -0.66,-0.71 -1.194,-0.989c-0.558,-0.254 -1.243,-0.381 -2.03,-0.381c-0.483,0 -0.965,0.076 -1.447,0.203c-0.482,0.152 -0.939,0.381 -1.32,0.66c-0.381,0.279 -0.711,0.634 -0.939,1.066c-0.254,0.431 -0.381,0.939 -0.381,1.523c0,0.66 0.203,1.193 0.635,1.599c0.406,0.406 1.116,0.762 2.106,1.092c0.559,0.177 1.041,0.355 1.422,0.533c0.381,0.177 0.685,0.38 0.914,0.584c0.228,0.228 0.38,0.456 0.482,0.71c0.076,0.254 0.127,0.533 0.127,0.863c0,0.406 -0.076,0.787 -0.229,1.143c-0.177,0.38 -0.406,0.685 -0.71,0.964c-0.305,0.279 -0.66,0.482 -1.092,0.635c-0.431,0.177 -0.914,0.254 -1.447,0.254c-0.685,0 -1.345,-0.127 -1.929,-0.407c-0.609,-0.253 -1.066,-0.583 -1.345,-1.015l-0.406,0.356Z" style="fill:#d82737;fill-rule:nonzero;"/></g></svg>