<?xml version="1.0" encoding="UTF-8" standalone="no"?><!DOCTYPE svg PUBLIC "-//W3C//DTD SVG 1.1//EN" "http://www.w3.org/Graphics/SVG/1.1/DTD/svg11.dtd"><svg width="100%" height="100%" viewBox="0 0 1017 677" version="1.1" xmlns="http://www.w3.org/2000/svg" xmlns:xlink="http://www.w3.org/1999/xlink" xml:space="preserve" xmlns:serif="http://www.serif.com/" style="fill-rule:evenodd;clip-rule:evenodd;stroke-linejoin:round;stroke-miterlimit:1.41421;"><rect id="NottTuesday" x="0" y="0.16" width="1016" height="676" style="fill:none;"/><g id="Nott_Tuesday_Logo"><path d="M791.796,287.761l149.406,-57.519l-87.033,78.6l-62.373,-21.081Z" style="fill:#88c485;fill-rule:nonzero;"/><path d="M861.599,313.768l43.869,43.62l35.734,-127.146l-79.603,83.526Z" style="fill:#399d33;fill-rule:nonzero;"/><g id="Tuesday"><path d="M129.233,325.638l-54.435,0l0,-7.244l116.828,0l0,7.244l-54.663,0l0,154.084l-7.73,0l0,-154.084Z" style="fill:#39b54a;fill-rule:nonzero;"/><path d="M266.127,461.818c-9.914,11.125 -26.12,20.801 -42.327,20.801c-23.223,0 -36.521,-10.162 -36.521,-37.731l0,-82.005l7.244,0l0,82.005c0,24.433 12.098,31.201 30.24,31.201c15.968,0 33.116,-9.676 41.395,-21.287l0,-91.919l7.244,0l0,116.839l-7.244,0l-0.031,-17.904Z" style="fill:#39b54a;fill-rule:nonzero;"/><path d="M349.094,359.986c35.796,0 54.186,28.78 54.186,61.192l0,2.422l-100.87,0c0.724,28.542 19.352,52.489 49.105,52.489c16.445,0 29.753,-6.043 40.64,-17.655l4.357,4.595c-11.849,12.336 -25.396,19.59 -44.986,19.59c-33.862,0 -57.323,-25.872 -57.323,-61.441c-0.02,-33.861 23.44,-61.192 54.891,-61.192Zm-46.684,57.084l93.14,0c0,-22.498 -14.758,-50.554 -46.684,-50.554c-30.012,0 -45.773,27.528 -46.456,50.554Z" style="fill:#39b54a;fill-rule:nonzero;"/><path d="M426.824,458.672c7.244,9.676 19.838,17.417 37.007,17.417c21.526,0 34.586,-11.611 34.586,-27.093c0,-17.169 -17.417,-21.733 -35.31,-26.607c-19.353,-5.081 -39.667,-10.162 -39.667,-31.44c0,-17.168 14.488,-30.963 39.667,-30.963c20.076,0 32.65,7.979 40.153,17.655l-5.319,4.843c-6.768,-9.676 -19.114,-15.968 -34.834,-15.968c-20.305,0 -32.413,10.638 -32.413,24.423c0,15.234 16.206,19.104 33.375,23.709c20.077,5.082 41.603,10.639 41.603,34.348c0,18.142 -13.547,33.623 -41.851,33.623c-18.38,0 -31.202,-5.319 -42.813,-18.627l5.816,-5.32Z" style="fill:#39b54a;fill-rule:nonzero;"/><path d="M616.063,460.121c-9.496,13.921 -25.239,22.336 -42.089,22.498c-31.44,0 -52.251,-24.185 -52.251,-61.192c0,-36.77 20.801,-61.441 52.251,-61.441c17.417,0 32.65,9.189 42.089,22.974l0,-64.577l7.244,0l0,161.339l-7.244,0l0,-19.601Zm0,-69.906c-7.245,-12.336 -23.948,-23.71 -42.089,-23.71c-28.542,0 -44.262,24.186 -44.262,54.911c0,30.726 15.72,54.663 44.262,54.663c18.141,0 34.834,-10.887 42.089,-23.223l0,-62.641Z" style="fill:#39b54a;fill-rule:nonzero;"/><path d="M725.874,465.451c-10.887,11.849 -23.947,17.168 -40.36,17.168c-20.595,0 -40.909,-14.064 -40.909,-38.901c0,-24.837 20.076,-38.943 40.878,-38.943c16.444,0 29.504,5.32 40.36,17.169l0,-26.4c0,-18.866 -14.995,-28.976 -32.899,-28.976c-15.244,0 -26.607,5.319 -37.494,18.379l-5.567,-4.843c11.383,-13.298 23.46,-20.077 43.051,-20.077c22.974,0 40.153,11.611 40.153,35.31l0,84.416l-7.244,0l0.031,-14.302Zm0,-36.283c-8.952,-11.85 -23.223,-17.904 -38.456,-17.904c-21.288,0 -34.834,14.271 -34.834,32.413c0,18.141 13.546,32.412 34.834,32.412c15.233,0 29.504,-6.043 38.456,-17.903l0,-29.018Z" style="fill:#39b54a;fill-rule:nonzero;"/><path d="M771.109,520.6c7.741,0 13.06,-3.384 18.379,-15.969l10.639,-24.185l-50.068,-117.563l8.466,0l45.959,108.363l45.721,-108.363l8.465,0l-61.937,144.408c-5.568,12.574 -14.033,19.839 -25.645,19.839c-3.93,0.013 -7.841,-0.545 -11.611,-1.656l1.449,-6.768c3.254,1.234 6.703,1.876 10.183,1.894Z" style="fill:#39b54a;fill-rule:nonzero;"/></g><g id="Nott"><path d="M103.226,216.292l0,87.189l-27.631,0l0,-129.805l28.407,0l60.137,84.074l0,-84.074l27.632,0l0,129.805l-26.659,0l-61.886,-87.189Z" style="fill:#39b54a;fill-rule:nonzero;"/><path d="M207.728,256.404c0,-26.658 18.68,-49.24 49.675,-49.24c31.14,0 49.819,22.571 49.819,49.24c0,26.907 -18.679,49.426 -49.819,49.426c-30.995,-0.01 -49.675,-22.591 -49.675,-49.426Zm73.757,0c0,-14.592 -8.755,-27.248 -24.134,-27.248c-15.378,0 -23.937,12.636 -23.937,27.248c0,14.789 8.569,27.445 23.937,27.445c15.368,0 24.134,-12.677 24.134,-27.445Z" style="fill:#39b54a;fill-rule:nonzero;"/><path d="M328.768,280.124l0,-49.043l-15.523,0l0,-21.598l15.523,0l0,-25.686l24.91,0l0,25.686l19.073,0l0,21.598l-19.073,0l0,42.43c0,5.837 3.105,10.349 8.559,10.349c3.694,0 7.244,-1.366 8.558,-2.722l5.257,18.68c-3.694,3.311 -10.349,6.033 -20.625,6.033c-17.314,-0.031 -26.659,-8.983 -26.659,-25.727Z" style="fill:#39b54a;fill-rule:nonzero;"/><path d="M402.328,280.124l0,-49.043l-15.523,0l0,-21.598l15.523,0l0,-25.686l24.951,0l0,25.686l19.073,0l0,21.598l-19.073,0l0,42.43c0,5.837 3.105,10.349 8.559,10.349c3.694,0 7.244,-1.366 8.558,-2.722l5.257,18.68c-3.694,3.311 -10.349,6.033 -20.625,6.033c-17.355,-0.031 -26.7,-8.983 -26.7,-25.727Z" style="fill:#39b54a;fill-rule:nonzero;"/></g></g><path d="M80.5,149.387l-4.636,0l0,-2.981l12.656,0l0,2.971l-4.615,0l0,12.905l-3.405,0l0,-12.895Z" style="fill:#399d33;fill-rule:nonzero;"/><path d="M93.374,150.505c3.425,0 5.764,2.566 5.764,6.333l0,0.662l-8.548,0c0.229,1.612 1.688,2.785 3.312,2.66c1.138,0.009 2.242,-0.395 3.104,-1.138l1.335,1.956c-1.333,1.089 -3.019,1.656 -4.739,1.593c-0.105,0.006 -0.21,0.009 -0.315,0.009c-3.197,0 -5.827,-2.63 -5.827,-5.827c0,-0.075 0.002,-0.15 0.005,-0.225c-0.002,-0.059 -0.003,-0.118 -0.003,-0.177c0,-3.207 2.639,-5.847 5.847,-5.847c0.022,0 0.043,0 0.065,0.001Zm-2.836,4.946l5.661,0c-0.063,-1.413 -1.243,-2.541 -2.657,-2.541c-0.056,0 -0.112,0.002 -0.168,0.006c-1.457,-0.038 -2.706,1.083 -2.825,2.535l-0.011,0Z" style="fill:#399d33;fill-rule:nonzero;"/><path d="M106.569,150.505c1.763,-0.112 3.47,0.666 4.543,2.069l-1.977,1.832c-0.545,-0.8 -1.464,-1.269 -2.432,-1.242c-0.003,0 -0.005,0 -0.008,0c-1.703,0 -3.105,1.402 -3.105,3.105c0,0.076 0.003,0.152 0.008,0.228c-0.006,0.082 -0.009,0.165 -0.009,0.248c0,1.703 1.401,3.105 3.104,3.105c0.004,0 0.007,0 0.01,0c0.966,0.017 1.88,-0.449 2.432,-1.242l1.977,1.831c-1.073,1.404 -2.78,2.182 -4.543,2.07c-0.088,0.004 -0.175,0.006 -0.263,0.006c-3.202,0 -5.837,-2.635 -5.837,-5.837c0,-0.071 0.002,-0.142 0.004,-0.213c-0.001,-0.046 -0.002,-0.093 -0.002,-0.14c0,-3.197 2.631,-5.827 5.827,-5.827c0.09,0 0.18,0.002 0.271,0.007Z" style="fill:#399d33;fill-rule:nonzero;"/><path d="M120.747,155.286c0,-1.594 -0.828,-2.07 -2.143,-2.07c-1.034,0.023 -2.002,0.524 -2.618,1.356l0,7.73l-3.022,0l0,-15.896l3.022,0l0,5.879c1.026,-1.152 2.504,-1.802 4.046,-1.78c2.526,0 3.736,1.376 3.736,3.622l0,8.165l-3.021,0l0,-7.006Z" style="fill:#399d33;fill-rule:nonzero;"/><path d="M136.083,151.622l0,10.66l-3.384,0l0,-15.876l3.478,0l7.358,10.277l0,-10.277l3.384,0l0,15.876l-3.271,0l-7.565,-10.66Z" style="fill:#399d33;fill-rule:nonzero;"/><path d="M149.123,156.528c0.134,-3.241 2.836,-5.835 6.08,-5.835c3.244,0 5.946,2.594 6.08,5.835c-0.134,3.24 -2.836,5.834 -6.08,5.834c-3.244,0 -5.946,-2.594 -6.08,-5.834Zm9.024,0c0.01,-0.1 0.015,-0.201 0.015,-0.301c0,-1.638 -1.327,-2.995 -2.964,-3.032c-1.884,0 -2.929,1.542 -2.929,3.333c0,1.79 1.035,3.353 2.929,3.353c1.894,0 2.939,-1.553 2.939,-3.353l0.01,0Z" style="fill:#399d33;fill-rule:nonzero;"/><path d="M163.994,159.425l0,-5.992l-1.904,0l0,-2.649l1.904,0l0,-3.105l3.043,0l0,3.105l2.328,0l0,2.649l-2.328,0l0,5.175c0,0.714 0.383,1.262 1.035,1.262c0.372,0.01 0.737,-0.107 1.035,-0.331l0.641,2.287c-0.724,0.544 -1.622,0.805 -2.525,0.735c-2.08,0.01 -3.229,-1.087 -3.229,-3.136Z" style="fill:#399d33;fill-rule:nonzero;"/><path d="M171.922,159.425l0,-5.992l-1.905,0l0,-2.649l1.905,0l0,-3.105l3.042,0l0,3.105l2.329,0l0,2.649l-2.319,0l0,5.175c0,0.714 0.383,1.262 1.035,1.262c0.373,0.01 0.738,-0.107 1.035,-0.331l0.642,2.287c-0.724,0.544 -1.623,0.805 -2.525,0.735c-2.091,0.01 -3.239,-1.087 -3.239,-3.136Z" style="fill:#399d33;fill-rule:nonzero;"/><path d="M178.907,147.286c0,-0.993 0.818,-1.811 1.811,-1.811c0.994,0 1.811,0.818 1.811,1.811c0,0.994 -0.817,1.811 -1.811,1.811c-0.991,-0.006 -1.805,-0.82 -1.811,-1.811Zm0.31,3.498l3.022,0l0,11.498l-3.022,0l0,-11.498Z" style="fill:#399d33;fill-rule:nonzero;"/><path d="M192.919,155.337c0.016,-0.097 0.024,-0.195 0.024,-0.293c0,-1.022 -0.841,-1.863 -1.863,-1.863c-0.077,0 -0.154,0.005 -0.23,0.014c-1.042,0.007 -2.019,0.512 -2.629,1.356l0,7.731l-3.105,0l0,-11.498l3.105,0l0,1.501c1.017,-1.152 2.489,-1.803 4.026,-1.78c2.525,0 3.736,1.428 3.736,3.663l0,8.114l-3.022,0l-0.042,-6.945Z" style="fill:#399d33;fill-rule:nonzero;"/><path d="M199.936,163.047c0.926,0.984 2.242,1.508 3.591,1.428c1.449,0 3.167,-0.641 3.167,-2.908l0,-1.169c-0.827,1.131 -2.139,1.81 -3.54,1.832c-2.877,0 -5.071,-2.07 -5.071,-5.858c0,-3.787 2.163,-5.857 5.071,-5.857c1.393,-0.005 2.71,0.648 3.55,1.759l0,-1.49l3.043,0l0,10.711c0,4.378 -3.374,5.454 -6.21,5.454c-1.816,0.102 -3.602,-0.515 -4.967,-1.718l1.366,-2.184Zm6.758,-8.548c-0.614,-0.816 -1.577,-1.299 -2.598,-1.304c-0.027,-0.001 -0.054,-0.001 -0.08,-0.001c-1.562,0 -2.846,1.285 -2.846,2.846c0,0.108 0.006,0.215 0.018,0.322c-0.012,0.107 -0.018,0.214 -0.018,0.322c0,1.561 1.284,2.846 2.846,2.846c0.026,0 0.053,-0.001 0.08,-0.001c1.019,-0.016 1.976,-0.497 2.598,-1.304l0,-3.726Z" style="fill:#399d33;fill-rule:nonzero;"/><path d="M220.406,155.286c0,-1.594 -0.828,-2.07 -2.142,-2.07c-1.035,0.023 -2.002,0.524 -2.619,1.356l0,7.73l-3.022,0l0,-15.896l3.022,0l0,5.879c1.027,-1.152 2.504,-1.802 4.047,-1.78c2.525,0 3.736,1.376 3.736,3.622l0,8.165l-3.022,0l0,-7.006Z" style="fill:#399d33;fill-rule:nonzero;"/><path d="M233.218,161.091c-0.934,0.984 -2.246,1.523 -3.602,1.48c-0.055,0.003 -0.11,0.004 -0.165,0.004c-2.094,0 -3.82,-1.718 -3.829,-3.812c0,-2.691 2.163,-3.664 3.994,-3.664c1.362,-0.088 2.695,0.427 3.643,1.408l0,-1.604c0,-1.17 -1.035,-1.925 -2.525,-1.925c-1.251,0.001 -2.453,0.487 -3.353,1.356l-1.138,-2.07c1.396,-1.195 3.181,-1.839 5.019,-1.811c2.618,0 5.019,1.035 5.019,4.357l0,7.42l-3.022,0l-0.041,-1.139Zm0,-3.001c-0.609,-0.699 -1.506,-1.081 -2.432,-1.035c-1.19,0 -2.163,0.642 -2.163,1.739c0,1.097 0.973,1.687 2.163,1.687c0.926,0.046 1.823,-0.336 2.432,-1.035l0,-1.356Z" style="fill:#399d33;fill-rule:nonzero;"/><path d="M253.419,154.986c0,-1.035 -0.476,-1.832 -1.718,-1.832c-0.957,0.054 -1.836,0.547 -2.381,1.335l0,7.761l-3.042,0l0,-7.264c0,-1.035 -0.476,-1.832 -1.718,-1.832c-0.96,0.058 -1.84,0.56 -2.38,1.356l0,7.73l-3.022,0l0,-11.456l3.022,0l0,1.501c0.936,-1.107 2.307,-1.757 3.756,-1.78c1.411,-0.14 2.741,0.724 3.188,2.069c0.905,-1.287 2.38,-2.059 3.953,-2.069c2.07,0 3.384,1.117 3.384,3.477l0,8.279l-3.042,0l0,-7.275Z" style="fill:#399d33;fill-rule:nonzero;"/><path d="M265.537,166.659l0,-15.875l1.78,0l0,1.718c0.898,-1.248 2.343,-1.992 3.881,-1.997c3.022,0 5.112,2.287 5.112,6.023c0,3.735 -2.07,6.043 -5.112,6.043c-1.555,-0.006 -3.01,-0.782 -3.881,-2.069l0,6.116l-1.78,0.041Zm5.175,-14.561c-1.359,0.041 -2.618,0.731 -3.385,1.853l0,5.174c0.778,1.131 2.054,1.821 3.426,1.853c2.308,0 3.684,-1.905 3.684,-4.45c0,-2.546 -1.356,-4.43 -3.684,-4.43l-0.041,0Z" style="fill:#399d33;fill-rule:nonzero;"/><path d="M279.084,150.784l1.78,0l0,1.852c0.881,-1.251 2.3,-2.018 3.829,-2.069l0,1.831c-0.235,-0.051 -0.474,-0.076 -0.714,-0.072c-1.257,0.113 -2.398,0.786 -3.105,1.832l0,8.134l-1.79,0l0,-11.508Z" style="fill:#399d33;fill-rule:nonzero;"/><path d="M291.813,150.505c3.477,0 5.516,2.711 5.516,6.209l0,0.455l-9.314,0c0.038,2.193 1.853,3.975 4.046,3.975c0.031,0 0.062,0 0.093,-0.001c1.328,0.005 2.605,-0.516 3.55,-1.449l0.859,1.17c-1.219,1.188 -2.874,1.825 -4.574,1.759c-0.055,0.002 -0.111,0.002 -0.166,0.002c-3.128,0 -5.702,-2.574 -5.702,-5.702c0,-0.114 0.003,-0.229 0.01,-0.344c-0.006,-0.11 -0.009,-0.221 -0.009,-0.331c0,-3.131 2.56,-5.715 5.691,-5.743Zm-3.788,5.308l7.544,0c0.001,-0.034 0.002,-0.069 0.002,-0.104c0,-2.043 -1.682,-3.725 -3.726,-3.725c-0.021,0 -0.042,0 -0.063,0c-2.067,0.051 -3.742,1.762 -3.747,3.829l-0.01,0Z" style="fill:#399d33;fill-rule:nonzero;"/><path d="M299.988,159.477c0.979,1.05 2.353,1.646 3.788,1.645c1.759,0 2.711,-0.786 2.711,-1.904c0,-1.117 -1.407,-1.666 -2.949,-2.07c-1.956,-0.455 -4.14,-0.972 -4.14,-3.353c0,-1.78 1.553,-3.311 4.285,-3.311c1.588,-0.051 3.13,0.552 4.264,1.666l-0.828,1.242c-0.878,-0.956 -2.129,-1.485 -3.426,-1.449c-1.573,0 -2.546,0.714 -2.546,1.739c0,1.024 1.304,1.48 2.805,1.831c1.997,0.456 4.305,1.035 4.305,3.571c0,1.925 -1.552,3.477 -4.522,3.477c-1.732,0.081 -3.418,-0.578 -4.637,-1.811l0.89,-1.273Z" style="fill:#399d33;fill-rule:nonzero;"/><path d="M316.039,150.505c3.478,0 5.516,2.711 5.516,6.209l0,0.455l-9.314,0c0.039,2.193 1.853,3.975 4.046,3.975c0.031,0 0.063,0 0.094,-0.001c1.328,0.005 2.604,-0.516 3.55,-1.449l0.859,1.17c-1.219,1.188 -2.874,1.825 -4.575,1.759c-0.063,0.002 -0.126,0.003 -0.189,0.003c-3.129,0 -5.703,-2.574 -5.703,-5.702c0,-0.132 0.005,-0.265 0.014,-0.396c-0.004,-0.094 -0.007,-0.187 -0.007,-0.28c0,-3.138 2.572,-5.725 5.709,-5.743Zm-3.787,5.308l7.544,0c0.001,-0.034 0.001,-0.069 0.001,-0.104c0,-2.043 -1.681,-3.725 -3.725,-3.725c-0.021,0 -0.042,0 -0.064,0c-2.067,0.051 -3.741,1.762 -3.746,3.829l-0.01,0Z" style="fill:#399d33;fill-rule:nonzero;"/><path d="M332.07,154.768c0,-2.07 -1.035,-2.67 -2.567,-2.67c-1.345,0.046 -2.599,0.702 -3.405,1.78l0,8.404l-1.78,0l0,-11.498l1.78,0l0,1.666c1.046,-1.201 2.548,-1.911 4.14,-1.956c2.401,0 3.664,1.211 3.664,3.715l0,8.073l-1.832,0l0,-7.514Z" style="fill:#399d33;fill-rule:nonzero;"/><path d="M337.679,159.881l0,-7.524l-1.904,0l0,-1.573l1.904,0l0,-3.105l1.78,0l0,3.105l2.328,0l0,1.573l-2.328,0l0,7.141c0,0.859 0.383,1.48 1.169,1.48c0.45,0.006 0.886,-0.165 1.211,-0.476l0.528,1.335c-0.586,0.523 -1.359,0.788 -2.142,0.734c-0.075,0.007 -0.149,0.011 -0.224,0.011c-1.288,0 -2.349,-1.061 -2.349,-2.349c0,-0.118 0.009,-0.236 0.027,-0.352Z" style="fill:#399d33;fill-rule:nonzero;"/><path d="M344.126,159.477c0.979,1.05 2.352,1.646 3.788,1.645c1.759,0 2.711,-0.786 2.711,-1.904c0,-1.117 -1.407,-1.666 -2.949,-2.07c-1.956,-0.455 -4.14,-0.972 -4.14,-3.353c0,-1.78 1.553,-3.311 4.285,-3.311c1.588,-0.051 3.13,0.552 4.263,1.666l-0.827,1.242c-0.878,-0.956 -2.129,-1.485 -3.426,-1.449c-1.573,0 -2.546,0.714 -2.546,1.739c0,1.024 1.304,1.48 2.805,1.831c1.997,0.456 4.305,1.035 4.305,3.571c0,1.925 -1.552,3.477 -4.523,3.477c-1.731,0.081 -3.418,-0.578 -4.636,-1.811l0.89,-1.273Z" style="fill:#399d33;fill-rule:nonzero;"/></svg>