<?xml version="1.0" encoding="UTF-8" standalone="no"?><!DOCTYPE svg PUBLIC "-//W3C//DTD SVG 1.1//EN" "http://www.w3.org/Graphics/SVG/1.1/DTD/svg11.dtd"><svg width="100%" height="100%" viewBox="0 0 1017 677" version="1.1" xmlns="http://www.w3.org/2000/svg" xmlns:xlink="http://www.w3.org/1999/xlink" xml:space="preserve" xmlns:serif="http://www.serif.com/" style="fill-rule:evenodd;clip-rule:evenodd;stroke-linejoin:round;stroke-miterlimit:1.41421;"><rect id="Tech-Nottingham-Pink" serif:id="Tech Nottingham Pink" x="0.119" y="0.097" width="1016" height="676" style="fill:none;"/><g id="Layer_5"><path d="M299.934,393.074l47.118,57.912l0,-57.912l5.307,0l0,69.973l-2.11,0l-47.22,-57.823l0,57.823l-5.397,0l0,-69.973l2.302,0Z" style="fill:#d51067;fill-rule:nonzero;"/><path d="M434.777,428.182c-0.09,18.404 -11.805,36.144 -35.287,36.144c-23.482,0 -35.313,-17.804 -35.313,-36.311c0,-18.813 11.703,-36.015 35.313,-36.015c23.61,0 35.389,17.33 35.287,36.182Zm-65.33,-0.103c0.102,15.809 10.103,31.207 30.004,31.207c19.901,0 30.107,-15.347 30.107,-31.207c0,-16.204 -10.001,-31.117 -30.107,-31.117c-20.105,0 -30.094,14.619 -29.992,31.117l-0.012,0Z" style="fill:#d51067;fill-rule:nonzero;"/><path d="M463.438,397.972l-25.349,0l0,-4.796l56.045,0l0,4.796l-25.337,0l0,65.075l-5.359,0l0,-65.075Z" style="fill:#d51067;fill-rule:nonzero;"/><path d="M524.215,397.972l-25.311,0l0,-4.796l56.019,0l0,4.796l-25.31,0l0,65.075l-5.398,0l0,-65.075Z" style="fill:#d51067;fill-rule:nonzero;"/><rect x="563.825" y="393.074" width="5.308" height="69.973" style="fill:#d51067;fill-rule:nonzero;"/><path d="M585.734,393.074l47.117,57.925l0,-57.925l5.308,0l0,69.973l-2.059,0l-47.322,-57.772l0,57.772l-5.397,0l0,-69.973l2.353,0Z" style="fill:#d51067;fill-rule:nonzero;"/><path d="M708.886,405.979c-6.07,-5.768 -14.137,-8.976 -22.51,-8.953c-20.463,0 -31.015,15.002 -30.912,31.207c0,16.511 10.5,30.695 30.912,30.695c7.879,0.048 15.497,-2.855 21.347,-8.134l0,-19.607l-24.454,0l0,-4.706l29.569,0l0,26.206c-7.303,7.303 -16,11.306 -26.41,11.306c-23.815,0 -36.119,-16.627 -36.119,-35.709c-0.102,-21.909 14.811,-36.208 36.119,-36.208c9.571,0.005 18.765,3.779 25.579,10.501l-3.121,3.402Z" style="fill:#d51067;fill-rule:nonzero;"/><path d="M777.503,463.047l0,-31.757l-44.61,0l0,31.757l-5.398,0l0,-69.973l5.398,0l0,33.253l44.61,0l0,-33.253l5.398,0l0,69.973l-5.398,0Z" style="fill:#d51067;fill-rule:nonzero;"/><path d="M854.037,463.047l-7.674,-17.203l-41.848,0l-7.597,17.203l-5.806,0l31.411,-70.024l5.896,0l31.425,70.024l-5.807,0Zm-9.81,-22.203l-18.839,-42.565l-18.801,42.616l37.64,-0.051Z" style="fill:#d51067;fill-rule:nonzero;"/><path d="M928.87,400.876l-26.858,41.016l-1.804,0l-27.012,-41.016l0,62.171l-5.397,0l0,-69.973l6.395,0l26.858,40.812l26.513,-40.812l6.6,0l0,69.973l-5.308,0l0.013,-62.171Z" style="fill:#d51067;fill-rule:nonzero;"/><path d="M297.645,240.671l-53.244,0l0,-28.777l138.129,0l0,28.777l-53.23,0l0,139.114l-31.655,0l0,-139.114Z" style="fill:#d51067;fill-rule:nonzero;"/><path d="M392.136,331.095c1.918,14.631 14.631,25.183 35.261,25.183c10.794,0 24.94,-4.08 31.654,-11.038l18.712,18.469c-12.47,12.956 -32.857,19.184 -50.852,19.184c-40.774,0 -64.998,-25.183 -64.998,-63.079c0,-35.977 24.467,-61.877 62.836,-61.877c39.572,0 64.282,24.467 59.716,73.158l-92.329,0Zm64.281,-24.224c-1.919,-15.348 -13.915,-23.022 -30.696,-23.022c-15.833,0 -28.777,7.674 -33.099,23.022l63.795,0Z" style="fill:#d51067;fill-rule:nonzero;"/><path d="M606.799,364.668c-13.673,13.429 -28.061,18.711 -45.57,18.711c-34.302,0 -62.836,-20.63 -62.836,-62.593c0,-41.963 28.546,-62.593 62.836,-62.593c16.793,0 29.736,4.796 42.692,17.509l-18.468,19.415c-6.504,-5.918 -14.959,-9.246 -23.751,-9.349c-19.671,0 -34.059,14.388 -34.059,35.018c0,22.549 15.348,34.533 33.573,34.533c9.349,0 18.711,-2.635 25.899,-9.836l19.684,19.185Z" style="fill:#d51067;fill-rule:nonzero;"/><path d="M647.611,211.894l0,65.701c10.551,-13.672 23.507,-17.752 36.936,-17.752c33.574,0 48.448,22.779 48.448,57.554l0,62.388l-29.314,0l0,-62.119c0,-21.59 -11.268,-30.696 -26.859,-30.696c-17.266,0 -29.262,14.632 -29.262,32.384l0,60.431l-29.263,0l0,-167.891l29.314,0Z" style="fill:#d51067;fill-rule:nonzero;"/><path d="M765.085,370.423c0,12.47 -18.942,12.47 -18.942,0c0,-12.47 18.942,-12.47 18.942,0Z" style="fill:#d51067;fill-rule:nonzero;"/><g><path d="M231.215,356.892l0,-140.854c0,-2.28 -1.876,-4.156 -4.157,-4.156l-81.279,0l-22.637,48.601c2.707,2.38 4.261,5.816 4.261,9.422c0,6.883 -5.663,12.547 -12.546,12.547c-6.883,0 -12.547,-5.664 -12.547,-12.547c0,-6.883 5.664,-12.547 12.547,-12.547c0.663,0 1.325,0.053 1.979,0.157l21.295,-45.621l-51.913,0c-2.281,0 -4.157,1.877 -4.157,4.157l0,140.841c0,2.28 1.876,4.156 4.157,4.156l25.336,0l0,-32.946c-5.217,-1.533 -8.825,-6.355 -8.825,-11.792c0,-6.743 5.549,-12.291 12.291,-12.291c6.743,0 12.291,5.548 12.291,12.291c0,5.437 -3.608,10.259 -8.825,11.792l0,32.934l85.615,0l0,-58.232l-27.946,0c-1.533,5.217 -6.355,8.825 -11.792,8.825c-6.743,0 -12.291,-5.549 -12.291,-12.291c0,-6.743 5.548,-12.291 12.291,-12.291c5.437,0 10.259,3.608 11.792,8.825l31.488,0c1.878,0.034 3.403,1.588 3.403,3.466l0,61.698l16.012,0c2.276,0 4.15,-1.869 4.157,-4.144Z" style="fill:#d51067;fill-rule:nonzero;"/><circle cx="164.363" cy="299.338" r="5.743" style="fill:#d51067;"/><circle cx="115.02" cy="269.653" r="5.743" style="fill:#d51067;"/><circle cx="115.02" cy="316.323" r="5.743" style="fill:#d51067;"/></g></g></svg>