<?xml version="1.0" encoding="UTF-8" standalone="no"?><!DOCTYPE svg PUBLIC "-//W3C//DTD SVG 1.1//EN" "http://www.w3.org/Graphics/SVG/1.1/DTD/svg11.dtd"><svg width="100%" height="100%" viewBox="0 0 100 100" version="1.1" xmlns="http://www.w3.org/2000/svg" xmlns:xlink="http://www.w3.org/1999/xlink" xml:space="preserve" xmlns:serif="http://www.serif.com/" style="fill-rule:evenodd;clip-rule:evenodd;stroke-linejoin:round;stroke-miterlimit:2;"><rect id="_4" serif:id="4" x="0" y="0" width="100" height="100" style="fill:none;"/><path d="M35,40.25c0,-0.138 -0.112,-0.25 -0.25,-0.25l-24.5,0c-0.138,0 -0.25,0.112 -0.25,0.25l0,24.5c0,0.138 0.112,0.25 0.25,0.25l24.5,0c0.138,0 0.25,-0.112 0.25,-0.25l0,-24.5Z" style="fill:#d9d9d9;"/><circle cx="52.5" cy="52.5" r="12.5" style="fill:#d9d9d9;"/><path d="M81.25,40l13.75,25l-27.5,0l13.75,-25Z" style="fill:#600653;fill-opacity:0.5;"/><path d="M32.598,36.942l0.096,0.025l0.09,0.042l0.08,0.057l0.07,0.07l0.057,0.08l0.042,0.09l0.025,0.096l0.009,0.098l-0.095,10.472l-0.063,8.773l-0.019,4.013l-0.002,1.742l-0.006,0.067l-0.018,0.066l-0.028,0.061l-0.039,0.055l-0.048,0.048l0,0l-0.056,0.038l-0.061,0.028l-0.005,0.002l-0.06,0.017l-0.067,0.007l-3.168,0.015l-3.792,0.036l-8.086,0.1l-8.654,0.095l-1.3,0.009l-0.112,-0.008l-0.109,-0.028l-0.103,-0.046l-0.094,-0.064l-0.081,-0.08l0,0.001l-0.067,-0.092l-0.049,-0.103l-0.031,-0.11l-0.012,-0.114l-0.007,-1.162l-0.01,-4.598l0.012,-5.452l0.028,-6.112l0.052,-7.676l0.011,-0.101l0.027,-0.097l0.044,-0.091l0.059,-0.082l0.072,-0.07l0,0.001l0.083,-0.057l0.091,-0.04l0.097,-0.025l0.099,-0.007l3.261,0.023l12.137,0.107l9.24,0.09l0.362,0.004l0,-0.222l0.098,0.009Zm-9.169,0.997l-11.375,0.107l0.024,0.029l-4.002,0.001l0.007,0.007l0.052,7.701l0.028,5.361l0.012,4.767l-0.01,4.03l-0.014,0.012l0,1.895l-0.007,0.007l2.045,0.009l7.577,0.095l7.194,0.1l3.407,0.036l0.012,0.016l3.23,0.001l-0.001,0l0.505,0l-0.001,-0.001l-0.002,-2.598l-0.019,-3.812l-0.063,-8.323l-0.092,-9.528l-8.507,0.088Z" style="fill:#333;"/><path d="M50,37.044l0.001,0.111l0.082,-0.001l0.083,0l0.083,0l0.032,0l0.05,0.001l0.083,0.001l0.082,0.002l0.083,0.002l0.082,0.003l0.082,0.003l0.082,0.004l0.082,0.005l0.081,0.005l0.082,0.005l0.081,0.006l0.082,0.007l0.081,0.007l0.081,0.007l0.081,0.008l0.081,0.009l0.08,0.008l0.081,0.01l0.08,0.01l0.08,0.01l0.081,0.011l0.079,0.012l0.08,0.012l0.08,0.012l0.079,0.013l0.08,0.014l0.079,0.014l0.079,0.014l0.079,0.015l0.078,0.015l0.079,0.016l0.078,0.016l0.079,0.017l0.078,0.017l0.077,0.018l0.078,0.018l0.078,0.019l0.077,0.019l0.077,0.02l0.077,0.02l0.077,0.02l0.077,0.021l0.076,0.022l0.076,0.022l0.076,0.022l0.076,0.023l0.076,0.023l0.076,0.024l0.075,0.024l0.075,0.025l0.075,0.025l0.075,0.026l0.074,0.026l0.075,0.026l0.074,0.027l0.074,0.027l0.073,0.028l0.074,0.028l0.073,0.029l0.073,0.029l0.073,0.03l0.073,0.03l0.072,0.03l0.073,0.031l0.072,0.031l0.071,0.032l0.072,0.032l0.071,0.032l0.072,0.033l0.07,0.034l0.071,0.034l0.071,0.034l0.07,0.034l0.07,0.035l0.069,0.036l0.07,0.036l0.069,0.036l0.069,0.037l0.069,0.037l0.069,0.037l0.068,0.038l0.068,0.038l0.068,0.039l0.067,0.039l0.068,0.04l0.067,0.04l0.066,0.04l0.067,0.041l0.066,0.041l0.066,0.041l0.055,0.035l0.011,0.007l0.065,0.042l0.066,0.043l0.064,0.043l0.065,0.044l0.064,0.043l0.064,0.045l0.064,0.044l0.064,0.045l0.063,0.046l0.063,0.045l0.063,0.046l0.062,0.047l0.062,0.047l0.062,0.047l0.062,0.047l0.061,0.048l0.061,0.049l0.061,0.048l0.06,0.049l0.06,0.05l0.06,0.049l0.059,0.05l0.06,0.051l0.058,0.051l0.059,0.051l0.058,0.051l0.058,0.052l0.058,0.052l0.057,0.053l0.057,0.053l0.057,0.053l0.057,0.053l0.056,0.054l0.055,0.055l0.056,0.054l0.055,0.055l0.055,0.055l0.054,0.056l0.055,0.056l0.053,0.056l0.054,0.056l0.053,0.057l0.053,0.057l0.052,0.058l0.053,0.058l0.051,0.058l0.052,0.058l0.051,0.059l0.051,0.059l0.05,0.06l0.05,0.059l0.05,0.06l0.05,0.061l0.049,0.06l0.048,0.061l0.049,0.061l0.048,0.062l0.047,0.062l0.048,0.062l0.047,0.062l0.046,0.063l0.046,0.063l0.046,0.063l0.046,0.064l0.045,0.064l0.044,0.064l0.045,0.065l0.044,0.064l0.043,0.065l0.044,0.066l0.042,0.065l0.043,0.066l0.042,0.066l0.042,0.067l0.041,0.066l0.041,0.067l0.04,0.068l0.041,0.067l0.039,0.068l0.04,0.068l0.039,0.068l0.038,0.069l0.038,0.069l0.038,0.069l0.037,0.069l0.037,0.07l0.037,0.07l0.036,0.07l0.036,0.07l0.035,0.071l0.035,0.071l0.034,0.071l0.034,0.071l0.034,0.072l0.033,0.072l0.033,0.072l0.033,0.072l0.031,0.073l0.032,0.073l0.031,0.073l0.031,0.073l0.03,0.073l0.03,0.074l0.029,0.074l0.029,0.074l0.029,0.075l0.028,0.075l0.027,0.074l0.027,0.076l0.027,0.075l0.026,0.075l0.026,0.076l0.026,0.076l0.024,0.076l0.025,0.077l0.024,0.076l0.024,0.077l0.023,0.077l0.022,0.077l0.022,0.078l0.022,0.077l0.004,0.015l0.017,0.063l0.021,0.078l0.02,0.079l0.02,0.078l0.019,0.079l0.018,0.079l0.019,0.079l0.017,0.079l0.018,0.079l0.017,0.08l0.016,0.08l0.016,0.08l0.015,0.08l0.015,0.08l0.014,0.081l0.014,0.08l0.013,0.081l0.013,0.081l0.013,0.081l0.012,0.082l0.011,0.081l0.011,0.082l0.01,0.082l0.01,0.082l0.009,0.082l0.009,0.082l0.009,0.082l0.007,0.083l0.008,0.083l0.006,0.083l0.007,0.083l0.006,0.083l0.005,0.083l0.005,0.084l0.004,0.083l0.003,0.084l0.004,0.084l0.002,0.084l0.002,0.084l0.002,0.085l0.001,0.084l0,0.084l0,0.085l0,0.084l-0.001,0.084l-0.002,0.084l-0.002,0.084l-0.003,0.084l-0.003,0.083l-0.004,0.084l-0.004,0.083l-0.005,0.083l-0.005,0.084l-0.006,0.083l-0.007,0.082l-0.006,0.083l-0.008,0.083l-0.008,0.082l-0.008,0.083l-0.009,0.082l-0.009,0.082l-0.01,0.082l-0.011,0.081l-0.011,0.082l-0.011,0.081l-0.012,0.082l-0.013,0.081l-0.013,0.081l-0.013,0.081l-0.014,0.08l-0.014,0.081l-0.015,0.08l-0.016,0.08l-0.016,0.08l-0.016,0.08l-0.017,0.08l-0.017,0.079l-0.018,0.079l-0.019,0.08l-0.018,0.079l-0.02,0.078l-0.019,0.079l-0.021,0.078l-0.02,0.079l-0.021,0.078l-0.022,0.078l-0.022,0.077l-0.023,0.078l-0.023,0.077l-0.023,0.077l-0.024,0.077l-0.025,0.077l-0.025,0.076l-0.025,0.077l-0.026,0.076l-0.026,0.076l-0.027,0.075l-0.027,0.076l-0.028,0.075l-0.028,0.075l-0.028,0.075l-0.029,0.075l-0.03,0.074l-0.029,0.074l-0.031,0.074l-0.03,0.074l-0.032,0.074l-0.031,0.073l-0.032,0.073l-0.033,0.073l-0.032,0.073l-0.034,0.072l-0.034,0.072l-0.034,0.072l-0.034,0.072l-0.035,0.071l-0.036,0.071l-0.036,0.071l-0.036,0.071l-0.037,0.071l-0.037,0.07l-0.037,0.07l-0.023,0.041l-0.015,0.029l-0.039,0.069l-0.039,0.069l-0.039,0.069l-0.04,0.069l-0.04,0.068l-0.04,0.068l-0.041,0.068l-0.042,0.068l-0.042,0.067l-0.042,0.067l-0.042,0.067l-0.043,0.066l-0.043,0.066l-0.044,0.066l-0.044,0.066l-0.045,0.065l-0.045,0.065l-0.045,0.065l-0.045,0.065l-0.046,0.064l-0.047,0.064l-0.047,0.064l-0.047,0.063l-0.047,0.063l-0.048,0.063l-0.048,0.063l-0.049,0.062l-0.049,0.062l-0.049,0.061l-0.05,0.062l-0.05,0.061l-0.05,0.061l-0.051,0.06l-0.051,0.06l-0.052,0.06l-0.052,0.059l-0.052,0.06l-0.052,0.058l-0.053,0.059l-0.054,0.058l-0.053,0.058l-0.054,0.058l-0.054,0.057l-0.055,0.057l-0.055,0.057l-0.055,0.056l-0.056,0.056l-0.056,0.055l-0.056,0.056l-0.057,0.055l-0.057,0.054l-0.057,0.055l-0.058,0.054l-0.057,0.053l-0.059,0.054l-0.058,0.052l-0.059,0.053l-0.059,0.052l-0.04,0.035l-0.02,0.017l-0.06,0.052l-0.06,0.051l-0.061,0.05l-0.061,0.051l-0.061,0.049l-0.062,0.05l-0.062,0.049l-0.062,0.049l-0.062,0.049l-0.063,0.048l-0.063,0.048l-0.064,0.047l-0.063,0.047l-0.064,0.047l-0.064,0.046l-0.065,0.046l-0.065,0.045l-0.065,0.045l-0.065,0.045l-0.066,0.045l-0.066,0.044l-0.066,0.043l-0.067,0.043l-0.067,0.043l-0.067,0.043l-0.067,0.042l-0.068,0.041l-0.067,0.042l-0.069,0.04l-0.068,0.041l-0.069,0.04l-0.069,0.04l-0.069,0.039l-0.069,0.039l-0.07,0.038l-0.07,0.038l-0.07,0.038l-0.071,0.037l-0.071,0.037l-0.071,0.036l-0.071,0.036l-0.072,0.036l-0.071,0.035l-0.072,0.035l-0.073,0.034l-0.072,0.034l-0.073,0.033l-0.073,0.033l-0.073,0.033l-0.074,0.032l-0.073,0.032l-0.074,0.031l-0.01,0.004l-0.065,0.026l-0.074,0.03l-0.075,0.03l-0.075,0.029l-0.075,0.029l-0.075,0.028l-0.076,0.028l-0.076,0.027l-0.076,0.027l-0.076,0.026l-0.077,0.026l-0.077,0.025l-0.076,0.026l-0.078,0.024l-0.077,0.024l-0.077,0.024l-0.078,0.023l-0.078,0.023l-0.078,0.022l-0.078,0.022l-0.079,0.021l-0.079,0.021l-0.078,0.02l-0.08,0.02l-0.079,0.019l-0.079,0.019l-0.08,0.019l-0.08,0.018l-0.08,0.017l-0.08,0.017l-0.08,0.016l-0.081,0.016l-0.08,0.016l-0.081,0.015l-0.081,0.014l-0.081,0.015l-0.082,0.013l-0.081,0.013l-0.082,0.013l-0.081,0.012l-0.082,0.011l-0.083,0.011l-0.082,0.011l-0.027,0.003l-0.055,0.006l-0.083,0.009l-0.083,0.009l-0.083,0.008l-0.083,0.007l-0.083,0.007l-0.083,0.006l-0.084,0.006l-0.083,0.006l-0.084,0.005l-0.084,0.004l-0.084,0.004l-0.084,0.003l-0.084,0.003l-0.085,0.002l-0.084,0.002l-0.085,0.001l-0.084,0l-0.085,0l-0.085,0l-0.085,-0.001l-0.085,-0.002l-0.084,-0.002l-0.085,-0.002l-0.084,-0.004l-0.084,-0.003l-0.085,-0.004l-0.084,-0.005l-0.083,-0.005l-0.084,-0.006l-0.084,-0.007l-0.083,-0.006l-0.083,-0.008l-0.083,-0.008l-0.083,-0.008l-0.083,-0.009l-0.083,-0.009l-0.082,-0.01l-0.082,-0.011l-0.082,-0.01l-0.082,-0.012l-0.027,-0.004l-0.055,-0.008l-0.082,-0.013l-0.081,-0.013l-0.081,-0.014l-0.081,-0.015l-0.081,-0.015l-0.081,-0.015l-0.08,-0.016l-0.081,-0.016l-0.08,-0.017l-0.08,-0.017l-0.08,-0.018l-0.079,-0.018l-0.079,-0.019l-0.08,-0.019l-0.079,-0.02l-0.078,-0.02l-0.079,-0.021l-0.078,-0.021l-0.078,-0.022l-0.078,-0.022l-0.078,-0.022l-0.078,-0.023l-0.077,-0.024l-0.077,-0.024l-0.077,-0.024l-0.077,-0.025l-0.076,-0.025l-0.077,-0.026l-0.076,-0.026l-0.075,-0.027l-0.076,-0.027l-0.075,-0.028l-0.076,-0.028l-0.075,-0.028l-0.074,-0.029l-0.075,-0.029l-0.074,-0.03l-0.074,-0.03l-0.074,-0.031l-0.073,-0.031l-0.074,-0.031l-0.073,-0.032l-0.072,-0.033l-0.073,-0.032l-0.072,-0.034l-0.072,-0.033l-0.072,-0.034l-0.072,-0.035l-0.071,-0.035l-0.071,-0.035l-0.071,-0.035l-0.071,-0.037l-0.07,-0.036l-0.07,-0.037l-0.07,-0.037l-0.069,-0.038l-0.07,-0.038l-0.069,-0.039l-0.068,-0.039l-0.069,-0.039l-0.068,-0.04l-0.068,-0.04l-0.068,-0.041l-0.067,-0.04l-0.067,-0.042l-0.067,-0.041l-0.067,-0.043l-0.066,-0.042l-0.066,-0.043l-0.066,-0.043l-0.065,-0.044l-0.065,-0.044l-0.065,-0.044l-0.065,-0.045l-0.064,-0.045l-0.064,-0.045l-0.064,-0.046l-0.063,-0.047l-0.063,-0.046l-0.063,-0.047l-0.063,-0.047l-0.035,-0.027l-0.027,-0.021l-0.062,-0.048l-0.061,-0.049l-0.061,-0.049l-0.061,-0.049l-0.061,-0.049l-0.06,-0.05l-0.06,-0.05l-0.06,-0.051l-0.059,-0.051l-0.059,-0.051l-0.059,-0.052l-0.058,-0.052l-0.058,-0.052l-0.058,-0.053l-0.058,-0.053l-0.057,-0.053l-0.056,-0.054l-0.057,-0.054l-0.056,-0.054l-0.056,-0.055l-0.055,-0.055l-0.055,-0.055l-0.055,-0.056l-0.055,-0.055l-0.054,-0.057l-0.053,-0.056l-0.054,-0.057l-0.053,-0.057l-0.053,-0.058l-0.052,-0.058l-0.052,-0.058l-0.052,-0.058l-0.051,-0.059l-0.051,-0.059l-0.051,-0.059l-0.05,-0.06l-0.05,-0.06l-0.049,-0.06l-0.05,-0.06l-0.048,-0.061l-0.049,-0.061l-0.048,-0.062l-0.048,-0.061l-0.047,-0.062l-0.047,-0.063l-0.047,-0.062l-0.046,-0.063l-0.046,-0.063l-0.045,-0.063l-0.045,-0.064l-0.045,-0.064l-0.045,-0.064l-0.044,-0.064l-0.043,-0.065l-0.043,-0.065l-0.043,-0.065l-0.043,-0.066l-0.042,-0.066l-0.041,-0.066l-0.042,-0.066l-0.041,-0.067l-0.04,-0.066l-0.04,-0.068l-0.04,-0.067l-0.039,-0.067l-0.039,-0.068l-0.039,-0.068l-0.038,-0.069l-0.037,-0.068l-0.038,-0.069l-0.037,-0.069l-0.036,-0.069l-0.036,-0.07l-0.036,-0.07l-0.035,-0.07l-0.035,-0.07l-0.034,-0.07l-0.023,-0.047l-0.011,-0.024l-0.034,-0.071l-0.034,-0.071l-0.032,-0.071l-0.033,-0.072l-0.032,-0.071l-0.032,-0.072l-0.031,-0.072l-0.031,-0.073l-0.031,-0.072l-0.03,-0.073l-0.029,-0.073l-0.029,-0.073l-0.029,-0.074l-0.028,-0.073l-0.028,-0.074l-0.027,-0.074l-0.027,-0.074l-0.027,-0.075l-0.026,-0.075l-0.025,-0.074l-0.026,-0.075l-0.024,-0.076l-0.025,-0.075l-0.023,-0.076l-0.024,-0.076l-0.023,-0.076l-0.022,-0.076l-0.022,-0.076l-0.022,-0.077l-0.021,-0.077l-0.02,-0.077l-0.02,-0.077l-0.02,-0.077l-0.019,-0.077l-0.019,-0.078l-0.012,-0.052l-0.006,-0.026l-0.018,-0.078l-0.018,-0.078l-0.017,-0.078l-0.017,-0.078l-0.017,-0.079l-0.015,-0.079l-0.016,-0.079l-0.015,-0.079l-0.014,-0.079l-0.014,-0.079l-0.014,-0.08l-0.012,-0.08l-0.013,-0.079l-0.012,-0.08l-0.011,-0.081l-0.011,-0.08l-0.011,-0.08l-0.01,-0.081l-0.009,-0.081l-0.009,-0.081l-0.009,-0.081l-0.008,-0.081l-0.007,-0.081l-0.007,-0.082l-0.007,-0.081l-0.006,-0.082l-0.005,-0.082l-0.005,-0.082l-0.004,-0.082l-0.004,-0.082l-0.004,-0.083l-0.003,-0.082l-0.002,-0.077l0,-0.006l-0.003,-0.083l-0.001,-0.083l-0.002,-0.083l-0.001,-0.083l0,-0.083l0,-0.083l0.001,-0.083l0.001,-0.083l0.001,-0.083l0.003,-0.083l0.002,-0.083l0.004,-0.082l0.004,-0.083l0.004,-0.082l0.005,-0.082l0.005,-0.082l0.006,-0.082l0.006,-0.081l0.007,-0.082l0.008,-0.081l0.007,-0.082l0.009,-0.081l0.009,-0.081l0.009,-0.081l0.01,-0.08l0.01,-0.081l0.011,-0.08l0.012,-0.08l0.011,-0.081l0.013,-0.079l0.013,-0.08l0,-0.005l0.013,-0.075l0.013,-0.079l0.014,-0.08l0.015,-0.079l0.015,-0.079l0.015,-0.079l0.016,-0.078l0.016,-0.079l0.017,-0.078l0.017,-0.078l0.018,-0.078l0.018,-0.078l0.019,-0.078l0.019,-0.077l0.02,-0.078l0.02,-0.077l0.021,-0.077l0.021,-0.076l0.021,-0.077l0.022,-0.076l0.023,-0.077l0.023,-0.076l0.023,-0.075l0.024,-0.076l0.024,-0.075l0.025,-0.076l0.025,-0.075l0.026,-0.074l0.026,-0.075l0.026,-0.074l0.027,-0.074l0.027,-0.074l0.028,-0.074l0.029,-0.074l0.028,-0.073l0.029,-0.073l0.03,-0.073l0.03,-0.073l0.03,-0.072l0.012,-0.029l0.019,-0.044l0.031,-0.072l0.032,-0.072l0.032,-0.071l0.032,-0.072l0.033,-0.071l0.033,-0.071l0.033,-0.071l0.034,-0.07l0.035,-0.071l0.035,-0.07l0.035,-0.069l0.036,-0.07l0.036,-0.069l0.036,-0.069l0.037,-0.069l0.037,-0.069l0.038,-0.068l0.038,-0.068l0.039,-0.068l0.038,-0.068l0.04,-0.067l0.039,-0.067l0.041,-0.067l0.04,-0.067l0.041,-0.066l0.041,-0.066l0.042,-0.066l0.042,-0.066l0.042,-0.065l0.043,-0.065l0.043,-0.065l0.044,-0.064l0.044,-0.065l0.044,-0.063l0.045,-0.064l0.045,-0.064l0.045,-0.063l0.046,-0.062l0.046,-0.063l0.047,-0.062l0.047,-0.062l0.047,-0.062l0.048,-0.061l0.048,-0.061l0.048,-0.061l0.049,-0.061l0.049,-0.06l0.049,-0.06l0.05,-0.06l0.05,-0.059l0.051,-0.059l0.051,-0.059l0.051,-0.058l0.051,-0.058l0.052,-0.058l0.053,-0.057l0.052,-0.058l0.053,-0.057l0.053,-0.056l0.054,-0.056l0.054,-0.056l0.054,-0.056l0.055,-0.055l0.055,-0.055l0.055,-0.055l0.056,-0.054l0.056,-0.054l0.056,-0.054l0.056,-0.053l0.057,-0.053l0.057,-0.053l0.058,-0.052l0.058,-0.052l0.058,-0.052l0.058,-0.051l0.059,-0.051l0.059,-0.05l0.06,-0.051l0.06,-0.05l0.06,-0.049l0.06,-0.049l0.061,-0.049l0.061,-0.049l0.061,-0.048l0.061,-0.048l0.062,-0.047l0.062,-0.047l0.028,-0.021l0.035,-0.026l0.062,-0.047l0.063,-0.046l0.063,-0.046l0.064,-0.045l0.064,-0.045l0.064,-0.045l0.064,-0.044l0.065,-0.044l0.065,-0.043l0.065,-0.044l0.065,-0.042l0.066,-0.043l0.066,-0.042l0.067,-0.042l0.066,-0.041l0.067,-0.041l0.067,-0.04l0.068,-0.04l0.067,-0.04l0.068,-0.039l0.068,-0.039l0.069,-0.039l0.069,-0.038l0.069,-0.038l0.069,-0.037l0.069,-0.037l0.07,-0.036l0.07,-0.036l0.07,-0.036l0.071,-0.035l0.071,-0.035l0.071,-0.035l0.071,-0.034l0.071,-0.033l0.072,-0.034l0.072,-0.032l0.072,-0.033l0.073,-0.032l0.073,-0.031l0.073,-0.031l0.073,-0.031l0.073,-0.03l0.074,-0.03l0.074,-0.029l0.074,-0.029l0.074,-0.029l0.075,-0.028l0.074,-0.027l0.075,-0.028l0.076,-0.026l0.075,-0.026l0.076,-0.026l0.076,-0.026l0.076,-0.025l0.076,-0.024l0.076,-0.024l0.077,-0.024l0.077,-0.023l0.077,-0.022l0.077,-0.022l0.078,-0.022l0.078,-0.021l0.078,-0.021l0.078,-0.02l0.078,-0.02l0.079,-0.02l0.078,-0.019l0.079,-0.018l0.079,-0.018l0.079,-0.017l0.08,-0.017l0.08,-0.017l0.079,-0.016l0.08,-0.015l0.081,-0.015l0.08,-0.015l0.08,-0.014l0.081,-0.014l0.081,-0.013l0.081,-0.012l0.081,-0.012l0.082,-0.012l0.081,-0.011l0.082,-0.011l0.082,-0.01l0.082,-0.009l0.082,-0.009l0.082,-0.009l0.083,-0.008l0.083,-0.007l0.082,-0.007l0.083,-0.007l0.084,-0.006l0.083,-0.005l0.083,-0.005l0.084,-0.005l0.083,-0.003l0.084,-0.004l0.084,-0.003l0.084,-0.002l0.085,-0.002l0.082,-0.001l0.002,0.111Zm0.002,1.023l-0.079,-0.001l-0.077,0l-0.077,0l-0.077,0.001l-0.077,0.001l-0.077,0.002l-0.076,0.002l-0.076,0.003l-0.077,0.003l-0.076,0.004l-0.076,0.004l-0.076,0.004l-0.076,0.005l-0.075,0.006l-0.076,0.006l-0.075,0.006l-0.076,0.007l-0.075,0.008l-0.075,0.008l-0.075,0.008l-0.075,0.009l-0.074,0.009l-0.075,0.01l-0.074,0.01l-0.075,0.01l-0.074,0.012l-0.074,0.011l-0.073,0.012l-0.074,0.013l-0.074,0.013l-0.073,0.013l-0.073,0.014l-0.073,0.014l-0.073,0.015l-0.073,0.015l-0.073,0.015l-0.072,0.016l-0.072,0.017l-0.072,0.017l-0.072,0.017l-0.072,0.018l-0.072,0.018l-0.071,0.019l-0.072,0.019l-0.071,0.019l-0.071,0.02l-0.071,0.021l-0.07,0.02l-0.071,0.022l-0.07,0.021l-0.07,0.022l-0.07,0.023l-0.07,0.023l-0.07,0.023l-0.069,0.024l-0.069,0.024l-0.069,0.024l-0.069,0.025l-0.069,0.026l-0.068,0.025l-0.068,0.027l-0.069,0.026l-0.067,0.027l-0.068,0.028l-0.068,0.027l-0.067,0.029l-0.067,0.028l-0.067,0.029l-0.067,0.03l-0.066,0.03l-0.066,0.03l-0.066,0.03l-0.066,0.031l-0.066,0.032l-0.065,0.031l-0.065,0.033l-0.065,0.032l-0.065,0.033l-0.065,0.033l-0.064,0.034l-0.064,0.034l-0.064,0.035l-0.064,0.034l-0.063,0.036l-0.064,0.035l-0.063,0.036l-0.062,0.036l-0.063,0.037l-0.062,0.037l-0.062,0.038l-0.062,0.037l-0.062,0.038l-0.061,0.039l-0.061,0.039l-0.061,0.039l-0.06,0.04l-0.061,0.04l-0.06,0.04l-0.06,0.041l-0.059,0.041l-0.06,0.041l-0.059,0.042l-0.033,0.023l-0.026,0.019l-0.058,0.042l-0.058,0.043l-0.058,0.044l-0.058,0.043l-0.057,0.044l-0.057,0.045l-0.057,0.044l-0.057,0.045l-0.056,0.045l-0.056,0.046l-0.056,0.046l-0.056,0.046l-0.055,0.047l-0.055,0.047l-0.054,0.047l-0.055,0.048l-0.054,0.048l-0.054,0.048l-0.053,0.049l-0.054,0.048l-0.053,0.05l-0.052,0.049l-0.053,0.05l-0.052,0.05l-0.051,0.051l-0.052,0.05l-0.051,0.051l-0.051,0.052l-0.05,0.052l-0.051,0.052l-0.05,0.052l-0.049,0.052l-0.05,0.053l-0.049,0.054l-0.048,0.053l-0.049,0.054l-0.048,0.054l-0.048,0.054l-0.047,0.055l-0.047,0.055l-0.047,0.055l-0.047,0.056l-0.046,0.056l-0.046,0.056l-0.045,0.056l-0.045,0.057l-0.045,0.057l-0.045,0.057l-0.044,0.058l-0.044,0.057l-0.043,0.058l-0.043,0.059l-0.043,0.058l-0.043,0.059l-0.042,0.059l-0.042,0.06l-0.041,0.059l-0.041,0.06l-0.041,0.061l-0.04,0.06l-0.04,0.061l-0.04,0.061l-0.039,0.061l-0.039,0.061l-0.039,0.062l-0.038,0.062l-0.038,0.062l-0.038,0.063l-0.037,0.063l-0.037,0.063l-0.036,0.063l-0.036,0.063l-0.036,0.064l-0.035,0.064l-0.035,0.064l-0.035,0.065l-0.034,0.064l-0.034,0.065l-0.033,0.065l-0.033,0.066l-0.033,0.065l-0.032,0.066l-0.032,0.066l-0.032,0.067l-0.031,0.066l-0.03,0.067l-0.031,0.067l-0.018,0.041l-0.012,0.026l-0.029,0.068l-0.029,0.067l-0.028,0.068l-0.029,0.068l-0.027,0.069l-0.028,0.068l-0.027,0.069l-0.026,0.069l-0.026,0.069l-0.026,0.07l-0.025,0.069l-0.025,0.07l-0.024,0.07l-0.024,0.07l-0.024,0.07l-0.023,0.071l-0.023,0.071l-0.022,0.071l-0.022,0.071l-0.022,0.071l-0.021,0.072l-0.02,0.071l-0.021,0.072l-0.019,0.072l-0.02,0.073l-0.019,0.072l-0.018,0.073l-0.018,0.072l-0.018,0.073l-0.017,0.074l-0.017,0.073l-0.016,0.073l-0.016,0.074l-0.015,0.074l-0.015,0.074l-0.014,0.074l-0.014,0.074l-0.014,0.075l-0.012,0.07l-0.001,0.005l-0.012,0.074l-0.012,0.075l-0.012,0.076l-0.011,0.075l-0.01,0.075l-0.01,0.076l-0.009,0.076l-0.01,0.076l-0.008,0.076l-0.008,0.076l-0.008,0.076l-0.007,0.077l-0.007,0.077l-0.006,0.076l-0.006,0.077l-0.005,0.077l-0.005,0.078l-0.004,0.077l-0.004,0.077l-0.003,0.078l-0.003,0.078l-0.002,0.077l-0.002,0.078l-0.002,0.078l0,0.079l-0.001,0.078l0,0.078l0.001,0.079l0.001,0.078l0.002,0.078l0.002,0.077l0,0.007l0.003,0.071l0.004,0.078l0.004,0.077l0.005,0.077l0.005,0.078l0.005,0.077l0.007,0.077l0.006,0.076l0.007,0.077l0.008,0.076l0.008,0.077l0.008,0.076l0.009,0.076l0.01,0.076l0.01,0.075l0.01,0.076l0.011,0.075l0.011,0.076l0.012,0.075l0.012,0.075l0.013,0.074l0.013,0.075l0.014,0.074l0.014,0.075l0.014,0.074l0.015,0.074l0.016,0.073l0.016,0.074l0.016,0.073l0.017,0.074l0.017,0.073l0.017,0.073l0.018,0.072l0.007,0.025l0.012,0.048l0.02,0.072l0.02,0.072l0.02,0.072l0.02,0.072l0.022,0.071l0.021,0.072l0.022,0.071l0.023,0.071l0.022,0.07l0.024,0.071l0.023,0.07l0.024,0.07l0.025,0.07l0.025,0.07l0.025,0.07l0.026,0.069l0.026,0.069l0.026,0.069l0.027,0.069l0.028,0.068l0.027,0.068l0.029,0.068l0.028,0.068l0.029,0.068l0.029,0.067l0.03,0.067l0.03,0.067l0.031,0.067l0.031,0.067l0.031,0.066l0.032,0.066l0.032,0.066l0.032,0.065l0.033,0.066l0.033,0.065l0.012,0.022l0.022,0.043l0.034,0.064l0.035,0.064l0.035,0.064l0.036,0.064l0.035,0.064l0.036,0.063l0.037,0.063l0.037,0.063l0.037,0.062l0.038,0.063l0.037,0.062l0.039,0.062l0.038,0.061l0.039,0.061l0.04,0.061l0.039,0.061l0.041,0.061l0.04,0.06l0.041,0.06l0.041,0.06l0.041,0.059l0.042,0.059l0.042,0.059l0.043,0.059l0.043,0.058l0.043,0.058l0.043,0.058l0.044,0.058l0.044,0.057l0.045,0.057l0.044,0.056l0.046,0.057l0.045,0.056l0.046,0.056l0.046,0.055l0.046,0.056l0.047,0.055l0.047,0.054l0.048,0.055l0.047,0.054l0.048,0.054l0.049,0.053l0.048,0.053l0.049,0.053l0.049,0.053l0.05,0.052l0.05,0.052l0.05,0.052l0.051,0.051l0.05,0.051l0.051,0.051l0.052,0.051l0.051,0.05l0.052,0.049l0.053,0.05l0.052,0.049l0.053,0.049l0.053,0.049l0.053,0.048l0.054,0.048l0.054,0.047l0.054,0.048l0.055,0.047l0.054,0.046l0.055,0.047l0.056,0.045l0.055,0.046l0.056,0.045l0.056,0.045l0.057,0.045l0.056,0.044l0.057,0.044l0.058,0.044l0.057,0.043l0.058,0.043l0.058,0.043l0.058,0.042l0.026,0.018l0.032,0.024l0.059,0.041l0.059,0.042l0.059,0.041l0.059,0.04l0.06,0.04l0.06,0.04l0.06,0.04l0.061,0.039l0.06,0.039l0.061,0.038l0.061,0.038l0.061,0.038l0.062,0.037l0.062,0.037l0.062,0.037l0.062,0.036l0.063,0.036l0.062,0.036l0.063,0.035l0.063,0.035l0.064,0.034l0.064,0.034l0.063,0.034l0.064,0.033l0.065,0.033l0.064,0.032l0.065,0.032l0.065,0.032l0.065,0.031l0.065,0.031l0.066,0.031l0.066,0.03l0.066,0.03l0.066,0.029l0.066,0.029l0.067,0.029l0.066,0.028l0.067,0.028l0.067,0.027l0.068,0.027l0.067,0.027l0.068,0.026l0.068,0.026l0.068,0.025l0.068,0.025l0.069,0.025l0.068,0.024l0.069,0.024l0.069,0.023l0.069,0.023l0.07,0.022l0.069,0.023l0.07,0.021l0.07,0.021l0.07,0.021l0.07,0.021l0.071,0.02l0.07,0.019l0.071,0.019l0.071,0.019l0.071,0.018l0.071,0.018l0.071,0.018l0.072,0.017l0.072,0.016l0.072,0.016l0.072,0.016l0.072,0.015l0.072,0.015l0.072,0.014l0.073,0.014l0.073,0.014l0.073,0.013l0.073,0.012l0.073,0.012l0.073,0.012l0.074,0.011l0.073,0.011l0.074,0.01l0.074,0.01l0.074,0.009l0.05,0.006l0.024,0.004l0.074,0.008l0.075,0.009l0.074,0.008l0.075,0.008l0.074,0.007l0.075,0.006l0.075,0.006l0.075,0.006l0.076,0.005l0.075,0.005l0.075,0.004l0.076,0.004l0.076,0.004l0.076,0.002l0.076,0.003l0.076,0.002l0.076,0.001l0.076,0.001l0.077,0.001l0.076,0l0.077,-0.001l0.077,-0.001l0.076,-0.001l0.077,-0.002l0.076,-0.003l0.076,-0.003l0.076,-0.003l0.076,-0.004l0.076,-0.004l0.075,-0.005l0.076,-0.005l0.075,-0.006l0.075,-0.006l0.075,-0.007l0.075,-0.007l0.075,-0.008l0.074,-0.008l0.075,-0.008l0.074,-0.009l0.074,-0.01l0.05,-0.007l0.024,-0.003l0.074,-0.009l0.074,-0.011l0.073,-0.011l0.074,-0.011l0.073,-0.012l0.073,-0.012l0.073,-0.012l0.073,-0.013l0.073,-0.014l0.072,-0.014l0.073,-0.014l0.072,-0.015l0.072,-0.015l0.072,-0.016l0.071,-0.016l0.072,-0.016l0.071,-0.017l0.071,-0.018l0.071,-0.017l0.071,-0.019l0.071,-0.018l0.07,-0.019l0.071,-0.02l0.07,-0.02l0.07,-0.02l0.07,-0.021l0.069,-0.021l0.07,-0.022l0.069,-0.022l0.069,-0.022l0.069,-0.023l0.068,-0.023l0.069,-0.024l0.068,-0.024l0.068,-0.025l0.068,-0.025l0.068,-0.025l0.067,-0.026l0.068,-0.026l0.067,-0.026l0.067,-0.027l0.067,-0.027l0.057,-0.024l0.009,-0.004l0.067,-0.028l0.066,-0.028l0.066,-0.028l0.066,-0.029l0.065,-0.029l0.066,-0.03l0.065,-0.03l0.065,-0.03l0.065,-0.031l0.065,-0.031l0.064,-0.031l0.064,-0.032l0.064,-0.033l0.064,-0.032l0.063,-0.033l0.064,-0.034l0.063,-0.033l0.062,-0.035l0.063,-0.034l0.062,-0.035l0.063,-0.035l0.062,-0.036l0.061,-0.036l0.062,-0.036l0.061,-0.037l0.061,-0.037l0.061,-0.037l0.06,-0.038l0.06,-0.038l0.06,-0.039l0.06,-0.038l0.06,-0.04l0.059,-0.039l0.059,-0.04l0.059,-0.04l0.058,-0.041l0.059,-0.041l0.058,-0.041l0.057,-0.042l0.058,-0.042l0.057,-0.042l0.057,-0.042l0.057,-0.043l0.056,-0.044l0.056,-0.043l0.056,-0.044l0.056,-0.044l0.055,-0.045l0.056,-0.045l0.054,-0.045l0.055,-0.046l0.054,-0.046l0.019,-0.015l0.035,-0.031l0.054,-0.046l0.054,-0.047l0.053,-0.047l0.053,-0.047l0.053,-0.048l0.053,-0.048l0.052,-0.048l0.052,-0.048l0.051,-0.049l0.052,-0.049l0.051,-0.05l0.05,-0.05l0.051,-0.05l0.05,-0.05l0.05,-0.051l0.049,-0.051l0.05,-0.051l0.049,-0.052l0.048,-0.051l0.049,-0.053l0.048,-0.052l0.047,-0.053l0.048,-0.053l0.047,-0.053l0.047,-0.054l0.046,-0.054l0.046,-0.054l0.046,-0.054l0.046,-0.055l0.045,-0.055l0.045,-0.055l0.044,-0.056l0.045,-0.056l0.043,-0.056l0.044,-0.056l0.043,-0.057l0.043,-0.057l0.043,-0.057l0.042,-0.057l0.042,-0.058l0.041,-0.058l0.042,-0.058l0.041,-0.059l0.04,-0.059l0.04,-0.059l0.04,-0.059l0.04,-0.059l0.039,-0.06l0.039,-0.06l0.038,-0.061l0.038,-0.06l0.038,-0.061l0.037,-0.061l0.037,-0.061l0.037,-0.062l0.036,-0.061l0.036,-0.062l0.036,-0.063l0.014,-0.025l0.021,-0.037l0.035,-0.063l0.035,-0.062l0.034,-0.063l0.034,-0.064l0.034,-0.063l0.033,-0.064l0.033,-0.064l0.033,-0.064l0.032,-0.065l0.031,-0.064l0.032,-0.065l0.031,-0.065l0.03,-0.066l0.03,-0.065l0.03,-0.066l0.03,-0.066l0.029,-0.066l0.028,-0.066l0.029,-0.067l0.027,-0.067l0.028,-0.067l0.027,-0.067l0.027,-0.068l0.026,-0.067l0.026,-0.068l0.025,-0.068l0.025,-0.069l0.025,-0.068l0.024,-0.069l0.024,-0.068l0.024,-0.07l0.023,-0.069l0.022,-0.069l0.022,-0.07l0.022,-0.07l0.021,-0.07l0.021,-0.07l0.021,-0.07l0.02,-0.071l0.02,-0.071l0.019,-0.071l0.019,-0.071l0.018,-0.071l0.018,-0.071l0.018,-0.072l0.017,-0.072l0.016,-0.072l0.017,-0.072l0.016,-0.072l0.015,-0.073l0.015,-0.073l0.014,-0.073l0.014,-0.073l0.014,-0.073l0.013,-0.073l0.013,-0.074l0.012,-0.073l0.012,-0.074l0.011,-0.074l0.011,-0.074l0.01,-0.074l0.01,-0.075l0.01,-0.075l0.009,-0.074l0.009,-0.075l0.008,-0.075l0.007,-0.075l0.008,-0.076l0.006,-0.075l0.007,-0.076l0.005,-0.076l0.006,-0.076l0.005,-0.076l0.004,-0.076l0.004,-0.076l0.003,-0.077l0.003,-0.076l0.003,-0.077l0.002,-0.077l0.001,-0.077l0.001,-0.077l0.001,-0.077l0,-0.077l-0.001,-0.077l-0.001,-0.077l-0.001,-0.077l-0.002,-0.076l-0.002,-0.077l-0.003,-0.076l-0.004,-0.076l-0.004,-0.076l-0.004,-0.076l-0.005,-0.076l-0.005,-0.076l-0.006,-0.075l-0.006,-0.076l-0.007,-0.075l-0.007,-0.075l-0.007,-0.076l-0.008,-0.074l-0.009,-0.075l-0.009,-0.075l-0.009,-0.075l-0.01,-0.074l-0.011,-0.074l-0.01,-0.074l-0.012,-0.074l-0.012,-0.074l-0.012,-0.074l-0.012,-0.073l-0.013,-0.074l-0.014,-0.073l-0.014,-0.073l-0.014,-0.073l-0.015,-0.073l-0.016,-0.072l-0.015,-0.073l-0.017,-0.072l-0.016,-0.072l-0.017,-0.072l-0.018,-0.072l-0.014,-0.058l-0.004,-0.014l-0.018,-0.071l-0.019,-0.072l-0.019,-0.071l-0.019,-0.071l-0.02,-0.071l-0.02,-0.071l-0.021,-0.07l-0.021,-0.07l-0.022,-0.071l-0.022,-0.07l-0.023,-0.069l-0.022,-0.07l-0.024,-0.07l-0.023,-0.069l-0.025,-0.069l-0.024,-0.069l-0.025,-0.069l-0.025,-0.068l-0.026,-0.069l-0.026,-0.068l-0.027,-0.068l-0.027,-0.067l-0.027,-0.068l-0.028,-0.067l-0.028,-0.068l-0.029,-0.067l-0.029,-0.066l-0.029,-0.067l-0.03,-0.066l-0.03,-0.066l-0.031,-0.066l-0.031,-0.066l-0.031,-0.066l-0.032,-0.065l-0.032,-0.065l-0.033,-0.065l-0.032,-0.065l-0.034,-0.064l-0.033,-0.064l-0.034,-0.064l-0.035,-0.064l-0.035,-0.064l-0.035,-0.063l-0.035,-0.063l-0.036,-0.063l-0.037,-0.063l-0.036,-0.062l-0.037,-0.062l-0.038,-0.062l-0.037,-0.062l-0.038,-0.061l-0.039,-0.062l-0.039,-0.06l-0.039,-0.061l-0.04,-0.061l-0.039,-0.06l-0.041,-0.06l-0.04,-0.06l-0.041,-0.059l-0.042,-0.059l-0.041,-0.059l-0.042,-0.059l-0.043,-0.059l-0.042,-0.058l-0.044,-0.058l-0.043,-0.058l-0.044,-0.057l-0.044,-0.057l-0.044,-0.057l-0.045,-0.057l-0.045,-0.056l-0.046,-0.056l-0.045,-0.056l-0.046,-0.055l-0.047,-0.056l-0.047,-0.055l-0.047,-0.054l-0.047,-0.055l-0.048,-0.054l-0.048,-0.054l-0.048,-0.053l-0.049,-0.054l-0.049,-0.053l-0.049,-0.052l-0.05,-0.053l-0.05,-0.052l-0.05,-0.052l-0.051,-0.051l-0.051,-0.051l-0.051,-0.051l-0.051,-0.051l-0.052,-0.05l-0.052,-0.05l-0.053,-0.05l-0.053,-0.05l-0.053,-0.049l-0.053,-0.048l-0.054,-0.049l-0.054,-0.048l-0.054,-0.048l-0.054,-0.047l-0.055,-0.048l-0.055,-0.047l-0.056,-0.046l-0.055,-0.046l-0.056,-0.046l-0.056,-0.046l-0.057,-0.045l-0.057,-0.045l-0.057,-0.045l-0.057,-0.044l-0.058,-0.044l-0.058,-0.043l-0.058,-0.044l-0.058,-0.043l-0.059,-0.042l-0.059,-0.043l-0.059,-0.041l-0.06,-0.042l-0.06,-0.041l-0.06,-0.041l-0.01,-0.007l-0.05,-0.034l-0.061,-0.04l-0.06,-0.04l-0.061,-0.039l-0.062,-0.039l-0.061,-0.039l-0.062,-0.039l-0.062,-0.038l-0.062,-0.038l-0.063,-0.037l-0.063,-0.037l-0.063,-0.037l-0.063,-0.036l-0.064,-0.036l-0.064,-0.035l-0.064,-0.035l-0.064,-0.035l-0.065,-0.035l-0.064,-0.034l-0.065,-0.033l-0.066,-0.034l-0.065,-0.033l-0.066,-0.032l-0.066,-0.032l-0.066,-0.032l-0.066,-0.031l-0.067,-0.031l-0.067,-0.031l-0.067,-0.03l-0.067,-0.03l-0.068,-0.029l-0.067,-0.029l-0.068,-0.029l-0.068,-0.028l-0.069,-0.028l-0.068,-0.027l-0.069,-0.027l-0.069,-0.027l-0.069,-0.026l-0.07,-0.026l-0.069,-0.025l-0.07,-0.025l-0.07,-0.024l-0.071,-0.025l-0.07,-0.023l-0.071,-0.024l-0.071,-0.022l-0.071,-0.023l-0.071,-0.022l-0.071,-0.021l-0.072,-0.022l-0.072,-0.02l-0.072,-0.021l-0.072,-0.019l-0.072,-0.02l-0.073,-0.019l-0.073,-0.018l-0.072,-0.018l-0.074,-0.018l-0.073,-0.017l-0.073,-0.017l-0.074,-0.017l-0.074,-0.015l-0.074,-0.016l-0.074,-0.015l-0.074,-0.014l-0.075,-0.015l-0.075,-0.013l-0.074,-0.013l-0.075,-0.013l-0.076,-0.012l-0.075,-0.012l-0.075,-0.012l-0.076,-0.01l-0.076,-0.011l-0.076,-0.01l-0.076,-0.009l-0.076,-0.009l-0.077,-0.009l-0.076,-0.008l-0.077,-0.008l-0.077,-0.007l-0.077,-0.006l-0.077,-0.007l-0.078,-0.005l-0.077,-0.005l-0.078,-0.005l-0.077,-0.004l-0.078,-0.004l-0.078,-0.003l-0.048,-0.002l-0.031,-0.001l-0.078,-0.003l-0.078,-0.001l-0.078,-0.002l0.001,0.222Z" style="fill:#333;"/><path d="M78.888,36.95l0.088,0.03l0.082,0.044l0.074,0.057l0.063,0.068l0.052,0.078l-0.497,0.273l0.303,-0.166l0.15,0.266l3.848,6.809l5.043,8.948l4.958,8.839l0.046,0.099l0.028,0.106l0.008,0.099l0.001,0.01l-0.01,0.109l-0.029,0.106l-0.046,0.1l-0.064,0.09l-0.078,0.079l-0.09,0.063l-0.1,0.048l-0.107,0.029l-0.111,0.011l-3.352,0.018l-4.631,0.012l-3.906,-0.01l-3.824,-0.03l-7.351,-0.095l-4.436,-0.065l-0.081,-0.01l-0.078,-0.024l-0.072,-0.036l-0.064,-0.048l-0.055,-0.058l-0.044,-0.066l-0.031,-0.072l-0.019,-0.076l-0.005,-0.078l0.008,-0.077l0.022,-0.074l0.033,-0.068l0.026,-0.045l1.518,-2.687l1.429,-2.561l1.335,-2.437l1.621,-2.984l3.523,-6.536l4.187,-7.811l0.052,-0.078l0.063,-0.068l0.074,-0.057l0.082,-0.044l0.088,-0.03l0.091,-0.015l0.094,0l0.091,0.015Zm-3.995,8.542l-3.634,6.476l-1.652,2.966l-1.343,2.434l-1.398,2.578l-1.107,2.068l3.677,-0.054l7.351,-0.095l3.824,-0.03l3.906,-0.01l4.631,0.012l2.285,0.012l-4.295,-7.966l-4.856,-9.051l-3.416,-6.383l-3.973,7.043Z" style="fill:#600653;"/></svg>