<?xml version="1.0" encoding="UTF-8" standalone="no"?><!DOCTYPE svg PUBLIC "-//W3C//DTD SVG 1.1//EN" "http://www.w3.org/Graphics/SVG/1.1/DTD/svg11.dtd"><svg width="100%" height="100%" viewBox="0 0 100 100" version="1.1" xmlns="http://www.w3.org/2000/svg" xmlns:xlink="http://www.w3.org/1999/xlink" xml:space="preserve" xmlns:serif="http://www.serif.com/" style="fill-rule:evenodd;clip-rule:evenodd;stroke-linejoin:round;stroke-miterlimit:2;"><rect id="_5" serif:id="5" x="0" y="0" width="100" height="100" style="fill:none;"/><path d="M93.102,34.602c2.979,0 5.398,2.419 5.398,5.398c0,2.93 -2.339,5.318 -5.25,5.396c0.161,0.385 0.25,0.808 0.25,1.252c0,1.793 -1.456,3.25 -3.25,3.25l-48.647,0c-1.794,0 -3.25,-1.457 -3.25,-3.25c0,-1.794 1.456,-3.25 3.25,-3.25l2.954,0c-0.753,-0.928 -1.204,-2.111 -1.204,-3.398c0,-2.979 2.418,-5.398 5.397,-5.398l44.352,0Z" style="fill:#c8a3b0;fill-opacity:0.3;"/><path d="M53.321,14.352c1.794,0 3.25,1.457 3.25,3.25c0,1.794 -1.456,3.25 -3.25,3.25l-6.263,0c0.669,0.911 1.064,2.035 1.064,3.25c0,3.036 -2.465,5.5 -5.5,5.5l-33.622,0c-3.036,0 -5.5,-2.464 -5.5,-5.5c0,-3.035 2.464,-5.5 5.5,-5.5l17.062,0c-0.102,-0.315 -0.157,-0.651 -0.157,-1c0,-1.793 1.456,-3.25 3.25,-3.25l24.166,0Z" style="fill:#c8a3b0;fill-opacity:0.3;"/><path d="M57.213,65.898c1.794,0 3.25,1.456 3.25,3.25c0,1.793 -1.456,3.25 -3.25,3.25l-6.217,0c0.003,0.068 0.004,0.136 0.004,0.204c0,0.306 -0.025,0.606 -0.074,0.898l25.396,0c1.794,0 3.25,1.456 3.25,3.25c0,1.794 -1.456,3.25 -3.25,3.25l-29.572,0c-1.351,0 -2.51,-0.826 -3.001,-2l-22.572,0c-2.979,0 -5.398,-2.419 -5.398,-5.398c0,-0.068 0.001,-0.136 0.004,-0.204l-7.217,0c-1.794,0 -3.25,-1.457 -3.25,-3.25c0,-1.794 1.456,-3.25 3.25,-3.25l48.647,0Z" style="fill:#c8a3b0;fill-opacity:0.3;"/><path d="M89.523,25l-79.523,0.188l0.008,49.575l79.992,0.237l-0.477,-50Z" style="fill:#f2f2f2;"/><path d="M88.567,25.351l-23.765,0.138l-31.76,0.176l0.043,0.059l-22.494,0.054l0.003,0.003l0.032,12.172l0.039,17.019l0.028,16.262l0.002,-0.001l0.001,2.844l0,-0.001l14.734,0.034l20.42,0.058l-0.002,0.015l42.946,0.127l0,0l0.514,0.002l0,0.001l-0.431,-48.964l-0.31,0.002Zm1.067,-0.991l0.109,0.029l0.102,0.047l0.093,0.064l0.08,0.079l0.066,0.092l0.048,0.102l0.03,0.109l0.011,0.112l0.512,49.999l-0.007,0.109l-0.025,0.105l-0.04,0.101l-0.056,0.093l-0.07,0.082l-0.083,0.071l0,0l-0.092,0.057l-0.065,0.027l-0.035,0.015l-0.106,0.025l-0.108,0.008l-44.327,-0.117l-21.309,-0.065l-14.356,-0.053l-0.119,-0.011l-0.116,-0.031l-0.108,-0.051l-0.098,-0.069l-0.084,-0.085l0,0l-0.068,-0.098l-0.051,-0.109l-0.03,-0.115l-0.011,-0.119l0.001,-2.048l0.023,-17.409l0.033,-18.174l0.028,-11.944l0.01,-0.102l0.027,-0.1l0.044,-0.093l0.06,-0.084l0.072,-0.073l0.001,0l0.084,-0.058l0.093,-0.043l0.099,-0.027l0.103,-0.008l21.948,0.005l32.407,0.024l24.195,0.025l0.974,0.001l0,0.345l-0.001,-0.649l0.112,0.009Z"/><rect x="12.5" y="27.5" width="75" height="45" style="fill:#fff;"/><path d="M86.863,27.654l-12.149,0.039l-19.631,0.057l-22.393,0.052l-10.966,0.017l0.006,0.007l-8.904,0l0.001,0.001l0,1.232l-0.003,10.099l-0.013,10.38l-0.043,21.305l-0.003,0.002l0,1.39l-0.001,0.001l20.073,0.042l10.564,0.016l10.329,0.008l11.037,-0.003l12.467,-0.01l-0.009,-0.013l10.051,0l-0.001,-0.001l-0.019,-15.633l-0.05,-28.989l-0.343,0.001Zm0.688,-0.443l0.049,0.013l0.047,0.022l0.042,0.029l0.036,0.036l0.029,0.042l0.022,0.047l0.013,0.049l0.005,0.051l-0.05,29.626l-0.019,15.374l-0.004,0.039l-0.01,0.038l-0.017,0.035l-0.022,0.032l-0.028,0.028l0,0l-0.032,0.022l-0.036,0.016l-0.037,0.01l-0.039,0.003l-9.747,-0.012l-12.709,-0.01l-11.245,-0.003l-10.525,0.008l-10.772,0.016l-20.002,0.042l-0.046,-0.004l-0.044,-0.012l-0.042,-0.019l-0.038,-0.026l-0.033,-0.033l0,0l-0.027,-0.037l-0.019,-0.042l-0.013,-0.045l-0.004,-0.046l-0.002,-0.938l-0.043,-22.044l-0.013,-10.768l-0.003,-10.478l0,-0.772l0.005,-0.057l0.015,-0.055l0.024,-0.051l0.033,-0.047l0.04,-0.04l0,0l0.047,-0.032l0.051,-0.024l0.055,-0.015l0.057,-0.005l8.502,0.007l11.099,0.017l22.657,0.052l19.838,0.057l12.261,0.039l0.643,0.002l0,-0.142l0.051,0.005Z"/><rect x="45" y="75" width="10" height="10" style="fill:#f2f2f2;"/><path d="M55.102,74.421l0.099,0.027l0.093,0.043l0.084,0.059l0.072,0.072l0.059,0.084l0.043,0.093l0.027,0.099l0.009,0.102l-0.1,5.372l-0.064,4.628l-0.005,0.036l-0.004,0.037l-0.021,0.07l-0.033,0.066l-0.043,0.058l-0.052,0.05l0,0l-0.06,0.04l-0.066,0.028l-0.069,0.017l-0.071,0.004l-0.543,-0.004l-2.238,-0.005l-2.095,0.015l-2.143,0.032l-2.981,0.063l-0.089,-0.003l-0.088,-0.019l-0.084,-0.033l-0.077,-0.049l-0.068,-0.062l-0.001,0l-0.053,-0.068l-0.004,-0.005l-0.044,-0.083l-0.029,-0.09l-0.013,-0.095l-0.072,-3.632l-0.026,-2.124l-0.007,-2.067l0.017,-2.055l0.002,-0.122l0.013,-0.11l0.032,-0.105l0.05,-0.097l0.065,-0.087l0.078,-0.075l0.001,0.001l0.09,-0.058l0.098,-0.042l0.104,-0.024l0.063,-0.003l0.042,-0.001l4.037,0.101l3.613,0.113l2.233,0.079l0.117,0.004l0,-0.284l0.102,0.009Zm-2.156,0.966l-3.096,0.113l0.055,0.101l-3.523,0.003l0.012,0.013l-0.775,0.002l0.017,0.017l0.002,0.883l0.017,1.489l-0.007,1.484l-0.026,1.534l-0.086,0.02l0,3.209l-0.005,0.004l-0.001,0.211l-0.023,0.023l3.01,0.063l1.615,0.032l1.594,0.015l1.699,-0.005l-0.009,-0.012l1.17,0l-0.007,-0.007l-0.001,-0.781l-0.002,-0.002l-0.064,-4.151l-0.093,-4.317l-1.473,0.059Z"/><path d="M87.075,27.654l-8.099,0.039l-13.087,0.057l-14.929,0.052l-7.311,0.017l-6.76,0.008l-6.806,-0.003l-7.002,-0.013l-0.027,-0.031l-10.274,0l-0.001,-0.001l-0.011,3.616l-0.003,0.002l0,0.838l-0.002,0.002l13.369,0.041l7.037,0.016l6.884,0.008l7.359,-0.003l8.315,-0.01l17.09,-0.033l-0.023,-0.037l14.425,0l-0.001,-0.001l-0.011,-4.564l-0.132,0Zm0.476,-0.443l0.049,0.013l0.047,0.022l0.042,0.029l0.036,0.036l0.029,0.042l0.022,0.047l0.013,0.049l0.005,0.051l-0.012,5l-0.004,0.049l-0.013,0.047l-0.021,0.045l-0.029,0.04l-0.034,0.034l0,0l-0.041,0.028l-0.044,0.02l-0.047,0.013l-0.049,0.004l-14.228,-0.036l-17.438,-0.033l-8.472,-0.01l-7.497,-0.003l-7.017,0.008l-7.181,0.016l-13.167,0.041l-0.046,-0.003l-0.044,-0.012l-0.042,-0.019l-0.038,-0.026l-0.033,-0.033l0,0l-0.027,-0.037l-0.02,-0.042l-0.012,-0.045l-0.004,-0.046l-0.002,-0.634l-0.011,-4.366l0.004,-0.048l0.012,-0.048l0.021,-0.044l0.027,-0.04l0.035,-0.035l0,0l0.04,-0.028l0.044,-0.021l0.047,-0.013l0.049,-0.005l9.881,-0.029l7.069,-0.013l6.878,-0.003l6.84,0.008l7.4,0.017l15.104,0.052l13.225,0.057l8.175,0.039l0.428,0.002l0,-0.142l0.051,0.005Z"/><rect x="18.307" y="43.929" width="16.143" height="16.143" style="fill:#600653;fill-opacity:0.5;"/><path d="M34.548,43.37l0.096,0.026l0.089,0.042l0.081,0.056l0.07,0.07l0.057,0.081l0.042,0.09l0.025,0.095l0.009,0.099l-0.095,6.904l-0.063,5.785l-0.019,2.646l-0.001,0.807l-0.006,0.068l-0.018,0.065l-0.029,0.061l-0.039,0.056l-0.048,0.047l0,0l-0.056,0.038l-0.017,0.009l-0.043,0.021l-0.065,0.019l-0.068,0.008l-1.806,0.012l-2.553,0.036l-5.444,0.1l-5.826,0.096l-0.514,0.005l-0.112,-0.008l-0.108,-0.027l-0.103,-0.045l-0.094,-0.063l-0.082,-0.079l0,0l-0.067,-0.092l-0.051,-0.102l-0.031,-0.11l-0.013,-0.115l-0.004,-0.455l-0.01,-3.096l0.012,-3.671l0.028,-4.114l0.049,-4.806l0.011,-0.102l0.028,-0.097l0.045,-0.091l0.06,-0.081l0.072,-0.071l0.001,0.001l0.083,-0.055l0.091,-0.04l0.097,-0.023l0.098,-0.007l1.81,0.02l8.002,0.107l6.092,0.09l0.239,0.003l0,-0.221l0.098,0.008Zm-5.898,0.997l-7.241,0.107l0.024,0.029l-2.55,0.001l0.011,0.011l0.048,4.843l0.028,3.358l0.012,2.982l-0.01,2.524l-0.013,0.011l-0.001,1.188l-0.011,0.01l1.282,0.005l4.743,0.096l4.545,0.1l2.165,0.035l0.012,0.017l2.049,0.001l0,-0.001l0.32,0l-0.002,-0.002l-0.001,-1.662l-0.019,-2.445l-0.063,-5.335l-0.09,-5.957l-5.238,0.084Z" style="fill:#600653;"/><circle cx="50.75" cy="52" r="8.071" style="fill:#600653;fill-opacity:0.5;"/><path d="M50.749,43.472l0.003,0.111l0.107,-0.001l0.075,0l0.033,0l0.108,0.001l0.108,0.003l0.108,0.004l0.107,0.005l0.107,0.007l0.106,0.008l0.107,0.01l0.106,0.01l0.105,0.013l0.105,0.013l0.105,0.015l0.105,0.016l0.104,0.017l0.104,0.018l0.103,0.02l0.103,0.021l0.102,0.022l0.102,0.024l0.102,0.025l0.101,0.026l0.101,0.027l0.1,0.029l0.1,0.029l0.099,0.031l0.099,0.032l0.098,0.033l0.098,0.035l0.097,0.035l0.097,0.037l0.096,0.038l0.096,0.039l0.095,0.04l0.094,0.042l0.094,0.042l0.094,0.043l0.092,0.045l0.093,0.046l0.091,0.047l0.091,0.048l0.09,0.049l0.09,0.05l0.089,0.051l0.088,0.052l0.088,0.053l0.08,0.05l0.007,0.004l0.086,0.056l0.086,0.056l0.085,0.058l0.084,0.058l0.083,0.06l0.083,0.06l0.082,0.061l0.081,0.063l0.08,0.063l0.08,0.064l0.079,0.066l0.078,0.066l0.077,0.067l0.077,0.068l0.076,0.069l0.075,0.07l0.074,0.07l0.073,0.072l0.072,0.073l0.072,0.073l0.071,0.074l0.069,0.075l0.069,0.076l0.068,0.077l0.068,0.078l0.066,0.078l0.065,0.08l0.065,0.08l0.063,0.081l0.063,0.081l0.061,0.083l0.061,0.083l0.06,0.084l0.058,0.085l0.058,0.086l0.057,0.086l0.056,0.087l0.054,0.088l0.054,0.089l0.053,0.089l0.051,0.09l0.051,0.091l0.05,0.091l0.048,0.092l0.047,0.093l0.047,0.094l0.045,0.094l0.044,0.094l0.043,0.096l0.042,0.096l0.041,0.097l0.039,0.097l0.039,0.098l0.037,0.098l0.036,0.1l0.035,0.099l0.034,0.101l0.033,0.101l0.031,0.101l0.03,0.102l0.018,0.061l0.011,0.042l0.028,0.103l0.026,0.103l0.025,0.105l0.023,0.104l0.023,0.106l0.021,0.105l0.019,0.106l0.019,0.107l0.017,0.107l0.016,0.108l0.014,0.108l0.014,0.108l0.012,0.109l0.01,0.109l0.009,0.11l0.008,0.11l0.006,0.11l0.005,0.111l0.004,0.111l0.002,0.112l0.001,0.112l-0.001,0.111l-0.002,0.111l-0.003,0.111l-0.005,0.11l-0.006,0.11l-0.008,0.11l-0.008,0.109l-0.011,0.109l-0.011,0.109l-0.013,0.108l-0.015,0.108l-0.015,0.108l-0.017,0.107l-0.019,0.107l-0.019,0.106l-0.021,0.106l-0.022,0.106l-0.024,0.105l-0.025,0.104l-0.026,0.104l-0.027,0.104l-0.028,0.103l-0.03,0.103l-0.031,0.102l-0.032,0.102l-0.034,0.101l-0.034,0.1l-0.036,0.1l-0.037,0.1l-0.039,0.099l-0.039,0.098l-0.04,0.098l-0.042,0.097l-0.043,0.097l-0.044,0.096l-0.045,0.095l-0.046,0.095l-0.048,0.094l-0.048,0.094l-0.04,0.074l-0.01,0.019l-0.051,0.092l-0.052,0.091l-0.053,0.09l-0.055,0.09l-0.055,0.09l-0.057,0.088l-0.057,0.088l-0.058,0.087l-0.06,0.086l-0.06,0.086l-0.062,0.085l-0.062,0.084l-0.064,0.083l-0.064,0.083l-0.066,0.081l-0.066,0.081l-0.067,0.081l-0.069,0.079l-0.069,0.078l-0.07,0.078l-0.071,0.077l-0.072,0.076l-0.073,0.075l-0.074,0.074l-0.074,0.074l-0.076,0.072l-0.076,0.072l-0.078,0.07l-0.078,0.07l-0.026,0.023l-0.053,0.046l-0.08,0.067l-0.081,0.067l-0.082,0.066l-0.083,0.064l-0.083,0.064l-0.084,0.063l-0.085,0.062l-0.086,0.061l-0.087,0.059l-0.087,0.059l-0.088,0.058l-0.089,0.057l-0.089,0.055l-0.09,0.055l-0.091,0.054l-0.092,0.052l-0.092,0.052l-0.093,0.05l-0.094,0.049l-0.095,0.048l-0.095,0.047l-0.095,0.046l-0.097,0.045l-0.097,0.044l-0.097,0.042l-0.056,0.024l-0.043,0.017l-0.099,0.04l-0.1,0.038l-0.1,0.037l-0.101,0.036l-0.102,0.034l-0.102,0.034l-0.102,0.032l-0.103,0.031l-0.104,0.029l-0.104,0.029l-0.105,0.027l-0.105,0.026l-0.105,0.025l-0.107,0.023l-0.106,0.022l-0.107,0.021l-0.108,0.019l-0.107,0.018l-0.109,0.017l-0.108,0.016l-0.11,0.014l-0.017,0.002l-0.092,0.01l-0.11,0.01l-0.111,0.009l-0.11,0.008l-0.111,0.006l-0.112,0.005l-0.111,0.003l-0.112,0.002l-0.112,0.001l-0.113,-0.001l-0.112,-0.002l-0.113,-0.004l-0.111,-0.005l-0.112,-0.006l-0.111,-0.008l-0.11,-0.009l-0.111,-0.011l-0.109,-0.011l-0.11,-0.014l-0.109,-0.014l-0.071,-0.011l-0.037,-0.006l-0.108,-0.018l-0.107,-0.019l-0.107,-0.021l-0.107,-0.022l-0.106,-0.024l-0.105,-0.025l-0.105,-0.026l-0.104,-0.027l-0.104,-0.028l-0.103,-0.03l-0.103,-0.031l-0.102,-0.032l-0.102,-0.033l-0.1,-0.035l-0.101,-0.036l-0.099,-0.037l-0.1,-0.038l-0.098,-0.039l-0.098,-0.04l-0.097,-0.042l-0.097,-0.043l-0.095,-0.043l-0.096,-0.045l-0.094,-0.046l-0.094,-0.047l-0.093,-0.049l-0.093,-0.049l-0.092,-0.05l-0.091,-0.052l-0.09,-0.052l-0.09,-0.053l-0.088,-0.055l-0.089,-0.055l-0.087,-0.057l-0.087,-0.058l-0.085,-0.058l-0.085,-0.06l-0.085,-0.06l-0.083,-0.062l-0.083,-0.062l-0.064,-0.049l-0.018,-0.014l-0.081,-0.065l-0.08,-0.065l-0.079,-0.067l-0.079,-0.067l-0.077,-0.068l-0.077,-0.069l-0.076,-0.07l-0.075,-0.071l-0.074,-0.071l-0.073,-0.073l-0.072,-0.073l-0.072,-0.074l-0.07,-0.075l-0.07,-0.076l-0.068,-0.077l-0.068,-0.077l-0.067,-0.078l-0.066,-0.079l-0.065,-0.08l-0.064,-0.08l-0.063,-0.082l-0.062,-0.082l-0.061,-0.082l-0.06,-0.084l-0.059,-0.084l-0.058,-0.085l-0.057,-0.085l-0.055,-0.087l-0.055,-0.087l-0.054,-0.087l-0.053,-0.089l-0.052,-0.089l-0.051,-0.089l-0.049,-0.09l-0.049,-0.091l-0.047,-0.092l-0.047,-0.092l-0.045,-0.092l-0.037,-0.078l-0.007,-0.015l-0.044,-0.094l-0.042,-0.094l-0.042,-0.095l-0.04,-0.095l-0.039,-0.096l-0.038,-0.096l-0.037,-0.097l-0.036,-0.098l-0.034,-0.098l-0.034,-0.098l-0.032,-0.099l-0.031,-0.1l-0.029,-0.1l-0.029,-0.1l-0.027,-0.101l-0.026,-0.102l-0.025,-0.102l-0.02,-0.085l-0.004,-0.017l-0.023,-0.102l-0.022,-0.103l-0.021,-0.104l-0.019,-0.104l-0.019,-0.104l-0.017,-0.104l-0.015,-0.106l-0.015,-0.105l-0.013,-0.106l-0.012,-0.106l-0.01,-0.107l-0.009,-0.106l-0.008,-0.108l-0.007,-0.107l-0.005,-0.108l-0.003,-0.108l-0.001,-0.05l-0.002,-0.059l-0.003,-0.109l-0.001,-0.109l0.001,-0.109l0.002,-0.109l0.003,-0.109l0.004,-0.108l0.006,-0.108l0.008,-0.107l0.008,-0.107l0.01,-0.107l0.011,-0.107l0.013,-0.106l0.014,-0.105l0.015,-0.106l0.016,-0.104l0.001,-0.003l0.016,-0.102l0.019,-0.104l0.019,-0.104l0.021,-0.103l0.022,-0.103l0.024,-0.102l0.024,-0.102l0.026,-0.102l0.027,-0.101l0.029,-0.1l0.029,-0.1l0.031,-0.1l0.032,-0.099l0.033,-0.098l0.034,-0.098l0.035,-0.098l0.037,-0.097l0.037,-0.096l0.039,-0.096l0.028,-0.066l0.012,-0.029l0.041,-0.095l0.041,-0.094l0.043,-0.094l0.044,-0.093l0.045,-0.092l0.047,-0.092l0.047,-0.091l0.048,-0.091l0.05,-0.09l0.05,-0.089l0.051,-0.089l0.053,-0.088l0.054,-0.087l0.054,-0.087l0.056,-0.086l0.056,-0.085l0.058,-0.085l0.059,-0.083l0.059,-0.083l0.061,-0.083l0.062,-0.081l0.062,-0.081l0.064,-0.08l0.064,-0.08l0.065,-0.078l0.067,-0.078l0.067,-0.077l0.068,-0.076l0.069,-0.076l0.07,-0.074l0.071,-0.074l0.072,-0.073l0.072,-0.072l0.074,-0.071l0.074,-0.07l0.075,-0.07l0.076,-0.068l0.077,-0.068l0.078,-0.067l0.079,-0.066l0.079,-0.065l0.08,-0.064l0.081,-0.063l0.059,-0.045l0.023,-0.017l0.082,-0.062l0.083,-0.06l0.084,-0.06l0.085,-0.059l0.085,-0.057l0.086,-0.057l0.087,-0.056l0.088,-0.054l0.088,-0.054l0.089,-0.052l0.09,-0.052l0.09,-0.051l0.092,-0.049l0.092,-0.049l0.092,-0.047l0.093,-0.046l0.094,-0.045l0.095,-0.044l0.095,-0.043l0.096,-0.042l0.096,-0.041l0.097,-0.04l0.098,-0.038l0.098,-0.037l0.099,-0.037l0.1,-0.034l0.1,-0.034l0.101,-0.033l0.101,-0.031l0.102,-0.03l0.102,-0.029l0.103,-0.028l0.103,-0.027l0.104,-0.025l0.105,-0.024l0.104,-0.023l0.106,-0.021l0.106,-0.02l0.106,-0.019l0.107,-0.018l0.107,-0.016l0.108,-0.015l0.108,-0.014l0.109,-0.012l0.109,-0.011l0.11,-0.009l0.11,-0.008l0.11,-0.007l0.111,-0.006l0.111,-0.004l0.107,-0.002l0.003,0.11Zm0.005,1.024l-0.101,-0.002l-0.097,0l-0.096,0.001l-0.097,0.003l-0.096,0.003l-0.095,0.005l-0.096,0.006l-0.095,0.007l-0.095,0.008l-0.094,0.01l-0.094,0.011l-0.094,0.011l-0.094,0.013l-0.093,0.014l-0.093,0.016l-0.092,0.016l-0.092,0.018l-0.092,0.018l-0.091,0.02l-0.091,0.021l-0.091,0.022l-0.09,0.023l-0.09,0.024l-0.089,0.026l-0.089,0.026l-0.088,0.027l-0.089,0.029l-0.087,0.029l-0.087,0.031l-0.087,0.032l-0.086,0.032l-0.086,0.034l-0.085,0.035l-0.085,0.035l-0.084,0.037l-0.084,0.038l-0.083,0.039l-0.083,0.039l-0.082,0.041l-0.082,0.042l-0.081,0.042l-0.081,0.044l-0.08,0.045l-0.079,0.045l-0.079,0.047l-0.078,0.047l-0.078,0.048l-0.077,0.05l-0.077,0.05l-0.075,0.051l-0.076,0.052l-0.02,0.014l-0.054,0.039l-0.074,0.054l-0.073,0.055l-0.072,0.056l-0.072,0.056l-0.071,0.058l-0.07,0.058l-0.07,0.059l-0.069,0.06l-0.068,0.061l-0.068,0.062l-0.066,0.062l-0.067,0.063l-0.065,0.065l-0.064,0.064l-0.064,0.066l-0.063,0.066l-0.062,0.068l-0.062,0.067l-0.06,0.069l-0.06,0.07l-0.059,0.07l-0.059,0.071l-0.057,0.071l-0.057,0.072l-0.055,0.074l-0.055,0.073l-0.054,0.075l-0.053,0.075l-0.052,0.076l-0.052,0.076l-0.05,0.077l-0.05,0.078l-0.049,0.078l-0.047,0.079l-0.047,0.08l-0.046,0.08l-0.045,0.081l-0.044,0.082l-0.043,0.082l-0.042,0.083l-0.041,0.083l-0.041,0.084l-0.039,0.084l-0.011,0.026l-0.027,0.06l-0.036,0.085l-0.036,0.087l-0.035,0.087l-0.033,0.087l-0.033,0.088l-0.032,0.089l-0.03,0.089l-0.03,0.089l-0.028,0.09l-0.027,0.09l-0.027,0.091l-0.025,0.092l-0.024,0.092l-0.023,0.092l-0.021,0.093l-0.021,0.093l-0.02,0.094l-0.018,0.094l-0.017,0.092l0,0.002l-0.016,0.095l-0.014,0.096l-0.013,0.096l-0.012,0.096l-0.011,0.097l-0.009,0.097l-0.008,0.097l-0.007,0.098l-0.006,0.098l-0.005,0.098l-0.003,0.099l-0.002,0.099l-0.001,0.099l0,0.099l0.002,0.099l0.001,0.054l0.002,0.045l0.006,0.098l0.006,0.098l0.008,0.098l0.009,0.097l0.011,0.097l0.011,0.097l0.013,0.096l0.014,0.095l0.015,0.096l0.016,0.094l0.017,0.095l0.019,0.094l0.019,0.093l0.021,0.094l0.022,0.092l0.023,0.092l0.004,0.016l0.021,0.076l0.026,0.091l0.027,0.091l0.028,0.09l0.03,0.089l0.03,0.089l0.032,0.089l0.032,0.088l0.034,0.087l0.034,0.087l0.036,0.086l0.036,0.086l0.038,0.085l0.038,0.085l0.04,0.084l0.04,0.083l0.042,0.083l0.042,0.082l0.008,0.014l0.036,0.068l0.045,0.08l0.046,0.081l0.047,0.079l0.047,0.079l0.049,0.078l0.049,0.078l0.051,0.076l0.051,0.077l0.052,0.075l0.053,0.075l0.054,0.074l0.055,0.073l0.055,0.073l0.056,0.072l0.058,0.071l0.058,0.071l0.058,0.069l0.06,0.069l0.06,0.069l0.061,0.067l0.062,0.067l0.063,0.066l0.063,0.065l0.065,0.064l0.065,0.064l0.065,0.063l0.067,0.062l0.067,0.061l0.067,0.06l0.069,0.06l0.069,0.059l0.07,0.057l0.07,0.057l0.072,0.057l0.071,0.055l0.073,0.054l0.073,0.054l0.074,0.052l0.016,0.012l0.058,0.04l0.075,0.051l0.075,0.051l0.076,0.049l0.077,0.048l0.077,0.048l0.078,0.046l0.079,0.046l0.078,0.045l0.08,0.043l0.08,0.043l0.081,0.042l0.081,0.041l0.081,0.04l0.082,0.038l0.083,0.038l0.083,0.037l0.084,0.036l0.084,0.035l0.085,0.034l0.085,0.033l0.085,0.032l0.086,0.031l0.086,0.029l0.087,0.029l0.088,0.028l0.087,0.026l0.088,0.026l0.089,0.024l0.089,0.024l0.089,0.022l0.09,0.022l0.09,0.02l0.09,0.019l0.091,0.018l0.091,0.017l0.092,0.015l0.091,0.015l0.093,0.013l0.092,0.013l0.093,0.011l0.031,0.003l0.062,0.007l0.093,0.01l0.094,0.009l0.094,0.007l0.094,0.007l0.095,0.005l0.095,0.004l0.095,0.003l0.095,0.001l0.096,0l0.096,0l0.096,-0.003l0.096,-0.003l0.095,-0.004l0.095,-0.006l0.094,-0.007l0.095,-0.008l0.093,-0.009l0.094,-0.011l0.093,-0.011l0.077,-0.011l0.015,-0.002l0.093,-0.012l0.092,-0.014l0.091,-0.015l0.092,-0.017l0.09,-0.017l0.091,-0.018l0.09,-0.02l0.089,-0.02l0.089,-0.022l0.089,-0.023l0.088,-0.024l0.088,-0.024l0.087,-0.026l0.087,-0.027l0.087,-0.028l0.086,-0.029l0.085,-0.03l0.085,-0.031l0.085,-0.032l0.084,-0.033l0.083,-0.034l0.036,-0.015l0.047,-0.02l0.083,-0.035l0.083,-0.036l0.081,-0.037l0.082,-0.038l0.08,-0.039l0.081,-0.04l0.079,-0.041l0.079,-0.042l0.079,-0.043l0.078,-0.044l0.077,-0.044l0.077,-0.046l0.077,-0.046l0.075,-0.048l0.075,-0.048l0.075,-0.049l0.073,-0.05l0.074,-0.051l0.072,-0.052l0.072,-0.052l0.071,-0.054l0.071,-0.054l0.07,-0.055l0.069,-0.056l0.069,-0.056l0.045,-0.039l0.023,-0.019l0.067,-0.058l0.067,-0.059l0.066,-0.059l0.066,-0.06l0.065,-0.062l0.064,-0.061l0.063,-0.063l0.062,-0.064l0.062,-0.064l0.061,-0.065l0.06,-0.065l0.06,-0.067l0.058,-0.067l0.058,-0.068l0.057,-0.068l0.057,-0.069l0.055,-0.07l0.055,-0.071l0.054,-0.071l0.053,-0.072l0.052,-0.073l0.051,-0.073l0.051,-0.074l0.049,-0.074l0.049,-0.076l0.048,-0.075l0.047,-0.077l0.046,-0.077l0.045,-0.078l0.009,-0.016l0.036,-0.062l0.043,-0.078l0.043,-0.08l0.042,-0.079l0.041,-0.081l0.04,-0.081l0.039,-0.081l0.038,-0.082l0.037,-0.083l0.037,-0.083l0.035,-0.084l0.034,-0.084l0.033,-0.085l0.032,-0.086l0.032,-0.085l0.03,-0.087l0.029,-0.087l0.028,-0.087l0.027,-0.088l0.026,-0.088l0.025,-0.089l0.024,-0.089l0.023,-0.09l0.021,-0.09l0.021,-0.09l0.02,-0.092l0.018,-0.091l0.017,-0.092l0.017,-0.092l0.015,-0.093l0.014,-0.093l0.012,-0.094l0.012,-0.094l0.01,-0.094l0.01,-0.095l0.008,-0.095l0.007,-0.095l0.006,-0.096l0.004,-0.096l0.003,-0.097l0.003,-0.097l0.001,-0.097l-0.001,-0.097l-0.001,-0.096l-0.003,-0.096l-0.004,-0.096l-0.005,-0.096l-0.007,-0.095l-0.007,-0.095l-0.009,-0.094l-0.01,-0.095l-0.011,-0.094l-0.012,-0.093l-0.014,-0.093l-0.014,-0.093l-0.016,-0.093l-0.017,-0.092l-0.017,-0.092l-0.019,-0.091l-0.021,-0.091l-0.021,-0.091l-0.009,-0.037l-0.013,-0.053l-0.023,-0.09l-0.024,-0.09l-0.026,-0.089l-0.026,-0.089l-0.027,-0.088l-0.029,-0.088l-0.029,-0.087l-0.031,-0.087l-0.031,-0.086l-0.033,-0.086l-0.034,-0.086l-0.034,-0.085l-0.036,-0.084l-0.037,-0.085l-0.037,-0.083l-0.039,-0.083l-0.04,-0.083l-0.04,-0.082l-0.042,-0.081l-0.043,-0.081l-0.043,-0.08l-0.045,-0.08l-0.045,-0.079l-0.047,-0.079l-0.047,-0.078l-0.048,-0.078l-0.049,-0.076l-0.05,-0.077l-0.051,-0.075l-0.052,-0.075l-0.053,-0.075l-0.054,-0.073l-0.054,-0.074l-0.056,-0.072l-0.056,-0.072l-0.057,-0.071l-0.058,-0.07l-0.059,-0.07l-0.059,-0.069l-0.061,-0.068l-0.061,-0.068l-0.062,-0.067l-0.063,-0.066l-0.064,-0.065l-0.064,-0.065l-0.066,-0.064l-0.066,-0.063l-0.066,-0.062l-0.068,-0.062l-0.068,-0.061l-0.069,-0.06l-0.07,-0.059l-0.071,-0.058l-0.071,-0.058l-0.072,-0.057l-0.073,-0.056l-0.073,-0.055l-0.074,-0.054l-0.075,-0.053l-0.076,-0.053l-0.006,-0.004l-0.07,-0.047l-0.076,-0.051l-0.078,-0.05l-0.078,-0.049l-0.079,-0.048l-0.079,-0.048l-0.08,-0.046l-0.081,-0.045l-0.081,-0.045l-0.082,-0.043l-0.082,-0.043l-0.083,-0.042l-0.084,-0.04l-0.084,-0.04l-0.085,-0.038l-0.086,-0.038l-0.086,-0.037l-0.086,-0.035l-0.087,-0.035l-0.088,-0.034l-0.088,-0.032l-0.089,-0.032l-0.089,-0.03l-0.09,-0.03l-0.09,-0.028l-0.091,-0.027l-0.091,-0.026l-0.092,-0.025l-0.092,-0.024l-0.093,-0.023l-0.093,-0.022l-0.094,-0.021l-0.094,-0.019l-0.094,-0.018l-0.095,-0.018l-0.096,-0.016l-0.096,-0.015l-0.096,-0.013l-0.097,-0.013l-0.097,-0.011l-0.098,-0.01l-0.097,-0.009l-0.099,-0.008l-0.099,-0.006l-0.099,-0.005l-0.03,-0.002l-0.069,-0.002l-0.098,-0.003l0.002,0.222Z" style="fill:#600653;"/><path d="M15.25,28.526l0.002,0.051l0.029,-0.001l0.006,0l0.036,-0.001l0.037,0l0.036,0.001l0.036,0.003l0.036,0.003l0.036,0.003l0.036,0.005l0.035,0.006l0.035,0.006l0.035,0.008l0.035,0.008l0.035,0.009l0.034,0.01l0.034,0.011l0.033,0.012l0.033,0.012l0.033,0.013l0.033,0.014l0.032,0.015l0.032,0.016l0.031,0.016l0.031,0.017l0.014,0.008l0.017,0.01l0.03,0.019l0.03,0.019l0.029,0.02l0.029,0.021l0.028,0.022l0.028,0.022l0.027,0.023l0.026,0.024l0.027,0.024l0.025,0.025l0.025,0.025l0.025,0.026l0.023,0.027l0.024,0.028l0.022,0.028l0.022,0.028l0.021,0.029l0.021,0.03l0.02,0.031l0.019,0.03l0.019,0.032l0.018,0.032l0.017,0.032l0.016,0.033l0.016,0.034l0.015,0.034l0.014,0.034l0.013,0.035l0.013,0.036l0.009,0.028l0.002,0.008l0.011,0.036l0.009,0.037l0.009,0.037l0.007,0.038l0.007,0.037l0.006,0.039l0.005,0.038l0.004,0.039l0.003,0.039l0.002,0.04l0.001,0.04l0,0.039l-0.001,0.039l-0.002,0.039l-0.003,0.039l-0.004,0.039l-0.005,0.039l-0.006,0.038l-0.007,0.038l-0.007,0.038l-0.009,0.037l-0.009,0.037l-0.011,0.037l-0.011,0.037l-0.013,0.036l-0.013,0.036l-0.014,0.035l-0.014,0.035l-0.016,0.035l-0.016,0.034l-0.007,0.013l-0.011,0.021l-0.018,0.033l-0.02,0.032l-0.02,0.032l-0.02,0.032l-0.022,0.031l-0.022,0.031l-0.023,0.03l-0.024,0.029l-0.024,0.029l-0.025,0.028l-0.026,0.028l-0.026,0.027l-0.027,0.027l-0.028,0.026l-0.005,0.004l-0.024,0.02l-0.029,0.025l-0.03,0.023l-0.03,0.023l-0.031,0.022l-0.032,0.021l-0.032,0.021l-0.033,0.02l-0.033,0.019l-0.034,0.018l-0.034,0.018l-0.035,0.017l-0.035,0.016l-0.01,0.004l-0.026,0.01l-0.036,0.013l-0.037,0.013l-0.038,0.012l-0.037,0.01l-0.038,0.01l-0.039,0.009l-0.038,0.008l-0.039,0.007l-0.039,0.006l-0.04,0.005l-0.003,0l-0.037,0.003l-0.04,0.002l-0.04,0.001l-0.04,0l-0.041,-0.001l-0.04,-0.002l-0.041,-0.003l-0.039,-0.004l-0.04,-0.005l-0.039,-0.006l-0.013,-0.002l-0.026,-0.005l-0.038,-0.009l-0.038,-0.009l-0.038,-0.011l-0.037,-0.012l-0.036,-0.012l-0.036,-0.013l-0.036,-0.014l-0.035,-0.015l-0.034,-0.015l-0.034,-0.017l-0.034,-0.017l-0.033,-0.018l-0.032,-0.019l-0.032,-0.019l-0.031,-0.02l-0.031,-0.021l-0.03,-0.021l-0.029,-0.022l-0.029,-0.023l-0.025,-0.021l-0.003,-0.003l-0.028,-0.024l-0.026,-0.025l-0.026,-0.025l-0.026,-0.026l-0.024,-0.027l-0.024,-0.027l-0.024,-0.027l-0.022,-0.028l-0.022,-0.029l-0.022,-0.029l-0.02,-0.029l-0.02,-0.03l-0.019,-0.031l-0.018,-0.03l-0.018,-0.032l-0.016,-0.031l-0.016,-0.032l-0.015,-0.033l-0.015,-0.032l-0.005,-0.014l-0.009,-0.019l-0.013,-0.033l-0.012,-0.034l-0.012,-0.034l-0.011,-0.034l-0.01,-0.034l-0.009,-0.035l-0.009,-0.035l-0.007,-0.035l-0.003,-0.015l-0.004,-0.02l-0.007,-0.036l-0.006,-0.036l-0.005,-0.036l-0.004,-0.036l-0.003,-0.036l-0.002,-0.037l-0.001,-0.037l0,-0.027l-0.001,-0.01l-0.001,-0.037l0.001,-0.037l0.001,-0.037l0.002,-0.037l0.003,-0.036l0.004,-0.037l0.005,-0.036l0.002,-0.018l0.003,-0.018l0.006,-0.035l0.007,-0.036l0.007,-0.035l0.009,-0.035l0.009,-0.034l0.01,-0.034l0.011,-0.034l0.012,-0.034l0.012,-0.033l0.005,-0.011l0.008,-0.022l0.014,-0.033l0.014,-0.032l0.016,-0.032l0.016,-0.031l0.016,-0.031l0.018,-0.031l0.018,-0.03l0.019,-0.03l0.02,-0.029l0.02,-0.029l0.021,-0.029l0.022,-0.028l0.022,-0.027l0.023,-0.027l0.024,-0.026l0.024,-0.026l0.025,-0.025l0.026,-0.025l0.026,-0.024l0.027,-0.023l0.027,-0.023l0.01,-0.008l0.018,-0.014l0.029,-0.022l0.029,-0.022l0.029,-0.02l0.03,-0.02l0.031,-0.019l0.031,-0.019l0.032,-0.018l0.032,-0.017l0.033,-0.016l0.033,-0.016l0.034,-0.014l0.034,-0.015l0.035,-0.013l0.035,-0.012l0.036,-0.012l0.036,-0.01l0.036,-0.01l0.037,-0.009l0.038,-0.008l0.037,-0.008l0.038,-0.006l0.039,-0.005l0.039,-0.005l0.039,-0.003l0.035,-0.002l0.004,0.059Zm0.004,0.507l-0.029,-0.001l-0.025,-0.001l-0.025,0l-0.025,0l-0.025,0.001l-0.024,0.001l-0.025,0.002l-0.024,0.003l-0.024,0.004l-0.024,0.004l-0.024,0.004l-0.024,0.005l-0.024,0.006l-0.023,0.006l-0.023,0.007l-0.024,0.008l-0.023,0.008l-0.022,0.008l-0.023,0.009l-0.022,0.01l-0.022,0.01l-0.022,0.011l-0.022,0.012l-0.021,0.011l-0.021,0.013l-0.013,0.008l-0.008,0.005l-0.02,0.014l-0.02,0.014l-0.02,0.015l-0.019,0.015l-0.019,0.016l-0.018,0.016l-0.019,0.016l-0.017,0.017l-0.018,0.018l-0.017,0.018l-0.017,0.018l-0.016,0.019l-0.016,0.019l-0.015,0.02l-0.015,0.02l-0.014,0.02l-0.014,0.021l-0.014,0.022l-0.013,0.021l-0.012,0.022l-0.012,0.022l-0.008,0.015l-0.004,0.008l-0.01,0.023l-0.01,0.024l-0.01,0.024l-0.008,0.024l-0.009,0.025l-0.007,0.024l-0.007,0.025l-0.007,0.026l-0.006,0.025l-0.002,0.013l-0.003,0.013l-0.004,0.026l-0.003,0.027l-0.003,0.027l-0.002,0.027l-0.001,0.027l0,0.027l0,0.027l0,0.008l0.001,0.019l0.003,0.027l0.004,0.027l0.004,0.026l0.004,0.026l0.006,0.026l0.006,0.026l0.006,0.025l0.004,0.014l0.004,0.011l0.009,0.024l0.009,0.024l0.01,0.024l0.01,0.023l0.011,0.023l0.011,0.023l0.012,0.022l0.012,0.022l0.008,0.012l0.005,0.009l0.014,0.021l0.015,0.02l0.014,0.02l0.016,0.02l0.015,0.019l0.016,0.018l0.017,0.019l0.017,0.017l0.017,0.018l0.017,0.016l0.018,0.017l0.018,0.016l0.019,0.015l0.019,0.015l0.019,0.014l0.02,0.014l0.019,0.014l0.02,0.012l0.021,0.013l0.002,0.001l0.018,0.011l0.021,0.011l0.021,0.011l0.021,0.011l0.021,0.01l0.022,0.009l0.021,0.009l0.022,0.008l0.022,0.008l0.023,0.007l0.022,0.007l0.023,0.006l0.022,0.006l0.023,0.005l0.023,0.004l0.023,0.004l0.023,0.003l0.024,0.003l0.023,0.002l0.024,0.001l0.015,0.001l0.008,0l0.024,0.002l0.023,0l0.024,0l0.024,0l0.024,-0.001l0.024,-0.002l0.024,-0.003l0.023,-0.003l0.023,-0.003l0.021,-0.004l0.002,0l0.023,-0.004l0.022,-0.004l0.023,-0.005l0.022,-0.005l0.022,-0.006l0.021,-0.006l0.022,-0.007l0.021,-0.007l0.021,-0.008l0.02,-0.009l0.015,-0.006l0.006,-0.002l0.02,-0.009l0.021,-0.009l0.02,-0.009l0.019,-0.01l0.02,-0.01l0.019,-0.011l0.019,-0.011l0.019,-0.012l0.018,-0.012l0.018,-0.013l0.018,-0.013l0.018,-0.014l0.014,-0.011l0.003,-0.003l0.017,-0.013l0.017,-0.015l0.016,-0.015l0.017,-0.015l0.015,-0.015l0.016,-0.016l0.015,-0.017l0.015,-0.017l0.014,-0.017l0.014,-0.017l0.013,-0.018l0.014,-0.018l0.012,-0.019l0.013,-0.019l0.007,-0.011l0.005,-0.008l0.011,-0.019l0.012,-0.02l0.011,-0.02l0.01,-0.02l0.01,-0.021l0.009,-0.021l0.009,-0.021l0.009,-0.021l0.008,-0.022l0.007,-0.022l0.007,-0.023l0.007,-0.022l0.006,-0.023l0.005,-0.024l0.005,-0.023l0.004,-0.024l0.004,-0.024l0.003,-0.024l0.002,-0.025l0.002,-0.025l0.001,-0.025l0.001,-0.025l0,-0.025l-0.001,-0.024l-0.001,-0.025l-0.002,-0.024l-0.003,-0.024l-0.003,-0.024l-0.004,-0.024l-0.004,-0.024l-0.001,-0.005l-0.004,-0.019l-0.005,-0.023l-0.005,-0.024l-0.007,-0.023l-0.007,-0.023l-0.007,-0.023l-0.008,-0.023l-0.009,-0.022l-0.009,-0.023l-0.009,-0.022l-0.011,-0.022l-0.01,-0.021l-0.012,-0.022l-0.011,-0.021l-0.013,-0.02l-0.013,-0.021l-0.013,-0.02l-0.014,-0.02l-0.014,-0.02l-0.015,-0.019l-0.015,-0.019l-0.016,-0.019l-0.016,-0.018l-0.017,-0.018l-0.017,-0.018l-0.018,-0.017l-0.018,-0.017l-0.018,-0.016l-0.019,-0.016l-0.02,-0.016l-0.01,-0.008l-0.009,-0.007l-0.02,-0.015l-0.021,-0.014l-0.021,-0.014l-0.021,-0.014l-0.022,-0.013l-0.022,-0.012l-0.022,-0.012l-0.023,-0.012l-0.024,-0.01l-0.023,-0.011l-0.024,-0.01l-0.024,-0.009l-0.025,-0.009l-0.025,-0.008l-0.025,-0.007l-0.026,-0.007l-0.026,-0.007l-0.026,-0.005l-0.027,-0.006l-0.026,-0.004l-0.028,-0.004l-0.027,-0.003l-0.005,0l-0.021,-0.002l0.002,0.11Z" style="fill:#a80b20;"/><path d="M19.25,28.526l0.002,0.051l0.029,-0.001l0.006,0l0.036,-0.001l0.037,0l0.036,0.001l0.036,0.003l0.036,0.003l0.036,0.003l0.036,0.005l0.035,0.006l0.035,0.006l0.035,0.008l0.035,0.008l0.035,0.009l0.034,0.01l0.034,0.011l0.033,0.012l0.033,0.012l0.033,0.013l0.033,0.014l0.032,0.015l0.032,0.016l0.031,0.016l0.031,0.017l0.014,0.008l0.017,0.01l0.03,0.019l0.03,0.019l0.029,0.02l0.029,0.021l0.028,0.022l0.028,0.022l0.027,0.023l0.026,0.024l0.027,0.024l0.025,0.025l0.025,0.025l0.025,0.026l0.023,0.027l0.024,0.028l0.022,0.028l0.022,0.028l0.021,0.029l0.021,0.03l0.02,0.031l0.019,0.03l0.019,0.032l0.018,0.032l0.017,0.032l0.016,0.033l0.016,0.034l0.015,0.034l0.014,0.034l0.013,0.035l0.013,0.036l0.009,0.028l0.002,0.008l0.011,0.036l0.009,0.037l0.009,0.037l0.007,0.038l0.007,0.037l0.006,0.039l0.005,0.038l0.004,0.039l0.003,0.039l0.002,0.04l0.001,0.04l0,0.039l-0.001,0.039l-0.002,0.039l-0.003,0.039l-0.004,0.039l-0.005,0.039l-0.006,0.038l-0.007,0.038l-0.007,0.038l-0.009,0.037l-0.009,0.037l-0.011,0.037l-0.011,0.037l-0.013,0.036l-0.013,0.036l-0.014,0.035l-0.014,0.035l-0.016,0.035l-0.016,0.034l-0.007,0.013l-0.011,0.021l-0.018,0.033l-0.02,0.032l-0.02,0.032l-0.02,0.032l-0.022,0.031l-0.022,0.031l-0.023,0.03l-0.024,0.029l-0.024,0.029l-0.025,0.028l-0.026,0.028l-0.026,0.027l-0.027,0.027l-0.028,0.026l-0.005,0.004l-0.024,0.02l-0.029,0.025l-0.03,0.023l-0.03,0.023l-0.031,0.022l-0.032,0.021l-0.032,0.021l-0.033,0.02l-0.033,0.019l-0.034,0.018l-0.034,0.018l-0.035,0.017l-0.035,0.016l-0.01,0.004l-0.026,0.01l-0.036,0.013l-0.037,0.013l-0.038,0.012l-0.037,0.01l-0.038,0.01l-0.039,0.009l-0.038,0.008l-0.039,0.007l-0.039,0.006l-0.04,0.005l-0.003,0l-0.037,0.003l-0.04,0.002l-0.04,0.001l-0.04,0l-0.041,-0.001l-0.04,-0.002l-0.041,-0.003l-0.039,-0.004l-0.04,-0.005l-0.039,-0.006l-0.013,-0.002l-0.026,-0.005l-0.038,-0.009l-0.038,-0.009l-0.038,-0.011l-0.037,-0.012l-0.036,-0.012l-0.036,-0.013l-0.036,-0.014l-0.035,-0.015l-0.034,-0.015l-0.034,-0.017l-0.034,-0.017l-0.033,-0.018l-0.032,-0.019l-0.032,-0.019l-0.031,-0.02l-0.031,-0.021l-0.03,-0.021l-0.029,-0.022l-0.029,-0.023l-0.025,-0.021l-0.003,-0.003l-0.028,-0.024l-0.026,-0.025l-0.026,-0.025l-0.026,-0.026l-0.024,-0.027l-0.024,-0.027l-0.024,-0.027l-0.022,-0.028l-0.022,-0.029l-0.022,-0.029l-0.02,-0.029l-0.02,-0.03l-0.019,-0.031l-0.018,-0.03l-0.018,-0.032l-0.016,-0.031l-0.016,-0.032l-0.015,-0.033l-0.015,-0.032l-0.005,-0.014l-0.009,-0.019l-0.013,-0.033l-0.012,-0.034l-0.012,-0.034l-0.011,-0.034l-0.01,-0.034l-0.009,-0.035l-0.009,-0.035l-0.007,-0.035l-0.003,-0.015l-0.004,-0.02l-0.007,-0.036l-0.006,-0.036l-0.005,-0.036l-0.004,-0.036l-0.003,-0.036l-0.002,-0.037l-0.001,-0.037l0,-0.027l-0.001,-0.01l-0.001,-0.037l0.001,-0.037l0.001,-0.037l0.002,-0.037l0.003,-0.036l0.004,-0.037l0.005,-0.036l0.002,-0.018l0.003,-0.018l0.006,-0.035l0.007,-0.036l0.007,-0.035l0.009,-0.035l0.009,-0.034l0.01,-0.034l0.011,-0.034l0.012,-0.034l0.012,-0.033l0.005,-0.011l0.008,-0.022l0.014,-0.033l0.014,-0.032l0.016,-0.032l0.016,-0.031l0.016,-0.031l0.018,-0.031l0.018,-0.03l0.019,-0.03l0.02,-0.029l0.02,-0.029l0.021,-0.029l0.022,-0.028l0.022,-0.027l0.023,-0.027l0.024,-0.026l0.024,-0.026l0.025,-0.025l0.026,-0.025l0.026,-0.024l0.027,-0.023l0.027,-0.023l0.01,-0.008l0.018,-0.014l0.029,-0.022l0.029,-0.022l0.029,-0.02l0.03,-0.02l0.031,-0.019l0.031,-0.019l0.032,-0.018l0.032,-0.017l0.033,-0.016l0.033,-0.016l0.034,-0.014l0.034,-0.015l0.035,-0.013l0.035,-0.012l0.036,-0.012l0.036,-0.01l0.036,-0.01l0.037,-0.009l0.038,-0.008l0.037,-0.008l0.038,-0.006l0.039,-0.005l0.039,-0.005l0.039,-0.003l0.035,-0.002l0.004,0.059Zm0.004,0.507l-0.029,-0.001l-0.025,-0.001l-0.025,0l-0.025,0l-0.025,0.001l-0.024,0.001l-0.025,0.002l-0.024,0.003l-0.024,0.004l-0.024,0.004l-0.024,0.004l-0.024,0.005l-0.024,0.006l-0.023,0.006l-0.023,0.007l-0.024,0.008l-0.023,0.008l-0.022,0.008l-0.023,0.009l-0.022,0.01l-0.022,0.01l-0.022,0.011l-0.022,0.012l-0.021,0.011l-0.021,0.013l-0.013,0.008l-0.008,0.005l-0.02,0.014l-0.02,0.014l-0.02,0.015l-0.019,0.015l-0.019,0.016l-0.018,0.016l-0.019,0.016l-0.017,0.017l-0.018,0.018l-0.017,0.018l-0.017,0.018l-0.016,0.019l-0.016,0.019l-0.015,0.02l-0.015,0.02l-0.014,0.02l-0.014,0.021l-0.014,0.022l-0.013,0.021l-0.012,0.022l-0.012,0.022l-0.008,0.015l-0.004,0.008l-0.01,0.023l-0.01,0.024l-0.01,0.024l-0.008,0.024l-0.009,0.025l-0.007,0.024l-0.007,0.025l-0.007,0.026l-0.006,0.025l-0.002,0.013l-0.003,0.013l-0.004,0.026l-0.003,0.027l-0.003,0.027l-0.002,0.027l-0.001,0.027l0,0.027l0,0.027l0,0.008l0.001,0.019l0.003,0.027l0.004,0.027l0.004,0.026l0.004,0.026l0.006,0.026l0.006,0.026l0.006,0.025l0.004,0.014l0.004,0.011l0.009,0.024l0.009,0.024l0.01,0.024l0.01,0.023l0.011,0.023l0.011,0.023l0.012,0.022l0.012,0.022l0.008,0.012l0.005,0.009l0.014,0.021l0.015,0.02l0.014,0.02l0.016,0.02l0.015,0.019l0.016,0.018l0.017,0.019l0.017,0.017l0.017,0.018l0.017,0.016l0.018,0.017l0.018,0.016l0.019,0.015l0.019,0.015l0.019,0.014l0.02,0.014l0.019,0.014l0.02,0.012l0.021,0.013l0.002,0.001l0.018,0.011l0.021,0.011l0.021,0.011l0.021,0.011l0.021,0.01l0.022,0.009l0.021,0.009l0.022,0.008l0.022,0.008l0.023,0.007l0.022,0.007l0.023,0.006l0.022,0.006l0.023,0.005l0.023,0.004l0.023,0.004l0.023,0.003l0.024,0.003l0.023,0.002l0.024,0.001l0.015,0.001l0.008,0l0.024,0.002l0.023,0l0.024,0l0.024,0l0.024,-0.001l0.024,-0.002l0.024,-0.003l0.023,-0.003l0.023,-0.003l0.021,-0.004l0.002,0l0.023,-0.004l0.022,-0.004l0.023,-0.005l0.022,-0.005l0.022,-0.006l0.021,-0.006l0.022,-0.007l0.021,-0.007l0.021,-0.008l0.02,-0.009l0.015,-0.006l0.006,-0.002l0.02,-0.009l0.021,-0.009l0.02,-0.009l0.019,-0.01l0.02,-0.01l0.019,-0.011l0.019,-0.011l0.019,-0.012l0.018,-0.012l0.018,-0.013l0.018,-0.013l0.018,-0.014l0.014,-0.011l0.003,-0.003l0.017,-0.013l0.017,-0.015l0.016,-0.015l0.017,-0.015l0.015,-0.015l0.016,-0.016l0.015,-0.017l0.015,-0.017l0.014,-0.017l0.014,-0.017l0.013,-0.018l0.014,-0.018l0.012,-0.019l0.013,-0.019l0.007,-0.011l0.005,-0.008l0.011,-0.019l0.012,-0.02l0.011,-0.02l0.01,-0.02l0.01,-0.021l0.009,-0.021l0.009,-0.021l0.009,-0.021l0.008,-0.022l0.007,-0.022l0.007,-0.023l0.007,-0.022l0.006,-0.023l0.005,-0.024l0.005,-0.023l0.004,-0.024l0.004,-0.024l0.003,-0.024l0.002,-0.025l0.002,-0.025l0.001,-0.025l0.001,-0.025l0,-0.025l-0.001,-0.024l-0.001,-0.025l-0.002,-0.024l-0.003,-0.024l-0.003,-0.024l-0.004,-0.024l-0.004,-0.024l-0.001,-0.005l-0.004,-0.019l-0.005,-0.023l-0.005,-0.024l-0.007,-0.023l-0.007,-0.023l-0.007,-0.023l-0.008,-0.023l-0.009,-0.022l-0.009,-0.023l-0.009,-0.022l-0.011,-0.022l-0.01,-0.021l-0.012,-0.022l-0.011,-0.021l-0.013,-0.02l-0.013,-0.021l-0.013,-0.02l-0.014,-0.02l-0.014,-0.02l-0.015,-0.019l-0.015,-0.019l-0.016,-0.019l-0.016,-0.018l-0.017,-0.018l-0.017,-0.018l-0.018,-0.017l-0.018,-0.017l-0.018,-0.016l-0.019,-0.016l-0.02,-0.016l-0.01,-0.008l-0.009,-0.007l-0.02,-0.015l-0.021,-0.014l-0.021,-0.014l-0.021,-0.014l-0.022,-0.013l-0.022,-0.012l-0.022,-0.012l-0.023,-0.012l-0.024,-0.01l-0.023,-0.011l-0.024,-0.01l-0.024,-0.009l-0.025,-0.009l-0.025,-0.008l-0.025,-0.007l-0.026,-0.007l-0.026,-0.007l-0.026,-0.005l-0.027,-0.006l-0.026,-0.004l-0.028,-0.004l-0.027,-0.003l-0.005,0l-0.021,-0.002l0.002,0.11Z" style="fill:#dfb60f;"/><path d="M23.25,28.526l0.002,0.051l0.029,-0.001l0.006,0l0.036,-0.001l0.037,0l0.036,0.001l0.036,0.003l0.036,0.003l0.036,0.003l0.036,0.005l0.035,0.006l0.035,0.006l0.035,0.008l0.035,0.008l0.035,0.009l0.034,0.01l0.034,0.011l0.033,0.012l0.033,0.012l0.033,0.013l0.033,0.014l0.032,0.015l0.032,0.016l0.031,0.016l0.031,0.017l0.014,0.008l0.017,0.01l0.03,0.019l0.03,0.019l0.029,0.02l0.029,0.021l0.028,0.022l0.028,0.022l0.027,0.023l0.026,0.024l0.027,0.024l0.025,0.025l0.025,0.025l0.025,0.026l0.023,0.027l0.024,0.028l0.022,0.028l0.022,0.028l0.021,0.029l0.021,0.03l0.02,0.031l0.019,0.03l0.019,0.032l0.018,0.032l0.017,0.032l0.016,0.033l0.016,0.034l0.015,0.034l0.014,0.034l0.013,0.035l0.013,0.036l0.009,0.028l0.002,0.008l0.011,0.036l0.009,0.037l0.009,0.037l0.007,0.038l0.007,0.037l0.006,0.039l0.005,0.038l0.004,0.039l0.003,0.039l0.002,0.04l0.001,0.04l0,0.039l-0.001,0.039l-0.002,0.039l-0.003,0.039l-0.004,0.039l-0.005,0.039l-0.006,0.038l-0.007,0.038l-0.007,0.038l-0.009,0.037l-0.009,0.037l-0.011,0.037l-0.011,0.037l-0.013,0.036l-0.013,0.036l-0.014,0.035l-0.014,0.035l-0.016,0.035l-0.016,0.034l-0.007,0.013l-0.011,0.021l-0.018,0.033l-0.02,0.032l-0.02,0.032l-0.02,0.032l-0.022,0.031l-0.022,0.031l-0.023,0.03l-0.024,0.029l-0.024,0.029l-0.025,0.028l-0.026,0.028l-0.026,0.027l-0.027,0.027l-0.028,0.026l-0.005,0.004l-0.024,0.02l-0.029,0.025l-0.03,0.023l-0.03,0.023l-0.031,0.022l-0.032,0.021l-0.032,0.021l-0.033,0.02l-0.033,0.019l-0.034,0.018l-0.034,0.018l-0.035,0.017l-0.035,0.016l-0.01,0.004l-0.026,0.01l-0.036,0.013l-0.037,0.013l-0.038,0.012l-0.037,0.01l-0.038,0.01l-0.039,0.009l-0.038,0.008l-0.039,0.007l-0.039,0.006l-0.04,0.005l-0.003,0l-0.037,0.003l-0.04,0.002l-0.04,0.001l-0.04,0l-0.041,-0.001l-0.04,-0.002l-0.041,-0.003l-0.039,-0.004l-0.04,-0.005l-0.039,-0.006l-0.013,-0.002l-0.026,-0.005l-0.038,-0.009l-0.038,-0.009l-0.038,-0.011l-0.037,-0.012l-0.036,-0.012l-0.036,-0.013l-0.036,-0.014l-0.035,-0.015l-0.034,-0.015l-0.034,-0.017l-0.034,-0.017l-0.033,-0.018l-0.032,-0.019l-0.032,-0.019l-0.031,-0.02l-0.031,-0.021l-0.03,-0.021l-0.029,-0.022l-0.029,-0.023l-0.025,-0.021l-0.003,-0.003l-0.028,-0.024l-0.026,-0.025l-0.026,-0.025l-0.026,-0.026l-0.024,-0.027l-0.024,-0.027l-0.024,-0.027l-0.022,-0.028l-0.022,-0.029l-0.022,-0.029l-0.02,-0.029l-0.02,-0.03l-0.019,-0.031l-0.018,-0.03l-0.018,-0.032l-0.016,-0.031l-0.016,-0.032l-0.015,-0.033l-0.015,-0.032l-0.005,-0.014l-0.009,-0.019l-0.013,-0.033l-0.012,-0.034l-0.012,-0.034l-0.011,-0.034l-0.01,-0.034l-0.009,-0.035l-0.009,-0.035l-0.007,-0.035l-0.003,-0.015l-0.004,-0.02l-0.007,-0.036l-0.006,-0.036l-0.005,-0.036l-0.004,-0.036l-0.003,-0.036l-0.002,-0.037l-0.001,-0.037l0,-0.027l-0.001,-0.01l-0.001,-0.037l0.001,-0.037l0.001,-0.037l0.002,-0.037l0.003,-0.036l0.004,-0.037l0.005,-0.036l0.002,-0.018l0.003,-0.018l0.006,-0.035l0.007,-0.036l0.007,-0.035l0.009,-0.035l0.009,-0.034l0.01,-0.034l0.011,-0.034l0.012,-0.034l0.012,-0.033l0.005,-0.011l0.008,-0.022l0.014,-0.033l0.014,-0.032l0.016,-0.032l0.016,-0.031l0.016,-0.031l0.018,-0.031l0.018,-0.03l0.019,-0.03l0.02,-0.029l0.02,-0.029l0.021,-0.029l0.022,-0.028l0.022,-0.027l0.023,-0.027l0.024,-0.026l0.024,-0.026l0.025,-0.025l0.026,-0.025l0.026,-0.024l0.027,-0.023l0.027,-0.023l0.01,-0.008l0.018,-0.014l0.029,-0.022l0.029,-0.022l0.029,-0.02l0.03,-0.02l0.031,-0.019l0.031,-0.019l0.032,-0.018l0.032,-0.017l0.033,-0.016l0.033,-0.016l0.034,-0.014l0.034,-0.015l0.035,-0.013l0.035,-0.012l0.036,-0.012l0.036,-0.01l0.036,-0.01l0.037,-0.009l0.038,-0.008l0.037,-0.008l0.038,-0.006l0.039,-0.005l0.039,-0.005l0.039,-0.003l0.035,-0.002l0.004,0.059Zm0.004,0.507l-0.029,-0.001l-0.025,-0.001l-0.025,0l-0.025,0l-0.025,0.001l-0.024,0.001l-0.025,0.002l-0.024,0.003l-0.024,0.004l-0.024,0.004l-0.024,0.004l-0.024,0.005l-0.024,0.006l-0.023,0.006l-0.023,0.007l-0.024,0.008l-0.023,0.008l-0.022,0.008l-0.023,0.009l-0.022,0.01l-0.022,0.01l-0.022,0.011l-0.022,0.012l-0.021,0.011l-0.021,0.013l-0.013,0.008l-0.008,0.005l-0.02,0.014l-0.02,0.014l-0.02,0.015l-0.019,0.015l-0.019,0.016l-0.018,0.016l-0.019,0.016l-0.017,0.017l-0.018,0.018l-0.017,0.018l-0.017,0.018l-0.016,0.019l-0.016,0.019l-0.015,0.02l-0.015,0.02l-0.014,0.02l-0.014,0.021l-0.014,0.022l-0.013,0.021l-0.012,0.022l-0.012,0.022l-0.008,0.015l-0.004,0.008l-0.01,0.023l-0.01,0.024l-0.01,0.024l-0.008,0.024l-0.009,0.025l-0.007,0.024l-0.007,0.025l-0.007,0.026l-0.006,0.025l-0.002,0.013l-0.003,0.013l-0.004,0.026l-0.003,0.027l-0.003,0.027l-0.002,0.027l-0.001,0.027l0,0.027l0,0.027l0,0.008l0.001,0.019l0.003,0.027l0.004,0.027l0.004,0.026l0.004,0.026l0.006,0.026l0.006,0.026l0.006,0.025l0.004,0.014l0.004,0.011l0.009,0.024l0.009,0.024l0.01,0.024l0.01,0.023l0.011,0.023l0.011,0.023l0.012,0.022l0.012,0.022l0.008,0.012l0.005,0.009l0.014,0.021l0.015,0.02l0.014,0.02l0.016,0.02l0.015,0.019l0.016,0.018l0.017,0.019l0.017,0.017l0.017,0.018l0.017,0.016l0.018,0.017l0.018,0.016l0.019,0.015l0.019,0.015l0.019,0.014l0.02,0.014l0.019,0.014l0.02,0.012l0.021,0.013l0.002,0.001l0.018,0.011l0.021,0.011l0.021,0.011l0.021,0.011l0.021,0.01l0.022,0.009l0.021,0.009l0.022,0.008l0.022,0.008l0.023,0.007l0.022,0.007l0.023,0.006l0.022,0.006l0.023,0.005l0.023,0.004l0.023,0.004l0.023,0.003l0.024,0.003l0.023,0.002l0.024,0.001l0.015,0.001l0.008,0l0.024,0.002l0.023,0l0.024,0l0.024,0l0.024,-0.001l0.024,-0.002l0.024,-0.003l0.023,-0.003l0.023,-0.003l0.021,-0.004l0.002,0l0.023,-0.004l0.022,-0.004l0.023,-0.005l0.022,-0.005l0.022,-0.006l0.021,-0.006l0.022,-0.007l0.021,-0.007l0.021,-0.008l0.02,-0.009l0.015,-0.006l0.006,-0.002l0.02,-0.009l0.021,-0.009l0.02,-0.009l0.019,-0.01l0.02,-0.01l0.019,-0.011l0.019,-0.011l0.019,-0.012l0.018,-0.012l0.018,-0.013l0.018,-0.013l0.018,-0.014l0.014,-0.011l0.003,-0.003l0.017,-0.013l0.017,-0.015l0.016,-0.015l0.017,-0.015l0.015,-0.015l0.016,-0.016l0.015,-0.017l0.015,-0.017l0.014,-0.017l0.014,-0.017l0.013,-0.018l0.014,-0.018l0.012,-0.019l0.013,-0.019l0.007,-0.011l0.005,-0.008l0.011,-0.019l0.012,-0.02l0.011,-0.02l0.01,-0.02l0.01,-0.021l0.009,-0.021l0.009,-0.021l0.009,-0.021l0.008,-0.022l0.007,-0.022l0.007,-0.023l0.007,-0.022l0.006,-0.023l0.005,-0.024l0.005,-0.023l0.004,-0.024l0.004,-0.024l0.003,-0.024l0.002,-0.025l0.002,-0.025l0.001,-0.025l0.001,-0.025l0,-0.025l-0.001,-0.024l-0.001,-0.025l-0.002,-0.024l-0.003,-0.024l-0.003,-0.024l-0.004,-0.024l-0.004,-0.024l-0.001,-0.005l-0.004,-0.019l-0.005,-0.023l-0.005,-0.024l-0.007,-0.023l-0.007,-0.023l-0.007,-0.023l-0.008,-0.023l-0.009,-0.022l-0.009,-0.023l-0.009,-0.022l-0.011,-0.022l-0.01,-0.021l-0.012,-0.022l-0.011,-0.021l-0.013,-0.02l-0.013,-0.021l-0.013,-0.02l-0.014,-0.02l-0.014,-0.02l-0.015,-0.019l-0.015,-0.019l-0.016,-0.019l-0.016,-0.018l-0.017,-0.018l-0.017,-0.018l-0.018,-0.017l-0.018,-0.017l-0.018,-0.016l-0.019,-0.016l-0.02,-0.016l-0.01,-0.008l-0.009,-0.007l-0.02,-0.015l-0.021,-0.014l-0.021,-0.014l-0.021,-0.014l-0.022,-0.013l-0.022,-0.012l-0.022,-0.012l-0.023,-0.012l-0.024,-0.01l-0.023,-0.011l-0.024,-0.01l-0.024,-0.009l-0.025,-0.009l-0.025,-0.008l-0.025,-0.007l-0.026,-0.007l-0.026,-0.007l-0.026,-0.005l-0.027,-0.006l-0.026,-0.004l-0.028,-0.004l-0.027,-0.003l-0.005,0l-0.021,-0.002l0.002,0.11Z" style="fill:#5db80c;"/><path d="M72.814,43.929l8.879,16.142l-17.757,0l8.878,-16.142Z" style="fill:#600653;fill-opacity:0.5;"/><path d="M72.953,43.379l0.088,0.03l0.082,0.044l0.073,0.057l0.064,0.068l0.051,0.077l-0.194,0.107l0.1,0.175l2.565,4.477l3.358,5.884l3.101,5.472l0.046,0.098l0.028,0.105l0.011,0.108l-0.009,0.105l0,0.004l-0.028,0.106l-0.047,0.1l-0.062,0.091l-0.078,0.079l-0.09,0.064l-0.101,0.048l-0.107,0.031l-0.111,0.011l-1.84,0.015l-3.126,0.012l-2.635,-0.01l-2.581,-0.03l-4.96,-0.096l-2.615,-0.056l-0.083,-0.012l-0.078,-0.025l-0.072,-0.038l-0.064,-0.05l-0.054,-0.059l-0.043,-0.067l-0.03,-0.073l-0.017,-0.076l-0.003,-0.077l0.009,-0.075l0.002,-0.006l0.02,-0.067l0.033,-0.067l0.832,-1.452l0.948,-1.687l0.88,-1.608l1.063,-1.971l2.305,-4.322l2.734,-5.168l0.051,-0.077l0.063,-0.068l0.074,-0.057l0.082,-0.044l0.088,-0.03l0.092,-0.016l0.093,0l0.092,0.016Zm-2.542,5.899l-2.416,4.261l-1.095,1.953l-0.887,1.605l-0.917,1.703l-0.407,0.772l1.862,-0.04l4.96,-0.096l2.581,-0.03l2.635,-0.01l3.126,0.012l0.781,0.006l-2.45,-4.59l-3.171,-5.987l-2.088,-3.959l-2.514,4.4Z" style="fill:#600653;"/><path d="M53.286,84.314l6.714,0.029l0.114,0.01l0.11,0.03l0.104,0.049l0.093,0.066l0.081,0.081l0.065,0.094l0.048,0.103l0.029,0.11l0.009,0.114l-0.01,0.113l-0.03,0.11l-0.048,0.103l-0.066,0.093l-0.08,0.08l-0.093,0.065l-0.103,0.047l-0.11,0.029l-0.113,0.01l0,0.007l-6.714,0.029l-7.276,0.015l-3.461,-0.003l-2.547,-0.011l-0.002,0l0,-0.012l0,0l-0.117,-0.009l-0.114,-0.03l-0.108,-0.049l-0.097,-0.067l-0.084,-0.083l-0.069,-0.097l-0.051,-0.107l-0.031,-0.115l-0.011,-0.118l0.009,-0.119l0.03,-0.115l0.05,-0.108l0.068,-0.099l0.002,-0.002l0.082,-0.082l0.098,-0.069l0.108,-0.051l0.116,-0.032l0.119,-0.01l0.002,0l2.547,-0.011l3.461,-0.003l7.276,0.015Z"/><path d="M40.465,51.669c0,0.108 -0.036,0.203 -0.108,0.283c-0.072,0.081 -0.162,0.121 -0.27,0.121c-0.035,0 -0.088,-0.006 -0.158,-0.018c-0.071,-0.011 -0.125,-0.017 -0.163,-0.017l-0.439,0.009c-0.179,0.006 -0.325,0.006 -0.44,0l0,1.032c0,0.264 -0.13,0.396 -0.391,0.396c-0.129,0 -0.226,-0.033 -0.292,-0.099c-0.066,-0.066 -0.099,-0.165 -0.099,-0.297l-0.004,-0.505l-0.005,-0.51c-0.354,0.021 -0.605,0.031 -0.751,0.031c-0.454,0 -0.681,-0.135 -0.681,-0.404c0,-0.191 0.08,-0.309 0.241,-0.356c0.056,-0.015 0.202,-0.022 0.44,-0.022c0.146,0 0.397,-0.01 0.751,-0.031l-0.004,-0.514c0,-0.267 0.013,-0.451 0.039,-0.554c0.03,-0.105 0.075,-0.184 0.137,-0.237c0.061,-0.053 0.14,-0.079 0.237,-0.079c0.111,0 0.206,0.036 0.283,0.107c0.078,0.072 0.117,0.164 0.117,0.275c0,0.05 -0.005,0.129 -0.016,0.237c-0.01,0.109 -0.015,0.191 -0.015,0.246l0.004,0.501l0.33,0.014c0.059,0 0.148,-0.004 0.268,-0.011c0.12,-0.008 0.21,-0.011 0.268,-0.011c0.481,0 0.721,0.137 0.721,0.413Z" style="fill:#600653;fill-rule:nonzero;"/><path d="M64.836,51.669c0,0.108 -0.036,0.203 -0.107,0.283c-0.072,0.081 -0.162,0.121 -0.271,0.121c-0.035,0 -0.087,-0.006 -0.158,-0.018c-0.07,-0.011 -0.124,-0.017 -0.162,-0.017l-0.44,0.009c-0.179,0.006 -0.325,0.006 -0.439,0l0,1.032c0,0.264 -0.131,0.396 -0.391,0.396c-0.129,0 -0.227,-0.033 -0.293,-0.099c-0.066,-0.066 -0.098,-0.165 -0.098,-0.297l-0.005,-0.505l-0.004,-0.51c-0.355,0.021 -0.605,0.031 -0.752,0.031c-0.454,0 -0.681,-0.135 -0.681,-0.404c0,-0.191 0.081,-0.309 0.242,-0.356c0.055,-0.015 0.202,-0.022 0.439,-0.022c0.147,0 0.397,-0.01 0.752,-0.031l-0.005,-0.514c0,-0.267 0.014,-0.451 0.04,-0.554c0.029,-0.105 0.075,-0.184 0.136,-0.237c0.062,-0.053 0.141,-0.079 0.237,-0.079c0.112,0 0.206,0.036 0.284,0.107c0.077,0.072 0.116,0.164 0.116,0.275c0,0.05 -0.005,0.129 -0.015,0.237c-0.01,0.109 -0.015,0.191 -0.015,0.246l0.004,0.501l0.33,0.014c0.058,0 0.147,-0.004 0.268,-0.011c0.12,-0.008 0.209,-0.011 0.268,-0.011c0.48,0 0.72,0.137 0.72,0.413Z" style="fill:#600653;fill-rule:nonzero;"/></svg>