<?xml version="1.0" encoding="UTF-8" standalone="no"?><!DOCTYPE svg PUBLIC "-//W3C//DTD SVG 1.1//EN" "http://www.w3.org/Graphics/SVG/1.1/DTD/svg11.dtd"><svg width="100%" height="100%" viewBox="0 0 100 100" version="1.1" xmlns="http://www.w3.org/2000/svg" xmlns:xlink="http://www.w3.org/1999/xlink" xml:space="preserve" xmlns:serif="http://www.serif.com/" style="fill-rule:evenodd;clip-rule:evenodd;stroke-linejoin:round;stroke-miterlimit:2;"><rect id="_7" serif:id="7" x="0" y="0" width="100" height="100" style="fill:none;"/><g><path d="M89.523,27.5l-79.523,0.188l0.008,49.575l79.992,0.237l-0.477,-50Z" style="fill:#fff;"/><path d="M88.567,27.851l-23.765,0.138l-31.76,0.176l0.043,0.059l-22.494,0.054l0.003,0.003l0.032,12.172l0.039,17.019l0.028,16.262l0.002,-0.001l0.001,2.844l0,-0.001l14.734,0.034l20.42,0.058l-0.002,0.015l42.946,0.127l0,0l0.514,0.002l0,0.001l-0.431,-48.964l-0.31,0.002Zm1.067,-0.991l0.109,0.029l0.102,0.047l0.093,0.064l0.08,0.079l0.066,0.092l0.048,0.102l0.03,0.109l0.011,0.112l0.512,49.999l-0.007,0.109l-0.025,0.105l-0.04,0.101l-0.056,0.093l-0.07,0.082l-0.083,0.071l0,0l-0.092,0.057l-0.065,0.027l-0.035,0.015l-0.106,0.025l-0.108,0.008l-44.327,-0.117l-21.309,-0.065l-14.356,-0.053l-0.119,-0.011l-0.116,-0.031l-0.108,-0.051l-0.098,-0.069l-0.084,-0.085l0,0l-0.068,-0.098l-0.051,-0.109l-0.03,-0.115l-0.011,-0.119l0.001,-2.048l0.023,-17.409l0.033,-18.174l0.028,-11.944l0.01,-0.102l0.027,-0.1l0.044,-0.093l0.06,-0.084l0.072,-0.073l0.001,0l0.084,-0.058l0.093,-0.043l0.099,-0.027l0.103,-0.008l21.948,0.005l32.407,0.024l24.195,0.025l0.974,0.001l0,0.345l-0.001,-0.649l0.112,0.009Z"/><path d="M89.523,27.5l-79.523,-0.019l0.008,-4.957l79.992,-0.024l-0.477,5Z" style="fill:#fff;"/><path d="M90,21.844l0.109,0.009l0.105,0.027l0.1,0.045l0.091,0.06l0.08,0.074l0.066,0.087l0.051,0.096l0.034,0.104l0.017,0.107l-0.002,0.109l-0.481,5l-0.019,0.104l-0.035,0.101l-0.052,0.093l-0.066,0.083l-0.079,0.072l-0.089,0.058l-0.097,0.042l-0.104,0.026l-0.106,0.008l0,-0.304l-0.636,0.004l-15.829,0.078l-21.201,0.095l-23.263,0.088l-11.569,0.033l-7.025,0.014l-0.106,-0.007l-0.104,-0.025l-0.098,-0.04l-0.091,-0.056l-0.081,-0.069l-0.07,-0.08l-0.056,-0.091l-0.041,-0.099l-0.025,-0.103l-0.009,-0.107l0.001,-3.154l0.001,-1.803l0.011,-0.12l0.031,-0.115l0.05,-0.109l0.069,-0.098l0.084,-0.085l0.098,-0.068l0.109,-0.051l0.116,-0.031l0.119,-0.011l9.024,-0.012l13.956,-0.007l29.342,0.006l27.67,0.022Zm-0.72,1.311l-27.549,0.009l-0.011,0.031l-28.067,0.023l-13.349,0.001l-9.608,-0.007l-0.001,-0.001l-0.003,1.402l-0.002,0l-0.008,2.188l-0.002,0.002l7.859,0.002l-0.017,0.018l11.303,0.039l22.749,0.098l20.777,0.106l15.547,0.085l0.006,0l0.377,-3.997l-0.001,0.001Z"/><rect x="52.5" y="32.5" width="30" height="17.5" style="fill:#fff;"/><path d="M82.602,31.921l0.099,0.027l0.093,0.043l0.084,0.059l0.072,0.072l0.059,0.084l0.043,0.093l0.027,0.099l0.009,0.102l-0.1,12.261l-0.032,5.239l-0.008,0.079l-0.022,0.076l-0.035,0.071l-0.046,0.064l-0.056,0.055l0,-0.001l-0.065,0.044l-0.071,0.032l-0.076,0.019l-0.077,0.005l-3.607,-0.022l-5.301,-0.02l-4.691,-0.005l-4.389,0.015l-4.493,0.032l-7.519,0.075l-0.091,-0.005l-0.088,-0.022l-0.084,-0.036l-0.077,-0.051l-0.066,-0.064l0,0l-0.055,-0.075l-0.042,-0.083l-0.009,-0.033l-0.017,-0.057l-0.01,-0.093l-0.083,-9.161l-0.026,-4.659l-0.005,-3.68l0.009,-0.114l0.029,-0.11l0.048,-0.103l0.039,-0.056l0.027,-0.038l0.081,-0.08l0,0l0.094,-0.064l0.103,-0.047l0.11,-0.029l0.113,-0.009l2.981,0.012l4.509,0.034l9.206,0.104l8.061,0.113l4.982,0.079l0.261,0.004l0,-0.284l0.102,0.009Zm-5.111,0.966l-7.651,0.113l-8.685,0.104l-4.246,0.034l0.013,0.015l-3.768,0.001l0,0l0.001,0.169l-0.002,-0.001l-0.005,3.751l-0.026,3.86l-0.085,-0.004l-0.001,8.013l-0.005,0.005l-0.001,0.523l-0.011,0.011l7.697,0.075l4.078,0.032l3.999,0.015l4.274,-0.005l4.817,-0.02l-0.019,-0.027l4.185,-0.001l-0.006,-0.006l-0.032,-5.769l-0.097,-10.961l-4.424,0.073Z"/><rect x="52.5" y="52.5" width="30" height="17.5" style="fill:#fff;"/><path d="M52.398,70.579l-0.099,-0.027l-0.093,-0.043l-0.084,-0.059l-0.072,-0.072l-0.059,-0.084l-0.043,-0.093l-0.027,-0.099l-0.009,-0.102l0.1,-12.261l0.032,-5.239l0.008,-0.079l0.022,-0.076l0.035,-0.071l0.046,-0.064l0.056,-0.055l0,0.001l0.065,-0.044l0.071,-0.032l0.076,-0.019l0.077,-0.005l3.607,0.022l5.301,0.02l4.691,0.005l4.389,-0.015l4.493,-0.032l7.519,-0.075l0.091,0.005l0.088,0.022l0.084,0.036l0.077,0.051l0.066,0.064l0,0l0.055,0.075l0.042,0.083l0.009,0.033l0.017,0.057l0.01,0.093l0.083,9.161l0.026,4.659l0.005,3.68l-0.009,0.114l-0.029,0.11l-0.048,0.103l-0.039,0.056l-0.027,0.038l-0.081,0.08l0,0l-0.094,0.064l-0.103,0.047l-0.11,0.029l-0.113,0.009l-2.981,-0.012l-4.509,-0.034l-9.206,-0.104l-8.061,-0.113l-4.982,-0.079l-0.261,-0.004l0,0.284l-0.102,-0.009Zm9.535,-17.677l-4.817,0.02l0.019,0.027l-4.185,0.001l0.006,0.006l0.032,5.769l0.097,10.961l4.424,-0.073l7.651,-0.113l8.685,-0.104l4.246,-0.034l-0.013,-0.015l3.768,-0.001l0,0l-0.001,-0.169l0.002,0.001l0.005,-3.751l0.026,-3.86l0.085,0.004l0.001,-8.013l0.005,-0.005l0.001,-0.523l0.011,-0.011l-7.697,-0.075l-4.078,-0.032l-3.999,-0.015l-4.274,0.005Z"/><rect x="15" y="32.5" width="27.5" height="2"/><path d="M42.551,32.211l0.049,0.013l0.047,0.022l0.042,0.029l0.036,0.036l0.029,0.042l0.022,0.047l0.013,0.049l0.005,0.051l-0.011,2l-0.005,0.049l-0.014,0.047l-0.021,0.044l-0.028,0.04l-0.035,0.034l0,0l-0.041,0.027l-0.044,0.02l-0.047,0.012l-0.048,0.004l-4.894,-0.033l-6.578,-0.033l-3.196,-0.01l-2.828,-0.003l-2.647,0.008l-2.709,0.016l-4.648,0.039l-0.045,-0.004l-0.045,-0.011l-0.041,-0.018l-0.039,-0.026l-0.033,-0.032l-0.026,-0.038l-0.001,0.001l-0.02,-0.042l-0.013,-0.045l-0.005,-0.046l0,-0.04l-0.01,-1.96l0.003,-0.048l0.012,-0.048l0.02,-0.044l0.027,-0.041l0.035,-0.035l0,0l0.04,-0.029l0.044,-0.022l0.048,-0.013l0.049,-0.005l3.213,-0.026l2.636,-0.013l2.565,-0.003l2.552,0.008l2.759,0.017l5.634,0.052l4.932,0.057l3.049,0.039l0.16,0.002l0,-0.142l0.051,0.005Zm-3.18,0.482l-4.794,0.057l-5.457,0.052l-2.671,0.017l-2.471,0.008l-2.492,-0.003l-2.57,-0.013l-0.025,-0.029l-3.61,-0.001l-0.003,-0.003l-0.01,1.201l-0.003,0.002l0,0.254l-0.004,0.004l4.855,0.039l2.564,0.016l2.513,0.008l2.689,-0.003l3.036,-0.01l6.227,-0.033l-0.022,-0.035l5.097,-0.001l-0.003,-0.003l-0.01,-1.561l-2.836,0.037Z"/><rect x="15" y="52" width="20" height="2"/><path d="M35.051,51.711l0.049,0.013l0.047,0.022l0.042,0.029l0.036,0.036l0.029,0.042l0.022,0.047l0.013,0.049l0.005,0.051l-0.015,2l-0.005,0.048l-0.014,0.047l-0.021,0.043l-0.028,0.039l-0.034,0.034l-0.001,-0.001l-0.039,0.027l-0.044,0.019l-0.046,0.012l-0.047,0.003l-3.042,-0.027l-4.972,-0.033l-2.416,-0.01l-2.137,-0.003l-2.001,0.008l-2.047,0.016l-3.385,0.037l-0.045,-0.003l-0.044,-0.01l-0.042,-0.019l-0.038,-0.025l-0.034,-0.032l-0.026,-0.038l-0.001,0.001l-0.02,-0.042l-0.013,-0.045l-0.002,-0.014l-0.004,-0.032l-0.014,-2l0.004,-0.049l0.011,-0.048l0.02,-0.046l0.028,-0.041l0.036,-0.036l-0.001,-0.001l0.04,-0.029l0.046,-0.023l0.048,-0.014l0.051,-0.005l1.766,-0.019l1.979,-0.013l1.926,-0.003l1.916,0.008l2.072,0.017l4.229,0.052l3.703,0.057l2.289,0.039l0.12,0.002l0,-0.142l0.051,0.005Zm-2.378,0.482l-3.561,0.057l-4.049,0.052l-1.98,0.017l-1.833,0.008l-1.851,-0.003l-1.911,-0.013l-0.021,-0.023l-2.18,-0.001l-0.018,-0.018l-0.001,1.274l-0.003,0.002l0,0.19l-0.006,0.006l3.59,0.037l1.899,0.016l1.863,0.008l1.994,-0.003l2.251,-0.01l4.61,-0.033l-0.02,-0.03l3.279,-0.001l-0.004,-0.004l-0.013,-1.564l-2.035,0.036Z"/><rect x="15" y="37.5" width="30" height="0.5"/><path d="M45.051,37.211l0.049,0.013l0.047,0.022l0.042,0.029l0.036,0.036l0.029,0.042l0.022,0.047l0.013,0.049l0.005,0.051l-0.003,0.5l-0.005,0.05l-0.013,0.049l0,0l-0.022,0.046l-0.029,0.041l-0.036,0.035l-0.042,0.029l-0.045,0.021l-0.049,0.012l-0.05,0.004l-6.681,-0.043l-6.781,-0.033l-3.294,-0.01l-2.916,-0.003l-2.728,0.008l-2.793,0.016l-4.807,0.039l-0.045,-0.004l-0.045,-0.011l-0.041,-0.019l-0.038,-0.026l-0.033,-0.032l-0.027,-0.037l-0.02,-0.042l-0.012,-0.044l-0.005,-0.046l0,-0.433l-0.002,0l0,-0.067l0.003,-0.047l0.012,-0.045l0,0l0.019,-0.043l0.027,-0.039l0.033,-0.033l0.038,-0.028l0.043,-0.02l0.046,-0.013l0.047,-0.005l4.927,-0.038l2.721,-0.013l2.649,-0.003l2.634,0.008l2.849,0.017l5.815,0.052l5.093,0.057l3.147,0.039l0.165,0.002l0,-0.142l0.051,0.005Zm-25.269,0.567l0.788,0.005l-0.011,-0.014l-1.862,0l1.085,0.009Zm17.02,-0.028l-2.581,0.024l3.554,-0.018l-0.013,-0.017l-0.96,0.011Zm4.961,-0.057l-1.422,0.017l4.369,0l-0.001,-0.001l-0.001,-0.053l-2.945,0.037Z"/><rect x="15" y="57" width="30" height="0.5"/><path d="M45.051,56.711l0.049,0.013l0.047,0.022l0.042,0.029l0.036,0.036l0.029,0.042l0.022,0.047l0.013,0.049l0.005,0.051l-0.003,0.5l-0.005,0.05l-0.013,0.049l0,0l-0.022,0.046l-0.029,0.041l-0.036,0.035l-0.042,0.029l-0.045,0.021l-0.049,0.012l-0.05,0.004l-6.681,-0.043l-6.781,-0.033l-3.294,-0.01l-2.916,-0.003l-2.728,0.008l-2.793,0.016l-4.807,0.039l-0.045,-0.004l-0.045,-0.011l-0.041,-0.019l-0.038,-0.026l-0.033,-0.032l-0.027,-0.037l-0.02,-0.042l-0.012,-0.044l-0.005,-0.046l0,-0.433l-0.002,0l0,-0.067l0.003,-0.047l0.012,-0.045l0,0l0.019,-0.043l0.027,-0.039l0.033,-0.033l0.038,-0.028l0.043,-0.02l0.046,-0.013l0.047,-0.005l4.927,-0.038l2.721,-0.013l2.649,-0.003l2.634,0.008l2.849,0.017l5.815,0.052l5.093,0.057l3.147,0.039l0.165,0.002l0,-0.142l0.051,0.005Zm-25.269,0.567l0.788,0.005l-0.011,-0.014l-1.862,0l1.085,0.009Zm17.02,-0.028l-2.581,0.024l3.554,-0.018l-0.013,-0.017l-0.96,0.011Zm4.961,-0.057l-1.422,0.017l4.369,0l-0.001,-0.001l-0.001,-0.053l-2.945,0.037Z"/><rect x="15" y="40.5" width="30" height="0.5"/><path d="M45.051,40.211l0.049,0.013l0.047,0.022l0.042,0.029l0.036,0.036l0.029,0.042l0.022,0.047l0.013,0.049l0.005,0.051l-0.003,0.5l-0.005,0.05l-0.013,0.049l0,0l-0.022,0.046l-0.029,0.041l-0.036,0.035l-0.042,0.029l-0.045,0.021l-0.049,0.012l-0.05,0.004l-6.681,-0.043l-6.781,-0.033l-3.294,-0.01l-2.916,-0.003l-2.728,0.008l-2.793,0.016l-4.807,0.039l-0.045,-0.004l-0.045,-0.011l-0.041,-0.019l-0.038,-0.026l-0.033,-0.032l-0.027,-0.037l-0.02,-0.042l-0.012,-0.044l-0.005,-0.046l0,-0.433l-0.002,0l0,-0.067l0.003,-0.047l0.012,-0.045l0,0l0.019,-0.043l0.027,-0.039l0.033,-0.033l0.038,-0.028l0.043,-0.02l0.046,-0.013l0.047,-0.005l4.927,-0.038l2.721,-0.013l2.649,-0.003l2.634,0.008l2.849,0.017l5.815,0.052l5.093,0.057l3.147,0.039l0.165,0.002l0,-0.142l0.051,0.005Zm-25.269,0.567l0.788,0.005l-0.011,-0.014l-1.862,0l1.085,0.009Zm17.02,-0.028l-2.581,0.024l3.554,-0.018l-0.013,-0.017l-0.96,0.011Zm4.961,-0.057l-1.422,0.017l4.369,0l-0.001,-0.001l-0.001,-0.053l-2.945,0.037Z"/><rect x="15" y="60" width="26" height="0.5"/><path d="M41.051,59.711l0.049,0.013l0.047,0.022l0.042,0.029l0.036,0.036l0.029,0.042l0.022,0.047l0.013,0.049l0.005,0.051l-0.003,0.5l-0.005,0.05l-0.014,0.049l0,0l-0.022,0.046l-0.029,0.041l-0.036,0.035l-0.041,0.028l-0.046,0.021l-0.048,0.012l-0.05,0.004l-5.702,-0.042l-5.922,-0.033l-2.877,-0.01l-2.546,-0.003l-2.382,0.008l-2.439,0.016l-4.132,0.038l-0.045,-0.003l-0.044,-0.011l-0.042,-0.019l-0.038,-0.026l-0.033,-0.032l-0.026,-0.037l-0.021,-0.042l-0.012,-0.044l-0.005,-0.046l0,-0.36l-0.002,0l-0.001,-0.14l0.004,-0.047l0.012,-0.045l-0.001,0l0.02,-0.043l0.026,-0.039l0.033,-0.034l0.039,-0.028l0.043,-0.02l0.046,-0.013l0.047,-0.005l4.16,-0.037l2.371,-0.013l2.307,-0.003l2.294,0.008l2.481,0.017l5.066,0.052l4.436,0.057l2.741,0.039l0.144,0.002l0,-0.142l0.051,0.005Zm-21.943,0.567l0.697,0.005l-0.01,-0.013l-1.567,0l0.88,0.008Zm14.778,-0.028l-2.256,0.024l3.122,-0.018l-0.013,-0.017l-0.853,0.011Zm4.304,-0.057l-1.273,0.017l3.793,0l-0.001,-0.001l-0.001,-0.053l-2.518,0.037Z"/><rect x="15" y="63" width="30" height="0.5"/><path d="M45.051,62.711l0.049,0.013l0.047,0.022l0.042,0.029l0.036,0.036l0.029,0.042l0.022,0.047l0.013,0.049l0.005,0.051l-0.003,0.5l-0.005,0.05l-0.013,0.049l0,0l-0.022,0.046l-0.029,0.041l-0.036,0.035l-0.042,0.029l-0.045,0.021l-0.049,0.012l-0.05,0.004l-6.681,-0.043l-6.781,-0.033l-3.294,-0.01l-2.916,-0.003l-2.728,0.008l-2.793,0.016l-4.807,0.039l-0.045,-0.004l-0.045,-0.011l-0.041,-0.019l-0.038,-0.026l-0.033,-0.032l-0.027,-0.037l-0.02,-0.042l-0.012,-0.044l-0.005,-0.046l0,-0.433l-0.002,0l0,-0.067l0.003,-0.047l0.012,-0.045l0,0l0.019,-0.043l0.027,-0.039l0.033,-0.033l0.038,-0.028l0.043,-0.02l0.046,-0.013l0.047,-0.005l4.927,-0.038l2.721,-0.013l2.649,-0.003l2.634,0.008l2.849,0.017l5.815,0.052l5.093,0.057l3.147,0.039l0.165,0.002l0,-0.142l0.051,0.005Zm-25.269,0.567l0.788,0.005l-0.011,-0.014l-1.862,0l1.085,0.009Zm17.02,-0.028l-2.581,0.024l3.554,-0.018l-0.013,-0.017l-0.96,0.011Zm4.961,-0.057l-1.422,0.017l4.369,0l-0.001,-0.001l-0.001,-0.053l-2.945,0.037Z"/><rect x="15" y="43.5" width="30" height="0.5"/><path d="M45.051,43.211l0.049,0.013l0.047,0.022l0.042,0.029l0.036,0.036l0.029,0.042l0.022,0.047l0.013,0.049l0.005,0.051l-0.003,0.5l-0.005,0.05l-0.013,0.049l0,0l-0.022,0.046l-0.029,0.041l-0.036,0.035l-0.042,0.029l-0.045,0.021l-0.049,0.012l-0.05,0.004l-6.681,-0.043l-6.781,-0.033l-3.294,-0.01l-2.916,-0.003l-2.728,0.008l-2.793,0.016l-4.807,0.039l-0.045,-0.004l-0.045,-0.011l-0.041,-0.019l-0.038,-0.026l-0.033,-0.032l-0.027,-0.037l-0.02,-0.042l-0.012,-0.044l-0.005,-0.046l0,-0.433l-0.002,0l0,-0.067l0.003,-0.047l0.012,-0.045l0,0l0.019,-0.043l0.027,-0.039l0.033,-0.033l0.038,-0.028l0.043,-0.02l0.046,-0.013l0.047,-0.005l4.927,-0.038l2.721,-0.013l2.649,-0.003l2.634,0.008l2.849,0.017l5.815,0.052l5.093,0.057l3.147,0.039l0.165,0.002l0,-0.142l0.051,0.005Zm-25.269,0.567l0.788,0.005l-0.011,-0.014l-1.862,0l1.085,0.009Zm17.02,-0.028l-2.581,0.024l3.554,-0.018l-0.013,-0.017l-0.96,0.011Zm4.961,-0.057l-1.422,0.017l4.369,0l-0.001,-0.001l-0.001,-0.053l-2.945,0.037Z"/><rect x="15" y="66" width="30" height="0.5"/><path d="M45.051,65.711l0.049,0.013l0.047,0.022l0.042,0.029l0.036,0.036l0.029,0.042l0.022,0.047l0.013,0.049l0.005,0.051l-0.003,0.5l-0.005,0.05l-0.013,0.049l0,0l-0.022,0.046l-0.029,0.041l-0.036,0.035l-0.042,0.029l-0.045,0.021l-0.049,0.012l-0.05,0.004l-6.681,-0.043l-6.781,-0.033l-3.294,-0.01l-2.916,-0.003l-2.728,0.008l-2.793,0.016l-4.807,0.039l-0.045,-0.004l-0.045,-0.011l-0.041,-0.019l-0.038,-0.026l-0.033,-0.032l-0.027,-0.037l-0.02,-0.042l-0.012,-0.044l-0.005,-0.046l0,-0.433l-0.002,0l0,-0.067l0.003,-0.047l0.012,-0.045l0,0l0.019,-0.043l0.027,-0.039l0.033,-0.033l0.038,-0.028l0.043,-0.02l0.046,-0.013l0.047,-0.005l4.927,-0.038l2.721,-0.013l2.649,-0.003l2.634,0.008l2.849,0.017l5.815,0.052l5.093,0.057l3.147,0.039l0.165,0.002l0,-0.142l0.051,0.005Zm-25.269,0.567l0.788,0.005l-0.011,-0.014l-1.862,0l1.085,0.009Zm17.02,-0.028l-2.581,0.024l3.554,-0.018l-0.013,-0.017l-0.96,0.011Zm4.961,-0.057l-1.422,0.017l4.369,0l-0.001,-0.001l-0.001,-0.053l-2.945,0.037Z"/><rect x="15" y="46.5" width="25" height="0.5"/><path d="M40.051,46.211l0.049,0.013l0.047,0.022l0.042,0.029l0.036,0.036l0.029,0.042l0.022,0.047l0.013,0.049l0.005,0.051l-0.003,0.5l-0.005,0.05l-0.014,0.049l0,0l-0.022,0.046l-0.029,0.04l-0.036,0.036l-0.041,0.028l-0.046,0.021l-0.048,0.012l-0.05,0.004l-5.458,-0.042l-5.706,-0.033l-2.773,-0.01l-2.453,-0.003l-2.296,0.008l-2.35,0.016l-3.964,0.038l-0.045,-0.003l-0.044,-0.011l-0.042,-0.019l-0.038,-0.026l-0.033,-0.032l-0.026,-0.037l-0.02,-0.042l-0.013,-0.044l-0.005,-0.046l0,-0.342l-0.002,0l-0.001,-0.158l0.004,-0.047l0.011,-0.045l0,0l0.02,-0.043l0.026,-0.039l0.033,-0.034l0.039,-0.028l0.043,-0.021l0.045,-0.013l0.048,-0.004l3.968,-0.037l2.283,-0.013l2.222,-0.003l2.209,0.008l2.39,0.017l4.878,0.052l4.272,0.057l2.64,0.039l0.138,0.002l0,-0.142l0.051,0.005Zm-21.112,0.567l0.675,0.005l-0.01,-0.013l-1.493,0l0.828,0.008Zm14.219,-0.028l-2.176,0.024l3.014,-0.018l-0.013,-0.017l-0.825,0.011Zm4.139,-0.057l-1.236,0.017l3.649,0l-0.001,-0.001l0,-0.052l-2.412,0.036Z"/><rect x="15" y="69" width="20" height="0.5"/><path d="M35.051,68.711l0.049,0.013l0.047,0.022l0.042,0.029l0.036,0.036l0.029,0.042l0.022,0.047l0.013,0.049l0.005,0.051l-0.004,0.5l-0.005,0.05l-0.014,0.049l0,0l-0.022,0.045l-0.029,0.041l-0.036,0.035l-0.041,0.028l-0.045,0.02l-0.049,0.012l-0.049,0.004l-4.234,-0.04l-4.632,-0.033l-2.251,-0.01l-1.992,-0.003l-1.864,0.008l-1.908,0.016l-3.119,0.037l-0.045,-0.003l-0.044,-0.011l-0.042,-0.019l-0.037,-0.025l-0.033,-0.032l-0.027,-0.037l-0.02,-0.042l-0.013,-0.044l-0.005,-0.046l0,-0.25l-0.002,0l-0.002,-0.25l0.004,-0.047l0.011,-0.046l0,0l0.019,-0.043l0.027,-0.039l0.033,-0.035l0.039,-0.028l0.043,-0.021l0.046,-0.013l0.048,-0.005l3.009,-0.034l1.845,-0.013l1.794,-0.003l1.785,0.008l1.931,0.017l3.941,0.052l3.45,0.057l2.133,0.039l0.112,0.002l0,-0.142l0.051,0.005Zm-16.954,0.567l0.561,0.005l-0.009,-0.012l-1.123,0l0.571,0.007Zm11.416,-0.028l-1.769,0.024l2.474,-0.018l-0.014,-0.018l-0.691,0.012Zm3.318,-0.057l-1.049,0.018l2.929,0l-0.001,-0.001l-0.001,-0.052l-1.878,0.035Z"/></g></svg>