<?xml version="1.0" encoding="UTF-8" standalone="no"?><!DOCTYPE svg PUBLIC "-//W3C//DTD SVG 1.1//EN" "http://www.w3.org/Graphics/SVG/1.1/DTD/svg11.dtd"><svg width="100%" height="100%" viewBox="0 0 100 100" version="1.1" xmlns="http://www.w3.org/2000/svg" xmlns:xlink="http://www.w3.org/1999/xlink" xml:space="preserve" xmlns:serif="http://www.serif.com/" style="fill-rule:evenodd;clip-rule:evenodd;stroke-linejoin:round;stroke-miterlimit:2;"><rect id="_8" serif:id="8" x="0" y="0" width="100" height="100" style="fill:none;"/><path d="M44.762,12.5l-39.762,0.188l0.004,49.575l39.996,0.237l-0.238,-50Z" style="fill:#fff;"/><path d="M44.104,12.852l-16.359,0.159l0.043,0.1l-21.857,0.104l0.001,0.001l-0.399,0.003l0.004,0.003l0.089,23.391l0.037,11.769l0.026,11.25l0.002,-0.002l0.001,1.949l0.001,-0.001l10.039,0.05l13.881,0.08l0.002,0.007l14.688,0.087l0.001,0.001l-0.064,-14.814l-0.126,-34.137l-0.01,0Zm0.767,-0.992l0.11,0.029l0.103,0.047l0.093,0.064l0.08,0.08l0.066,0.093l0.048,0.102l0.03,0.109l0.01,0.113l0.207,35.677l0.075,14.323l-0.008,0.109l-0.025,0.106l-0.042,0.102l-0.057,0.093l-0.071,0.084l-0.083,0.071l0,0l-0.094,0.057l-0.101,0.042l-0.107,0.025l-0.109,0.008l-14.979,-0.082l-15.116,-0.092l-9.901,-0.069l-0.119,-0.011l-0.115,-0.032l-0.108,-0.051l-0.098,-0.069l-0.084,-0.085l0,0l-0.068,-0.098l-0.05,-0.108l-0.03,-0.115l-0.011,-0.119l0.001,-1.092l0.025,-12.049l0.035,-12.578l0.085,-23.856l0.009,-0.092l0.025,-0.09l0.04,-0.084l0.054,-0.076l0.065,-0.065l0.001,0l0.076,-0.052l0.032,-0.015l0.052,-0.024l0.089,-0.023l0.091,-0.007l22.127,-0.007l16.954,0.002l0.682,0l0.002,0.345l-0.003,-0.649l0.112,0.009Z"/><path d="M94.762,42.5l-39.762,0.188l0.004,49.575l39.996,0.237l-0.238,-50Z" style="fill:#fff;"/><path d="M94.104,42.852l-16.359,0.159l0.043,0.1l-21.857,0.104l0.001,0.001l-0.399,0.003l0.004,0.003l0.089,23.391l0.037,11.769l0.026,11.25l0.002,-0.002l0.001,1.949l0.001,-0.001l10.039,0.05l13.881,0.08l0.002,0.007l14.688,0.087l0.001,0.001l-0.064,-14.814l-0.126,-34.137l-0.01,0Zm-39.371,-0.623l0.032,-0.015l0.052,-0.024l0.089,-0.023l0.091,-0.007l22.127,-0.007l16.954,0.002l0.682,0l0.002,0.345l-0.003,-0.649l0.112,0.009l0.11,0.029l0.103,0.047l0.093,0.064l0.08,0.08l0.066,0.093l0.048,0.102l0.03,0.109l0.01,0.113l0.207,35.677l0.075,14.323l-0.008,0.109l-0.025,0.106l-0.042,0.102l-0.057,0.093l-0.071,0.084l-0.083,0.071l0,0l-0.094,0.057l-0.101,0.042l-0.107,0.025l-0.109,0.008l-14.979,-0.082l-15.116,-0.092l-9.901,-0.069l-0.119,-0.011l-0.115,-0.032l-0.108,-0.051l-0.098,-0.069l-0.084,-0.085l0,0l-0.068,-0.098l-0.05,-0.108l-0.03,-0.115l-0.011,-0.119l0.001,-1.092l0.025,-12.049l0.035,-12.578l0.085,-23.856l0.009,-0.092l0.025,-0.09l0.04,-0.084l0.054,-0.076l0.065,-0.065l0.001,0l0.076,-0.052Z"/><path d="M44.762,12.5l-39.762,-0.019l0.004,-4.957l39.996,-0.024l-0.238,5Z" style="fill:#fff;"/><path d="M32.911,6.821l12.089,0.017l0.106,0.009l0.104,0.026l0.098,0.042l0.09,0.058l0.08,0.071l0.067,0.083l0.052,0.093l0.037,0.1l0.02,0.105l0.003,0.106l-0.247,5l-0.014,0.109l-0.033,0.105l-0.049,0.098l-0.066,0.088l-0.08,0.075l-0.091,0.062l-0.1,0.045l-0.106,0.027l-0.11,0.009l0.001,-0.649l0,0.345l-0.342,0.004l-8.483,0.077l-11.361,0.096l-12.467,0.087l-6.2,0.033l-0.909,0.003l-0.104,-0.007l-0.102,-0.024l-0.097,-0.039l-0.09,-0.054l-0.08,-0.068l-0.068,-0.079l-0.056,-0.089l-0.041,-0.097l-0.025,-0.102l-0.009,-0.105l-0.01,-4.474l0,-0.484l0.01,-0.119l0.031,-0.116l0.05,-0.108l0.068,-0.098l0.085,-0.085l0.098,-0.07l0.108,-0.051l0.116,-0.031l0.12,-0.011l4.419,-0.011l7.571,-0.007l15.917,0.005Zm11.397,1.339l-12.069,0.008l-0.01,0.026l-14.596,0.023l-6.941,0.002l-4.999,-0.006l-0.002,-0.002l-0.001,0.742l-0.002,-0.001l-0.015,2.857l-0.004,0.004l1.831,0.001l-0.007,0.008l5.918,0.039l11.924,0.099l10.913,0.105l7.88,0.083l0.182,-3.989l-0.002,0.001Z"/><path d="M94.762,42.5l-39.762,-0.019l0.004,-4.957l39.996,-0.024l-0.238,5Z" style="fill:#fff;"/><path d="M85.937,42.926l-11.361,0.096l-12.467,0.087l-6.2,0.033l-0.909,0.003l-0.104,-0.007l-0.102,-0.024l-0.097,-0.039l-0.09,-0.054l-0.08,-0.068l-0.068,-0.079l-0.056,-0.089l-0.041,-0.097l-0.025,-0.102l-0.009,-0.105l-0.01,-4.474l0,-0.484l0.01,-0.119l0.031,-0.116l0.05,-0.108l0.068,-0.098l0.085,-0.085l0.098,-0.07l0.108,-0.051l0.116,-0.031l0.12,-0.011l4.419,-0.011l7.571,-0.007l15.917,0.005l12.089,0.017l0.106,0.009l0.104,0.026l0.098,0.042l0.09,0.058l0.08,0.071l0.067,0.083l0.052,0.093l0.037,0.1l0.02,0.105l0.003,0.106l-0.247,5l-0.014,0.109l-0.033,0.105l-0.049,0.098l-0.066,0.088l-0.08,0.075l-0.091,0.062l-0.1,0.045l-0.106,0.027l-0.11,0.009l0.001,-0.304l-0.342,0.004l-8.483,0.077Zm8.371,-4.766l-12.069,0.008l-0.01,0.026l-14.596,0.023l-6.941,0.002l-4.999,-0.006l-0.002,-0.002l-0.001,0.742l-0.002,-0.001l-0.015,2.857l-0.004,0.004l1.831,0.001l-0.007,0.008l5.918,0.039l11.924,0.099l10.913,0.105l7.88,0.083l0.182,-3.989l-0.002,0.001Z"/><rect x="10" y="37.5" width="30" height="17.5" style="fill:#fff;"/><path d="M9.898,55.579l-0.099,-0.027l-0.093,-0.043l-0.084,-0.059l-0.072,-0.072l-0.059,-0.084l-0.043,-0.093l-0.027,-0.099l-0.009,-0.102l0.1,-12.261l0.032,-5.239l0.008,-0.079l0.022,-0.076l0.035,-0.071l0.046,-0.064l0.056,-0.055l0,0.001l0.065,-0.044l0.071,-0.032l0.076,-0.019l0.077,-0.005l3.607,0.022l5.301,0.02l4.691,0.005l4.389,-0.015l4.493,-0.032l7.519,-0.075l0.091,0.005l0.088,0.022l0.084,0.036l0.077,0.051l0.066,0.064l0,0l0.055,0.075l0.042,0.083l0.009,0.033l0.017,0.057l0.01,0.093l0.083,9.161l0.026,4.659l0.005,3.68l-0.009,0.114l-0.029,0.11l-0.048,0.103l-0.039,0.056l-0.027,0.038l-0.081,0.08l0,0l-0.094,0.064l-0.103,0.047l-0.11,0.029l-0.113,0.009l-2.981,-0.012l-4.509,-0.034l-9.206,-0.104l-8.061,-0.113l-4.982,-0.079l-0.261,-0.004l0,0.284l-0.102,-0.009Zm9.535,-17.677l-4.817,0.02l0.019,0.027l-4.185,0.001l0.006,0.006l0.032,5.769l0.097,10.961l4.424,-0.073l7.651,-0.113l8.685,-0.104l4.246,-0.034l-0.013,-0.015l3.768,-0.001l0,0l-0.001,-0.169l0.002,0.001l0.005,-3.751l0.026,-3.86l0.085,0.004l0.001,-8.013l0.005,-0.005l0.001,-0.523l0.011,-0.011l-7.697,-0.075l-4.078,-0.032l-3.999,-0.015l-4.274,0.005Z"/><rect x="10" y="17.5" width="27.5" height="2"/><path d="M37.551,17.211l0.049,0.013l0.047,0.022l0.042,0.029l0.036,0.036l0.029,0.042l0.022,0.047l0.013,0.049l0.005,0.051l-0.011,2l-0.005,0.049l-0.014,0.047l-0.021,0.044l-0.028,0.04l-0.035,0.034l0,0l-0.041,0.027l-0.044,0.02l-0.047,0.012l-0.048,0.004l-4.894,-0.033l-6.578,-0.033l-3.196,-0.01l-2.828,-0.003l-2.647,0.008l-2.709,0.016l-4.648,0.039l-0.045,-0.004l-0.045,-0.011l-0.041,-0.018l-0.039,-0.026l-0.033,-0.032l-0.026,-0.038l-0.001,0.001l-0.02,-0.042l-0.013,-0.045l-0.005,-0.046l0,-0.04l-0.01,-1.96l0.003,-0.048l0.012,-0.048l0.02,-0.044l0.027,-0.041l0.035,-0.035l0,0l0.04,-0.029l0.044,-0.022l0.048,-0.013l0.049,-0.005l3.213,-0.026l2.636,-0.013l2.565,-0.003l2.552,0.008l2.759,0.017l5.634,0.052l4.932,0.057l3.049,0.039l0.16,0.002l0,-0.142l0.051,0.005Zm-3.18,0.482l-4.794,0.057l-5.457,0.052l-2.671,0.017l-2.471,0.008l-2.492,-0.003l-2.57,-0.013l-0.025,-0.029l-3.61,-0.001l-0.003,-0.003l-0.01,1.201l-0.003,0.002l0,0.254l-0.004,0.004l4.855,0.039l2.564,0.016l2.513,0.008l2.689,-0.003l3.036,-0.01l6.227,-0.033l-0.022,-0.035l5.097,-0.001l-0.003,-0.003l-0.01,-1.561l-2.836,0.037Z"/><rect x="10" y="22.5" width="30" height="0.5"/><path d="M40.051,22.211l0.049,0.013l0.047,0.022l0.042,0.029l0.036,0.036l0.029,0.042l0.022,0.047l0.013,0.049l0.005,0.051l-0.003,0.5l-0.005,0.05l-0.013,0.049l0,0l-0.022,0.046l-0.029,0.041l-0.036,0.035l-0.042,0.029l-0.045,0.021l-0.049,0.012l-0.05,0.004l-6.681,-0.043l-6.781,-0.033l-3.294,-0.01l-2.916,-0.003l-2.728,0.008l-2.793,0.016l-4.807,0.039l-0.045,-0.004l-0.045,-0.011l-0.041,-0.019l-0.038,-0.026l-0.033,-0.032l-0.027,-0.037l-0.02,-0.042l-0.012,-0.044l-0.005,-0.046l0,-0.433l-0.002,0l0,-0.067l0.003,-0.047l0.012,-0.045l0,0l0.019,-0.043l0.027,-0.039l0.033,-0.033l0.038,-0.028l0.043,-0.02l0.046,-0.013l0.047,-0.005l4.927,-0.038l2.721,-0.013l2.649,-0.003l2.634,0.008l2.849,0.017l5.815,0.052l5.093,0.057l3.147,0.039l0.165,0.002l0,-0.142l0.051,0.005Zm-25.269,0.567l0.788,0.005l-0.011,-0.014l-1.862,0l1.085,0.009Zm17.02,-0.028l-2.581,0.024l3.554,-0.018l-0.013,-0.017l-0.96,0.011Zm4.961,-0.057l-1.422,0.017l4.369,0l-0.001,-0.001l-0.001,-0.053l-2.945,0.037Z"/><rect x="10" y="25.5" width="30" height="0.5"/><path d="M40.051,25.211l0.049,0.013l0.047,0.022l0.042,0.029l0.036,0.036l0.029,0.042l0.022,0.047l0.013,0.049l0.005,0.051l-0.003,0.5l-0.005,0.05l-0.013,0.049l0,0l-0.022,0.046l-0.029,0.041l-0.036,0.035l-0.042,0.029l-0.045,0.021l-0.049,0.012l-0.05,0.004l-6.681,-0.043l-6.781,-0.033l-3.294,-0.01l-2.916,-0.003l-2.728,0.008l-2.793,0.016l-4.807,0.039l-0.045,-0.004l-0.045,-0.011l-0.041,-0.019l-0.038,-0.026l-0.033,-0.032l-0.027,-0.037l-0.02,-0.042l-0.012,-0.044l-0.005,-0.046l0,-0.433l-0.002,0l0,-0.067l0.003,-0.047l0.012,-0.045l0,0l0.019,-0.043l0.027,-0.039l0.033,-0.033l0.038,-0.028l0.043,-0.02l0.046,-0.013l0.047,-0.005l4.927,-0.038l2.721,-0.013l2.649,-0.003l2.634,0.008l2.849,0.017l5.815,0.052l5.093,0.057l3.147,0.039l0.165,0.002l0,-0.142l0.051,0.005Zm-25.269,0.567l0.788,0.005l-0.011,-0.014l-1.862,0l1.085,0.009Zm17.02,-0.028l-2.581,0.024l3.554,-0.018l-0.013,-0.017l-0.96,0.011Zm4.961,-0.057l-1.422,0.017l4.369,0l-0.001,-0.001l-0.001,-0.053l-2.945,0.037Z"/><rect x="10" y="28.5" width="30" height="0.5"/><path d="M40.051,28.211l0.049,0.013l0.047,0.022l0.042,0.029l0.036,0.036l0.029,0.042l0.022,0.047l0.013,0.049l0.005,0.051l-0.003,0.5l-0.005,0.05l-0.013,0.049l0,0l-0.022,0.046l-0.029,0.041l-0.036,0.035l-0.042,0.029l-0.045,0.021l-0.049,0.012l-0.05,0.004l-6.681,-0.043l-6.781,-0.033l-3.294,-0.01l-2.916,-0.003l-2.728,0.008l-2.793,0.016l-4.807,0.039l-0.045,-0.004l-0.045,-0.011l-0.041,-0.019l-0.038,-0.026l-0.033,-0.032l-0.027,-0.037l-0.02,-0.042l-0.012,-0.044l-0.005,-0.046l0,-0.433l-0.002,0l0,-0.067l0.003,-0.047l0.012,-0.045l0,0l0.019,-0.043l0.027,-0.039l0.033,-0.033l0.038,-0.028l0.043,-0.02l0.046,-0.013l0.047,-0.005l4.927,-0.038l2.721,-0.013l2.649,-0.003l2.634,0.008l2.849,0.017l5.815,0.052l5.093,0.057l3.147,0.039l0.165,0.002l0,-0.142l0.051,0.005Zm-25.269,0.567l0.788,0.005l-0.011,-0.014l-1.862,0l1.085,0.009Zm17.02,-0.028l-2.581,0.024l3.554,-0.018l-0.013,-0.017l-0.96,0.011Zm4.961,-0.057l-1.422,0.017l4.369,0l-0.001,-0.001l-0.001,-0.053l-2.945,0.037Z"/><rect x="10" y="31.5" width="25" height="0.5"/><path d="M35.051,31.211l0.049,0.013l0.047,0.022l0.042,0.029l0.036,0.036l0.029,0.042l0.022,0.047l0.013,0.049l0.005,0.051l-0.003,0.5l-0.005,0.05l-0.014,0.049l0,0l-0.022,0.046l-0.029,0.04l-0.036,0.036l-0.041,0.028l-0.046,0.021l-0.048,0.012l-0.05,0.004l-5.458,-0.042l-5.706,-0.033l-2.773,-0.01l-2.453,-0.003l-2.296,0.008l-2.35,0.016l-3.964,0.038l-0.045,-0.003l-0.044,-0.011l-0.042,-0.019l-0.038,-0.026l-0.033,-0.032l-0.026,-0.037l-0.02,-0.042l-0.013,-0.044l-0.005,-0.046l0,-0.342l-0.002,0l-0.001,-0.158l0.004,-0.047l0.011,-0.045l0,0l0.02,-0.043l0.026,-0.039l0.033,-0.034l0.039,-0.028l0.043,-0.021l0.045,-0.013l0.048,-0.004l3.968,-0.037l2.283,-0.013l2.222,-0.003l2.209,0.008l2.39,0.017l4.878,0.052l4.272,0.057l2.64,0.039l0.138,0.002l0,-0.142l0.051,0.005Zm-21.112,0.567l0.675,0.005l-0.01,-0.013l-1.493,0l0.828,0.008Zm14.219,-0.028l-2.176,0.024l3.014,-0.018l-0.013,-0.017l-0.825,0.011Zm4.139,-0.057l-1.236,0.017l3.649,0l-0.001,-0.001l0,-0.052l-2.412,0.036Z"/><rect x="60" y="70" width="20" height="2"/><path d="M80.051,69.711l0.049,0.013l0.047,0.022l0.042,0.029l0.036,0.036l0.029,0.042l0.022,0.047l0.013,0.049l0.005,0.051l-0.015,2l-0.005,0.048l-0.014,0.047l-0.021,0.043l-0.028,0.039l-0.034,0.034l-0.001,-0.001l-0.039,0.027l-0.044,0.019l-0.046,0.012l-0.047,0.003l-3.042,-0.027l-4.972,-0.033l-2.416,-0.01l-2.137,-0.003l-2.001,0.008l-2.047,0.016l-3.385,0.037l-0.045,-0.003l-0.044,-0.01l-0.042,-0.019l-0.038,-0.025l-0.034,-0.032l-0.026,-0.038l-0.001,0.001l-0.02,-0.042l-0.013,-0.045l-0.002,-0.014l-0.004,-0.032l-0.014,-2l0.004,-0.049l0.011,-0.048l0.02,-0.046l0.028,-0.041l0.036,-0.036l-0.001,-0.001l0.04,-0.029l0.046,-0.023l0.048,-0.014l0.051,-0.005l1.766,-0.019l1.979,-0.013l1.926,-0.003l1.916,0.008l2.072,0.017l4.229,0.052l3.703,0.057l2.289,0.039l0.12,0.002l0,-0.142l0.051,0.005Zm-2.378,0.482l-3.561,0.057l-4.049,0.052l-1.98,0.017l-1.833,0.008l-1.851,-0.003l-1.911,-0.013l-0.021,-0.023l-2.18,-0.001l-0.018,-0.018l-0.001,1.274l-0.003,0.002l0,0.19l-0.006,0.006l3.59,0.037l1.899,0.016l1.863,0.008l1.994,-0.003l2.251,-0.01l4.61,-0.033l-0.02,-0.03l3.279,-0.001l-0.004,-0.004l-0.013,-1.564l-2.035,0.036Z"/><rect x="60" y="75" width="30" height="0.5"/><path d="M90.051,74.711l0.049,0.013l0.047,0.022l0.042,0.029l0.036,0.036l0.029,0.042l0.022,0.047l0.013,0.049l0.005,0.051l-0.003,0.5l-0.005,0.05l-0.013,0.049l0,0l-0.022,0.046l-0.029,0.041l-0.036,0.035l-0.042,0.029l-0.045,0.021l-0.049,0.012l-0.05,0.004l-6.681,-0.043l-6.781,-0.033l-3.294,-0.01l-2.916,-0.003l-2.728,0.008l-2.793,0.016l-4.807,0.039l-0.045,-0.004l-0.045,-0.011l-0.041,-0.019l-0.038,-0.026l-0.033,-0.032l-0.027,-0.037l-0.02,-0.042l-0.012,-0.044l-0.005,-0.046l0,-0.433l-0.002,0l0,-0.067l0.003,-0.047l0.012,-0.045l0,0l0.019,-0.043l0.027,-0.039l0.033,-0.033l0.038,-0.028l0.043,-0.02l0.046,-0.013l0.047,-0.005l4.927,-0.038l2.721,-0.013l2.649,-0.003l2.634,0.008l2.849,0.017l5.815,0.052l5.093,0.057l3.147,0.039l0.165,0.002l0,-0.142l0.051,0.005Zm-25.269,0.567l0.788,0.005l-0.011,-0.014l-1.862,0l1.085,0.009Zm17.02,-0.028l-2.581,0.024l3.554,-0.018l-0.013,-0.017l-0.96,0.011Zm4.961,-0.057l-1.422,0.017l4.369,0l-0.001,-0.001l-0.001,-0.053l-2.945,0.037Z"/><rect x="60" y="78" width="26" height="0.5"/><path d="M86.051,77.711l0.049,0.013l0.047,0.022l0.042,0.029l0.036,0.036l0.029,0.042l0.022,0.047l0.013,0.049l0.005,0.051l-0.003,0.5l-0.005,0.05l-0.014,0.049l0,0l-0.022,0.046l-0.029,0.041l-0.036,0.035l-0.041,0.028l-0.046,0.021l-0.048,0.012l-0.05,0.004l-5.702,-0.042l-5.922,-0.033l-2.877,-0.01l-2.546,-0.003l-2.382,0.008l-2.439,0.016l-4.132,0.038l-0.045,-0.003l-0.044,-0.011l-0.042,-0.019l-0.038,-0.026l-0.033,-0.032l-0.026,-0.037l-0.021,-0.042l-0.012,-0.044l-0.005,-0.046l0,-0.36l-0.002,0l-0.001,-0.14l0.004,-0.047l0.012,-0.045l-0.001,0l0.02,-0.043l0.026,-0.039l0.033,-0.034l0.039,-0.028l0.043,-0.02l0.046,-0.013l0.047,-0.005l4.16,-0.037l2.371,-0.013l2.307,-0.003l2.294,0.008l2.481,0.017l5.066,0.052l4.436,0.057l2.741,0.039l0.144,0.002l0,-0.142l0.051,0.005Zm-21.943,0.567l0.697,0.005l-0.01,-0.013l-1.567,0l0.88,0.008Zm14.778,-0.028l-2.256,0.024l3.122,-0.018l-0.013,-0.017l-0.853,0.011Zm4.304,-0.057l-1.273,0.017l3.793,0l-0.001,-0.001l-0.001,-0.053l-2.518,0.037Z"/><rect x="60" y="81" width="30" height="0.5"/><path d="M90.051,80.711l0.049,0.013l0.047,0.022l0.042,0.029l0.036,0.036l0.029,0.042l0.022,0.047l0.013,0.049l0.005,0.051l-0.003,0.5l-0.005,0.05l-0.013,0.049l0,0l-0.022,0.046l-0.029,0.041l-0.036,0.035l-0.042,0.029l-0.045,0.021l-0.049,0.012l-0.05,0.004l-6.681,-0.043l-6.781,-0.033l-3.294,-0.01l-2.916,-0.003l-2.728,0.008l-2.793,0.016l-4.807,0.039l-0.045,-0.004l-0.045,-0.011l-0.041,-0.019l-0.038,-0.026l-0.033,-0.032l-0.027,-0.037l-0.02,-0.042l-0.012,-0.044l-0.005,-0.046l0,-0.433l-0.002,0l0,-0.067l0.003,-0.047l0.012,-0.045l0,0l0.019,-0.043l0.027,-0.039l0.033,-0.033l0.038,-0.028l0.043,-0.02l0.046,-0.013l0.047,-0.005l4.927,-0.038l2.721,-0.013l2.649,-0.003l2.634,0.008l2.849,0.017l5.815,0.052l5.093,0.057l3.147,0.039l0.165,0.002l0,-0.142l0.051,0.005Zm-25.269,0.567l0.788,0.005l-0.011,-0.014l-1.862,0l1.085,0.009Zm17.02,-0.028l-2.581,0.024l3.554,-0.018l-0.013,-0.017l-0.96,0.011Zm4.961,-0.057l-1.422,0.017l4.369,0l-0.001,-0.001l-0.001,-0.053l-2.945,0.037Z"/><rect x="60" y="84" width="30" height="0.5"/><path d="M90.051,83.711l0.049,0.013l0.047,0.022l0.042,0.029l0.036,0.036l0.029,0.042l0.022,0.047l0.013,0.049l0.005,0.051l-0.003,0.5l-0.005,0.05l-0.013,0.049l0,0l-0.022,0.046l-0.029,0.041l-0.036,0.035l-0.042,0.029l-0.045,0.021l-0.049,0.012l-0.05,0.004l-6.681,-0.043l-6.781,-0.033l-3.294,-0.01l-2.916,-0.003l-2.728,0.008l-2.793,0.016l-4.807,0.039l-0.045,-0.004l-0.045,-0.011l-0.041,-0.019l-0.038,-0.026l-0.033,-0.032l-0.027,-0.037l-0.02,-0.042l-0.012,-0.044l-0.005,-0.046l0,-0.433l-0.002,0l0,-0.067l0.003,-0.047l0.012,-0.045l0,0l0.019,-0.043l0.027,-0.039l0.033,-0.033l0.038,-0.028l0.043,-0.02l0.046,-0.013l0.047,-0.005l4.927,-0.038l2.721,-0.013l2.649,-0.003l2.634,0.008l2.849,0.017l5.815,0.052l5.093,0.057l3.147,0.039l0.165,0.002l0,-0.142l0.051,0.005Zm-25.269,0.567l0.788,0.005l-0.011,-0.014l-1.862,0l1.085,0.009Zm17.02,-0.028l-2.581,0.024l3.554,-0.018l-0.013,-0.017l-0.96,0.011Zm4.961,-0.057l-1.422,0.017l4.369,0l-0.001,-0.001l-0.001,-0.053l-2.945,0.037Z"/><rect x="60" y="87" width="20" height="0.5"/><path d="M80.051,86.711l0.049,0.013l0.047,0.022l0.042,0.029l0.036,0.036l0.029,0.042l0.022,0.047l0.013,0.049l0.005,0.051l-0.004,0.5l-0.005,0.05l-0.014,0.049l0,0l-0.022,0.045l-0.029,0.041l-0.036,0.035l-0.041,0.028l-0.045,0.02l-0.049,0.012l-0.049,0.004l-4.234,-0.04l-4.632,-0.033l-2.251,-0.01l-1.992,-0.003l-1.864,0.008l-1.908,0.016l-3.119,0.037l-0.045,-0.003l-0.044,-0.011l-0.042,-0.019l-0.037,-0.025l-0.033,-0.032l-0.027,-0.037l-0.02,-0.042l-0.013,-0.044l-0.005,-0.046l0,-0.25l-0.002,0l-0.002,-0.25l0.004,-0.047l0.011,-0.046l0,0l0.019,-0.043l0.027,-0.039l0.033,-0.035l0.039,-0.028l0.043,-0.021l0.046,-0.013l0.048,-0.005l3.009,-0.034l1.845,-0.013l1.794,-0.003l1.785,0.008l1.931,0.017l3.941,0.052l3.45,0.057l2.133,0.039l0.112,0.002l0,-0.142l0.051,0.005Zm-16.954,0.567l0.561,0.005l-0.009,-0.012l-1.123,0l0.571,0.007Zm11.416,-0.028l-1.769,0.024l2.474,-0.018l-0.014,-0.018l-0.691,0.012Zm3.318,-0.057l-1.049,0.018l2.929,0l-0.001,-0.001l-0.001,-0.052l-1.878,0.035Z"/><rect x="60" y="47.5" width="30" height="17.5" style="fill:#fff;"/><path d="M90.102,46.921l0.099,0.027l0.093,0.043l0.084,0.059l0.072,0.072l0.059,0.084l0.043,0.093l0.027,0.099l0.009,0.102l-0.1,12.261l-0.032,5.239l-0.008,0.079l-0.022,0.076l-0.035,0.071l-0.046,0.064l-0.056,0.055l0,-0.001l-0.065,0.044l-0.071,0.032l-0.076,0.019l-0.077,0.005l-3.607,-0.022l-5.301,-0.02l-4.691,-0.005l-4.389,0.015l-4.493,0.032l-7.519,0.075l-0.091,-0.005l-0.088,-0.022l-0.084,-0.036l-0.077,-0.051l-0.066,-0.064l0,0l-0.055,-0.075l-0.042,-0.083l-0.009,-0.033l-0.017,-0.057l-0.01,-0.093l-0.083,-9.161l-0.026,-4.659l-0.005,-3.68l0.009,-0.114l0.029,-0.11l0.048,-0.103l0.039,-0.056l0.027,-0.038l0.081,-0.08l0,0l0.094,-0.064l0.103,-0.047l0.11,-0.029l0.113,-0.009l2.981,0.012l4.509,0.034l9.206,0.104l8.061,0.113l4.982,0.079l0.261,0.004l0,-0.284l0.102,0.009Zm-5.111,0.966l-7.651,0.113l-8.685,0.104l-4.246,0.034l0.013,0.015l-3.768,0.001l0,0l0.001,0.169l-0.002,-0.001l-0.005,3.751l-0.026,3.86l-0.085,-0.004l-0.001,8.013l-0.005,0.005l-0.001,0.523l-0.011,0.011l7.697,0.075l4.078,0.032l3.999,0.015l4.274,-0.005l4.817,-0.02l-0.019,-0.027l4.185,-0.001l-0.006,-0.006l-0.032,-5.769l-0.097,-10.961l-4.424,0.073Z"/><path d="M74.9,26.768l-0.555,3.763l-2.677,-2.702c1.073,0.543 2.689,0.013 3.232,-1.061Z"/><path d="M50.135,16.134l0.018,0.001l0.112,0.008l0.112,0.008l0.111,0.007l0.111,0.006l0.11,0.006l0.11,0.006l0.109,0.005l0.109,0.005l0.108,0.004l0.108,0.004l0.108,0.003l0.214,0.006l0.213,0.004l0.212,0.004l0.211,0.002l0.211,0.001l0.16,0l0.05,0.001l0.209,0l0.209,0.001l0.419,-0.001l0.42,0l0.21,0l0.212,0l0.212,0.001l0.214,0.002l0.214,0.002l0.216,0.004l0.218,0.005l0.219,0.006l0.221,0.008l0.027,0.001l0.085,0.004l0.112,0.005l0.112,0.006l0.113,0.007l0.113,0.007l0.114,0.007l0.114,0.008l0.116,0.009l0.115,0.009l0.117,0.009l0.117,0.011l0.118,0.011l0.118,0.011l0.119,0.013l0.12,0.012l0.121,0.014l0.121,0.014l0.122,0.015l0.123,0.016l0.124,0.017l0.125,0.017l0.125,0.019l0.126,0.019l0.128,0.019l0.128,0.021l0.129,0.022l0.13,0.022l0.13,0.024l0.111,0.02l0.021,0.005l0.133,0.026l0.133,0.028l0.135,0.028l0.135,0.029l0.137,0.031l0.138,0.032l0.138,0.032l0.14,0.034l0.141,0.035l0.142,0.036l0.143,0.037l0.039,0.011l0.105,0.029l0.145,0.04l0.146,0.043l0.147,0.043l0.149,0.044l0.15,0.046l0.151,0.047l0.152,0.049l0.153,0.05l0.079,0.026l0.076,0.026l0.155,0.055l0.156,0.057l0.158,0.057l0.159,0.06l0.16,0.06l0.162,0.063l0.108,0.042l0.055,0.022l0.163,0.068l0.165,0.07l0.166,0.071l0.168,0.073l0.168,0.074l0.171,0.076l0.029,0.014l0.142,0.066l0.172,0.083l0.173,0.084l0.175,0.085l0.176,0.088l0.178,0.089l0.18,0.091l0.181,0.092l0.182,0.095l0.184,0.096l0.187,0.098l0.069,0.038l0.026,0.014l0.044,0.024l0.069,0.04l0.069,0.04l0.069,0.04l0.068,0.042l0.067,0.042l0.067,0.043l0.067,0.044l0.066,0.044l0.065,0.045l0.066,0.045l0.064,0.047l0.064,0.047l0.064,0.047l0.062,0.048l0.083,0.065l0.082,0.065l0.081,0.064l0.08,0.064l0.079,0.065l0.079,0.064l0.078,0.064l0.077,0.064l0.077,0.064l0.076,0.065l0.076,0.063l0.075,0.063l0.075,0.063l0.074,0.063l0.074,0.063l0.073,0.063l0.072,0.063l0.071,0.063l0.071,0.063l0.071,0.063l0.021,0.02l0.049,0.043l0.07,0.061l0.07,0.062l0.069,0.062l0.068,0.062l0.068,0.061l0.067,0.062l0.066,0.062l0.066,0.061l0.065,0.062l0.042,0.04l0.024,0.021l0.065,0.06l0.065,0.061l0.064,0.06l0.064,0.06l0.063,0.06l0.063,0.061l0.062,0.06l0.062,0.06l0.061,0.06l0.056,0.057l0.004,0.004l0.061,0.059l0.06,0.06l0.06,0.059l0.059,0.06l0.058,0.06l0.059,0.059l0.057,0.06l0.057,0.06l0.056,0.06l0.056,0.059l0.056,0.06l0.055,0.06l0.054,0.06l0.011,0.012l0.044,0.047l0.054,0.06l0.106,0.119l0.105,0.119l0.102,0.119l0.101,0.119l0.099,0.12l0.097,0.119l0.095,0.12l0.094,0.119l0.091,0.12l0.09,0.12l0.088,0.12l0.087,0.12l0.084,0.12l0.083,0.12l0.078,0.115l0.004,0.005l0.081,0.12l0.079,0.12l0.077,0.12l0.077,0.12l0.074,0.12l0.073,0.121l0.072,0.12l0.07,0.12l0.069,0.121l0.067,0.12l0.066,0.121l0.065,0.12l0.064,0.121l0.062,0.121l0.061,0.12l0.06,0.121l0.058,0.121l0.057,0.121l0.057,0.12l0.055,0.121l0.053,0.119l-0.312,0.735l-0.738,-0.306l-0.043,-0.119l-0.044,-0.116l-0.045,-0.116l-0.046,-0.117l-0.047,-0.116l-0.048,-0.116l-0.049,-0.117l-0.05,-0.116l-0.052,-0.116l-0.052,-0.117l-0.054,-0.116l-0.056,-0.117l-0.056,-0.117l-0.058,-0.116l-0.059,-0.117l-0.061,-0.117l-0.062,-0.117l-0.063,-0.117l-0.065,-0.117l-0.066,-0.117l-0.068,-0.117l-0.003,-0.006l-0.068,-0.111l-0.071,-0.117l-0.074,-0.117l-0.075,-0.117l-0.077,-0.117l-0.078,-0.118l-0.081,-0.117l-0.082,-0.117l-0.083,-0.118l-0.086,-0.118l-0.087,-0.117l-0.089,-0.118l-0.092,-0.118l-0.093,-0.118l-0.095,-0.119l-0.048,-0.059l-0.039,-0.047l-0.01,-0.012l-0.05,-0.059l-0.05,-0.058l-0.051,-0.059l-0.051,-0.059l-0.052,-0.059l-0.052,-0.058l-0.053,-0.059l-0.054,-0.059l-0.054,-0.059l-0.054,-0.059l-0.055,-0.059l-0.056,-0.059l-0.056,-0.059l-0.004,-0.004l-0.053,-0.054l-0.058,-0.059l-0.059,-0.058l-0.059,-0.058l-0.059,-0.059l-0.06,-0.058l-0.061,-0.058l-0.062,-0.059l-0.061,-0.058l-0.063,-0.058l-0.022,-0.021l-0.042,-0.037l-0.065,-0.057l-0.065,-0.057l-0.067,-0.057l-0.066,-0.056l-0.068,-0.057l-0.067,-0.057l-0.069,-0.057l-0.069,-0.057l-0.07,-0.057l-0.048,-0.039l-0.022,-0.017l-0.072,-0.056l-0.073,-0.055l-0.073,-0.056l-0.074,-0.056l-0.074,-0.055l-0.075,-0.056l-0.076,-0.055l-0.076,-0.056l-0.077,-0.055l-0.078,-0.055l0,0l-0.079,-0.055l-0.079,-0.054l-0.081,-0.055l-0.08,-0.054l-0.082,-0.055l-0.082,-0.054l-0.083,-0.054l-0.083,-0.055l-0.084,-0.054l-0.084,-0.053l-0.059,-0.037l-0.059,-0.036l-0.059,-0.035l-0.06,-0.035l-0.06,-0.034l-0.06,-0.033l-0.06,-0.032l-0.061,-0.032l-0.061,-0.032l-0.062,-0.03l-0.061,-0.03l-0.062,-0.029l-0.063,-0.029l-0.062,-0.028l-0.04,-0.017l-0.023,-0.01l-0.064,-0.028l-0.188,-0.08l-0.188,-0.078l-0.185,-0.077l-0.184,-0.074l-0.181,-0.074l-0.18,-0.071l-0.178,-0.07l-0.177,-0.069l-0.174,-0.066l-0.173,-0.065l-0.143,-0.053l-0.028,-0.011l-0.169,-0.065l-0.166,-0.063l-0.165,-0.062l-0.164,-0.06l-0.162,-0.059l-0.16,-0.057l-0.054,-0.019l-0.104,-0.039l-0.157,-0.057l-0.154,-0.056l-0.154,-0.054l-0.152,-0.053l-0.15,-0.051l-0.15,-0.051l-0.072,-0.023l-0.075,-0.027l-0.146,-0.05l-0.144,-0.048l-0.143,-0.048l-0.142,-0.046l-0.141,-0.045l-0.139,-0.043l-0.139,-0.043l-0.137,-0.041l-0.098,-0.029l-0.037,-0.011l-0.135,-0.04l-0.133,-0.039l-0.133,-0.038l-0.131,-0.037l-0.13,-0.036l-0.129,-0.034l-0.129,-0.034l-0.127,-0.032l-0.126,-0.032l-0.125,-0.03l-0.125,-0.03l-0.02,-0.005l-0.103,-0.024l-0.123,-0.029l-0.121,-0.028l-0.121,-0.027l-0.12,-0.026l-0.12,-0.025l-0.118,-0.024l-0.118,-0.024l-0.117,-0.023l-0.116,-0.022l-0.116,-0.021l-0.115,-0.02l-0.114,-0.02l-0.114,-0.019l-0.113,-0.018l-0.113,-0.018l-0.112,-0.017l-0.112,-0.016l-0.111,-0.016l-0.11,-0.015l-0.11,-0.014l-0.11,-0.014l-0.109,-0.014l-0.109,-0.013l-0.108,-0.012l-0.108,-0.012l-0.108,-0.012l-0.107,-0.011l-0.081,-0.008l-0.026,-0.002l-0.213,-0.022l-0.212,-0.02l-0.211,-0.018l-0.21,-0.018l-0.21,-0.016l-0.209,-0.016l-0.209,-0.015l-0.209,-0.014l-0.209,-0.014l-0.418,-0.027l-0.419,-0.027l-0.21,-0.014l-0.212,-0.014l-0.05,-0.004l-0.162,-0.012l-0.213,-0.017l-0.214,-0.018l-0.216,-0.019l-0.216,-0.02l-0.218,-0.022l-0.111,-0.011l-0.11,-0.012l-0.11,-0.013l-0.111,-0.012l-0.112,-0.014l-0.112,-0.014l-0.112,-0.014l-0.114,-0.015l-0.113,-0.015l-0.114,-0.016l-0.115,-0.017l-0.017,-0.003l-0.097,-0.014l-0.304,-0.383l0.382,-0.304l0.096,0.008Z"/></svg>