<?xml version="1.0" encoding="UTF-8" standalone="no"?><!DOCTYPE svg PUBLIC "-//W3C//DTD SVG 1.1//EN" "http://www.w3.org/Graphics/SVG/1.1/DTD/svg11.dtd"><svg width="100%" height="100%" viewBox="0 0 100 100" version="1.1" xmlns="http://www.w3.org/2000/svg" xmlns:xlink="http://www.w3.org/1999/xlink" xml:space="preserve" xmlns:serif="http://www.serif.com/" style="fill-rule:evenodd;clip-rule:evenodd;stroke-linejoin:round;stroke-miterlimit:2;"><rect id="_9" serif:id="9" x="0" y="0" width="100" height="100" style="fill:none;"/><path d="M57.213,65.898c1.794,0 3.25,1.456 3.25,3.25c0,1.793 -1.456,3.25 -3.25,3.25l-6.217,0c0.003,0.068 0.004,0.136 0.004,0.204c0,0.306 -0.025,0.606 -0.074,0.898l25.396,0c1.794,0 3.25,1.456 3.25,3.25c0,1.794 -1.456,3.25 -3.25,3.25l-29.572,0c-1.351,0 -2.51,-0.826 -3.001,-2l-22.572,0c-2.979,0 -5.398,-2.419 -5.398,-5.398c0,-0.068 0.001,-0.136 0.004,-0.204l-7.217,0c-1.794,0 -3.25,-1.457 -3.25,-3.25c0,-1.794 1.456,-3.25 3.25,-3.25l48.647,0Z" style="fill:#c8a3b0;fill-opacity:0.3;"/><path d="M92.102,34.602c2.979,0 5.398,2.419 5.398,5.398c0,2.93 -2.339,5.318 -5.25,5.396c0.161,0.385 0.25,0.808 0.25,1.252c0,1.793 -1.456,3.25 -3.25,3.25l-48.647,0c-1.794,0 -3.25,-1.457 -3.25,-3.25c0,-1.794 1.456,-3.25 3.25,-3.25l2.954,0c-0.753,-0.928 -1.204,-2.111 -1.204,-3.398c0,-2.979 2.418,-5.398 5.397,-5.398l44.352,0Z" style="fill:#c8a3b0;fill-opacity:0.3;"/><path d="M53.321,14.352c1.794,0 3.25,1.457 3.25,3.25c0,1.794 -1.456,3.25 -3.25,3.25l-6.263,0c0.669,0.911 1.064,2.035 1.064,3.25c0,3.036 -2.465,5.5 -5.5,5.5l-33.622,0c-3.036,0 -5.5,-2.464 -5.5,-5.5c0,-3.035 2.464,-5.5 5.5,-5.5l17.062,0c-0.102,-0.315 -0.157,-0.651 -0.157,-1c0,-1.793 1.456,-3.25 3.25,-3.25l24.166,0Z" style="fill:#c8a3b0;fill-opacity:0.3;"/><rect x="45" y="75" width="10" height="10" style="fill:#f2f2f2;"/><path d="M55.102,74.421l0.099,0.027l0.093,0.043l0.084,0.059l0.072,0.072l0.059,0.084l0.043,0.093l0.027,0.099l0.009,0.102l-0.1,5.372l-0.064,4.628l-0.005,0.036l-0.004,0.037l-0.021,0.07l-0.033,0.066l-0.043,0.058l-0.052,0.05l0,0l-0.06,0.04l-0.066,0.028l-0.069,0.017l-0.071,0.004l-0.543,-0.004l-2.238,-0.005l-2.095,0.015l-2.143,0.032l-2.981,0.063l-0.089,-0.003l-0.088,-0.019l-0.084,-0.033l-0.077,-0.049l-0.068,-0.062l-0.001,0l-0.053,-0.068l-0.004,-0.005l-0.044,-0.083l-0.029,-0.09l-0.013,-0.095l-0.072,-3.632l-0.026,-2.124l-0.007,-2.067l0.017,-2.055l0.002,-0.122l0.013,-0.11l0.032,-0.105l0.05,-0.097l0.065,-0.087l0.078,-0.075l0.001,0.001l0.09,-0.058l0.098,-0.042l0.104,-0.024l0.063,-0.003l0.042,-0.001l4.037,0.101l3.613,0.113l2.233,0.079l0.117,0.004l0,-0.284l0.102,0.009Zm-2.156,0.966l-3.096,0.113l0.055,0.101l-3.523,0.003l0.012,0.013l-0.775,0.002l0.017,0.017l0.002,0.883l0.017,1.489l-0.007,1.484l-0.026,1.534l-0.086,0.02l0,3.209l-0.005,0.004l-0.001,0.211l-0.023,0.023l3.01,0.063l1.615,0.032l1.594,0.015l1.699,-0.005l-0.009,-0.012l1.17,0l-0.007,-0.007l-0.001,-0.781l-0.002,-0.002l-0.064,-4.151l-0.093,-4.317l-1.473,0.059Z"/><path d="M53.286,84.314l6.714,0.029l0.114,0.01l0.11,0.03l0.104,0.049l0.093,0.066l0.081,0.081l0.065,0.094l0.048,0.103l0.029,0.11l0.009,0.114l-0.01,0.113l-0.03,0.11l-0.048,0.103l-0.066,0.093l-0.08,0.08l-0.093,0.065l-0.103,0.047l-0.11,0.029l-0.113,0.01l0,0.007l-6.714,0.029l-7.276,0.015l-3.461,-0.003l-2.547,-0.011l-0.002,0l0,-1.362l0.129,0.001l-0.01,-0.003l-0.119,-0.01l0.002,0l2.547,-0.011l3.461,-0.003l7.276,0.015Z"/><path d="M89.523,25l-79.523,0.188l0.008,49.575l79.992,0.237l-0.477,-50Z" style="fill:#f2f2f2;"/><path d="M88.567,25.351l-23.765,0.138l-31.76,0.176l0.043,0.059l-22.494,0.054l0.003,0.003l0.032,12.172l0.039,17.019l0.028,16.262l0.002,-0.001l0.001,2.844l0,-0.001l14.734,0.034l20.42,0.058l-0.002,0.015l42.946,0.127l0,0l0.514,0.002l0,0.001l-0.431,-48.964l-0.31,0.002Zm1.067,-0.991l0.109,0.029l0.102,0.047l0.093,0.064l0.08,0.079l0.066,0.092l0.048,0.102l0.03,0.109l0.011,0.112l0.512,49.999l-0.007,0.109l-0.025,0.105l-0.04,0.101l-0.056,0.093l-0.07,0.082l-0.083,0.071l0,0l-0.092,0.057l-0.065,0.027l-0.035,0.015l-0.106,0.025l-0.108,0.008l-44.327,-0.117l-21.309,-0.065l-14.356,-0.053l-0.119,-0.011l-0.116,-0.031l-0.108,-0.051l-0.098,-0.069l-0.084,-0.085l0,0l-0.068,-0.098l-0.051,-0.109l-0.03,-0.115l-0.011,-0.119l0.001,-2.048l0.023,-17.409l0.033,-18.174l0.028,-11.944l0.01,-0.102l0.027,-0.1l0.044,-0.093l0.06,-0.084l0.072,-0.073l0.001,0l0.084,-0.058l0.093,-0.043l0.099,-0.027l0.103,-0.008l21.948,0.005l32.407,0.024l24.195,0.025l0.974,0.001l0,0.345l-0.001,-0.649l0.112,0.009Z"/><rect x="12.5" y="27.5" width="75" height="45" style="fill:url(#_Linear1);"/><path d="M86.863,27.654l-12.149,0.039l-19.631,0.057l-22.393,0.052l-10.966,0.017l0.006,0.007l-8.904,0l0.001,0.001l0,1.232l-0.003,10.099l-0.013,10.38l-0.043,21.305l-0.003,0.002l0,1.39l-0.001,0.001l20.073,0.042l10.564,0.016l10.329,0.008l11.037,-0.003l12.467,-0.01l-0.009,-0.013l10.051,0l-0.001,-0.001l-0.019,-15.633l-0.05,-28.989l-0.343,0.001Zm0.688,-0.443l0.049,0.013l0.047,0.022l0.042,0.029l0.036,0.036l0.029,0.042l0.022,0.047l0.013,0.049l0.005,0.051l-0.05,29.626l-0.019,15.374l-0.004,0.039l-0.01,0.038l-0.017,0.035l-0.022,0.032l-0.028,0.028l0,0l-0.032,0.022l-0.036,0.016l-0.037,0.01l-0.039,0.003l-9.747,-0.012l-12.709,-0.01l-11.245,-0.003l-10.525,0.008l-10.772,0.016l-20.002,0.042l-0.046,-0.004l-0.044,-0.012l-0.042,-0.019l-0.038,-0.026l-0.033,-0.033l0,0l-0.027,-0.037l-0.019,-0.042l-0.013,-0.045l-0.004,-0.046l-0.002,-0.938l-0.043,-22.044l-0.013,-10.768l-0.003,-10.478l0,-0.772l0.005,-0.057l0.015,-0.055l0.024,-0.051l0.033,-0.047l0.04,-0.04l0,0l0.047,-0.032l0.051,-0.024l0.055,-0.015l0.057,-0.005l8.502,0.007l11.099,0.017l22.657,0.052l19.838,0.057l12.261,0.039l0.643,0.002l0,-0.142l0.051,0.005Z"/><path d="M84.583,39.375l-69.583,0.113l0.007,29.745l69.993,0.142l-0.417,-30Z" style="fill:#fff;"/><path d="M83.848,39.725l-18.269,0.111l-24.406,0.141l0.056,0.088l-25.609,0.042l0.003,0.003l0.001,1.129l0.04,12.874l0.028,12.278l0.002,-0.002l0.001,2.157l0.001,-0.001l11.297,0.014l15.668,0.029l32.952,0.082l0.006,0.008l8.694,0.018l0.001,0.001l-0.376,-28.973l-0.09,0.001Zm0.846,-0.99l0.108,0.029l0.103,0.047l0.092,0.064l0.08,0.078l0.065,0.092l0.049,0.101l0.03,0.108l0.011,0.112l0.445,30l-0.007,0.107l-0.024,0.104l-0.04,0.1l-0.055,0.092l-0.069,0.082l0,0l-0.081,0.071l-0.091,0.056l-0.1,0.042l-0.104,0.025l-0.107,0.009l-8.108,-0.009l-34.592,-0.056l-16.453,-0.036l-10.84,-0.032l-0.12,-0.011l-0.115,-0.031l-0.109,-0.051l-0.097,-0.069l-0.085,-0.085l0,0l-0.068,-0.098l-0.051,-0.109l-0.03,-0.115l-0.011,-0.119l0.001,-1.418l0.022,-13.748l0.033,-14.353l0.001,-0.226l0.01,-0.108l0.029,-0.104l0.046,-0.098l0.062,-0.088l0.077,-0.077l0,0.001l0.089,-0.062l0.098,-0.045l0.104,-0.027l0.107,-0.009l25.211,0.045l24.975,0.06l18.647,0.052l0.75,0.002l0.001,0.345l-0.001,-0.649l0.112,0.009Z"/><rect x="12.5" y="27.5" width="75" height="5" style="fill:#fff;"/><path d="M87.075,27.654l-8.099,0.039l-13.087,0.057l-14.929,0.052l-7.311,0.017l-6.76,0.008l-6.806,-0.003l-7.002,-0.013l-0.027,-0.031l-10.274,0l-0.001,-0.001l-0.011,3.616l-0.003,0.002l0,0.838l-0.002,0.002l13.369,0.041l7.037,0.016l6.884,0.008l7.359,-0.003l8.315,-0.01l17.09,-0.033l-0.023,-0.037l14.425,0l-0.001,-0.001l-0.011,-4.564l-0.132,0Zm0.476,-0.443l0.049,0.013l0.047,0.022l0.042,0.029l0.036,0.036l0.029,0.042l0.022,0.047l0.013,0.049l0.005,0.051l-0.012,5l-0.004,0.049l-0.013,0.047l-0.021,0.045l-0.029,0.04l-0.034,0.034l0,0l-0.041,0.028l-0.044,0.02l-0.047,0.013l-0.049,0.004l-14.228,-0.036l-17.438,-0.033l-8.472,-0.01l-7.497,-0.003l-7.017,0.008l-7.181,0.016l-13.167,0.041l-0.046,-0.003l-0.044,-0.012l-0.042,-0.019l-0.038,-0.026l-0.033,-0.033l0,0l-0.027,-0.037l-0.02,-0.042l-0.012,-0.045l-0.004,-0.046l-0.002,-0.634l-0.011,-4.366l0.004,-0.048l0.012,-0.048l0.021,-0.044l0.027,-0.04l0.035,-0.035l0,0l0.04,-0.028l0.044,-0.021l0.047,-0.013l0.049,-0.005l9.881,-0.029l7.069,-0.013l6.878,-0.003l6.84,0.008l7.4,0.017l15.104,0.052l13.225,0.057l8.175,0.039l0.428,0.002l0,-0.142l0.051,0.005Z"/><path d="M15.25,28.526l0.002,0.051l0.029,-0.001l0.006,0l0.036,-0.001l0.037,0l0.036,0.001l0.036,0.003l0.036,0.003l0.036,0.003l0.036,0.005l0.035,0.006l0.035,0.006l0.035,0.008l0.035,0.008l0.035,0.009l0.034,0.01l0.034,0.011l0.033,0.012l0.033,0.012l0.033,0.013l0.033,0.014l0.032,0.015l0.032,0.016l0.031,0.016l0.031,0.017l0.014,0.008l0.017,0.01l0.03,0.019l0.03,0.019l0.029,0.02l0.029,0.021l0.028,0.022l0.028,0.022l0.027,0.023l0.026,0.024l0.027,0.024l0.025,0.025l0.025,0.025l0.025,0.026l0.023,0.027l0.024,0.028l0.022,0.028l0.022,0.028l0.021,0.029l0.021,0.03l0.02,0.031l0.019,0.03l0.019,0.032l0.018,0.032l0.017,0.032l0.016,0.033l0.016,0.034l0.015,0.034l0.014,0.034l0.013,0.035l0.013,0.036l0.009,0.028l0.002,0.008l0.011,0.036l0.009,0.037l0.009,0.037l0.007,0.038l0.007,0.037l0.006,0.039l0.005,0.038l0.004,0.039l0.003,0.039l0.002,0.04l0.001,0.04l0,0.039l-0.001,0.039l-0.002,0.039l-0.003,0.039l-0.004,0.039l-0.005,0.039l-0.006,0.038l-0.007,0.038l-0.007,0.038l-0.009,0.037l-0.009,0.037l-0.011,0.037l-0.011,0.037l-0.013,0.036l-0.013,0.036l-0.014,0.035l-0.014,0.035l-0.016,0.035l-0.016,0.034l-0.007,0.013l-0.011,0.021l-0.018,0.033l-0.02,0.032l-0.02,0.032l-0.02,0.032l-0.022,0.031l-0.022,0.031l-0.023,0.03l-0.024,0.029l-0.024,0.029l-0.025,0.028l-0.026,0.028l-0.026,0.027l-0.027,0.027l-0.028,0.026l-0.005,0.004l-0.024,0.02l-0.029,0.025l-0.03,0.023l-0.03,0.023l-0.031,0.022l-0.032,0.021l-0.032,0.021l-0.033,0.02l-0.033,0.019l-0.034,0.018l-0.034,0.018l-0.035,0.017l-0.035,0.016l-0.01,0.004l-0.026,0.01l-0.036,0.013l-0.037,0.013l-0.038,0.012l-0.037,0.01l-0.038,0.01l-0.039,0.009l-0.038,0.008l-0.039,0.007l-0.039,0.006l-0.04,0.005l-0.003,0l-0.037,0.003l-0.04,0.002l-0.04,0.001l-0.04,0l-0.041,-0.001l-0.04,-0.002l-0.041,-0.003l-0.039,-0.004l-0.04,-0.005l-0.039,-0.006l-0.013,-0.002l-0.026,-0.005l-0.038,-0.009l-0.038,-0.009l-0.038,-0.011l-0.037,-0.012l-0.036,-0.012l-0.036,-0.013l-0.036,-0.014l-0.035,-0.015l-0.034,-0.015l-0.034,-0.017l-0.034,-0.017l-0.033,-0.018l-0.032,-0.019l-0.032,-0.019l-0.031,-0.02l-0.031,-0.021l-0.03,-0.021l-0.029,-0.022l-0.029,-0.023l-0.025,-0.021l-0.003,-0.003l-0.028,-0.024l-0.026,-0.025l-0.026,-0.025l-0.026,-0.026l-0.024,-0.027l-0.024,-0.027l-0.024,-0.027l-0.022,-0.028l-0.022,-0.029l-0.022,-0.029l-0.02,-0.029l-0.02,-0.03l-0.019,-0.031l-0.018,-0.03l-0.018,-0.032l-0.016,-0.031l-0.016,-0.032l-0.015,-0.033l-0.015,-0.032l-0.005,-0.014l-0.009,-0.019l-0.013,-0.033l-0.012,-0.034l-0.012,-0.034l-0.011,-0.034l-0.01,-0.034l-0.009,-0.035l-0.009,-0.035l-0.007,-0.035l-0.003,-0.015l-0.004,-0.02l-0.007,-0.036l-0.006,-0.036l-0.005,-0.036l-0.004,-0.036l-0.003,-0.036l-0.002,-0.037l-0.001,-0.037l0,-0.027l-0.001,-0.01l-0.001,-0.037l0.001,-0.037l0.001,-0.037l0.002,-0.037l0.003,-0.036l0.004,-0.037l0.005,-0.036l0.002,-0.018l0.003,-0.018l0.006,-0.035l0.007,-0.036l0.007,-0.035l0.009,-0.035l0.009,-0.034l0.01,-0.034l0.011,-0.034l0.012,-0.034l0.012,-0.033l0.005,-0.011l0.008,-0.022l0.014,-0.033l0.014,-0.032l0.016,-0.032l0.016,-0.031l0.016,-0.031l0.018,-0.031l0.018,-0.03l0.019,-0.03l0.02,-0.029l0.02,-0.029l0.021,-0.029l0.022,-0.028l0.022,-0.027l0.023,-0.027l0.024,-0.026l0.024,-0.026l0.025,-0.025l0.026,-0.025l0.026,-0.024l0.027,-0.023l0.027,-0.023l0.01,-0.008l0.018,-0.014l0.029,-0.022l0.029,-0.022l0.029,-0.02l0.03,-0.02l0.031,-0.019l0.031,-0.019l0.032,-0.018l0.032,-0.017l0.033,-0.016l0.033,-0.016l0.034,-0.014l0.034,-0.015l0.035,-0.013l0.035,-0.012l0.036,-0.012l0.036,-0.01l0.036,-0.01l0.037,-0.009l0.038,-0.008l0.037,-0.008l0.038,-0.006l0.039,-0.005l0.039,-0.005l0.039,-0.003l0.035,-0.002l0.004,0.059Zm0.004,0.507l-0.029,-0.001l-0.025,-0.001l-0.025,0l-0.025,0l-0.025,0.001l-0.024,0.001l-0.025,0.002l-0.024,0.003l-0.024,0.004l-0.024,0.004l-0.024,0.004l-0.024,0.005l-0.024,0.006l-0.023,0.006l-0.023,0.007l-0.024,0.008l-0.023,0.008l-0.022,0.008l-0.023,0.009l-0.022,0.01l-0.022,0.01l-0.022,0.011l-0.022,0.012l-0.021,0.011l-0.021,0.013l-0.013,0.008l-0.008,0.005l-0.02,0.014l-0.02,0.014l-0.02,0.015l-0.019,0.015l-0.019,0.016l-0.018,0.016l-0.019,0.016l-0.017,0.017l-0.018,0.018l-0.017,0.018l-0.017,0.018l-0.016,0.019l-0.016,0.019l-0.015,0.02l-0.015,0.02l-0.014,0.02l-0.014,0.021l-0.014,0.022l-0.013,0.021l-0.012,0.022l-0.012,0.022l-0.008,0.015l-0.004,0.008l-0.01,0.023l-0.01,0.024l-0.01,0.024l-0.008,0.024l-0.009,0.025l-0.007,0.024l-0.007,0.025l-0.007,0.026l-0.006,0.025l-0.002,0.013l-0.003,0.013l-0.004,0.026l-0.003,0.027l-0.003,0.027l-0.002,0.027l-0.001,0.027l0,0.027l0,0.027l0,0.008l0.001,0.019l0.003,0.027l0.004,0.027l0.004,0.026l0.004,0.026l0.006,0.026l0.006,0.026l0.006,0.025l0.004,0.014l0.004,0.011l0.009,0.024l0.009,0.024l0.01,0.024l0.01,0.023l0.011,0.023l0.011,0.023l0.012,0.022l0.012,0.022l0.008,0.012l0.005,0.009l0.014,0.021l0.015,0.02l0.014,0.02l0.016,0.02l0.015,0.019l0.016,0.018l0.017,0.019l0.017,0.017l0.017,0.018l0.017,0.016l0.018,0.017l0.018,0.016l0.019,0.015l0.019,0.015l0.019,0.014l0.02,0.014l0.019,0.014l0.02,0.012l0.021,0.013l0.002,0.001l0.018,0.011l0.021,0.011l0.021,0.011l0.021,0.011l0.021,0.01l0.022,0.009l0.021,0.009l0.022,0.008l0.022,0.008l0.023,0.007l0.022,0.007l0.023,0.006l0.022,0.006l0.023,0.005l0.023,0.004l0.023,0.004l0.023,0.003l0.024,0.003l0.023,0.002l0.024,0.001l0.015,0.001l0.008,0l0.024,0.002l0.023,0l0.024,0l0.024,0l0.024,-0.001l0.024,-0.002l0.024,-0.003l0.023,-0.003l0.023,-0.003l0.021,-0.004l0.002,0l0.023,-0.004l0.022,-0.004l0.023,-0.005l0.022,-0.005l0.022,-0.006l0.021,-0.006l0.022,-0.007l0.021,-0.007l0.021,-0.008l0.02,-0.009l0.015,-0.006l0.006,-0.002l0.02,-0.009l0.021,-0.009l0.02,-0.009l0.019,-0.01l0.02,-0.01l0.019,-0.011l0.019,-0.011l0.019,-0.012l0.018,-0.012l0.018,-0.013l0.018,-0.013l0.018,-0.014l0.014,-0.011l0.003,-0.003l0.017,-0.013l0.017,-0.015l0.016,-0.015l0.017,-0.015l0.015,-0.015l0.016,-0.016l0.015,-0.017l0.015,-0.017l0.014,-0.017l0.014,-0.017l0.013,-0.018l0.014,-0.018l0.012,-0.019l0.013,-0.019l0.007,-0.011l0.005,-0.008l0.011,-0.019l0.012,-0.02l0.011,-0.02l0.01,-0.02l0.01,-0.021l0.009,-0.021l0.009,-0.021l0.009,-0.021l0.008,-0.022l0.007,-0.022l0.007,-0.023l0.007,-0.022l0.006,-0.023l0.005,-0.024l0.005,-0.023l0.004,-0.024l0.004,-0.024l0.003,-0.024l0.002,-0.025l0.002,-0.025l0.001,-0.025l0.001,-0.025l0,-0.025l-0.001,-0.024l-0.001,-0.025l-0.002,-0.024l-0.003,-0.024l-0.003,-0.024l-0.004,-0.024l-0.004,-0.024l-0.001,-0.005l-0.004,-0.019l-0.005,-0.023l-0.005,-0.024l-0.007,-0.023l-0.007,-0.023l-0.007,-0.023l-0.008,-0.023l-0.009,-0.022l-0.009,-0.023l-0.009,-0.022l-0.011,-0.022l-0.01,-0.021l-0.012,-0.022l-0.011,-0.021l-0.013,-0.02l-0.013,-0.021l-0.013,-0.02l-0.014,-0.02l-0.014,-0.02l-0.015,-0.019l-0.015,-0.019l-0.016,-0.019l-0.016,-0.018l-0.017,-0.018l-0.017,-0.018l-0.018,-0.017l-0.018,-0.017l-0.018,-0.016l-0.019,-0.016l-0.02,-0.016l-0.01,-0.008l-0.009,-0.007l-0.02,-0.015l-0.021,-0.014l-0.021,-0.014l-0.021,-0.014l-0.022,-0.013l-0.022,-0.012l-0.022,-0.012l-0.023,-0.012l-0.024,-0.01l-0.023,-0.011l-0.024,-0.01l-0.024,-0.009l-0.025,-0.009l-0.025,-0.008l-0.025,-0.007l-0.026,-0.007l-0.026,-0.007l-0.026,-0.005l-0.027,-0.006l-0.026,-0.004l-0.028,-0.004l-0.027,-0.003l-0.005,0l-0.021,-0.002l0.002,0.11Z" style="fill:#a80b20;"/><path d="M19.25,28.526l0.002,0.051l0.029,-0.001l0.006,0l0.036,-0.001l0.037,0l0.036,0.001l0.036,0.003l0.036,0.003l0.036,0.003l0.036,0.005l0.035,0.006l0.035,0.006l0.035,0.008l0.035,0.008l0.035,0.009l0.034,0.01l0.034,0.011l0.033,0.012l0.033,0.012l0.033,0.013l0.033,0.014l0.032,0.015l0.032,0.016l0.031,0.016l0.031,0.017l0.014,0.008l0.017,0.01l0.03,0.019l0.03,0.019l0.029,0.02l0.029,0.021l0.028,0.022l0.028,0.022l0.027,0.023l0.026,0.024l0.027,0.024l0.025,0.025l0.025,0.025l0.025,0.026l0.023,0.027l0.024,0.028l0.022,0.028l0.022,0.028l0.021,0.029l0.021,0.03l0.02,0.031l0.019,0.03l0.019,0.032l0.018,0.032l0.017,0.032l0.016,0.033l0.016,0.034l0.015,0.034l0.014,0.034l0.013,0.035l0.013,0.036l0.009,0.028l0.002,0.008l0.011,0.036l0.009,0.037l0.009,0.037l0.007,0.038l0.007,0.037l0.006,0.039l0.005,0.038l0.004,0.039l0.003,0.039l0.002,0.04l0.001,0.04l0,0.039l-0.001,0.039l-0.002,0.039l-0.003,0.039l-0.004,0.039l-0.005,0.039l-0.006,0.038l-0.007,0.038l-0.007,0.038l-0.009,0.037l-0.009,0.037l-0.011,0.037l-0.011,0.037l-0.013,0.036l-0.013,0.036l-0.014,0.035l-0.014,0.035l-0.016,0.035l-0.016,0.034l-0.007,0.013l-0.011,0.021l-0.018,0.033l-0.02,0.032l-0.02,0.032l-0.02,0.032l-0.022,0.031l-0.022,0.031l-0.023,0.03l-0.024,0.029l-0.024,0.029l-0.025,0.028l-0.026,0.028l-0.026,0.027l-0.027,0.027l-0.028,0.026l-0.005,0.004l-0.024,0.02l-0.029,0.025l-0.03,0.023l-0.03,0.023l-0.031,0.022l-0.032,0.021l-0.032,0.021l-0.033,0.02l-0.033,0.019l-0.034,0.018l-0.034,0.018l-0.035,0.017l-0.035,0.016l-0.01,0.004l-0.026,0.01l-0.036,0.013l-0.037,0.013l-0.038,0.012l-0.037,0.01l-0.038,0.01l-0.039,0.009l-0.038,0.008l-0.039,0.007l-0.039,0.006l-0.04,0.005l-0.003,0l-0.037,0.003l-0.04,0.002l-0.04,0.001l-0.04,0l-0.041,-0.001l-0.04,-0.002l-0.041,-0.003l-0.039,-0.004l-0.04,-0.005l-0.039,-0.006l-0.013,-0.002l-0.026,-0.005l-0.038,-0.009l-0.038,-0.009l-0.038,-0.011l-0.037,-0.012l-0.036,-0.012l-0.036,-0.013l-0.036,-0.014l-0.035,-0.015l-0.034,-0.015l-0.034,-0.017l-0.034,-0.017l-0.033,-0.018l-0.032,-0.019l-0.032,-0.019l-0.031,-0.02l-0.031,-0.021l-0.03,-0.021l-0.029,-0.022l-0.029,-0.023l-0.025,-0.021l-0.003,-0.003l-0.028,-0.024l-0.026,-0.025l-0.026,-0.025l-0.026,-0.026l-0.024,-0.027l-0.024,-0.027l-0.024,-0.027l-0.022,-0.028l-0.022,-0.029l-0.022,-0.029l-0.02,-0.029l-0.02,-0.03l-0.019,-0.031l-0.018,-0.03l-0.018,-0.032l-0.016,-0.031l-0.016,-0.032l-0.015,-0.033l-0.015,-0.032l-0.005,-0.014l-0.009,-0.019l-0.013,-0.033l-0.012,-0.034l-0.012,-0.034l-0.011,-0.034l-0.01,-0.034l-0.009,-0.035l-0.009,-0.035l-0.007,-0.035l-0.003,-0.015l-0.004,-0.02l-0.007,-0.036l-0.006,-0.036l-0.005,-0.036l-0.004,-0.036l-0.003,-0.036l-0.002,-0.037l-0.001,-0.037l0,-0.027l-0.001,-0.01l-0.001,-0.037l0.001,-0.037l0.001,-0.037l0.002,-0.037l0.003,-0.036l0.004,-0.037l0.005,-0.036l0.002,-0.018l0.003,-0.018l0.006,-0.035l0.007,-0.036l0.007,-0.035l0.009,-0.035l0.009,-0.034l0.01,-0.034l0.011,-0.034l0.012,-0.034l0.012,-0.033l0.005,-0.011l0.008,-0.022l0.014,-0.033l0.014,-0.032l0.016,-0.032l0.016,-0.031l0.016,-0.031l0.018,-0.031l0.018,-0.03l0.019,-0.03l0.02,-0.029l0.02,-0.029l0.021,-0.029l0.022,-0.028l0.022,-0.027l0.023,-0.027l0.024,-0.026l0.024,-0.026l0.025,-0.025l0.026,-0.025l0.026,-0.024l0.027,-0.023l0.027,-0.023l0.01,-0.008l0.018,-0.014l0.029,-0.022l0.029,-0.022l0.029,-0.02l0.03,-0.02l0.031,-0.019l0.031,-0.019l0.032,-0.018l0.032,-0.017l0.033,-0.016l0.033,-0.016l0.034,-0.014l0.034,-0.015l0.035,-0.013l0.035,-0.012l0.036,-0.012l0.036,-0.01l0.036,-0.01l0.037,-0.009l0.038,-0.008l0.037,-0.008l0.038,-0.006l0.039,-0.005l0.039,-0.005l0.039,-0.003l0.035,-0.002l0.004,0.059Zm0.004,0.507l-0.029,-0.001l-0.025,-0.001l-0.025,0l-0.025,0l-0.025,0.001l-0.024,0.001l-0.025,0.002l-0.024,0.003l-0.024,0.004l-0.024,0.004l-0.024,0.004l-0.024,0.005l-0.024,0.006l-0.023,0.006l-0.023,0.007l-0.024,0.008l-0.023,0.008l-0.022,0.008l-0.023,0.009l-0.022,0.01l-0.022,0.01l-0.022,0.011l-0.022,0.012l-0.021,0.011l-0.021,0.013l-0.013,0.008l-0.008,0.005l-0.02,0.014l-0.02,0.014l-0.02,0.015l-0.019,0.015l-0.019,0.016l-0.018,0.016l-0.019,0.016l-0.017,0.017l-0.018,0.018l-0.017,0.018l-0.017,0.018l-0.016,0.019l-0.016,0.019l-0.015,0.02l-0.015,0.02l-0.014,0.02l-0.014,0.021l-0.014,0.022l-0.013,0.021l-0.012,0.022l-0.012,0.022l-0.008,0.015l-0.004,0.008l-0.01,0.023l-0.01,0.024l-0.01,0.024l-0.008,0.024l-0.009,0.025l-0.007,0.024l-0.007,0.025l-0.007,0.026l-0.006,0.025l-0.002,0.013l-0.003,0.013l-0.004,0.026l-0.003,0.027l-0.003,0.027l-0.002,0.027l-0.001,0.027l0,0.027l0,0.027l0,0.008l0.001,0.019l0.003,0.027l0.004,0.027l0.004,0.026l0.004,0.026l0.006,0.026l0.006,0.026l0.006,0.025l0.004,0.014l0.004,0.011l0.009,0.024l0.009,0.024l0.01,0.024l0.01,0.023l0.011,0.023l0.011,0.023l0.012,0.022l0.012,0.022l0.008,0.012l0.005,0.009l0.014,0.021l0.015,0.02l0.014,0.02l0.016,0.02l0.015,0.019l0.016,0.018l0.017,0.019l0.017,0.017l0.017,0.018l0.017,0.016l0.018,0.017l0.018,0.016l0.019,0.015l0.019,0.015l0.019,0.014l0.02,0.014l0.019,0.014l0.02,0.012l0.021,0.013l0.002,0.001l0.018,0.011l0.021,0.011l0.021,0.011l0.021,0.011l0.021,0.01l0.022,0.009l0.021,0.009l0.022,0.008l0.022,0.008l0.023,0.007l0.022,0.007l0.023,0.006l0.022,0.006l0.023,0.005l0.023,0.004l0.023,0.004l0.023,0.003l0.024,0.003l0.023,0.002l0.024,0.001l0.015,0.001l0.008,0l0.024,0.002l0.023,0l0.024,0l0.024,0l0.024,-0.001l0.024,-0.002l0.024,-0.003l0.023,-0.003l0.023,-0.003l0.021,-0.004l0.002,0l0.023,-0.004l0.022,-0.004l0.023,-0.005l0.022,-0.005l0.022,-0.006l0.021,-0.006l0.022,-0.007l0.021,-0.007l0.021,-0.008l0.02,-0.009l0.015,-0.006l0.006,-0.002l0.02,-0.009l0.021,-0.009l0.02,-0.009l0.019,-0.01l0.02,-0.01l0.019,-0.011l0.019,-0.011l0.019,-0.012l0.018,-0.012l0.018,-0.013l0.018,-0.013l0.018,-0.014l0.014,-0.011l0.003,-0.003l0.017,-0.013l0.017,-0.015l0.016,-0.015l0.017,-0.015l0.015,-0.015l0.016,-0.016l0.015,-0.017l0.015,-0.017l0.014,-0.017l0.014,-0.017l0.013,-0.018l0.014,-0.018l0.012,-0.019l0.013,-0.019l0.007,-0.011l0.005,-0.008l0.011,-0.019l0.012,-0.02l0.011,-0.02l0.01,-0.02l0.01,-0.021l0.009,-0.021l0.009,-0.021l0.009,-0.021l0.008,-0.022l0.007,-0.022l0.007,-0.023l0.007,-0.022l0.006,-0.023l0.005,-0.024l0.005,-0.023l0.004,-0.024l0.004,-0.024l0.003,-0.024l0.002,-0.025l0.002,-0.025l0.001,-0.025l0.001,-0.025l0,-0.025l-0.001,-0.024l-0.001,-0.025l-0.002,-0.024l-0.003,-0.024l-0.003,-0.024l-0.004,-0.024l-0.004,-0.024l-0.001,-0.005l-0.004,-0.019l-0.005,-0.023l-0.005,-0.024l-0.007,-0.023l-0.007,-0.023l-0.007,-0.023l-0.008,-0.023l-0.009,-0.022l-0.009,-0.023l-0.009,-0.022l-0.011,-0.022l-0.01,-0.021l-0.012,-0.022l-0.011,-0.021l-0.013,-0.02l-0.013,-0.021l-0.013,-0.02l-0.014,-0.02l-0.014,-0.02l-0.015,-0.019l-0.015,-0.019l-0.016,-0.019l-0.016,-0.018l-0.017,-0.018l-0.017,-0.018l-0.018,-0.017l-0.018,-0.017l-0.018,-0.016l-0.019,-0.016l-0.02,-0.016l-0.01,-0.008l-0.009,-0.007l-0.02,-0.015l-0.021,-0.014l-0.021,-0.014l-0.021,-0.014l-0.022,-0.013l-0.022,-0.012l-0.022,-0.012l-0.023,-0.012l-0.024,-0.01l-0.023,-0.011l-0.024,-0.01l-0.024,-0.009l-0.025,-0.009l-0.025,-0.008l-0.025,-0.007l-0.026,-0.007l-0.026,-0.007l-0.026,-0.005l-0.027,-0.006l-0.026,-0.004l-0.028,-0.004l-0.027,-0.003l-0.005,0l-0.021,-0.002l0.002,0.11Z" style="fill:#dfb60f;"/><path d="M23.25,28.526l0.002,0.051l0.029,-0.001l0.006,0l0.036,-0.001l0.037,0l0.036,0.001l0.036,0.003l0.036,0.003l0.036,0.003l0.036,0.005l0.035,0.006l0.035,0.006l0.035,0.008l0.035,0.008l0.035,0.009l0.034,0.01l0.034,0.011l0.033,0.012l0.033,0.012l0.033,0.013l0.033,0.014l0.032,0.015l0.032,0.016l0.031,0.016l0.031,0.017l0.014,0.008l0.017,0.01l0.03,0.019l0.03,0.019l0.029,0.02l0.029,0.021l0.028,0.022l0.028,0.022l0.027,0.023l0.026,0.024l0.027,0.024l0.025,0.025l0.025,0.025l0.025,0.026l0.023,0.027l0.024,0.028l0.022,0.028l0.022,0.028l0.021,0.029l0.021,0.03l0.02,0.031l0.019,0.03l0.019,0.032l0.018,0.032l0.017,0.032l0.016,0.033l0.016,0.034l0.015,0.034l0.014,0.034l0.013,0.035l0.013,0.036l0.009,0.028l0.002,0.008l0.011,0.036l0.009,0.037l0.009,0.037l0.007,0.038l0.007,0.037l0.006,0.039l0.005,0.038l0.004,0.039l0.003,0.039l0.002,0.04l0.001,0.04l0,0.039l-0.001,0.039l-0.002,0.039l-0.003,0.039l-0.004,0.039l-0.005,0.039l-0.006,0.038l-0.007,0.038l-0.007,0.038l-0.009,0.037l-0.009,0.037l-0.011,0.037l-0.011,0.037l-0.013,0.036l-0.013,0.036l-0.014,0.035l-0.014,0.035l-0.016,0.035l-0.016,0.034l-0.007,0.013l-0.011,0.021l-0.018,0.033l-0.02,0.032l-0.02,0.032l-0.02,0.032l-0.022,0.031l-0.022,0.031l-0.023,0.03l-0.024,0.029l-0.024,0.029l-0.025,0.028l-0.026,0.028l-0.026,0.027l-0.027,0.027l-0.028,0.026l-0.005,0.004l-0.024,0.02l-0.029,0.025l-0.03,0.023l-0.03,0.023l-0.031,0.022l-0.032,0.021l-0.032,0.021l-0.033,0.02l-0.033,0.019l-0.034,0.018l-0.034,0.018l-0.035,0.017l-0.035,0.016l-0.01,0.004l-0.026,0.01l-0.036,0.013l-0.037,0.013l-0.038,0.012l-0.037,0.01l-0.038,0.01l-0.039,0.009l-0.038,0.008l-0.039,0.007l-0.039,0.006l-0.04,0.005l-0.003,0l-0.037,0.003l-0.04,0.002l-0.04,0.001l-0.04,0l-0.041,-0.001l-0.04,-0.002l-0.041,-0.003l-0.039,-0.004l-0.04,-0.005l-0.039,-0.006l-0.013,-0.002l-0.026,-0.005l-0.038,-0.009l-0.038,-0.009l-0.038,-0.011l-0.037,-0.012l-0.036,-0.012l-0.036,-0.013l-0.036,-0.014l-0.035,-0.015l-0.034,-0.015l-0.034,-0.017l-0.034,-0.017l-0.033,-0.018l-0.032,-0.019l-0.032,-0.019l-0.031,-0.02l-0.031,-0.021l-0.03,-0.021l-0.029,-0.022l-0.029,-0.023l-0.025,-0.021l-0.003,-0.003l-0.028,-0.024l-0.026,-0.025l-0.026,-0.025l-0.026,-0.026l-0.024,-0.027l-0.024,-0.027l-0.024,-0.027l-0.022,-0.028l-0.022,-0.029l-0.022,-0.029l-0.02,-0.029l-0.02,-0.03l-0.019,-0.031l-0.018,-0.03l-0.018,-0.032l-0.016,-0.031l-0.016,-0.032l-0.015,-0.033l-0.015,-0.032l-0.005,-0.014l-0.009,-0.019l-0.013,-0.033l-0.012,-0.034l-0.012,-0.034l-0.011,-0.034l-0.01,-0.034l-0.009,-0.035l-0.009,-0.035l-0.007,-0.035l-0.003,-0.015l-0.004,-0.02l-0.007,-0.036l-0.006,-0.036l-0.005,-0.036l-0.004,-0.036l-0.003,-0.036l-0.002,-0.037l-0.001,-0.037l0,-0.027l-0.001,-0.01l-0.001,-0.037l0.001,-0.037l0.001,-0.037l0.002,-0.037l0.003,-0.036l0.004,-0.037l0.005,-0.036l0.002,-0.018l0.003,-0.018l0.006,-0.035l0.007,-0.036l0.007,-0.035l0.009,-0.035l0.009,-0.034l0.01,-0.034l0.011,-0.034l0.012,-0.034l0.012,-0.033l0.005,-0.011l0.008,-0.022l0.014,-0.033l0.014,-0.032l0.016,-0.032l0.016,-0.031l0.016,-0.031l0.018,-0.031l0.018,-0.03l0.019,-0.03l0.02,-0.029l0.02,-0.029l0.021,-0.029l0.022,-0.028l0.022,-0.027l0.023,-0.027l0.024,-0.026l0.024,-0.026l0.025,-0.025l0.026,-0.025l0.026,-0.024l0.027,-0.023l0.027,-0.023l0.01,-0.008l0.018,-0.014l0.029,-0.022l0.029,-0.022l0.029,-0.02l0.03,-0.02l0.031,-0.019l0.031,-0.019l0.032,-0.018l0.032,-0.017l0.033,-0.016l0.033,-0.016l0.034,-0.014l0.034,-0.015l0.035,-0.013l0.035,-0.012l0.036,-0.012l0.036,-0.01l0.036,-0.01l0.037,-0.009l0.038,-0.008l0.037,-0.008l0.038,-0.006l0.039,-0.005l0.039,-0.005l0.039,-0.003l0.035,-0.002l0.004,0.059Zm0.004,0.507l-0.029,-0.001l-0.025,-0.001l-0.025,0l-0.025,0l-0.025,0.001l-0.024,0.001l-0.025,0.002l-0.024,0.003l-0.024,0.004l-0.024,0.004l-0.024,0.004l-0.024,0.005l-0.024,0.006l-0.023,0.006l-0.023,0.007l-0.024,0.008l-0.023,0.008l-0.022,0.008l-0.023,0.009l-0.022,0.01l-0.022,0.01l-0.022,0.011l-0.022,0.012l-0.021,0.011l-0.021,0.013l-0.013,0.008l-0.008,0.005l-0.02,0.014l-0.02,0.014l-0.02,0.015l-0.019,0.015l-0.019,0.016l-0.018,0.016l-0.019,0.016l-0.017,0.017l-0.018,0.018l-0.017,0.018l-0.017,0.018l-0.016,0.019l-0.016,0.019l-0.015,0.02l-0.015,0.02l-0.014,0.02l-0.014,0.021l-0.014,0.022l-0.013,0.021l-0.012,0.022l-0.012,0.022l-0.008,0.015l-0.004,0.008l-0.01,0.023l-0.01,0.024l-0.01,0.024l-0.008,0.024l-0.009,0.025l-0.007,0.024l-0.007,0.025l-0.007,0.026l-0.006,0.025l-0.002,0.013l-0.003,0.013l-0.004,0.026l-0.003,0.027l-0.003,0.027l-0.002,0.027l-0.001,0.027l0,0.027l0,0.027l0,0.008l0.001,0.019l0.003,0.027l0.004,0.027l0.004,0.026l0.004,0.026l0.006,0.026l0.006,0.026l0.006,0.025l0.004,0.014l0.004,0.011l0.009,0.024l0.009,0.024l0.01,0.024l0.01,0.023l0.011,0.023l0.011,0.023l0.012,0.022l0.012,0.022l0.008,0.012l0.005,0.009l0.014,0.021l0.015,0.02l0.014,0.02l0.016,0.02l0.015,0.019l0.016,0.018l0.017,0.019l0.017,0.017l0.017,0.018l0.017,0.016l0.018,0.017l0.018,0.016l0.019,0.015l0.019,0.015l0.019,0.014l0.02,0.014l0.019,0.014l0.02,0.012l0.021,0.013l0.002,0.001l0.018,0.011l0.021,0.011l0.021,0.011l0.021,0.011l0.021,0.01l0.022,0.009l0.021,0.009l0.022,0.008l0.022,0.008l0.023,0.007l0.022,0.007l0.023,0.006l0.022,0.006l0.023,0.005l0.023,0.004l0.023,0.004l0.023,0.003l0.024,0.003l0.023,0.002l0.024,0.001l0.015,0.001l0.008,0l0.024,0.002l0.023,0l0.024,0l0.024,0l0.024,-0.001l0.024,-0.002l0.024,-0.003l0.023,-0.003l0.023,-0.003l0.021,-0.004l0.002,0l0.023,-0.004l0.022,-0.004l0.023,-0.005l0.022,-0.005l0.022,-0.006l0.021,-0.006l0.022,-0.007l0.021,-0.007l0.021,-0.008l0.02,-0.009l0.015,-0.006l0.006,-0.002l0.02,-0.009l0.021,-0.009l0.02,-0.009l0.019,-0.01l0.02,-0.01l0.019,-0.011l0.019,-0.011l0.019,-0.012l0.018,-0.012l0.018,-0.013l0.018,-0.013l0.018,-0.014l0.014,-0.011l0.003,-0.003l0.017,-0.013l0.017,-0.015l0.016,-0.015l0.017,-0.015l0.015,-0.015l0.016,-0.016l0.015,-0.017l0.015,-0.017l0.014,-0.017l0.014,-0.017l0.013,-0.018l0.014,-0.018l0.012,-0.019l0.013,-0.019l0.007,-0.011l0.005,-0.008l0.011,-0.019l0.012,-0.02l0.011,-0.02l0.01,-0.02l0.01,-0.021l0.009,-0.021l0.009,-0.021l0.009,-0.021l0.008,-0.022l0.007,-0.022l0.007,-0.023l0.007,-0.022l0.006,-0.023l0.005,-0.024l0.005,-0.023l0.004,-0.024l0.004,-0.024l0.003,-0.024l0.002,-0.025l0.002,-0.025l0.001,-0.025l0.001,-0.025l0,-0.025l-0.001,-0.024l-0.001,-0.025l-0.002,-0.024l-0.003,-0.024l-0.003,-0.024l-0.004,-0.024l-0.004,-0.024l-0.001,-0.005l-0.004,-0.019l-0.005,-0.023l-0.005,-0.024l-0.007,-0.023l-0.007,-0.023l-0.007,-0.023l-0.008,-0.023l-0.009,-0.022l-0.009,-0.023l-0.009,-0.022l-0.011,-0.022l-0.01,-0.021l-0.012,-0.022l-0.011,-0.021l-0.013,-0.02l-0.013,-0.021l-0.013,-0.02l-0.014,-0.02l-0.014,-0.02l-0.015,-0.019l-0.015,-0.019l-0.016,-0.019l-0.016,-0.018l-0.017,-0.018l-0.017,-0.018l-0.018,-0.017l-0.018,-0.017l-0.018,-0.016l-0.019,-0.016l-0.02,-0.016l-0.01,-0.008l-0.009,-0.007l-0.02,-0.015l-0.021,-0.014l-0.021,-0.014l-0.021,-0.014l-0.022,-0.013l-0.022,-0.012l-0.022,-0.012l-0.023,-0.012l-0.024,-0.01l-0.023,-0.011l-0.024,-0.01l-0.024,-0.009l-0.025,-0.009l-0.025,-0.008l-0.025,-0.007l-0.026,-0.007l-0.026,-0.007l-0.026,-0.005l-0.027,-0.006l-0.026,-0.004l-0.028,-0.004l-0.027,-0.003l-0.005,0l-0.021,-0.002l0.002,0.11Z" style="fill:#5db80c;"/><path d="M84.583,39.375l-69.583,-0.016l0.007,-4.338l69.993,-0.021l-0.417,4.375Z" style="fill:#fff;"/><path d="M85,34.344l0.109,0.009l0.105,0.027l0.1,0.044l0.091,0.061l0.08,0.074l0.066,0.087l0.051,0.096l0.034,0.104l0.017,0.107l-0.002,0.109l-0.421,4.375l-0.019,0.104l-0.036,0.101l-0.051,0.093l-0.066,0.083l-0.079,0.072l-0.089,0.058l-0.098,0.042l-0.103,0.026l-0.106,0.008l0,-0.304l-0.558,0.004l-13.875,0.078l-18.584,0.096l-20.391,0.088l-10.141,0.034l-6.034,0.014l-0.106,-0.007l-0.104,-0.025l-0.098,-0.04l-0.091,-0.055l-0.081,-0.069l-0.07,-0.081l-0.056,-0.091l-0.041,-0.098l-0.025,-0.104l-0.009,-0.107l0,-2.765l0.001,-1.572l0.011,-0.12l0.031,-0.115l0.05,-0.109l0.069,-0.098l0.084,-0.085l0.098,-0.068l0.109,-0.051l0.116,-0.031l0.119,-0.011l7.8,-0.012l12.256,-0.006l25.77,0.007l24.167,0.023Zm-0.72,1.311l-24.045,0.008l-0.011,0.031l-24.494,0.022l-11.649,0l-8.386,-0.007l-0.001,-0.001l-0.002,1.16l-0.002,-0.001l-0.008,1.811l-0.002,0.002l6.868,0.002l-0.017,0.018l9.875,0.039l19.878,0.097l18.159,0.105l13.52,0.085l0.318,-3.372l-0.001,0.001Z"/><rect x="52.188" y="43.75" width="26.25" height="15.313" style="fill:#bfbfbf;"/><path d="M78.54,43.171l0.098,0.027l0.093,0.043l0.084,0.059l0.073,0.072l0.058,0.084l0.044,0.093l0.026,0.099l0.009,0.102l-0.099,10.811l-0.032,4.502l-0.008,0.079l-0.022,0.076l-0.035,0.071l-0.046,0.063l-0.056,0.055l-0.001,0l-0.065,0.043l-0.071,0.032l-0.075,0.018l-0.077,0.006l-3.069,-0.021l-4.681,-0.021l-4.142,-0.005l-3.877,0.015l-3.967,0.033l-6.514,0.074l-0.091,-0.006l-0.088,-0.021l-0.084,-0.036l-0.077,-0.051l-0.066,-0.064l-0.001,0.001l-0.055,-0.075l-0.042,-0.083l-0.002,-0.007l-0.024,-0.083l-0.011,-0.093l-0.082,-8.029l-0.026,-4.14l-0.005,-3.144l0.01,-0.114l0.029,-0.11l0.048,-0.103l0.045,-0.065l0.02,-0.029l0.081,-0.08l0.001,0.001l0.093,-0.065l0.104,-0.047l0.11,-0.029l0.113,-0.008l2.499,0.011l3.964,0.034l8.092,0.104l7.086,0.113l4.379,0.079l0.23,0.004l0,-0.284l0.102,0.009Zm-4.477,0.966l-6.676,0.113l-7.572,0.104l-3.7,0.034l0.013,0.015l-3.287,0.001l0.001,0l0,0.147l-0.001,-0.002l-0.005,3.245l-0.026,3.337l-0.085,-0.003l-0.002,6.946l-0.005,0.005l-0.001,0.454l-0.011,0.011l6.697,0.074l3.551,0.033l3.485,0.015l3.726,-0.005l4.196,-0.021l-0.019,-0.027l3.646,0l-0.007,-0.007l-0.032,-5.031l-0.096,-9.51l-3.79,0.072Z"/><rect x="52.188" y="61.562" width="26.25" height="7.813" style="fill:#ccc;"/><path d="M78.54,60.984l0.098,0.026l0.093,0.044l0.084,0.058l0.073,0.073l0.058,0.084l0.044,0.093l0.026,0.098l0.009,0.103l-0.083,7.812l-0.01,0.087l-0.025,0.084l-0.039,0.078l-0.051,0.069l-0.062,0.061l-0.001,-0.002l-0.071,0.048l-0.071,0.03l-0.008,0.004l-0.082,0.02l-0.084,0.005l-7.44,-0.062l-3.836,-0.02l-3.395,-0.005l-3.176,0.015l-3.252,0.032l-5.151,0.071l-0.091,-0.005l-0.088,-0.02l-0.084,-0.036l-0.076,-0.05l-0.067,-0.063l0,0l-0.056,-0.075l-0.042,-0.083l0,-0.001l-0.027,-0.088l-0.011,-0.094l-0.081,-7.296l-0.003,-0.517l0.007,-0.109l0.027,-0.106l0.045,-0.1l0.061,-0.091l0.078,-0.079l-0.001,-0.001l0.09,-0.065l0.1,-0.049l0.107,-0.03l0.112,-0.012l0.761,-0.006l3.02,-0.006l3.004,0.016l3.248,0.035l6.632,0.103l5.807,0.114l3.589,0.078l0.189,0.004l0,-0.283l0.102,0.009Zm-3.688,0.965l-5.471,0.114l-6.205,0.103l-3.033,0.035l-2.81,0.016l-2.842,-0.006l-0.013,-0.014l-1.657,-0.001l-0.008,-0.008l-0.003,1.084l-0.084,-0.056l-0.003,5.279l-0.006,0.005l0,0.345l-0.014,0.015l5.478,0.071l2.904,0.032l2.854,0.015l3.054,-0.005l3.443,-0.02l-0.026,-0.066l7.054,0l-0.005,-0.005l0.484,-0.001l-0.01,-0.011l-0.08,-6.99l-3.001,0.069Z"/><rect x="19.375" y="48.125" width="26.25" height="0.438"/><path d="M45.676,47.836l0.049,0.013l0.047,0.022l0.042,0.029l0.036,0.036l0.029,0.042l0.022,0.047l0.013,0.049l0.005,0.051l-0.003,0.437l-0.005,0.051l-0.013,0.049l0,0l-0.022,0.045l-0.029,0.041l-0.036,0.036l-0.042,0.028l-0.046,0.021l-0.048,0.012l-0.05,0.004l-5.813,-0.042l-5.961,-0.033l-2.896,-0.011l-2.563,-0.002l-2.398,0.007l-2.455,0.017l-4.164,0.038l-0.045,-0.004l-0.044,-0.011l-0.042,-0.019l-0.038,-0.025l-0.033,-0.032l-0.026,-0.038l-0.02,-0.041l-0.013,-0.045l0,0.001l-0.005,-0.047l-0.002,-0.379l0,-0.058l0.003,-0.047l0.012,-0.045l0,0l0.019,-0.043l0.027,-0.039l0.033,-0.034l0.038,-0.027l0.043,-0.021l0.046,-0.013l0.047,-0.004l4.26,-0.038l2.387,-0.013l2.322,-0.003l2.31,0.008l2.499,0.017l5.101,0.052l4.466,0.057l2.76,0.039l0.145,0.002l0,-0.142l0.051,0.005Z"/><rect x="19.375" y="65.187" width="26.25" height="0.438"/><path d="M45.676,64.898l0.049,0.013l0.047,0.022l0.042,0.029l0.036,0.037l0.029,0.042l0.022,0.046l0.013,0.049l0.005,0.051l-0.003,0.438l-0.005,0.05l-0.013,0.049l0,0l-0.022,0.046l-0.029,0.041l-0.036,0.035l-0.042,0.029l-0.046,0.02l-0.048,0.013l-0.05,0.004l-5.813,-0.043l-5.961,-0.033l-2.896,-0.01l-2.563,-0.003l-2.398,0.008l-2.455,0.016l-4.164,0.038l-0.045,-0.003l-0.044,-0.011l-0.042,-0.019l-0.038,-0.026l-0.033,-0.032l-0.026,-0.037l-0.02,-0.042l-0.013,-0.044l0,0l-0.005,-0.046l-0.002,-0.379l0,-0.059l0.003,-0.046l0.012,-0.046l0,0l0.019,-0.042l0.027,-0.039l0.033,-0.034l0.038,-0.028l0.043,-0.02l0.046,-0.013l0.047,-0.005l4.26,-0.038l2.387,-0.013l2.322,-0.003l2.31,0.008l2.499,0.018l5.101,0.051l4.466,0.057l2.76,0.039l0.145,0.002l0,-0.141l0.051,0.004Z"/><rect x="19.375" y="50.75" width="26.25" height="0.438"/><path d="M45.676,50.461l0.049,0.013l0.047,0.022l0.042,0.029l0.036,0.036l0.029,0.042l0.022,0.047l0.013,0.049l0.005,0.051l-0.003,0.437l-0.005,0.051l-0.013,0.049l0,0l-0.022,0.045l-0.029,0.041l-0.036,0.036l-0.042,0.028l-0.046,0.021l-0.048,0.012l-0.05,0.004l-5.813,-0.042l-5.961,-0.033l-2.896,-0.011l-2.563,-0.002l-2.398,0.007l-2.455,0.017l-4.164,0.038l-0.045,-0.004l-0.044,-0.011l-0.042,-0.019l-0.038,-0.025l-0.033,-0.032l-0.026,-0.038l-0.02,-0.041l-0.013,-0.045l0,0.001l-0.005,-0.047l-0.002,-0.379l0,-0.058l0.003,-0.047l0.012,-0.045l0,0l0.019,-0.043l0.027,-0.039l0.033,-0.034l0.038,-0.027l0.043,-0.021l0.046,-0.013l0.047,-0.004l4.26,-0.038l2.387,-0.013l2.322,-0.003l2.31,0.008l2.499,0.017l5.101,0.052l4.466,0.057l2.76,0.039l0.145,0.002l0,-0.142l0.051,0.005Z"/><rect x="19.375" y="53.375" width="26.25" height="0.438"/><path d="M45.676,53.086l0.049,0.013l0.047,0.022l0.042,0.029l0.036,0.036l0.029,0.042l0.022,0.047l0.013,0.049l0.005,0.051l-0.003,0.437l-0.005,0.051l-0.013,0.049l0,0l-0.022,0.045l-0.029,0.041l-0.036,0.036l-0.042,0.028l-0.046,0.021l-0.048,0.012l-0.05,0.004l-5.813,-0.042l-5.961,-0.033l-2.896,-0.011l-2.563,-0.002l-2.398,0.007l-2.455,0.017l-4.164,0.038l-0.045,-0.004l-0.044,-0.011l-0.042,-0.019l-0.038,-0.025l-0.033,-0.032l-0.026,-0.038l-0.02,-0.041l-0.013,-0.045l0,0.001l-0.005,-0.047l-0.002,-0.379l0,-0.058l0.003,-0.047l0.012,-0.045l0,0l0.019,-0.043l0.027,-0.039l0.033,-0.034l0.038,-0.027l0.043,-0.021l0.046,-0.013l0.047,-0.004l4.26,-0.038l2.387,-0.013l2.322,-0.003l2.31,0.008l2.499,0.017l5.101,0.052l4.466,0.057l2.76,0.039l0.145,0.002l0,-0.142l0.051,0.005Z"/><rect x="19.375" y="56" width="21.875" height="0.438"/><path d="M41.301,55.711l0.049,0.013l0.047,0.022l0.042,0.029l0.036,0.036l0.029,0.042l0.022,0.047l0.013,0.049l0.005,0.051l-0.003,0.437l-0.005,0.051l-0.014,0.049l0,0l-0.022,0.045l-0.029,0.041l-0.036,0.035l-0.041,0.028l-0.046,0.021l-0.048,0.012l-0.05,0.004l-4.742,-0.041l-5.021,-0.033l-2.44,-0.011l-2.159,-0.002l-2.02,0.007l-2.068,0.017l-3.425,0.037l-0.045,-0.003l-0.044,-0.011l-0.042,-0.019l-0.038,-0.026l-0.032,-0.032l-0.027,-0.037l-0.02,-0.041l-0.013,-0.045l0,0.001l-0.005,-0.047l-0.002,-0.299l-0.001,-0.138l0.004,-0.047l0.011,-0.045l0,0l0.019,-0.043l0.027,-0.04l0.033,-0.034l0.039,-0.027l0.042,-0.021l0.046,-0.013l0.048,-0.005l3.421,-0.036l2.003,-0.013l1.949,-0.003l1.939,0.008l2.097,0.017l4.28,0.052l3.748,0.057l2.317,0.039l0.121,0.002l0,-0.142l0.051,0.005Z"/><path d="M21.112,43.642c-0.074,0 -0.187,-0.006 -0.341,-0.018c-0.149,-0.011 -0.263,-0.016 -0.34,-0.015l-0.107,0c0.003,0.138 0.017,0.361 0.041,0.67c0.022,0.288 0.033,0.511 0.033,0.671c0,0.034 0.003,0.087 0.01,0.158c0.007,0.071 0.011,0.124 0.011,0.16c0,0.068 -0.011,0.126 -0.033,0.175c-0.028,0.065 -0.072,0.098 -0.13,0.098c-0.04,0 -0.076,-0.014 -0.108,-0.042c-0.032,-0.027 -0.048,-0.063 -0.048,-0.107c0,-0.015 0.003,-0.037 0.008,-0.067c0.005,-0.03 0.007,-0.053 0.007,-0.068c0,-0.048 -0.003,-0.122 -0.01,-0.219c-0.006,-0.098 -0.009,-0.172 -0.009,-0.221c0,-0.143 -0.012,-0.343 -0.035,-0.601c-0.023,-0.279 -0.037,-0.479 -0.04,-0.601l-0.136,0.002c-0.218,0 -0.389,-0.016 -0.514,-0.048c-0.081,-0.021 -0.121,-0.07 -0.121,-0.148c0,-0.041 0.013,-0.077 0.039,-0.108c0.03,-0.035 0.068,-0.051 0.115,-0.048c0.035,0.002 0.114,0.011 0.239,0.027c0.1,0.012 0.18,0.018 0.242,0.018c0.06,0 0.151,-0.001 0.272,-0.003c0.122,-0.003 0.212,-0.004 0.272,-0.004c0.077,0 0.191,0.005 0.341,0.016c0.151,0.011 0.265,0.017 0.342,0.017c0.043,0 0.079,0.014 0.108,0.044c0.028,0.029 0.043,0.066 0.043,0.11c0,0.042 -0.015,0.079 -0.043,0.108c-0.029,0.029 -0.065,0.044 -0.108,0.044Z" style="fill-rule:nonzero;"/><path d="M21.65,43.638c-0.048,0 -0.089,-0.017 -0.124,-0.051c-0.035,-0.034 -0.052,-0.075 -0.052,-0.123c0,-0.048 0.017,-0.088 0.052,-0.122c0.035,-0.034 0.076,-0.051 0.124,-0.051c0.048,0 0.089,0.017 0.123,0.051c0.035,0.034 0.052,0.074 0.052,0.122c0,0.048 -0.017,0.089 -0.052,0.123c-0.034,0.034 -0.075,0.051 -0.123,0.051Zm0.067,1.213c0,0.06 0.002,0.149 0.005,0.268c0.004,0.119 0.006,0.209 0.006,0.268c0,0.044 -0.014,0.08 -0.041,0.108c-0.027,0.028 -0.062,0.042 -0.106,0.042c-0.043,0 -0.078,-0.014 -0.105,-0.042c-0.028,-0.028 -0.041,-0.064 -0.041,-0.108c0,-0.059 -0.002,-0.149 -0.006,-0.268c-0.003,-0.119 -0.005,-0.208 -0.005,-0.268c0,-0.094 0.005,-0.211 0.015,-0.35c0.01,-0.14 0.015,-0.257 0.015,-0.351c0,-0.045 0.014,-0.081 0.041,-0.109c0.028,-0.028 0.063,-0.042 0.106,-0.042c0.042,0 0.078,0.014 0.105,0.042c0.027,0.028 0.041,0.064 0.041,0.109c0,0.094 -0.005,0.211 -0.015,0.351c-0.01,0.139 -0.015,0.256 -0.015,0.35Z" style="fill-rule:nonzero;"/><path d="M23.222,44.256c-0.021,0 -0.046,-0.001 -0.074,-0.003c-0.028,-0.002 -0.053,-0.003 -0.074,-0.003c-0.023,0 -0.091,0.008 -0.203,0.023l0.028,0.883l0.003,0.142c0.004,0.218 -0.048,0.327 -0.157,0.327c-0.04,0 -0.074,-0.013 -0.104,-0.039c-0.029,-0.026 -0.044,-0.058 -0.044,-0.097c0,-0.038 0.002,-0.095 0.005,-0.17c0.003,-0.076 0.004,-0.133 0.004,-0.171l-0.03,-0.872c-0.072,-0.003 -0.183,-0.012 -0.331,-0.026c-0.089,-0.012 -0.133,-0.061 -0.133,-0.148c0,-0.044 0.013,-0.08 0.04,-0.109c0.027,-0.029 0.061,-0.043 0.103,-0.043l0.314,0.025c0,-0.051 -0.002,-0.119 -0.007,-0.204c-0.004,-0.085 -0.007,-0.146 -0.007,-0.184c0,-0.042 0.015,-0.077 0.044,-0.104c0.029,-0.028 0.064,-0.041 0.106,-0.041c0.09,0 0.142,0.073 0.157,0.219c0.003,0.037 0.004,0.082 0.004,0.133l-0.003,0.087l-0.001,0.093c0.123,-0.016 0.194,-0.024 0.212,-0.024c0.104,0 0.171,0.005 0.203,0.015c0.061,0.02 0.091,0.067 0.091,0.14c0,0.044 -0.013,0.08 -0.041,0.109c-0.027,0.028 -0.062,0.042 -0.105,0.042Z" style="fill-rule:nonzero;"/><path d="M24.044,44.355l-0.023,0.743c0,0.078 -0.004,0.194 -0.012,0.346c-0.01,0.1 -0.058,0.15 -0.146,0.15c-0.098,0 -0.146,-0.051 -0.146,-0.153c0,-0.12 0.005,-0.301 0.016,-0.543c0.011,-0.242 0.016,-0.423 0.016,-0.543c0,-0.158 0.003,-0.338 0.008,-0.54c0.005,-0.203 0.007,-0.383 0.007,-0.541c0,-0.099 0.049,-0.149 0.147,-0.149c0.098,0 0.148,0.05 0.148,0.149c0,0.158 -0.003,0.338 -0.008,0.541c-0.005,0.202 -0.007,0.382 -0.007,0.54Z" style="fill-rule:nonzero;"/><path d="M25.2,45.598c-0.225,0 -0.407,-0.056 -0.547,-0.169c-0.152,-0.124 -0.228,-0.299 -0.228,-0.523c0,-0.259 0.063,-0.476 0.188,-0.651c0.137,-0.192 0.319,-0.287 0.547,-0.287c0.165,0 0.3,0.028 0.405,0.083c0.129,0.069 0.193,0.175 0.193,0.317c0,0.1 -0.057,0.191 -0.169,0.272c-0.05,0.036 -0.155,0.092 -0.317,0.168l-0.571,0.27c0.056,0.083 0.126,0.145 0.209,0.187c0.083,0.042 0.18,0.063 0.29,0.063c0.069,0 0.15,-0.013 0.242,-0.039c0.118,-0.033 0.194,-0.076 0.228,-0.129c0.033,-0.054 0.07,-0.08 0.109,-0.08c0.035,0 0.066,0.013 0.093,0.039c0.027,0.027 0.041,0.057 0.041,0.092c0,0.111 -0.089,0.206 -0.267,0.285c-0.153,0.068 -0.301,0.102 -0.446,0.102Zm-0.04,-1.361c-0.121,0 -0.223,0.047 -0.303,0.141c-0.081,0.094 -0.141,0.236 -0.181,0.425l0.459,-0.218c0.18,-0.088 0.308,-0.164 0.385,-0.229c-0.086,-0.079 -0.206,-0.119 -0.36,-0.119Z" style="fill-rule:nonzero;"/><path d="M19.277,62.47c-0.001,-0.042 0.013,-0.076 0.042,-0.103c0.03,-0.026 0.066,-0.039 0.109,-0.039c0.049,0 0.091,0.028 0.128,0.083c0.051,0.076 0.096,0.128 0.136,0.154c0.085,0.056 0.208,0.084 0.369,0.084c0.155,0 0.298,-0.033 0.431,-0.1c0.169,-0.086 0.254,-0.205 0.254,-0.357c0,-0.126 -0.071,-0.225 -0.214,-0.298c-0.12,-0.062 -0.269,-0.096 -0.447,-0.101c-0.157,-0.006 -0.291,-0.04 -0.402,-0.103c-0.141,-0.081 -0.212,-0.197 -0.212,-0.347c0,-0.177 0.101,-0.339 0.302,-0.486c0.192,-0.138 0.391,-0.207 0.596,-0.207c0.097,0 0.206,0.016 0.328,0.049c0.161,0.043 0.242,0.098 0.242,0.164c0,0.088 -0.045,0.132 -0.135,0.132c-0.04,0 -0.109,-0.011 -0.209,-0.032c-0.1,-0.022 -0.177,-0.032 -0.232,-0.031c-0.155,0.002 -0.287,0.04 -0.396,0.115c-0.111,0.077 -0.167,0.17 -0.167,0.28c0,0.082 0.074,0.141 0.221,0.174c0.055,0.013 0.161,0.025 0.318,0.036c0.228,0.017 0.407,0.089 0.535,0.216c0.118,0.115 0.177,0.256 0.177,0.422c0,0.237 -0.11,0.427 -0.329,0.568c-0.19,0.123 -0.411,0.184 -0.662,0.184c-0.182,0 -0.349,-0.035 -0.501,-0.105c-0.185,-0.085 -0.279,-0.203 -0.282,-0.352Z" style="fill-rule:nonzero;"/><path d="M22.626,61.969c0,0.072 0,0.179 0.001,0.323c0.001,0.143 0.002,0.251 0.002,0.323c0,0.022 0.001,0.055 0.005,0.1c0.003,0.045 0.005,0.078 0.005,0.1c0,0.043 -0.014,0.078 -0.043,0.105c-0.029,0.028 -0.064,0.041 -0.106,0.041c-0.077,0 -0.126,-0.047 -0.147,-0.142c-0.124,0.065 -0.268,0.098 -0.43,0.098c-0.131,0 -0.239,-0.029 -0.324,-0.087c-0.095,-0.064 -0.151,-0.157 -0.169,-0.28c-0.039,-0.264 -0.059,-0.499 -0.059,-0.705c0,-0.136 0.015,-0.292 0.045,-0.466c0.014,-0.087 0.062,-0.13 0.142,-0.13c0.043,0 0.079,0.014 0.108,0.041c0.029,0.027 0.043,0.063 0.043,0.105c0,0.046 -0.007,0.119 -0.021,0.22c-0.015,0.101 -0.022,0.177 -0.022,0.23c0,0.167 0.005,0.309 0.016,0.428c0.011,0.118 0.028,0.213 0.05,0.285c0.032,0.018 0.065,0.032 0.097,0.041c0.032,0.01 0.063,0.014 0.094,0.014c0.133,0 0.274,-0.021 0.423,-0.064l-0.002,-0.303l-0.003,-0.29c0,-0.215 0.01,-0.402 0.029,-0.561c0.011,-0.091 0.059,-0.137 0.145,-0.137c0.042,0 0.078,0.014 0.107,0.042c0.029,0.028 0.043,0.062 0.041,0.104l-0.027,0.565Z" style="fill-rule:nonzero;"/><path d="M23.696,62.905c-0.153,0 -0.291,-0.03 -0.416,-0.09c-0.032,0.048 -0.071,0.072 -0.116,0.072c-0.038,0 -0.07,-0.014 -0.097,-0.04c-0.026,-0.026 -0.039,-0.059 -0.039,-0.099c0,-0.026 0.001,-0.065 0.003,-0.115c0.003,-0.051 0.004,-0.09 0.004,-0.115c0,-0.106 -0.003,-0.264 -0.008,-0.475c-0.006,-0.211 -0.008,-0.369 -0.008,-0.474c0,-0.073 0,-0.211 0.001,-0.413c0.001,-0.203 0.002,-0.341 0.002,-0.415c0,-0.06 0.012,-0.114 0.037,-0.162c0.033,-0.06 0.078,-0.091 0.136,-0.091c0.075,0 0.112,0.044 0.112,0.13c0,0.014 -0.002,0.035 -0.007,0.062c-0.005,0.026 -0.008,0.047 -0.008,0.061l-0.004,0.327l-0.003,0.381c0.086,-0.059 0.169,-0.103 0.247,-0.132c0.078,-0.029 0.152,-0.044 0.22,-0.044c0.215,0 0.388,0.082 0.522,0.246c0.125,0.155 0.188,0.345 0.188,0.57c0,0.227 -0.073,0.42 -0.219,0.578c-0.147,0.158 -0.329,0.238 -0.547,0.238Zm0.056,-1.35c-0.081,0 -0.165,0.023 -0.251,0.069c-0.041,0.023 -0.113,0.072 -0.215,0.148l-0.003,0.258l0.003,0.479c0.048,0.022 0.115,0.049 0.202,0.083c0.062,0.019 0.131,0.029 0.208,0.029c0.144,0 0.263,-0.051 0.355,-0.153c0.093,-0.101 0.139,-0.228 0.139,-0.379c0,-0.149 -0.037,-0.273 -0.112,-0.372c-0.081,-0.108 -0.189,-0.162 -0.326,-0.162Z" style="fill-rule:nonzero;"/><path d="M25.813,61.569c-0.021,0 -0.046,-0.001 -0.074,-0.003c-0.028,-0.002 -0.053,-0.003 -0.074,-0.003c-0.023,0 -0.091,0.007 -0.203,0.022l0.028,0.883l0.003,0.142c0.004,0.218 -0.048,0.327 -0.157,0.327c-0.039,0 -0.074,-0.012 -0.103,-0.038c-0.03,-0.026 -0.045,-0.059 -0.045,-0.097c0,-0.038 0.002,-0.095 0.005,-0.171c0.003,-0.076 0.004,-0.132 0.004,-0.17l-0.029,-0.873c-0.073,-0.003 -0.184,-0.011 -0.332,-0.025c-0.089,-0.012 -0.133,-0.062 -0.133,-0.148c0,-0.044 0.013,-0.08 0.04,-0.109c0.027,-0.029 0.061,-0.044 0.103,-0.044l0.314,0.026c0,-0.051 -0.002,-0.119 -0.007,-0.204c-0.004,-0.085 -0.006,-0.147 -0.006,-0.185c0,-0.042 0.014,-0.076 0.043,-0.104c0.029,-0.027 0.064,-0.041 0.106,-0.041c0.09,0 0.142,0.074 0.157,0.22c0.003,0.037 0.004,0.081 0.004,0.133l-0.003,0.087l-0.001,0.092c0.123,-0.016 0.194,-0.024 0.212,-0.024c0.104,0 0.171,0.005 0.203,0.015c0.061,0.02 0.092,0.067 0.092,0.141c0,0.044 -0.014,0.08 -0.042,0.108c-0.027,0.029 -0.062,0.043 -0.105,0.043Z" style="fill-rule:nonzero;"/><path d="M26.541,60.95c-0.048,0 -0.089,-0.017 -0.124,-0.051c-0.035,-0.034 -0.053,-0.074 -0.053,-0.122c0,-0.048 0.018,-0.089 0.053,-0.123c0.035,-0.034 0.076,-0.051 0.124,-0.051c0.048,0 0.089,0.017 0.123,0.051c0.034,0.034 0.052,0.075 0.052,0.123c0,0.048 -0.018,0.088 -0.052,0.122c-0.034,0.034 -0.075,0.051 -0.123,0.051Zm0.067,1.213c0,0.06 0.002,0.15 0.005,0.269c0.004,0.119 0.005,0.208 0.005,0.268c0,0.044 -0.013,0.08 -0.04,0.107c-0.027,0.028 -0.062,0.042 -0.106,0.042c-0.043,0 -0.078,-0.014 -0.105,-0.042c-0.028,-0.027 -0.041,-0.063 -0.041,-0.107c0,-0.06 -0.002,-0.149 -0.006,-0.268c-0.003,-0.119 -0.005,-0.209 -0.005,-0.269c0,-0.093 0.005,-0.21 0.015,-0.35c0.01,-0.14 0.015,-0.257 0.015,-0.35c0,-0.045 0.014,-0.082 0.041,-0.109c0.028,-0.028 0.063,-0.042 0.105,-0.042c0.043,0 0.078,0.014 0.106,0.042c0.027,0.027 0.041,0.064 0.041,0.109c0,0.093 -0.005,0.21 -0.015,0.35c-0.01,0.14 -0.015,0.257 -0.015,0.35Z" style="fill-rule:nonzero;"/><path d="M28.113,61.569c-0.021,0 -0.046,-0.001 -0.074,-0.003c-0.029,-0.002 -0.053,-0.003 -0.074,-0.003c-0.023,0 -0.091,0.007 -0.203,0.022l0.028,0.883l0.003,0.142c0.004,0.218 -0.048,0.327 -0.157,0.327c-0.04,0 -0.074,-0.012 -0.104,-0.038c-0.029,-0.026 -0.044,-0.059 -0.044,-0.097c0,-0.038 0.002,-0.095 0.005,-0.171c0.003,-0.076 0.004,-0.132 0.004,-0.17l-0.03,-0.873c-0.072,-0.003 -0.183,-0.011 -0.331,-0.025c-0.089,-0.012 -0.133,-0.062 -0.133,-0.148c0,-0.044 0.013,-0.08 0.04,-0.109c0.027,-0.029 0.061,-0.044 0.103,-0.044l0.314,0.026c0,-0.051 -0.002,-0.119 -0.007,-0.204c-0.004,-0.085 -0.007,-0.147 -0.007,-0.185c0,-0.042 0.015,-0.076 0.044,-0.104c0.029,-0.027 0.064,-0.041 0.106,-0.041c0.089,0 0.142,0.074 0.157,0.22c0.003,0.037 0.004,0.081 0.004,0.133l-0.003,0.087l-0.001,0.092c0.123,-0.016 0.194,-0.024 0.212,-0.024c0.103,0 0.171,0.005 0.203,0.015c0.061,0.02 0.091,0.067 0.091,0.141c0,0.044 -0.013,0.08 -0.041,0.108c-0.027,0.029 -0.062,0.043 -0.105,0.043Z" style="fill-rule:nonzero;"/><path d="M28.935,61.667l-0.023,0.743c0,0.079 -0.004,0.194 -0.012,0.347c-0.01,0.099 -0.058,0.149 -0.146,0.149c-0.098,0 -0.147,-0.051 -0.147,-0.152c0,-0.121 0.006,-0.302 0.017,-0.543c0.011,-0.242 0.016,-0.423 0.016,-0.544c0,-0.157 0.003,-0.337 0.008,-0.54c0.005,-0.203 0.007,-0.383 0.007,-0.54c0,-0.1 0.049,-0.15 0.147,-0.15c0.098,0 0.148,0.05 0.148,0.15c0,0.157 -0.003,0.337 -0.008,0.54c-0.005,0.203 -0.007,0.383 -0.007,0.54Z" style="fill-rule:nonzero;"/><path d="M30.091,62.911c-0.225,0 -0.407,-0.057 -0.547,-0.169c-0.152,-0.125 -0.228,-0.299 -0.228,-0.523c0,-0.259 0.063,-0.476 0.188,-0.652c0.137,-0.191 0.319,-0.287 0.547,-0.287c0.165,0 0.3,0.028 0.405,0.084c0.128,0.069 0.193,0.174 0.193,0.317c0,0.099 -0.057,0.19 -0.169,0.272c-0.05,0.036 -0.156,0.091 -0.317,0.167l-0.571,0.271c0.056,0.082 0.125,0.145 0.209,0.186c0.083,0.042 0.18,0.063 0.29,0.063c0.069,0 0.15,-0.013 0.242,-0.039c0.118,-0.033 0.194,-0.076 0.228,-0.129c0.033,-0.053 0.07,-0.08 0.109,-0.08c0.034,0 0.066,0.013 0.093,0.04c0.027,0.026 0.041,0.057 0.041,0.092c0,0.11 -0.089,0.205 -0.267,0.285c-0.153,0.068 -0.301,0.102 -0.446,0.102Zm-0.04,-1.362c-0.122,0 -0.223,0.047 -0.303,0.141c-0.081,0.095 -0.141,0.236 -0.181,0.426l0.459,-0.219c0.18,-0.087 0.308,-0.163 0.385,-0.228c-0.086,-0.08 -0.206,-0.12 -0.36,-0.12Z" style="fill-rule:nonzero;"/><defs><linearGradient id="_Linear1" x1="0" y1="0" x2="1" y2="0" gradientUnits="userSpaceOnUse" gradientTransform="matrix(75,0,0,45,12.5,50)"><stop offset="0" style="stop-color:#f54b07;stop-opacity:1"/><stop offset="0.5" style="stop-color:#ae4356;stop-opacity:1"/><stop offset="1" style="stop-color:#6d3c9f;stop-opacity:1"/></linearGradient></defs></svg>