<svg xmlns="http://www.w3.org/2000/svg" xmlns:xlink="http://www.w3.org/1999/xlink" width="120" height="120" viewBox="0 0 120 120"><defs><style>.a{fill:#9e9896;}.b{clip-path:url(#a);}.c{fill:rgba(158,152,150,0.35);}.d{fill:rgba(245,75,7,0.1);}</style><clipPath id="a"><rect class="a" width="60" height="60" transform="translate(1279 888)"/></clipPath></defs><g transform="translate(-980)"><g class="b" transform="translate(-239 -888)"><path class="a" d="M0,0H166.667V.833H0Z" transform="translate(1259.78 966.214) rotate(-45)"/><path class="a" d="M0,0H166.667V.833H0Z" transform="translate(1251.447 957.881) rotate(-45)"/><path class="a" d="M0,0H166.667V.833H0Z" transform="translate(1243.113 949.548) rotate(-45)"/><path class="a" d="M0,0H166.667V.833H0Z" transform="translate(1234.78 941.214) rotate(-45)"/><path class="a" d="M0,0H166.667V.833H0Z" transform="translate(1226.447 932.881) rotate(-45)"/><path class="a" d="M0,0H166.667V.833H0Z" transform="translate(1218.113 924.548) rotate(-45)"/><path class="a" d="M0,0H166.667V.833H0Z" transform="translate(1268.113 974.548) rotate(-45)"/><path class="a" d="M0,0H166.667V.833H0Z" transform="translate(1276.447 982.881) rotate(-45)"/><path class="a" d="M0,0H166.667V.833H0Z" transform="translate(1284.78 991.214) rotate(-45)"/><path class="a" d="M0,0H166.667V.833H0Z" transform="translate(1293.113 999.548) rotate(-45)"/><path class="a" d="M0,0H166.667V.833H0Z" transform="translate(1301.447 1007.881) rotate(-45)"/></g><rect class="c" width="60" height="60" transform="translate(980 60)"/><path class="d" d="M0,0H60V60H0Z" transform="translate(980)"/></g></svg>