<svg xmlns="http://www.w3.org/2000/svg" xmlns:xlink="http://www.w3.org/1999/xlink" width="200" height="300" viewBox="0 0 200 300"><defs><style>.a{fill:#fff;}.b{clip-path:url(#a);}.c{fill:#9e9896;}.d{fill:#f5b49a;}.e{fill:rgba(245,75,7,0.75);}</style><clipPath id="a"><rect class="a" width="100" height="100" transform="translate(1269 858)"/></clipPath></defs><g transform="translate(-1720)"><g transform="translate(2880 -740) rotate(90)"><g class="b" transform="translate(-329 102)"><path class="c" d="M0,0H166.667V.833H0Z" transform="translate(1259.78 966.214) rotate(-45)"/><path class="c" d="M0,0H166.667V.833H0Z" transform="translate(1251.447 957.881) rotate(-45)"/><path class="c" d="M0,0H166.667V.833H0Z" transform="translate(1243.113 949.548) rotate(-45)"/><path class="c" d="M0,0H166.667V.833H0Z" transform="translate(1234.78 941.214) rotate(-45)"/><path class="c" d="M0,0H166.667V.833H0Z" transform="translate(1226.447 932.881) rotate(-45)"/><path class="c" d="M0,0H166.667V.833H0Z" transform="translate(1218.113 924.548) rotate(-45)"/><path class="c" d="M0,0H166.667V.833H0Z" transform="translate(1268.113 974.548) rotate(-45)"/><path class="c" d="M0,0H166.667V.833H0Z" transform="translate(1276.447 982.881) rotate(-45)"/><path class="c" d="M0,0H166.667V.833H0Z" transform="translate(1284.78 991.214) rotate(-45)"/><path class="c" d="M0,0H166.667V.833H0Z" transform="translate(1293.113 999.548) rotate(-45)"/><path class="c" d="M0,0H166.667V.833H0Z" transform="translate(1301.447 1007.881) rotate(-45)"/></g><rect class="c" width="100" height="100" transform="translate(840 1060)"/><rect class="d" width="100" height="100" transform="translate(840 960)"/><rect class="e" width="100" height="100" transform="translate(740 960)"/></g></g></svg>