<svg xmlns="http://www.w3.org/2000/svg" xmlns:xlink="http://www.w3.org/1999/xlink" width="120" height="80" viewBox="0 0 120 80"><defs><style>.a{fill:#fff;}.b{clip-path:url(#a);}.c{fill:#9e9896;}.d{fill:#f5b49a;}.e{fill:rgba(245,75,7,0.75);}</style><clipPath id="a"><rect class="a" width="40" height="40" transform="translate(1299 888)"/></clipPath></defs><g transform="translate(-285 -1141)"><g class="b" transform="translate(-934 293)"><path class="c" d="M0,0H166.667V.833H0Z" transform="translate(1259.78 966.214) rotate(-45)"/><path class="c" d="M0,0H166.667V.833H0Z" transform="translate(1251.447 957.881) rotate(-45)"/><path class="c" d="M0,0H166.667V.833H0Z" transform="translate(1243.113 949.548) rotate(-45)"/><path class="c" d="M0,0H166.667V.833H0Z" transform="translate(1234.78 941.214) rotate(-45)"/><path class="c" d="M0,0H166.667V.833H0Z" transform="translate(1226.447 932.881) rotate(-45)"/><path class="c" d="M0,0H166.667V.833H0Z" transform="translate(1218.113 924.548) rotate(-45)"/><path class="c" d="M0,0H166.667V.833H0Z" transform="translate(1268.113 974.548) rotate(-45)"/><path class="c" d="M0,0H166.667V.833H0Z" transform="translate(1276.447 982.881) rotate(-45)"/><path class="c" d="M0,0H166.667V.833H0Z" transform="translate(1284.78 991.214) rotate(-45)"/><path class="c" d="M0,0H166.667V.833H0Z" transform="translate(1293.113 999.548) rotate(-45)"/><path class="c" d="M0,0H166.667V.833H0Z" transform="translate(1301.447 1007.881) rotate(-45)"/></g><rect class="c" width="40" height="40" transform="translate(325 1141)"/><rect class="d" width="40" height="40" transform="translate(325 1181)"/><rect class="e" width="40" height="40" transform="translate(285 1181)"/></g></svg>