<svg xmlns="http://www.w3.org/2000/svg" xmlns:xlink="http://www.w3.org/1999/xlink" width="100" height="100" viewBox="0 0 100 100"><defs><style>.a{fill:#fff;}.b{clip-path:url(#a);}.c{fill:rgba(158,152,150,0.35);}</style><clipPath id="a"><rect class="a" width="100" height="100" transform="translate(1269 858)"/></clipPath></defs><g class="b" transform="translate(-1269 -858)"><path class="c" d="M0,0H166.667V.833H0Z" transform="translate(1259.78 966.214) rotate(-45)"/><path class="c" d="M0,0H166.667V.833H0Z" transform="translate(1251.447 957.881) rotate(-45)"/><path class="c" d="M0,0H166.667V.833H0Z" transform="translate(1243.113 949.548) rotate(-45)"/><path class="c" d="M0,0H166.667V.833H0Z" transform="translate(1234.78 941.214) rotate(-45)"/><path class="c" d="M0,0H166.667V.833H0Z" transform="translate(1226.447 932.881) rotate(-45)"/><path class="c" d="M0,0H166.667V.833H0Z" transform="translate(1218.113 924.548) rotate(-45)"/><path class="c" d="M0,0H166.667V.833H0Z" transform="translate(1268.113 974.548) rotate(-45)"/><path class="c" d="M0,0H166.667V.833H0Z" transform="translate(1276.447 982.881) rotate(-45)"/><path class="c" d="M0,0H166.667V.833H0Z" transform="translate(1284.78 991.214) rotate(-45)"/><path class="c" d="M0,0H166.667V.833H0Z" transform="translate(1293.113 999.548) rotate(-45)"/><path class="c" d="M0,0H166.667V.833H0Z" transform="translate(1301.447 1007.881) rotate(-45)"/></g></svg>