<svg xmlns="http://www.w3.org/2000/svg" xmlns:xlink="http://www.w3.org/1999/xlink" viewBox="0 0 89 49"><defs><style>.a,.f{fill:#fff;}.b{fill:rgba(255,255,255,0);}.c{clip-path:url(#a);}.d{clip-path:url(#b);}.e{fill:#9e9896;}.f{stroke:rgba(158,152,150,0.35);}.g{fill:rgba(245,75,7,0.75);font-size:19px;font-family:Geomanist-Book, Geomanist;}.h{stroke:none;}.i{fill:none;}</style><clipPath id="a"><rect class="a" width="84" height="44" rx="1" transform="translate(636 159)"/></clipPath><clipPath id="b"><rect class="a" width="100" height="100" transform="translate(1269 858)"/></clipPath></defs><g transform="translate(-220 -30)"><rect class="b" width="84" height="44" rx="1" transform="translate(225 35)"/><g class="c" transform="translate(-411 -124)"><g transform="translate(-312 -829)"><g class="d" transform="translate(-329 102)"><path class="e" d="M0,0H166.667V.833H0Z" transform="translate(1259.78 966.214) rotate(-45)"/><path class="e" d="M0,0H166.667V.833H0Z" transform="translate(1251.447 957.881) rotate(-45)"/><path class="e" d="M0,0H166.667V.833H0Z" transform="translate(1243.113 949.548) rotate(-45)"/><path class="e" d="M0,0H166.667V.833H0Z" transform="translate(1234.78 941.214) rotate(-45)"/><path class="e" d="M0,0H166.667V.833H0Z" transform="translate(1226.447 932.881) rotate(-45)"/><path class="e" d="M0,0H166.667V.833H0Z" transform="translate(1218.113 924.548) rotate(-45)"/><path class="e" d="M0,0H166.667V.833H0Z" transform="translate(1268.113 974.548) rotate(-45)"/><path class="e" d="M0,0H166.667V.833H0Z" transform="translate(1276.447 982.881) rotate(-45)"/><path class="e" d="M0,0H166.667V.833H0Z" transform="translate(1284.78 991.214) rotate(-45)"/><path class="e" d="M0,0H166.667V.833H0Z" transform="translate(1293.113 999.548) rotate(-45)"/><path class="e" d="M0,0H166.667V.833H0Z" transform="translate(1301.447 1007.881) rotate(-45)"/></g></g></g><g class="f" transform="translate(220 30)"><rect class="h" width="84" height="44" rx="1"/><rect class="i" x="0.5" y="0.5" width="83" height="43" rx="0.5"/></g><text class="g" transform="translate(262 59)"><tspan x="-20.596" y="0">Links</tspan></text></g></svg>