<?xml version="1.0" encoding="UTF-8" standalone="no"?><!DOCTYPE svg PUBLIC "-//W3C//DTD SVG 1.1//EN" "http://www.w3.org/Graphics/SVG/1.1/DTD/svg11.dtd"><svg width="100%" height="100%" viewBox="0 0 1017 677" version="1.1" xmlns="http://www.w3.org/2000/svg" xmlns:xlink="http://www.w3.org/1999/xlink" xml:space="preserve" xmlns:serif="http://www.serif.com/" style="fill-rule:evenodd;clip-rule:evenodd;stroke-linejoin:round;stroke-miterlimit:1.41421;"><rect id="Women-In-Tech" serif:id="Women In Tech" x="0.119" y="0.16" width="1016" height="676" style="fill:none;"/><clipPath id="_clip1"><rect x="83.119" y="168.54" width="850" height="339.24"/></clipPath><g clip-path="url(#_clip1)"><g id="WiT_Gradient_Logo-2"><path d="M201.565,225.707l-31.906,116.783c-0.158,0.572 -0.681,0.971 -1.274,0.97l-37.696,0c-0.595,0 -1.119,-0.402 -1.274,-0.977l-46.249,-172.279c-0.031,-0.112 -0.046,-0.228 -0.046,-0.344c0,-0.724 0.596,-1.319 1.319,-1.32l35.696,0c0.605,0.009 1.131,0.433 1.267,1.023l29.234,126.644c0.09,0.373 0.425,0.637 0.808,0.637c0.384,0 0.719,-0.264 0.809,-0.637l33.597,-126.73c0.172,-0.568 0.707,-0.953 1.3,-0.937l30.441,0c0.597,0.001 1.122,0.407 1.274,0.984l33.604,126.729c0.089,0.373 0.425,0.637 0.808,0.637c0.383,0 0.719,-0.264 0.809,-0.637l29.478,-126.69c0.137,-0.594 0.67,-1.02 1.28,-1.023l35.451,0c0.724,0.001 1.32,0.596 1.32,1.32c0,0.116 -0.016,0.232 -0.046,0.344l-46.005,172.273c-0.155,0.574 -0.679,0.976 -1.274,0.977l-37.94,0c-0.593,0 -1.117,-0.399 -1.274,-0.971l-31.907,-116.776c-0.099,-0.36 -0.428,-0.611 -0.802,-0.611c-0.373,0 -0.703,0.251 -0.802,0.611Z" style="fill:url(#_Linear2);fill-rule:nonzero;"/><path d="M385.918,209.523c39.966,0 70.44,29.484 70.44,68.968c0,39.485 -29.478,68.217 -70.44,68.217c-40.719,0 -70.19,-28.739 -70.19,-68.217c0,-39.735 30.474,-68.968 70.19,-68.968Zm0,106.704c20.732,0 35.966,-15.492 35.966,-37.736c0,-22.243 -15.234,-38.481 -35.966,-38.481c-20.733,0 -35.722,15.993 -35.722,38.481c0,22.238 15.234,37.736 35.722,37.736Z" style="fill:url(#_Linear3);fill-rule:nonzero;"/><path d="M658.888,343.454l-31.828,0c-0.724,0 -1.32,-0.596 -1.32,-1.32l0,-76.89c0,-15.491 -7.742,-24.738 -20.461,-24.738c-12.488,0 -21.234,9.24 -21.234,24.989l0,76.639c0,0.724 -0.596,1.32 -1.32,1.32l-31.854,0c-0.724,0 -1.32,-0.596 -1.32,-1.32l0,-78.137c0,-14.746 -7.492,-23.491 -20.231,-23.491c-12.237,0 -21.234,9.24 -21.234,24.738l0,76.89c0,0.724 -0.596,1.32 -1.32,1.32l-31.827,0c-0.725,0 -1.321,-0.596 -1.321,-1.32l0,-128.05c0,-0.725 0.596,-1.32 1.321,-1.32l31.081,0c0.725,0 1.32,0.595 1.32,1.32l0,13.927c4.746,-8.997 16.238,-18.482 33.973,-18.482c16.739,0 28.977,7.499 35.722,19.492c7.723,-12 21.227,-19.498 38.745,-19.498c29.702,0 44.461,19.742 44.461,47.728l0,84.883c0,0 0,0 0,0c0,0.724 -0.596,1.32 -1.32,1.32c-0.011,0 -0.022,0 -0.033,0Z" style="fill:url(#_Linear4);fill-rule:nonzero;"/><path d="M739.87,209.523c40.467,0 63.444,26.989 63.444,69.721c0,2.099 0,4.191 -0.145,6.29c-0.059,0.681 -0.637,1.211 -1.321,1.208l-90.737,0c0.753,17.491 14.739,29.986 33.973,29.986c16.627,0 26.666,-9.241 30.943,-14.91c0.249,-0.337 0.643,-0.536 1.062,-0.536c0.286,0 0.564,0.093 0.793,0.265l20.732,15.729c0.529,0.401 0.678,1.142 0.343,1.716c-5.676,9.584 -23.049,27.722 -54.375,27.722c-41.966,0 -68.691,-28.989 -68.691,-68.216c0,-39.491 26.725,-68.975 63.979,-68.975Zm28.441,54.725c-0.746,-15.993 -12.237,-26.488 -27.973,-26.488c-16.237,0 -26.725,11.498 -28.223,26.488l56.196,0Z" style="fill:url(#_Linear5);fill-rule:nonzero;"/><path d="M933.119,267.997l0,74.137c0,0.724 -0.596,1.32 -1.32,1.32l-31.827,0c-0.725,0 -1.32,-0.596 -1.32,-1.32l0,-78.137c0,-14.521 -9.994,-23.491 -21.729,-23.491c-14.238,0 -23.228,10.494 -23.228,24.487l0,77.141c0,0.724 -0.595,1.32 -1.32,1.32l-31.827,0c-0.724,0 -1.32,-0.596 -1.32,-1.32l0,-128.05c0,-0.725 0.596,-1.32 1.32,-1.32l31.081,0c0.725,0 1.321,0.595 1.321,1.32l0,13.927c5.498,-8.997 17.986,-18.482 34.982,-18.482c37.194,-0.006 45.187,30.726 45.187,58.468Z" style="fill:url(#_Linear6);fill-rule:nonzero;"/><path d="M416.24,402.429l7.261,0c0.724,0 1.32,0.596 1.32,1.32l0,100.13c0,0.724 -0.596,1.32 -1.32,1.32l-7.261,0c-0.724,0 -1.32,-0.596 -1.32,-1.32l0,-100.13c0,-0.724 0.596,-1.32 1.32,-1.32Z" style="fill:url(#_Linear7);fill-rule:nonzero;"/><path d="M534.455,438.501l0,65.411c0,0.724 -0.596,1.32 -1.32,1.32l-7.26,0c-0.724,0 -1.32,-0.596 -1.32,-1.32l0,-64.619c0,-18.811 -11.881,-30.296 -27.921,-30.296c-18.019,0 -30.89,13.465 -30.89,33.464l0,61.451c0,0.724 -0.596,1.32 -1.32,1.32l-7.261,0c-0.724,0 -1.32,-0.596 -1.32,-1.32l0,-100.163c0,-0.724 0.596,-1.32 1.32,-1.32l7.261,0c0.724,0 1.32,0.596 1.32,1.32l0,14.95c5.148,-10.296 17.623,-18.811 32.079,-18.811c21.187,-0.033 36.632,14.62 36.632,38.613Z" style="fill:url(#_Linear8);fill-rule:nonzero;"/><path d="M582.566,375.895l-39.141,0c-0.362,0 -0.66,-0.298 -0.66,-0.66l0,-7.987c0,-0.362 0.298,-0.66 0.66,-0.66l88.381,0c0.362,0 0.66,0.298 0.66,0.66l0,7.987c0,0.362 -0.298,0.66 -0.66,0.66l-39.128,0l0,128.644c0,0.362 -0.298,0.66 -0.66,0.66l-8.778,0c-0.362,0 -0.66,-0.298 -0.66,-0.66l-0.014,-128.644Z" style="fill:url(#_Linear9);fill-rule:nonzero;"/><path d="M677.165,399.862c27.062,-0.344 48.943,21.946 48.943,48.988l0,6.654l-87.503,0c0,27.326 17.425,43.167 41.979,43.167c18.613,0 29.042,-8.924 35.068,-17.102c0.211,-0.284 0.613,-0.352 0.905,-0.152l4.963,3.459c0.59,0.409 0.744,1.227 0.344,1.822c-6.918,10.547 -19.842,21.108 -41.28,21.108c-30.296,0 -52.276,-21.583 -52.276,-53.662c0.013,-33.425 22.996,-53.926 48.857,-54.282Zm38.646,46.923c-1.188,-25.742 -18.812,-37.821 -38.217,-37.821c-18.613,0 -36.435,12.673 -38.415,37.821l76.632,0Z" style="fill:url(#_Linear10);fill-rule:nonzero;"/><path d="M829.59,422.402c-0.214,0.47 -0.685,0.773 -1.201,0.773c-0.355,0 -0.696,-0.143 -0.944,-0.397c-8.587,-8.702 -20.314,-13.609 -32.54,-13.616c-23.564,0 -40.989,19.405 -40.989,44.553c0,24.554 18.019,44.751 41.187,44.751c17.161,0 27.993,-9.326 32.87,-14.362c0.249,-0.254 0.589,-0.397 0.944,-0.397c0.534,0 1.018,0.325 1.221,0.819l2.489,6.086c0.175,0.444 0.097,0.95 -0.205,1.32c-3.921,4.62 -17.115,15.841 -37.517,15.841c-29.901,0 -51.484,-23.96 -51.484,-54.058c0,-30.098 22.177,-53.86 51.484,-53.86c19.564,0 32.204,9.656 37.22,14.99c0.366,0.39 0.46,0.965 0.238,1.452l-2.773,6.105Z" style="fill:url(#_Linear11);fill-rule:nonzero;"/><path d="M933.119,438.501l0,65.411c0,0.724 -0.596,1.32 -1.32,1.32l-7.26,0c-0.725,0 -1.32,-0.596 -1.32,-1.32l0,-64.619c0,-18.811 -11.881,-30.296 -27.921,-30.296c-18.019,0 -30.89,13.465 -30.89,33.464l0,61.451c0,0.724 -0.596,1.32 -1.32,1.32l-7.261,0c-0.724,0 -1.32,-0.596 -1.32,-1.32l0,-140.558c0,-0.724 0.596,-1.32 1.32,-1.32l7.261,0c0.724,0 1.32,0.596 1.32,1.32l0,55.345c5.148,-10.296 17.623,-18.811 32.079,-18.811c21.187,-0.033 36.632,14.62 36.632,38.613Z" style="fill:url(#_Linear12);fill-rule:nonzero;"/></g></g><defs><linearGradient id="_Linear2" x1="0" y1="0" x2="1" y2="0" gradientUnits="userSpaceOnUse" gradientTransform="matrix(852.785,337.946,-337.946,852.785,69.4101,194.144)"><stop offset="0" style="stop-color:#e04216;stop-opacity:1"/><stop offset="1" style="stop-color:#e79500;stop-opacity:1"/></linearGradient><linearGradient id="_Linear3" x1="0" y1="0" x2="1" y2="0" gradientUnits="userSpaceOnUse" gradientTransform="matrix(852.785,337.946,-337.946,852.785,83.5682,158.415)"><stop offset="0" style="stop-color:#e04216;stop-opacity:1"/><stop offset="1" style="stop-color:#e79500;stop-opacity:1"/></linearGradient><linearGradient id="_Linear4" x1="0" y1="0" x2="1" y2="0" gradientUnits="userSpaceOnUse" gradientTransform="matrix(852.785,337.946,-337.946,852.785,106.505,100.535)"><stop offset="0" style="stop-color:#e04216;stop-opacity:1"/><stop offset="1" style="stop-color:#e79500;stop-opacity:1"/></linearGradient><linearGradient id="_Linear5" x1="0" y1="0" x2="1" y2="0" gradientUnits="userSpaceOnUse" gradientTransform="matrix(852.785,337.946,-337.946,852.785,131.917,36.4245)"><stop offset="0" style="stop-color:#e04216;stop-opacity:1"/><stop offset="1" style="stop-color:#e79500;stop-opacity:1"/></linearGradient><linearGradient id="_Linear6" x1="0" y1="0" x2="1" y2="0" gradientUnits="userSpaceOnUse" gradientTransform="matrix(852.785,337.946,-337.946,852.785,148.412,-5.21814)"><stop offset="0" style="stop-color:#e04216;stop-opacity:1"/><stop offset="1" style="stop-color:#e79500;stop-opacity:1"/></linearGradient><linearGradient id="_Linear7" x1="0" y1="0" x2="1" y2="0" gradientUnits="userSpaceOnUse" gradientTransform="matrix(852.785,337.946,-337.946,852.785,28.0381,298.544)"><stop offset="0" style="stop-color:#e04216;stop-opacity:1"/><stop offset="1" style="stop-color:#e79500;stop-opacity:1"/></linearGradient><linearGradient id="_Linear8" x1="0" y1="0" x2="1" y2="0" gradientUnits="userSpaceOnUse" gradientTransform="matrix(852.785,337.946,-337.946,852.785,36.8234,276.379)"><stop offset="0" style="stop-color:#e04216;stop-opacity:1"/><stop offset="1" style="stop-color:#e79500;stop-opacity:1"/></linearGradient><linearGradient id="_Linear9" x1="0" y1="0" x2="1" y2="0" gradientUnits="userSpaceOnUse" gradientTransform="matrix(852.785,337.946,-337.946,852.785,59.6479,218.783)"><stop offset="0" style="stop-color:#e04216;stop-opacity:1"/><stop offset="1" style="stop-color:#e79500;stop-opacity:1"/></linearGradient><linearGradient id="_Linear10" x1="0" y1="0" x2="1" y2="0" gradientUnits="userSpaceOnUse" gradientTransform="matrix(852.785,337.946,-337.946,852.785,63.0934,210.077)"><stop offset="0" style="stop-color:#e04216;stop-opacity:1"/><stop offset="1" style="stop-color:#e79500;stop-opacity:1"/></linearGradient><linearGradient id="_Linear11" x1="0" y1="0" x2="1" y2="0" gradientUnits="userSpaceOnUse" gradientTransform="matrix(852.785,337.946,-337.946,852.785,78.9808,169.992)"><stop offset="0" style="stop-color:#e04216;stop-opacity:1"/><stop offset="1" style="stop-color:#e79500;stop-opacity:1"/></linearGradient><linearGradient id="_Linear12" x1="0" y1="0" x2="1" y2="0" gradientUnits="userSpaceOnUse" gradientTransform="matrix(852.785,337.946,-337.946,852.785,94.624,130.528)"><stop offset="0" style="stop-color:#e04216;stop-opacity:1"/><stop offset="1" style="stop-color:#e79500;stop-opacity:1"/></linearGradient></defs></svg>